<mxfile host="app.diagrams.net" modified="2023-06-10T21:44:12.800Z" agent="Mozilla/5.0 (Macintosh; Intel Mac OS X 10_15_7) AppleWebKit/537.36 (KHTML, like Gecko) Chrome/114.0.0.0 Safari/537.36" etag="Npam09msIPwb_TVXXdNV" version="21.3.8" type="device">
  <diagram name="Page-1" id="CH1tM6eSgwV7IXzpTIfA">
    <mxGraphModel dx="1306" dy="868" grid="1" gridSize="10" guides="1" tooltips="1" connect="1" arrows="1" fold="1" page="1" pageScale="1" pageWidth="850" pageHeight="1100" math="0" shadow="0">
      <root>
        <mxCell id="0" />
        <mxCell id="1" parent="0" />
        <mxCell id="D4EZMHhwG_tkHi3E7BcQ-4" value="" style="endArrow=none;html=1;rounded=0;strokeWidth=3;" parent="1" edge="1">
          <mxGeometry width="50" height="50" relative="1" as="geometry">
            <mxPoint x="555.56" y="780" as="sourcePoint" />
            <mxPoint x="815.56" y="660" as="targetPoint" />
          </mxGeometry>
        </mxCell>
        <mxCell id="D4EZMHhwG_tkHi3E7BcQ-7" value="" style="endArrow=none;html=1;rounded=0;strokeWidth=3;fontStyle=1" parent="1" edge="1">
          <mxGeometry width="50" height="50" relative="1" as="geometry">
            <mxPoint x="410" y="700" as="sourcePoint" />
            <mxPoint x="700" y="590" as="targetPoint" />
          </mxGeometry>
        </mxCell>
        <mxCell id="D4EZMHhwG_tkHi3E7BcQ-8" value="" style="endArrow=none;html=1;rounded=0;strokeWidth=3;fontStyle=1" parent="1" edge="1">
          <mxGeometry width="50" height="50" relative="1" as="geometry">
            <mxPoint x="820" y="660" as="sourcePoint" />
            <mxPoint x="700" y="590" as="targetPoint" />
          </mxGeometry>
        </mxCell>
        <mxCell id="D4EZMHhwG_tkHi3E7BcQ-9" value="" style="endArrow=none;html=1;rounded=0;strokeWidth=3;fontStyle=1" parent="1" edge="1">
          <mxGeometry width="50" height="50" relative="1" as="geometry">
            <mxPoint x="560" y="780" as="sourcePoint" />
            <mxPoint x="410" y="700" as="targetPoint" />
          </mxGeometry>
        </mxCell>
        <mxCell id="9RCpdgvjtAtGVtdAYFdB-3" value="" style="shape=image;verticalLabelPosition=bottom;labelBackgroundColor=default;verticalAlign=top;aspect=fixed;imageAspect=0;image=data:image/png,iVBORw0KGgoAAAANSUhEUgAAAMIAAAIsCAYAAACgMHbqAAAMQGlDQ1BJQ0MgUHJvZmlsZQAASImVVwdYU8kWnluSkEBogQhICb0JIr1ICaGFICBVsBGSAKHEGAgidnRRwbWgIgo2dFVE0bUAslbE7qLY+6KIgLIuFuzKmxTQZV/53nzf3PnvP2f+c+bcuXPvAKBxkisWZ6OaAOSI8iQxoYGMCUnJDFIXwIE2AEATeHB5uWJmdHQEvAOD7d/Lu1sAkbXXHWRa/+z/r0WLL8jlAYBEQ5zKz+XlQHwIALyKJ5bkAUCU8eYz8sQyDCvQkcAAIV4iw+kKXCXDqQq8X24TF8OCuAUAFTUuV5IOgPpVyDPyeelQQ70PYicRXygCQIMBsV9OzjQ+xCkQ20AbMcQyfc/UH3TS/6aZOqTJ5aYPYcVc5EUlSJgrzubO/D/T8b9LTrZ00IcVrGoZkrAY2Zxh3u5kTePIsBrEvaLUyCiI4VNEPgj5cnuIUUqGNCxeYY8a8nJZMGeADrETnxvEgdgQ4hBRdmSEkk9NE4awgWwlALRAmMeOg1gP4iWC3OBYpc0WybQYpS+0Pk3CYir581yJ3K/M1yNpVjxTqf86Q8BW6mPqhRlxiRBTILbIFyZEQqwOsWNuVixHaTO2MIMVOWgjkcbI4reAOEYgCg1U6GP5aZKQGKV9SU7u4HyxLRlCdqQSH8jLiAtT5Adr4XHl8cO5YFcFImb8oI4gd0LE4Fz4gqBgxdyxboEoPlap80GcFxijGItTxNnRSnvcTJAdKuPNIHbNzY9VjsUT8uCCVOjjaeK86DhFnHhhJjc8WhEPvhJEABYIAgwghTUVTAOZQNja29AL7xQ9IYALJCAdCICDkhkckSjvEcFrLCgEf0IkALlD4wLlvQKQD/mvQ6zi6gDS5L358hFZ4BnEOYADsuG9VD5KNOQtATyFjPAf3rmw8mC82bDK+v89P8h+Z5iQiVAy0kGPDI1BS2IwMYgYRgwh2uIGuB/ug0fAawCszrgn7jU4j+/2hGeENsITwk1CO+HuVGGRZFiU40A71A9R5iL1x1zgVlDTDQ/EfaE6VMbpuAFwwF2hHybuDz27QZaljFuWFcYw7b/N4IenobQjO5FR8ghyANlm+Eh1O3W3IRVZrn/MjyLW1KF8s4Z6hvtn/ZB9Pmw5wy2xJdhB7Bx2CruAHcUaAAM7gTVil7FjMjy0up7KV9egtxh5PFlQR/gPf4NPVpbJXKdapx6nL4q+PEGBbI8GrGnimRJhekYegwm/CAIGW8RzHMVwdnJ2AUD2fVFsX2/o8u8GQr/4nVtoCoDvzIGBgaPfOQ7cWw8eg6//ve+cdSfcJi4CcH4dTyrJV3C47EKAu4QGfNP0gTEwBzZwPs7AHfiAABAMwkEUiANJYAqMPgOucwmYAWaDBaAYlIKVYC3YADaDbWAX2AsOgAZwFJwCZ8ElcBXcBPfh6ukEL0AfeAc+IwhCQqgIDdFHTBBLxB5xRjwRPyQYiUBikCQkBUlHRIgUmY0sREqRMmQDshWpQX5FjiCnkAtIG3IXeYz0IK+RTyiGqqE6qBFqhY5GPVEmykHj0MloOjodLUQXocvRCrQa3YPWo6fQS+hNtB19gfZjAFPF6Jgp5oB5YiwsCkvG0jAJNhcrwcqxaqwOa4LP+TrWjvViH3EiTsMZuANcwWF4PM7Dp+Nz8WX4BnwXXo+34Nfxx3gf/o1AJRgS7AneBDZhAiGdMINQTCgn7CAcJpyB71In4R2RSKQTrYke8F1MImYSZxGXETcS9xFPEtuIHcR+EomkT7In+ZKiSFxSHqmYtJ60h3SCdI3USfqgoqpiouKsEqKSrCJSKVIpV9mtclzlmkqXymeyJtmS7E2OIvPJM8kryNvJTeQr5E7yZ4oWxZriS4mjZFIWUCoodZQzlAeUN6qqqmaqXqrjVYWq81UrVPernld9rPpRTVvNTo2lNklNqrZcbafaSbW7am+oVKoVNYCaTM2jLqfWUE9TH1E/qNPUHdXZ6nz1eeqV6vXq19RfapA1LDWYGlM0CjXKNQ5qXNHo1SRrWmmyNLmaczUrNY9o3tbs16JpjdGK0srRWqa1W+uCVrc2SdtKO1ibr71Ie5v2ae0OGkYzp7FoPNpC2nbaGVqnDlHHWoetk6lTqrNXp1WnT1db11U3QbdAt1L3mG47HaNb0dn0bPoK+gH6LfqnEUYjmCMEI5aOqBtxbcR7vZF6AXoCvRK9fXo39T7pM/SD9bP0V+k36D80wA3sDMYbzDDYZHDGoHekzkifkbyRJSMPjLxniBraGcYYzjLcZnjZsN/I2CjUSGy03ui0Ua8x3TjAONN4jfFx4x4TmomfidBkjckJk+cMXQaTkc2oYLQw+kwNTcNMpaZbTVtNP5tZm8WbFZntM3toTjH3NE8zX2PebN5nYWIxzmK2Ra3FPUuypadlhuU6y3OW762srRKtFls1WHVb61mzrQuta60f2FBt/G2m21Tb3LAl2nraZtlutL1qh9q52WXYVdpdsUft3e2F9hvt20YRRnmNEo2qHnXbQc2B6ZDvUOvw2JHuGOFY5Njg+HK0xejk0atGnxv9zcnNKdtpu9P9MdpjwscUjWka89rZzpnnXOl8w4XqEuIyz6XR5ZWrvavAdZPrHTea2zi3xW7Nbl/dPdwl7nXuPR4WHikeVR63PXU8oz2XeZ73IngFes3zOur10dvdO8/7gPdfPg4+WT67fbrHWo8VjN0+tsPXzJfru9W33Y/hl+K3xa/d39Sf61/t/yTAPIAfsCOgi2nLzGTuYb4MdAqUBB4OfM/yZs1hnQzCgkKDSoJag7WD44M3BD8KMQtJD6kN6Qt1C50VejKMEMYJWxV2m23E5rFr2H3hHuFzwls4apxYzgbOkwi7CElE0zh0XPi41eMeRFpGiiIbokAUO2p11MNo6+jp0b+NJ46PHl85/lnMmJjZMediabFTY3fHvosLjFsRdz/eJl4a35ygkTApoSbhfWJQYlli+4TRE+ZMuJRkkCRMakwmJSck70junxg8ce3Ezkluk4on3ZpsPblg8oUpBlOypxybqjGVO/VgCiElMWV3yhduFLea25/KTq1K7eOxeOt4L/gB/DX8HoGvoEzQleabVpbWne6bvjq9J8M/ozyjV8gSbhC+ygzL3Jz5Pisqa2fWQHZi9r4clZyUnCMibVGWqGWa8bSCaW1ie3GxuH269/S10/skHMmOXCR3cm5jng78kb8stZH+JH2c75dfmf9hRsKMgwVaBaKCyzPtZi6d2VUYUvjLLHwWb1bzbNPZC2Y/nsOcs3UuMjd1bvM883mL5nXOD52/awFlQdaC34ucisqK3i5MXNi0yGjR/EUdP4X+VFusXiwpvr3YZ/HmJfgS4ZLWpS5L1y/9VsIvuVjqVFpe+mUZb9nFn8f8XPHzwPK05a0r3FdsWklcKVp5a5X/ql1lWmWFZR2rx62uX8NYU7Lm7dqpay+Uu5ZvXkdZJ13XXhFR0bjeYv3K9V82ZGy4WRlYua/KsGpp1fuN/I3XNgVsqttstLl086ctwi13toZura+2qi7fRtyWv+3Z9oTt537x/KVmh8GO0h1fd4p2tu+K2dVS41FTs9tw94patFZa27Nn0p6re4P2NtY51G3dR99Xuh/sl+5//mvKr7cOcA40H/Q8WHfI8lDVYdrhknqkfmZ9X0NGQ3tjUmPbkfAjzU0+TYd/c/xt51HTo5XHdI+tOE45vuj4wInCE/0nxSd7T6Wf6mie2nz/9ITTN1rGt7Se4Zw5fzbk7OlzzHMnzvueP3rB+8KRi54XGy65X6q/7Hb58O9uvx9udW+tv+JxpfGq19WmtrFtx6/5Xzt1Pej62RvsG5duRt5suxV/687tSbfb7/DvdN/NvvvqXv69z/fnPyA8KHmo+bD8keGj6j9s/9jX7t5+7HHQ48tPYp/c7+B1vHia+/RL56Jn1GflXSZdNd3O3Ud7QnquPp/4vPOF+MXn3uI/tf6semnz8tBfAX9d7pvQ1/lK8mrg9bI3+m92vnV929wf3f/oXc67z+9LPuh/2PXR8+O5T4mfuj7P+EL6UvHV9mvTN863BwM5AwNiroQr/xXAYEXT0gB4vRMAahIANPgPQZmoOP/JC6I4s8oR+E9YcUaUF3cA6mAj+41nnQRgP6xW86E2bGW/8HEBAHVxGaqDZzX5uVJWiPAcsCVIhu6unjwfDCuKM+cPcQ9vgUzVFQxv/wVsW3yzsY1oZgAAAIplWElmTU0AKgAAAAgABAEaAAUAAAABAAAAPgEbAAUAAAABAAAARgEoAAMAAAABAAIAAIdpAAQAAAABAAAATgAAAAAAAACQAAAAAQAAAJAAAAABAAOShgAHAAAAEgAAAHigAgAEAAAAAQAAAMKgAwAEAAAAAQAAAiwAAAAAQVNDSUkAAABTY3JlZW5zaG90tMHstwAAAAlwSFlzAAAWJQAAFiUBSVIk8AAAAdZpVFh0WE1MOmNvbS5hZG9iZS54bXAAAAAAADx4OnhtcG1ldGEgeG1sbnM6eD0iYWRvYmU6bnM6bWV0YS8iIHg6eG1wdGs9IlhNUCBDb3JlIDYuMC4wIj4KICAgPHJkZjpSREYgeG1sbnM6cmRmPSJodHRwOi8vd3d3LnczLm9yZy8xOTk5LzAyLzIyLXJkZi1zeW50YXgtbnMjIj4KICAgICAgPHJkZjpEZXNjcmlwdGlvbiByZGY6YWJvdXQ9IiIKICAgICAgICAgICAgeG1sbnM6ZXhpZj0iaHR0cDovL25zLmFkb2JlLmNvbS9leGlmLzEuMC8iPgogICAgICAgICA8ZXhpZjpQaXhlbFlEaW1lbnNpb24+NTU2PC9leGlmOlBpeGVsWURpbWVuc2lvbj4KICAgICAgICAgPGV4aWY6UGl4ZWxYRGltZW5zaW9uPjE5NDwvZXhpZjpQaXhlbFhEaW1lbnNpb24+CiAgICAgICAgIDxleGlmOlVzZXJDb21tZW50PlNjcmVlbnNob3Q8L2V4aWY6VXNlckNvbW1lbnQ+CiAgICAgIDwvcmRmOkRlc2NyaXB0aW9uPgogICA8L3JkZjpSREY+CjwveDp4bXBtZXRhPgptclABAAAAHGlET1QAAAACAAAAAAAAARYAAAAoAAABFgAAARYAAEyIz3HF2AAAQABJREFUeAHsncevbdlV9e8zYBNdhcFJBGFEFCARhQRCIkjQogFI0ADbVWUD/wk5d2ggISSEACEyxhg6ZCGCyTSAhqvALpzJ2fh7v10eV/PNN8dca+2z93llf29J+8615hgzrHR2OOHe+YEf+IF33zwsVx+BO3fuXD3mTMBr5nXNWK7vyuHOw43ghuhcvSbg3Cjr3q+dF/He/e5331w7rkZGcR9uBI3IA5aakAecxtUX5IPodxXz4UZ40CvvbvxqYh5kWg8in2vGrGI93AgPcsW9J3Y1MQ8yrQeRz7Vj5ngPN8KDXHEhdp6YAF21+qDyuGbcKtbDjXDwMmOQufmLpbsZrCYl2lKXT8mMn9GeyevIuNeMV8V6uBGOnM3G12gRV5PTuDsVehC5XDtmjrdrI8RXuFg/dXaexc7zGDDI//d//3ffK3kcfGxiEYaMmNpI1cGf85zn3D52jPzo89I68a5VrhlLfYoxpzdCNdiamMqxdO+rkvH43//935v/+Z//ufn3f//3m//4j/+4+c///M+tTpvjv/7rv7bjXe961w0Hm4ODusZTY4iME8O4vd/7vd/N+7//+9980Ad90Caf+9zn3jzvec+7+cAP/MCbD/3QD715/vOfv2HC4bNBjiw5pyN9R1/XiuNi2o2gicKQJGNbzrL+QXRGuazKmLvq9JG62vhE99///d8373jHO27e8pa3bMc///M/b4ueRQ2uQ3wWI1i1KOGOCvHlq+IqP/GQHMRjo7BBXvKSl2zHh33Yh206MPHxSX5qgykvpPTwYp32WeVacXL+invRRshO1ZZztaPUgKMb8YTnyYn+9tajT+KwMHgFZ5G//e1vv3nzm99889a3vnV7pQejKJ8YM/qJ+liv7DKucZGMOHXF6XB4xBJXcbVBPvzDP/zmoz7qo25e+MIXbpuFTQNHNtjnIh9Zf3T7WnFy3opbbgQ32NkJbQ26MNp6hVGQiFHPeuFRKocZbrTr6tknlzJvfOMbb5588slt4bMRYlHs3Ef1D644uZ7b2Qd2ygduLhlz7fjKHjmxLt/EVL70gUstzh4f/dEfffNxH/dxN5w9hCs/teXjLHmtODl/xb3z/d///e+Ona4GMBsf1VYSlT/yyLjyrPhOhx8OJv5f//Vf71n4XKvnGJUfcZzERpjsc1t6yW6cHRb1sY7P2Kae24obpXKU5B7jxS9+8c3LXvay7bKK+xDG7RpFOVwjVoyhuNtGiMC16yTCpCkhxddECpc+86SPUv54teTa/q/+6q9unn766e0yJ9uLK3vhSNXBclv8LJU3+lifactXtpM+ypib9M4u63Nb9kj5RXJT/qIXvejmUz/1U7eNoU0BFs9E0X5vXXH32u+1U9wHvhHUASVEWxMlndpg0lFXAZeepzhve9vbbv7iL/5ie/VHH3HZIKWXLVJ18FinrYIdB0X13I6Y6pVE50oVXzqk6tirnqV8o1eu0kUpjMVOPfpBx9nipS996c0nfdInbWcNLqvEiX721pXfkT5nclG8Z81GmE06ThJ1CpIb3D/7sz/bXvl5rKkOOr/CJR0P39XBK2LUKw90KrEunWSHidPJmLfqyHzgQ7rsT3ZZX7XFZVPwSPcjPuIjbj7jMz5j2xy06Y84yNX+ZRv5qnI5Q/detREYgDhAXPP/6Z/+6c3f/u3f3p6qwTncqTvaxwFl4qoDP1r08MWJtqv1lUXiuE4fc9FYoGMBqy2JPtfRVQUeMcVH4pODs8SnfMqnbDfewisfM7oYZ4Z/FOe9biOwKHnS8/rXv/7mne985+3ExAGJi4SBjUWYpBY57bjoaYsT7alrslTP+Kjt/FZ2FbfSYVvps04LVbLbIPjM4xfb2QdPoD75kz/55hM/8RO3J1LY7ykxxh77PTbPmo3AhGkAYl2d4k2tv/zLv9wuf8CZQAo2muwo5QuO9HHRo9M7vNR1wFeJPqTLcoYTbZRL1HV1x6/0WZfbxKl02gxRwqVv8ZAuyljnPoKCHzbDZ3/2Z2833OIQm2NmzGY4W7CD/jxrNkLsD4OgQeOjCr//+79/83d/93fbK7YGWxMqXrSPGHq90kvKRjw36E4fY81wxFc8tUfS8Sv9Xl22oz8ccVNIR77oKdIh1cYXuGyZK97A+6zP+qybF7zgBRsvcm8VRUV+C+gU1bNyI9BTPrvz27/929sGYEAZXAY6TpzqWeqVXwtfbfGqkawGvtJVtmfpXL6Vfka3ylH/tbi1wNFz0KaonevMm3i8WfelX/qlN4888sgtv8pHPpDXLM+ajcCAMTD/8i//cnsGYCA02BoUOCxsFS1y2sLQxcsecZHEqcqqvvJxpM4tkkp/pM75Ynw4tCliW/UoGQu1ZcPG4BHs533e5908+uij9w0X/AdVHthGoNMMugaexcslEG9+8TiOwgCKkyW4NoGkFj9tN6ireuI4G7Cji8aj8uuwSp91uY3/GV3FwVaLm7GJddrVgY3O7OAf8zEfc/NFX/RFtzfV6Jg/OA+iPLCNQGc1yH/zN39z8wd/8AfbpzzzQGiRw+WgTUHq0AbYgPCHwc2l0sFxetmPcPH2SI1DZ+s4lX6vLtvltvKLesZFG0FSOmQ+xEHygvfpn/7p2/sRmnf4D6I80I3AJz1f85rXbPcDOgswEAy0Fjn1eKBn4UecgasGUJMQJ85xOz2YShVH2IrMOTnbjuewrM9tYs3oZjjRV3zFj3XNA4ufOpICh4PvU3D/wJt0tKu4m8GJf662ERgAdZB3fnkj7E/+5E+2jmuAwFngWUadXv3lK45NtUgrHTaVvtJF/7m+yse+yjv7VdtxV/QVd0ZXcar8Kx7zycGiZozUVh2pA47m/+M//uNvPv/zP3975Br9wj27XHUj0Jl/+7d/u/n5n//57SygQaDTHFrwWuyxTR19LHmAchtupev08u/shJ8h4+Q7/xWn0mGf9bldcRR3hjviaH7jhmBctfDjBhH3Az7gA26+7Mu+bPuQH1xiXGMurrYR6BCfBfrDP/zDe14t0LPIR0c16NUAzeo04RVfGHKER+7eetW37MtxZvUVr9IRN+tzu+Io38xl/LTgs4wYdTaDDj7x+jmf8zmbrXyfKU/fCAwMr+Svfe1rt685aufT8bz4dSZA6gyggYWfS6WDU+krnfx1mDhZrtrAV1/wFevZt9odx2GVflbn8sr2ud3lKy7919wj1UbqDBFx6nwf4iu+4ituPuRDPqScU8U9Qp6+EfhgHJdCfPuLG2ItCAYoL/jYZiPEgl0ulQ7Oql5+nZ1wJ0d2WgzOPutHfIdX+lkdOcxwK86sLTzGikWuRZ/PEmprreRLJXycUU7dCHws4td+7dduO88gMJB6tY8LHz030XkDxE4zSHki3CJc1cc41J195h3Vzv3Kfju8wiodPiv9JTrn0+mJxdgyl9oQSOm0EYSJx5twXC7JHv9HltM2wl//9V/f/MZv/MbWWe1uFrk2AVILP+ronFuER+k1gM6fcMlZnvgzslp8zs5xV/QVt9KRQ6WvdI7r9NkH48qCZ33EDYBeG0AbAsl7Dp/5mZ+5YcQ4shy+Eegsj0Z5l5jTGge6uAm0ATgj6KxQDVLV0W5ROszp5X+Ei5fljF3uV/bh2p2dwyp9pSNmpa90R3CdD/SUuNjjhoh1bZaP/diPvfniL/5i+2L5jMf1v4dtBAaRhcH3BP7oj/5o2+UkT9EmYANo8UuCueIWmtPjZy82snU5Hql3C1ExOrzCZnX4n+VWPGc/yjv6YtGzXrQp8iZgXsGRfF7py7/8y9u5VuxZechGoEMk+Lu/+7vbdwboDGcCii57tPDjZoibwC3gVb06vtdO9pKVH/VXnL0yLoTOR8ersFkdMS/lrvpwfPQsftaOXv2pa0PETcKcvOzuL23wWSXwI8ohG4HE+LDcb/3Wb20bgKQp2gRx8WtDgGGniaDuyhmYYnW+xYlylR9tqau/WZ/bM7yKc4muy2/Wb/aBncas8qF+C4ubIZ8dtBm0vj7hEz7h5gu/8As3F4ohf6vykI3AD2S97nWvu70cojN0jF+UYOFrI0iq0znZUWc6fC+mHDp7cc6WblxiXMeZ1c/yFLPiVzr4q3pnw1yw2LXwdWaIG0NXHJ/2aZ9287mf+7m3m015r8qLN8I//uM/3vzUT/3UdooiOTrBgGgDsPi1AdC5wVLiowV5Nj6bh3iXytF4yH/Hq7BLdMSs7J1+hTvTH3HyZmAjxM1Bm8Kbbtw3XFIu2gh8i+wnfuIntkXPJtCZgMsezgbaANoMccBGC1qdcjynH9kJR458RO4efraP/c9Ybo+4Dl/RV9xKR24resft/FQY88PC19qiHi+d1Mb2a77ma7Z3olfnFFvKro1AMBb7z/3cz20/lBt/TBY9C18bQZsBfS6zSXe8Dts6eDfXURn5GNkfiXeLiDgd7rBKf4muy2PWbx6zyg4Oc6PNoEsjSfTU4fBV0K/6qq/a2tn3THvXRsAx7xX83u/93u3NMTtVN8JxE7ARqk2g5GYX4Yh3KU4+Ix/K+WjpFkGOU/EqnewqbFaHj7O4ys/FyHrmhV/W08KXZBNQ56DwHsOXfMmX7JrHXRuB7xX/2I/92Haa4mxAQgyaLoHYCNoM3SbYsk9/RovxbDymM4oVubP1anF1to7v9PhyWNbndswjY7ktbqWvdB1/BuOFVpuBOpdL2ghI2qw/NsLL7j5aXS3LG4Fg3ByzGQiu3aibY20AbYqVhBhALT5JZ3827uJKP4oPr1sQ8lPJzs5hTu/ycPxKP6tbjRX7XsWIOHVthrwJdFZgTqh/7dd+7e13obMP117aCCTLdwp440y7k93Iqz4bgR/h0kZAqqiTM4tHNpIjmxGOn6M4yuloqfHp/DqO08tXxnPb8dBfynX2XcwOYx5Z6GyEuBnQ6eyAPT9B+QVf8AVyNSWXNgKL+0d+5Ee2AWIjEJzk2ARgbATOBEgGYTQQyvCIhTryMcKVi+QqX3YjOTsm8uP4Tt/ZOZtKf4mOHCr7Tt/lLQzJvLD2dDWis4EkZw3W4Fd/9Vff8B+CZsvSRvid3/md7YwQdyQdZhPo0GaYTSDzRgsQnMMNNP5GPmY5ObfYzjFyTl1+0U+uj+wqHF2OH/06m8hRveKCVfpZnbMfxRQuSTz6yQuwrkjihqDORoDH77DyFIn2TJneCHzX+Ed/9Ec3xwpOUrok0pmADbF6g5wTxe+oHMGZ8THK4yi8WlTZd8dxWKWvdMSq9EfrYp8q3zM488YajJuBti6PdFZgI3BWmJnndiOQKE6Q3BfwyJSA2gjotQHi/UHsjOpVp2cSlH3H7TDsR7hiRLnHJtq7ejUOjou+4zvsCH3lQzqkxke63IdVveydnXAkHC6F2AjaDLS1LtkQvBjzu6t8SnWmtBuBzhIUpz/8wz+8LXptBHYdet0bsBF0bxADz3RMgxrtqvoMb8QZ4XvjVnboZvpf2Y7sHL6iv5Rb2Ve6bhwcvxoT+dEcaiNoA0iyKSiszZe//OW3v8i9Kc2fdiOQJEH5fwS8i0wggusmmbOBNgLfSaZNWe1czE2djLpcH3FGuPzN8sQ/Q66MVcd1WKWvdPSt0s/qVuwdF71KFVeYJOuQ97FYk3qB1pkBDuuR/+rDbyUx153PdiPgDOOf/Mmf3P4pB0FiIJ0FkGwEBZLE/pIyWqgjnNgznCrHvXaVr0q3MkYjbsZzW/GdHrzCjtbtzUN2leQfHuryKErmj/tXdF//9V8/vGluNwIDwQLnsohLIe066mDaAEh3k1wNZuzQzIK7JifmpvpMfHGzHPU/89Xu7FYxx1/RV9xZHX2quDN9FSdK+WJeWJOcFbQ2JTlbwGNdft3Xfd32c/TRR64PNwKXRfwci84ESDaC3jvgn3azWWgrQQXJbekrObPYjuIo/ow/ca8hR+O1B69sKp36l7Hcdjz0FbfSdT6EOX8RZ/5YizoraBMgWacUNgK/gMGX/snFzXm7EXDEt854N1lBCICz+LSIzcCNszotif2e4pKNvo7irPqM/L311fHp+A47Ql/5qHSMQ9bntsbK6Wdx8aLkR4R1VtDlUVynPELlY9pdGW6EH//xH7/hyzecarTTWIS6SdYZQR2UjEGzbmYRYz/DO4oT81V9xre4MzKPQ2cz4jr8LP2K3xWuxsDZCK8kNswRm0BnBTaAXrTBdOXyzd/8zZsLN6flRlAAXuV/8Ad/cAsm53pixEbgkogv51DHJnYm1qtORJ1LboUz40P+VriyOVPOjlXHc9gR+srHrI5xq7idXmPt7IRLsjY5K3A20BkBHZdNrGHW6RNPPLFtGNlkebsRclAWC4v8h37oh27PBASJNyGcDTi4TMJePiRzsJn2aJGOcGLMcJTLClc2R8nZcep4q5jjV/pKR98r/azO2ccxrXxFPNdZkx/8wR+8LXS3Ebg0etGLXpRNb9vbRqgCs0D+/u///uZnf/Znb2+U2WXaCHpixGbRRsBr5es22kJlZoGOOCM8p7PKz/Yz7dnxmeF1nAqrdORc6Wd1lX1lW/HQxeLsIqeqM2/8UHB+T0FnBNYq7yXw3z1daTcC/8jjN3/zN7eNoJ3GRqBwOcTZgH//qidGuSO5HZOYXXQPihdzvVa9Gy/l0HFWsYo/qyOfWW7Fm+lPjoGfaj2w4Dkj6D5Bl/FxI/Bxi6/8yq9U2Pvkne/7vu97933auwoC8u9d//iP/3jbCLoJ0UbgLMDZgA/jaSPIT9dxcaKsOreC7+GOYkafZ9ZXxspxnV55V/g1dMSv4nR5zWDiSDKXnBHcRuAegX9LxRd2XLEbAYNf//Vfv/nzP//z23sEXRoRmNMNZ4S4EbpOuwSyfmaBHsXJsWnP+K7sZnUrYzTidrjDKv0lOvo9a++4GrvKj7BOMmfaCHqMylpFr5tlvtz/Dd/wDdZNuxF+8Rd/8eYNb3jDdl+gSyM9n9WlEV/Z5IxAyR3JbTizC22GN8NZiQk3lln/0SbWq/5HvKrP2Iw4FT6rI6dLuJWt+ukwp5edZOZpfpBsBD050qURetYmZwSwxx9/XK7uk+1G+Omf/umbN73pTbfvIRBAG0GXRtoISlLyvkiFQh0poHtUM7wZDk5nefckcIXG7Lh1PIdV+kpHNyv9JTrns9ODUaq4zyD3/mVO+SJOvDTSOtVG4EzBI1Q3/+1G+Jmf+ZntyRFOObQRdBPCPcI//dM/bU+NVhK/txvPtFyCkTvDgT/LW+XGXI6oz050x9uDVTaVjj5mfW5rHCp9pev4VTzxK4l/5prjkUce2Z4a6dIo3sty9cLN9Ctf+Uq7NqY2Ak7jRqCuncZG4H4hdzq3z1icMz5nONUg77XLvvI4ZNy1Z+wcp9JXOsWusKN1XSywKp5sRpK54mMU8fEpaxafbAIOLu1f9apXbW+yVf7ajcClER+6w2neDDjj2ot/Gs6ZgaAznVlZYDPcGQ65zvLgdkV+Zvra+XHYjF/HOVNf+Z7Vqa8VH8zpZZc5mgPhrE1tBN0f6KqFF2k2AjfLu88Iv/ALv7DdLOM0bwR0BOAegYPCHfpqyZ1y9jO8GQ7+Z3kulyP1M4tA8Tquw1b0FbfSkU+lr3SOO9Onka18cNnDQudVXw91mGOuWtgI3M/yHzp33yzzrjL/EJCi+wRdIrExdMP89re/fdsEcYFRdwOjDkQZbaM+1mc48Gd5q9yYy6X1lbHpuA47Ql/5qHSMRaWvdHHcHO700TbWuT/QRyw4I7A2KbosYp3yVIlLI1faSyO+nvnUU09ttjjn0KlHwXgvgY1AUErXidkFOsNb5cDvctuST39mYkSTVf/RNtZn/DjOqp64lc2sbsVefax8Oz+ycZI54s0ynhhpbXK1QgxdFnGlwkZ59atf7dzctBtBZwScsvA5G2gzIDnYAHxMm/+n7DqYo88usBneUZyc40qbfs/k0fmcHbuO57AVfcWtdOpLhVU6+E4/whQrS/yxAbg/4JKIjcAapXBZpDMCbS6ddl8axTMCE63NEC+T2G183uitb31r21GSqcrMAprh4HuWpzxW+bLbI4mlhSA562fE7/AKq3TkkvW5HfOtsEpX+Y1+LsXZBLzaayOwRslDm4DLIsaeS6Pd7yOwEbhHYLHjTGeBuBE4DXEKYiNwmVSVmQV3TU7OcSZ2tllpuwXS+Zix6TgOq/SzOuW7wq+48oN0uNNHW9beR37kR96+kca6ZC5Zr/GyCBtuli+6R2AjkBQHgd1Zgc8cjc4KswtuhjfDYQBmeXAfdJmZfHLseA5b0Tuui13xK53Gt8NcDNlGyeUO7yjz/gGbgLXJJuAswKH7VtYAN9Q8PnWlvUfQGYHEOXBYnRXQ8Z7Cm9/85k3C4+g6DD4qMxx8zPBmOKN8zsK7ccoxHdfpsXdYpa90Z/vo/INVhTUXzwa0KTobsBG4T2DeOS6+R4hnBAIRkDNDvDxSEtwwsxkoMwvvKM5svC2x9/yZiR35R9bdYnMxOn6H4a/CK90qd5XvYjo/6F3B16OPPnr73kE+G3AmYCPAY545uI/g0sjNe3tG4KkR31JTJ+SYha9DG4I2O/Atb3nL9tHs3AmXgHgjHN4MZ4Wn2JKz/sWflRq/WT68GZuO47AV/QrX5ex8aCxGeOWXNffiF794uyTiSREvzBQ9KYpnA/TMKzfLPDUSF30s7Ubg94x4H0HJSupegcWv3YgkIDcpfCyDU1RVRotthOPzKE6VX9TNxIl86hqjrJ9tz9h3HIc5vcvZ8Y/Su7hxnKpYzAnfPdYnTVl3FN0bcDZgQ2Ab5497iccee+weXYzVboR4j4CREiOA2wzw+CAeb7KJjy6WmGDUx/pRnFWfkX+NuhujKvaI6/BKX+mI6fQd5mwqfaXLfa046FgT3PRyxI9SsAl0NkBywI1rSO8sR12M226E6tJIxmyEajNwliAxd4kke6RL6gxO9DkbO9sc2a4mu/Pf8R3m9MRxWKWvdKs+Oj4YxcV5Br3Z3jDTJZGuRLQJuBzSJRF+tLaQHPqskfTyKdluBJ0RCIaDmChttxnQY8MlEk+TXHAlgew4HRZ9jPxkbm6vxMm2rh3HzHE6fWe/iq3yycvZHKVX350/4aypl7zkJbeXRJorXv3jJtBalZ14emqktnDJqY1AklWiOI1nBd1AI9Fzv8DNdk5OwbN0SUbeDAf+LC/6zvU9Pqpxyn679oz9iFPhlU55OKzSV7o9fkY2wpHMA/cFegeZtUVhXeVNQH5x3qhz8FVNPmsUsc3Je/5ctBHwgWMt/LgRVOeMoJvnnGRMRHWXqPAoz+LGGGfXu4WVY4+4Dl/VE7eyqXSOq9z32DCvevHEnsshrvF5QsS6onAmgKObY+qKFdcFdY6LNkK8R1AQdTBKnRWy1AaJmyEmGX3k+tE8+Z/1K/5ZshvPKuaIX+GVDt9O77BVvvJ3dk4f7TRPvGnG9b0+WYotRzwTsCmiT9nijzrHYe8jxEBKWFLBtPCjpA7OztVlkhKU/UhiP1NmeZWvS2wrf1HXjV3k5frIbg9+pE3nay8Wx+CFL3zh7SZgHVF45Wfh696ANkcscS6pc/C49Ru/8Ru3euSq3l4axfcRXMfQKxhnBB3aDNzdSxfvGW4TOHiRx0FQjD1yrx83TrM5zNp3PIc5Pbk5rNJXOvVvLxZzYOz3bgLlofmT1BmBtVgVuxHoEE+N9M6y66D0BOTQokdqMyBV55T29NNPb0+TckJKOutz+2he9n/NtsZvJuaI63CnJ6bDVvWdrxEmnDXD3OrGOL5r7M4EyjOvCbUlD3tDTQFJWiXrCKrOaENoA0SJHb+XxJf+c1HiWd+1V2xWuF3MS7E8dp2/EbfDO4yYFV7pHFd577GRrSQLn0ek+jQpc4VfjupyKMaM84qe9UdBz8Hj08dW3lnGiRL4pV/6pe3L++hiUCVe6RRYGyHKeGbAB99s4x3oquBnpazy5XuvnexXZDVenf2IfwnubFf15L/HRv2WLQuVr1zyjjHrhHkB05kAydUEkkN28pPnMbapc4+gfxYimyjvuTSScyXBPYK+vE/wXMTPeuzZAJJxM6iuzybpiRI7Hiz7xMdsWeE6n5f6yPm7OCP9yE+HH4kd6Sv3Gd+MN0+G2Ajx8agWu84ESLcJ8JvnLbapc4/Qvo/wvd/7veWvYeOcn3PRh+6qAal02KloZ2tTqI3UhqBOB/n4Nl/uoWiA5CfK2MGoj/UZTuQ/6PpoHHN+Hd9hTi/fFV7pOj6Ys2FOwJB6UeXZvr5ToDWBDy14LX5J9J1/bFXiGmCtDZ8adRtBZwSCVwlUOiWCJBkOLfpYlw6pQeC7z9xI03H0KjlO7KQ4Tq5wnY8z9blvXayOuxcjXmVb6ZSbwyo94y89deYWyVMhbmD1VFE8bQIkXA7su01AXtjHEtvU9Z3luK7u4Z+5EQhEEhxa+K4unE6/7W1v2340TAMYE1YdP6tlj81qjBl+16/KvuN3GL463GFO3/nrbBh3cA7OAmyCfEOMbxZ93gjYoB+VPLexTV2fNcJPxOT3TrcRuDR68sknN0MSzKXrfOQSWIcWPBKd2rGOjjfg+GgGN0ijgu0l5VJ7F3t2fJw9+s5Hh+217XzuwbBhfDle+tKXbtfqcc71Sh83QK534yMszmGsgxOPs4++s5xxOMONcMk9AgFUCK6DxKjHAVFbUhz9KAAbAiwXdBrsjF3ajvG0CKKu8i9ehc3qZnyMOA53enI7GsMf8/iCF7xg+w6BPjqtWOAcuvyJZwT01YuvG8M4L7EOnxz0WSPZZ067EfhHIZwRlLCcZAk+KjGwFjk66mpLoufg3kF1vg/NdxxmYikXbN8bykqfRlyHO73Gp8M7DHvhSOYQydjzm0N8iYanQbSFYaNXfbiqRymfcGdKnOtcp33RRhg9NSJBgszs3Jic7LTwncRGB5uCwq9v8/4Dl057Ss5jj49LbVYnmXgjm0twZ+v0sf+Zw1zyxXqOfCOMHWsFG4688HVmgJf9outKnNdcp61vqMlv5OC3PSPoqREJYygnOSGnFy8HlR4ZN0GsY5MP4cRjI3CGqL74A97FVPwZjrhHydFY5Tgz/BHH4U5PDhWGLo5ZXBe8UOmTonkDYJcPbQhdDglX/2nPlpgTNrFNnYOb82/6pm+6x+U9vO5mWRtBSUne4+1uw+nFiwGlixKcRa6FLok+H9hFLh/ke8c73rH97KQmBg52o7zEQ55RZuK7uDO2I85efNaOMeaSg0sgZLyUpV/MR5T41QZA6gwg3kZ+z59RDpFLHrHEtuo6I4gn/W272wj6qqbILjmnl10OKn2WcYF3m0H+Ip/B5LNL73znO7efnhQnx9jbzv5GfV6Jgy/5n/E74nR4h5FDtSjpC3YcmhdugHkkqVd/OGCyVxzZoacuqTMBdlWRfYVlncZO+thWXR+6qzjo2ksjPT6VcZVcpRNfUsmo3Um4HHGRa/CFyV9sxzpPmLiX4B+YcAkFRp6yi/GdPnLOqs+MXYw9wx9xHI5e45RjoufVnldVrv35PJDmJHKp40eH2nnxq51tY9vlGTmqV/MqHZKDL/fwI8DyK/zWR3dGiDfLGMiJjJ0u4jlgxKp65Guw0cWNQVsHPmQjnSQYrzw8guVM4R7BwrtmqcZxFH/G5ghO9MHTHhY/i0gfhtOcRB6505ZOdRa8Fn0+A4jr+j3Co53mv9JpLVz01Ch+H4EgVXKVrkoo6rp61am8CTQZkviTnaRiiINkI/AYloMzha5Rs41sj5SjcepizdhewsFWY8CC55EnG4DLHvQckaNcY0zq8cgbIHKxz235lBzh4iGVe6VT/vpijjjZ5vRLoxxQiTjZ8VnMcWGrk+goast39JUxOGwE7ivYGDx9YvKOLisTWsWu7NGpbxWe/cCRTZSMG09TWPS8YupVX76zH/SKJwlH44bUoReZyMv+9mLZT5WvdEiOfEaQj1ted2mkL+/LqEq80omPVKCo6+odXxiSI24MtRUzcnO8iFGnD0gmjzMF9xb8rwfOIEys+PITbWL/Y13cS+TI3wyuXPVEh8sdbhz1lCe+iKzkSmwOxkeSujaAfHU57sXkWzLPD3rpkBycEap/FHLL6zbCEU+NFEhJj2THrzAmEr1krtOOdtSZgKjTwEW9eEwsj2jZIEhtELjdRI76WeHyp9gdJ+Ycedjqc/282udX+tjvWI8+5Dvr1Oe4+NExRtJVNlmntvqrdpQdFnmq576ojeTgCVf172Vved1GmLlZJhEGQQ6VmKTTC8+y448wbQZJ+LEue0liUx8NOpxog50mXhuESys2CmcR/OmAK/+S6FZKjK3+8ArPgudgwcfLGuVLvGibY3ZY5KovSL3iSzIOFNc3p+9sRhh4LrkvaiM52AiP3f2qZi63vG4jxJvlvR1SoJyAa3f8WQyeFkyu046H8kBHoZ+qC5uVsotjRV0Hi6ZaODFmzI0+CFN/Yi6KF3VVPfJcHTtiSSpnSb3qxz5s5GCndpTyGXXUnV68ES6eZOwXOrUl9Q018aOE094s86G7N7zhDZtNl1iHKZEYuKt3/FVs62BY+FpMksLJJ9dzjvQRTtfXbNO18RWL/Eqf23BH8WUrrvxHfcQUAx11Dha6pBa9dOIhY4l+op66w5xe9iNcPEnXR/Qc+amR7JAb533ljKAOxQ6qHgeJOhshbgbqst8G5T2Dl+3kb6/Mkxv9z/iM/FhX7tFHxsEUX1ILnHZe9NLJp2zUjnIP1tnge4TH+NRzf9VGcrh7BNm2Z4R4j+ASc3olqoTUHsmO32HqUOW/spMOyaGNISm9JH7jholx4BxdKp9RR52xly7WyUXzEiV1FjwlLvy4ITbw7h/Zubb0yMydwTqbkc/oX3WNQ26j56g+dBe57UaIH7rrEu+wnKCCO9nxOwx/Dp/VwxNXG0KLX23h4krm+OKpn7ktfZQznMiPdeYgHmBqa9HT1qIHp14VeLlUOnH2YJ0Nfke4YkvmsVMbyXHR+wgzG2GUsBJSwiPZ8TsMvw6/VC97ZNwQtHUQX1jOJdpnrGqjq8ZVOknxaOvQQldbEq4Kuq5UeKWTjz1YZ4PfEa7Ykhrj3Jaej4nwzwSzX+EXnxGyYyUiqUBqj2THPxpb9Zf5tDkYA9Xpn+rI2FZ9U07+0fhGGevRDXphUR/rl+DO1umJ6zCnX8k1cjXW0qmtueDdc95Qy+WW190sP9vOCHRCibsOZf2z2cb1peoDupnF42yln/HhOKv6LmfnS3l2tpGjeh5LtZEc7tII+43jNgKJ6jvLkF3iTo8NRQk90xr/HfEd7vRdDteyUa+7eOKcLUfzRXzHWdXv8RX77+JFjup5bNVGcriNcMtzG4EA8YxAu0qs0sFVUSC1R7LjH405f05P7nuxke1oXI7CR/PV4Q5zenJ2mNOrnyNcPGQ1J9JJshH4/whVgXPPPQLBUUo+3Aj3D5sG9n6knpDI62wj78z6aIF1uMOcnn44zOnV9xEuHrIaV+mQHO5Dd/JjNwIEPmKh/3+Gsyq5SifnSCUUdV294x+NOX9OP+pPZzey7cbkSGw0Xx3uMKcnb4c5vfo6wsVD5nGPbeoc7rNG8nO7EarAOiOIXHEqnfjImFTUu3rHPxpz/px+1J/ObmTrxuNo/Wi+OtxhTk/uDnN69XeEi4fM4x7b1Dku2gi8s8zPwispyZhEpYt4TCrqXb3jH405f05Pzg5z+tjPGU7kn1EfzRcxHWdVv8eX+uxiCY8yj2tsU+fQr2FHu1i/8z3f8z323ZWHl0ZxqJ6px0GOqNOvciL/jPrMAnOcVT3577Hp7KoxyWMf29Q5uo9Y4HNqI6gzkjGZShfxmFTUu3rHPxpz/lb19MXZxH7OcCL/jPpovojpOKv6Pb7UZxdLeJR5XGObOgffw37FK14Rze6ptxuBr2ry/wr0mZQquUoXI8Skot7VO/7RmPO3qqcvzib2c4YT+WfUR/NFTMc5St/FUJ9dLOFR5nGNbdW7x6f4ajcCb6jp17AhV8lVOrgqSkTtTo64e3Fnt6on9z026rOzFX4NOZovcnCco/RdDI2BiyU8ympcpUNyXHSPEP+ZIM6q5CrdKMmIxzofWuv8qXPRJtYdfpSeWKu+ZvKLnLPr3fgqtuMcpSeO8zXKQXiU1ZxIJ6kf+Ip2sT59RnCJO72CKBG1Ozni7sWd3aqe3PfYqM/OVvg15Gi+yMFxVvV7fGkMXCzhWeaxVRvJ0X1DDV/tRuB9hNl/OJ4TU1sJqd3JEXcv7uxW9eTubEbYDA7n7DJaYB3uMKenLw5zevV/hIsnmedFbSTHRZdGenxKUi4xp3cJSl9JJV9h6Pbizm5VP8rB+VN/Rrh4Z8rRfHW4w5yefjjM6WPfZzjix7HNddoXnRFe85rXbF/e11MjBY1ylGxMKtpV9RF3D97ZOMzpyXkvNrKtxuMM3Wi+OtxhTk/+DnP62OcZjvhxXnKd9kUbIT41ckk5PQnGhJRwJ0f8PXhn4zCnH/WpsxvZduNyJNbNF3E63GFO3/nrbNTfGY64cexznTaXRu0/HB+9s8w9wt4OxYSUcCdH/A53mNOTh8OcvrMZYTM4nLPLaHF1uMOcnr44zOlj/2c44sc5q+oXPTWKnzVySTk9CcaElHAnR/wOd5jTd/k5G6dXny7F5edM2c0XcTvcYU7f+ets1P8Zjrhx7HOdNhvh8ccfF/0+2T410qXRe8M9Qux87KXTw3HYql7xnN0sLt7Zsltge7CjbdT/zq84knHsqzr3CFwaudJuhPgx7C6pCovJuOBZP7LpcIc5PbEdtqpXP5zdLC7embKaqxivwx3m9Ph1mNPP5hJ51OPYV/WLNoJ+4ItAXeIVFpPBfqaMbDrcYU5PPg5b1atvzm4WF+9MWc1VjNfhDnN6/DrM6WdziTzqcexznbb7FQv5ac8I+vI+jvZeHsWkFNTJEbfD92DOZlWv/ji7WVy8M+UlC9DZOj39cJjTq+8jXDzJOPa5TvuiN9R0RsDRno0QE1LCnRzxO3wP5mxW9eqTs5vFxTtTziwwx1nV0489Np2dG5s49rlO2/2Khfy1ZwR9xKLbBF3SMSEF7OSI3+F7MGezqlefnN0sLt6Z0i1Mxexwhzk9Ph3m9Mqjs40c1fPY05YOedGlUXx82iXmOqVElOxIjvgdvgdzNqt69cvZgXeY7K8h3Vwpdoc7zOnx6TCnVx6dbeSonsdXbSTHIY9PSbpL3GFKRsmO5Ijf4XswZ7OqV7+cHXiHyf4a0s2VYne4w5wenw5zeuXR2UaO6nl81UZyXHSPoPcRSLpL3GFKRsmO5Ijf4XswZ7OqV7+cHXiHyf4a0s2VYne4w5wenw5zeuXR2UaO6nl81UZyXHSPwBdznnzyya0zXeIOUzJKdkZ2Nkdjzt+qXv1ydrO4eGdKN1eK2eEOW9UTy9koj1kOvDzusU2d46IzwszHsF3CMRk4M2Vk0+F7MGezqlffnN0sLt6ZcrQAO9xhq3r652xi32c48PO4x7bq+vSp2jHO5qP60J0S4GPY1zwjuCSVdIfvwZzNqn4mv22w774yPeiiuXV5dLjDVvXEdjYxrxkO/DxfsU0dP48++uj2KxYRi7Hue3yq4Bjo8Sk66aOx6hlzwcR3cmTX4XswZ7OqV3+c3Swu3pkyz1WO1eEOc3p8O8zpYz4zHPh53GObOsfwl+7yGSEG5/Hp6KuaJBJtaFNiMs9oxn9HNh2+B3M2q/qZ/jqf41E5llHNVYzQ4Q5zevw6zOlnc4m8PLaxTZ1DP+fi4t6eETIBY72PsOcNtZhMTLqrj2w6fA/mbFb19MnZqL8jXLyzZZ7nKp7jOD0+HLaqj/k428ihnsc2tqlzDJ8affd3f3f5k48Yvy98+rQaKA1kHDDp9vA7G/l1sYRfS84sLsdxenJ32Ko+joOzjRzqeWxjW3UujdrvI3QbQWcEEuqS6jAlkpOv2iNuh+/BnM2qvpqM3D/nM/PObndzpdiO4/TYOWxVrxw6n5FDPY9tbKs+fGrUbYS9N8sxUSUSdVV9htdx9mDO5ih97qfzm3lntt3CjDEdx+mxddiqfiaPyKGexzW2qXPwI8D8x5yIRT93Hm6EOBzP1O1g3R3Qqjh+5M5wIv+suluYMZ7jOD22DlvVKw9nJzzKPLaxTZ1j+KG7mY1AUBJzyTk9djEp2l0ZcTvcYU5PHg5b1Xe+1F/nU/i1ZDdX5LAXd3areo2DsxMeZR7b2FZ9+A01txEIFB+f0nbJOT02SoT6qIy4He4wpycXh63qO1/qs/Mp/Fqymyty2Is7u1W9xsHZCY8yj21sU+cYfsTCbQSM480ygV1yTh8Tiom7+ojf4Q5zenJw2Kq+86W+Op/CryXdXCl+h+/BnI3Tz+QhjmQe29hWffhzLm4jEOSXf/mXt1+6U9KSSkDS6ZWEeCM54nf4HszZrOrpl7NRn0e4eGdKN08x5ohT4ZUOn04/wmZwOIwpMfLYxrbqF10a6akRQSmuY06vJJ6xHv8d8Tt8D+ZsVvX0zNmo1yNcvLOlmyvF3YM7G6cnVofN4MoXmcc2tqlz7L40IgDfRxj9M0F4rlMxIXijMuJ3+B7M2azq6ZezUZ9HuHhnSzdXitvhDlvVE8vZzOQhTpRxfHOdtt5HiDaxbh+fQtLNMnUSd8k7fUwIH6My4nf4HszZrOrpl7NRn0e4eGdLN1eK2+EOW9UTy9nM5CGOZB7b2KbOMfzQXXeP8PCMoKF+RsYBvhcZ4yPbyt8ZuksWoLNd1dMvZ6M+j3DxkHlsY5s6x/C/aj7cCHFIn6nHgYyo04vT4R0m+2vI0QLrcIet6umns9EYjHDxkHlsY5s6B/cI7a9hdxtBl0ZKSjImQd3pY0LZpmqP+B2+B3M2q3r1xdmBd5jsryHdXCl2hztsVU8sZzOThziSeWxjW/XnP//5N6985SvtPLT3CDw1euMb33ibdJd8xpSAkp2RI5sOd5jTk4/DnH6vTWcHds2S56mK7ThH6YnpfCmfES4eMs9XbFPnuOiM8L5wjxAHJQ5eNYDCj7bpYinmteTMAnOco/T01fnSOIxw8ZB5vmJbdT01Ujvabz66S6NLNoILmBOI7ZFNhzvM6bfO332lqMrRNorR+RXnbDlaYB3usFU9fXQ26v8IFw+ZxzW2qXPwoTu+jxCxe3x0G+GSewQXMAbP9ZFNhzvM6YntMKffa6N+dn7FOVvOLDDHOUpPH50v9X+Ei4fM4xrb1Dk4IzzxxBP3ceWnvUfQGYGvauLMJVfpYzIKNpIjmw53mNOTi8Ocfq+N+t35FedsWc1Vjuk4R+mJ53wplxEunmQc21ynzVc1X/WqV/k5784I2ghKSlLBJSt9TEa8kRzZdLjDnJ5cHOb0e23U786vOGfKap5iPPLrvp/u7Ff1xHQ2ymeEi4fM46o2Pp7znOdsOB+6e+yxx+7jyk97Rrjkd42UjALNyJFNhztsVU+ezqbDOhv1fYYj7hlyZnF1HIet6umbs1G/R7h4yDyusU2dY+rL+wSFHIPT5h6Bx6e8SkQsJuH02K+WkU2HO2xVT85H2mgMnE/h15K6zHXx3HzCd9iqvvMV83J+I4d6HtvYps4xvDT6ru/6rvJXLAjApdGe3zWKieBntozsOtxhq3pyPdJGfXc+hV9DziysjuOwVT19dTZxHGY48PPYxjZ1juFTo24j8CPATz311JZbl1TGYiKxY6P6yK7DV7FVPrnvsVGfO1txzpZ5nqp4Hcdhq3riOpuY0wwHfh7b2KbOMbxH6DbC3jOCOhMTkq6TI36Hr2KrfPLeY6P+drbinC1nFlbHcdiqnn46mzgGMxz4eWxjmzrH8B6h2wh7zwhVcrGDrh47UHE6fBVb5Y/61Pkb2VZ9PUs3Wlwd7rBVPX1zNrHfMxz4eexjmzrH8Is5o42gL+Z0SWWMthKIHRvVYwcqboevYqt88tljE/vR2UfemfU8VzlWhztsVU9MZxPzmeHAz+Ma29Q59KG76D/W73QbQR+6w6BLqsJiMjFgVx/ZdLjDVvXkd6RN7K/zGzln16u5yjEd5yg98ZyvmMsMB34e19hWXb9rpHaMs/noNgLvI+hmefWNFhcwJxDbI5sOd9iqfhuUu68gVXG+Opvop7OPvDPrM4vLcY7S0z/nK/Z9hgM/j2tsq64v7+NTuhirPSPofQSMu6QcVgWMwXN9xO9wh63qyelIm9hH5zdyzq67uYpxHecoPbGcr5k8Iod6HtfYps6hM0K2VbvdCHpnGUerZ4QqQQV1Mnag4nS4w1b1Xd7OV2cT+9HZR96Z9dEC7HCHrerpn7OJfZ/hwM/jGtvUOfShu4q/6bpLI54a7blZxjElJvSMpv874ne4w1b1Xd7OV2cTe9zZR96Z9dHi6nCHrerpn7OJfZ/hwM/jGtvUOfTOcsXfdN1G0KVRdzbASZVwTAbOTBnZdLjDVvXkeaRN7LfzGzln16u5ijE73GGreuI5m9lcIo96HNtcp613ljNXfqYujUR2yVf6mIzsR3Jk0+EOW9WT46qN48f+znAi/6x6NVcxlsOdHts9WGejfGY44sbxrer6hhr8iN/aj84I+qwRxi6xSl8FU1AnRzYd7jCnJweHHaWP/XQ+I+ca9WquYlyHOz22e7DORvnMcMSN45vrtHVpFDHZItszQrw0woFLrNK7gDF4ro9sOtxhq/ptUO72tSp7fMmPsxV+LVnNVYztcKfHdg/W2SifGY64cXxznbYujSImW2S7EeJnjSC7xCq9C4gfV0Y2He6wVT25rdo4fuznDCfyz6pXcxVjOdzpsXWY03c2M7lEjup5fNVGcuhDd/CFyXbTdZdG8bNGkF3HKn0VLAau6iObDnfYqp68Vm0cX30c4eJdQ1ZzFeM63OmxdZjTdzYzuUSO6nmM1UZy6F9HwRcm203XbQQ+YvGmN73ptqMrHauCxcBVfWTT4Q5b1W+DcnfgqrLHV+evinG2rptDYjvc6Y+2if3vYkZenpfYps7Bh+74zjJf3axKe2kU30fAuEssYzGZKnClG9l0uMNW9eS1auP46uMIF+8aMs9Tjulwp8feYU7f2cR8OvvIy+Mb2yx8/OhHgCN2jw93RsCYm+X/384IbqAYtDOwOBnXqI8Wl8Odnpwd5vSdTRyDzj7y8rzENnUOnREyJj9TZwR9z3WUmPAYTIFGcsam4zjsKD35O1+XYKNxORrXHDm/Dnd6/DjM6TubmFdnH3l5XmJbdX3EQm3Zq91uhNmnRjjFod6BlnMFm5EzNh3HYUfp1UfXFxdnZOf8naUfLS6HOz15OszpO5vY784+8vLYx7bq3fcR4LQbgZvlp59++uZd73rXttBHiQlX8JjsqD5j03Ec5vTkU2GVTrmfgcn3taTmyMXr8FVslZ9z6uwjN89LbFPn0Btq0Y66uHe+8zu/875fsQAkCc4Ie34NW85z0K49Y9Nx9mCVTaVT3mdg8n0NObOwOs4qtsrPY9DZR26el9imznHRRuC/aj755JPbpsCZSyzrYyIx4a4+Y9Nx9mCVTaVT3mdg8n0NmeepitlxVrFVfs6ns4/cPC+xTZ1D7yxHO+rilmcEkWfPCFXCCiBfIznD7zgOc3rycdhRevXZ+RN+LVnNU47dcVaxVf5KLpGbxze2qXPoZjnaqb5xqksjEfQ+gtquY04fE5IPJ2e4HcdhTk8eDjtKr746f8KvJd08xfgdZxVb5cc8qHf2kZvHN7apc+gfhUQ71TdOtxF0szx6fFolHJNRwE7O8DuOw5yeXBx2lF79df6EX0tW85Rjd5xVbJW/kkvk5vGNbdWHT426jcBXNfmGmh6LxuCxXnVYCUReV5/hdxyHrerJ8Uibzl83Hmdg1TzlOB3HYat6YjqbmM8MB36er9imzsE7y/wPtapsnG4jxEujLqkKi8lUwbNuht9xHLaqJ68jbTp/eQzOblfzlGN2HIet6onpbGI+Mxz4eb5imzpH/NBdjKF6e7N8yRmhSlBBKxmTr/CRP2e/qu/iOF+dzQgDv1aZWVgdx2GrevrrbOJYzHDg53mJbeoc7qmR4rUbgTMC31AbXRrhrEo6JqSAnRzxO9xhq3ryO9Km89eNxRlYNUc5Tsdx2KqemM4m5jPDgZ/nK7apc3Q3y5uP0aURG4FCUqPEMh4T2pwM/oz4He6wo/Sk7nxdgg2G5HA4z1EO0OEOW9UT09nEfGY48PO8xLbqenyqdoyz+eg2wuz7CDiqknZBcxJqj/gd7rCj9OTofF2Cqe/XktU8xdgd7rBVPfGczWwukZfnJbapc1x0aaSNMHp86joWE4qJu/qI3+EOO0pPzs7XCJvB4VyjjBZghztsVU8/nU0cgxkO/Dwvsa36RY9PZ7+P4BJWErFzXX3E73CHreqrgVXOzldnM2MrzjWkmyvF7nCHreqJ5WyUxywHXp6X2KbOoUuj6F/1jXPEpVHVqZiMAo7kyKbDHbaqJ8cjbdRn51P4tWQ1VzF2hztsVU88ZzObS+TlsY1t6hzdzfLG6TaCnhopacmYBPWsj4lkbtce2XW4w1b15HekjfrrfAq/lsxzleM63Omxd5jTdzYxn84+8vLYxjZ1ju4eYeNUG4EEAHWPQHuUVMSx3VNGdh3usKP09Mf5GmEzOJxrlDhPLp7jrOrxv8dGeTlb4ZJ5XmJbdS6N+PK+K+X7CCSAA72hRrtLKmIK7AJ2+pFthzvsKD15O18jbAaHc40S58rFc5xVPf732CgvZytcMs9LbFPn6C6N8HPnO77jO+77Yo4C6IxAe5SU8JiE/MzKkW2HO+woPX1wvkbYDA7nGkXz1MVynFU9MfbYKDdnK1wyz0tsq65fsZBNlu1G4B5B31CbTSoHWGkr6cqmw+A7/Cj9nhixHy6PyLlGfWYeHWdVT3/22HR21RjlsY1t6hzdPQI+243AN9Rm/j9CldweXexAtu8wuA4/Sr8nRuyDyyNyrlF3CzPGdpxVPT732HR2MU/V89jGNnWOiy6NuEfQr2G7DimZI2TsQPbXYXAdfpR+Twz1weUg/JpyZh4dZ1VPv/bYdHbVWOXxjW3qHO47y/LXnhFe+9rXbt9ZXk1Mzldl7EC27TC4Dnd6Z7PKV56dnYsl22tKtzBjDo6zqsfnHpvOLuapeh772KbO0X0fAT/tRuAbav/wD/+wdcZ1SMkcIWMHsr8Og+twp3c2q3zl2dm5WLK9ppyZR8dZ1dOvPTadnRurOP65TpvHp48//rhfJ6OnRvrJR9chl9gefexAtu8wuA53emezyleenZ2LJdtrypl5dJxVPf3aY9PZubGK45/rtPlZeL6hFrHoqz0j6H2EPYnFILN1lyT2HdbhnV2FVTrlvxfr8pPva0m3MGN8x1nV43OPTWcX81Q9z0tsU+fg0ugVr3iFXUftRnhffnzKIMYB06Du0Xc2IyzGvUbdLcwYu+JUOtnswTob+UXO8PI8xjZ1joueGu3ZCCQeE4md6uojm714Z+ewVT39cjYjrBuTM7DRwupwhzk9+TvM6XOfZ3h57GNbdZ4avfrVr87ub9vtGWH10igmrQRuIw0qI/5evLNz2KqerjkbdXuEi3e2jHNUxepwhzk9/h3m9DmnGV4e29imznH1N9SUeEwmd65qz/A7jsOcnhwqrNIp372YiyW/15SaHxezwx3m9MTYiym/zl6cPC+xTZ3joqdGekONgKMv8OeEYzJKuJMz/I7jsKP05O58jbAZHM41Sp6nHLPDHeb0+N6LKa/OXpw8L7Gtut5QU1u2ksNLo5l3lkmWIwaJdQXr5Ay/4zjsKD25O18jbAaHc40yWlgdvgfbYxPHobMXL89LbFPn6L6hhp92I8TPGkHukspYTAbbURnx9+LOblVP/s5mhM3gcK5R8jzlmB2+B3M2Tr+Sj7h5XmJbdd5H4A01V+xGIFEujfTpUxx0yWdMCbjAWT/i78Wd3aqefJ3NCJvB4Vyj5HnKMTt8D+ZsnH4lH3HzvHGPzMcAAAxISURBVMQ2dY6px6c5KTnS9xHA0WWeEpGMuHwIG8kRfy/u7Fb15O9sRtgMDucaJc5RFa/D92DOxulzTjO8PC+xrboujdTOce58+7d/u/1iDpdG+qU7HIySirgLmBNQe8Tfizs7pycfhzl9ZzPbP/HOlnGOqlgdvgdzNk4fc5rhwM/zEtvUObhZfuKJJ+7jKl67EfSGmsijxCIek5F9J2f4juP0xHOY0x9toz538cS5hoxzVMXr8D2Ys3H6mNMMB34e29imzsGlEd9ZjliM9T6xEarBUCdtx+8OjitH2iiG8yn8WnK0uDp8D+ZsnD6OwwwHfh7b2KbOwaXRY489dsM/IK9KuxFWbpZxHhOPyVSBs26G33EctqonryNt1E/nU/i1ZJyjKmaH78GcjdPHnGY48PPYxjZ1juGnT2fuEZSQZEw21+HERDLu2jM2Hcdhq3ryO9Im9tf5jZyz66M57PA9mLNx+tz/Ea8a06ijzqGb5exf7UPPCDhV4jEZBevkDL/jOGxVT45H2sQ+O7+Rc3Zd8+PidPgezNk4fc5rxKvGNOpU10ZQO8dpNwKPT/mH4zM/AizHStwFFC/LGX7HcdiqnryOtIn9dH4j5+y65sfF6fA9mLNx+pzXiFeNadRR5+BDd9wjRCzGajeCHp+SzCghORXPBRQvyxl+x3HYqp68jrSJ/XR+I+fsuubHxelwhzk9MRzm9DGvGU41plFHnePip0arX9Uk+ZhI7NioPrLrcIet6snxSJvYZ+c3cs6ujxZXhzvM6emLw5w+9n+GU41p1KmuM8Kup0a6NCKhmaRiJ1brSriz6zgOW9UT/0ib2B/nN3LOro/mscMd5vT0xWFOH/s/w6nGNOpU169YqB3jUG8vjeLj05mksvPVtktSfjrcYat6Yq3aOL7y7nxGzjXqo3nscIc5Pf1xmNPHMZjhVGMfddQ5dEaIWIzVboQ99wjR+WrdJSk/Hb6KrfLJwdk4vfLubCPnGvXR4upwhzk9/XGY02sMRrh41dhHHXWO3fcIJPIrv/IrN0899dTmaPTFHCV2iYwdqPx0+Cq2yicfZ+P0sQ8znMg/qz6zwBxnVU8f9tio785WuGQe29imzrH7s0YkoY1AwJmk4MQklOisHNl2uMNW9eS6auP4sd8znMg/qz6axw53mNPTB4c5fez3DAd+HtvYps6x+9KIJOKlUUzQ1ZV4TMRxs37GpuM47Cg9+a76in10tpFzjbrmyMXqcIc5PTEc5vQxrxkO/Dy2sU2dY+qzRjkghujYCPpiTubEhFUXJyYibCRnbDqOw47Sk/+qr9hnZxs516hrjlysDneY0xPDYU4f85rhwM9jG9vUOXRpVPE3nT5rFINiSJunRivvI2ATkyDAbJmx6zgOO0pPP1Z9xb4728i5Rj3OcxWvwx3m9Pjfi41sY+55bGObOoc+dOfs7nzbt32b/WIOv4bN/0dQ6TolziUydqDy0+EOO0pPPqu+Yh+cbeRcoz6aww53mNPTn72YxqKzFyePbWxT59BTI9kg7+F1G+F1r3vd9tRIyUhGZ0fWY2KV3w532FF68ln1FfvgbCPnGvXRHHa4w5ye/uzFNBadvTh5bGObOu8mP+95z7vvnwnew+s2Ak+N9B9zVjoVAyjZGTmy63CHHaUn/1Vfsc/ONnKuUR8trA53mNPTn72YxqKzFyePbWxT5+CMkL+qeQ+v2wjxHmHUKSV1iYyJVX463GGreuKu2jh+7MMMJ/LPqo8WVoc7zOnpw15sZBvHJ49tbFPnjPDc5z73nt8+jRx8tfcI8anRSmIxyZV6Ti7bdrjDVvXEXLVx/Jj/DCfyz6p3C5OYHe4wp9/rT33v/IqDzGMb29Q5eGoU/1FI5Gw+ujPCno1A8jlITLqrj+w63GGr+m1Q7g5cVfb4kh9nK/xacrS4OtxhTk+f9mIj2zheeWxjmzpnBL2PILvIQWfPCHSAe4SZn3zEUexwDgI+U0Z2Dnd6Yu7BnM2qXn12dsKvKeM8VXE73GGresV1drO4eHl8Y5s6h95ZtjbdGSHeLK8mHZNR8JEc2Tjc6Ym3B3M2q3r119kJv6ZcnceYm7Nd1cuns5vFxcvjG9vUOeIbathFztY+aiPgTB3LQcBmysjO4U5PzD2Ys3H6vXFmxuRojubI+e1wh63qFdvZzeLi5XmJbeoccSNE/NZHtxF+9Vd/dfv3skpYUsZRRqwKFLlVfcbGcZyeOHswZ+P0e+NU43C2Ls5TFavD92B7bGJenb14eV5iW3UujfQjwNLJHnnfPQKBISJ1syyDUVIRr4LJTyVn+I7j9MTZgzkbp98bpxqHs3VxjqpYHb4H22MT8+rsxcvzEtvUOXSznLFbH/mMQGDISH7yUf9nGYMuKWExkILMyBk7x3F64u7BnI3T740zMy5HczRPzm+H78H22MTcOnvx8rzEtuqPPPLIzctf/nKZbFIYjdszQhWQzxrp06eQKw76I0pMyvlzHKfHzx7M2Tj9KM4MDucaZTSHHb4H22MTx6GzFy/PS2xT5+DSKP+f5Xt43/qt39p+6O69YSMwILFTGqAj9Z2vS7CY6zXqo4XV4XswZ+P0cQxmONXYx7Wguj50p7biqH3n4UbQkDwjNTD3as/Dqjhn6kaLq8P3YM7G6WPfZzjw85zFNnWO+NQoxhD34UaIo1IMaoQ1aFGn+l5M9teSo8XV4XuwPTYai85WHGQe+9imzsHNsp4aVbbtRuCpEV/MGf3kY044JhKDdvUZm47jsFU9OR5p0/nrxuMsLM9VjtPhDnN6fJ+B5ZzzfMU2dY7q06fys3G6SyNtBHVGUg6yjHhMJvOq9gy/4zhsVU9uR9p0/qpxOFsX56iK1eEOc3r878VGtjH3PF+xrTpnBD6GHYswdFNnBHVGMjpTvcJiIPGcnOF2HIet6snvSJvOnxuLM/XVPMV4He4wp8fvXmxkG3PO8xXb1DnyZ42yfbsRVh6f5g7HZGJQV5/hdxyHOT15OGxV3/kaYeDXLHmecuwOX8U6PnFH+Cwnz1dsU+fTp/oYdu4vbTjtRpi5NKIzCqyOqV0FdboZG8dxenVyNabz5/SjODO4y/FovebI+e3wPdgem5hbZy9enpfYps6hx6eyybLdCCtnBBwr6ZhIDujaMzaO4/TE2oM5G6cfxZnB4VyjaI5crA7fg+2xibl19uLleYlt6hzu8emtj+pmmeAY8+X92e8s41BJx0QUaCRnbBzH6YnpsFV952uEzeBwrlE0Ry5Wh+/B9tjE3Dp78fJcxjZ1Lo301Eg2Wd53RlBgHMRLI+mzg6PaMXnn03GcHj8OW9V3vkbYDA7nGmU0jx2+B9tjE8ehsxcvz2Vsq673EdSWreS2EapgGGgjPBt+AJiEbSfu5urKqo3jd/FH2Azu8j9aX811jNHhe7A9NrP5iJfnLLZVrz50J3uk3QiA/IqFPn3adQhuLiSwYqOEs5/Y7jgOO0pPHs7XCJvB4VyjjOakw/dge2ziOHT24uV5iW3qHNUv3ckeeedbvuVb7Ifu+KqmPnQ3kxAO4cVE0M2Ukc1e3Nmt6umDsxlhMzica5TRPHb4HmyPTRyHzl68PC+xTZ1DP/AVMdkj243AU6OV3z7FYUzcBYWXy4i7F3d2q3rydTYjbAaHc40S56eK1+F7sD02Ma/OXrw8L7FNnUP3CLLJst0IOiPM3iOQNIeC52BdOybveNz9u4Fx9kfpycn5GmEzOJxrFDd+it3he7A9NsoF2dmLl+cltqlzDN9HOPLSKCYdk1HCnZzhdxyHHaUnd+drhM3gcK5R4hxV8TrcYU6P/73YyDbmnucltqlzDN9H6DYC7yPod41GieUOx2Ri0q4+w+84DjtKT97O1wibweFco+R5yjE73GFOj++9mPLq7MXJ8xLbquvSSG3ZSraXRvEeAYMuqYy5gAqc5Qy/4zjsKD35Ol8jbAaHc42S5ynH7HCHOT2+92Ij25h3npfYps7RfegOXw83QhxRBuTuoLmyF8NfZ+viHa3vFqVidRyHOT0+92IjW+WLzGMb29Q5dEaIdrHeboSHl0ZxqO4f8IjGwY961Ue4eGfKblEqbsdxmNPjcy82slW+yDy2sU2dQ58+jdg9PuI9Qk6ap0Z6fIpRxqOjjLuA2UbtGX7HcdhRevJ0vkbYDA7n7DKaP+J3HIc5/V5/cRw63+LleYlt6hycER577DE7h/8PAAD//8pLzP0AAEAASURBVO2dZ68lzVWF7xBskm0wWWREziBAIPhGkJBAmJwMDvwMcA7wiwgGbDJGSCCQkQGRnbANmJwNzNPjdb1uTa1d4Z4+jM3bUs/etdfaoaq6bofT58yDV7/61f/zcLvpbT/zMz9z89a3vvVGuGSPi83xBw8eJFrXPsOvOAlLdopI2Kq9iqXOppjCryV9jno5KzxhyU78XUy1Vf7itGPrbXT2D/3QD7154QtfKJfH5INqIfz0T//0zdve9rbbzswUBccLeSxjMMz4VJyEJTtlJGzVXsVSd1NM4deSozms8IQlO33axTQelb847dh6G52dhfCCF7wgz/mrXvWq/ungYZaf+qmfOhaCEs4UJY4XI/9KzvArTsJW7dS46pP43t8ZjvPP0jU/KX6FJyzZybGLqb7KX5x2bL2Nzv4RH/ERNz/yIz+S57ZaCH5GmClIhe1ILz75V5yErdrJveqT+N6PGY7zz9JH81jhO9iOj/e98hevHVtvo7M/4xnPOBaCfFr5oFoIP/uzP3vzlre85ea///u/W79u24v2YrrkxjjDrzgJW7VT1qpP4nsXZzjOP0v3OerlqPAdbMfH66r8xWvH1tvSuTT60R/9Ubk8JsuF4DfLMwU9Fn3BoIIrl4qTsFU7+Vd9Et/7MsNx/ln6aB4rfAfb8fG+V/7itWPrbekf9mEftn+P8NRC0FA/khrUu9a8cJyXfJ1zDX10YFX4Drbj4+NQ+YvXjq230dmHT42qS6PXvOY1N29+85tvb3hmilJxq9KLT74VJ2GXslPTaizvR/J1zjX00RxW+A624+PjUPnD642r29DZ7/3U6K/+6q+OuihoVJR3YFX34pNvxUnYpezUtBrL+5F8nXMNfTSHFb6DJZ9kb8dgxOuNq9vQ2VkIz3/+828+4AM+oE1xtKfvEWCPiupmmDR68cml4iTsUnZqSrFG2AwO51pbNY+XxnrxGMedBzC98enNidvQ2T/8wz/85nnPe16cw3IhrF4aqdNeSK/4nm3Gp+Ik7FJ2al6N5f1Mvs65lq556uXbwZJPsivvCIc34vTG1W3o7MsLgcQ4Inl8uvOKhReiTo/kjE/FSdil7NS/Gsv7nHydcw19dGBVeMJW7epn8hOOHHF64+o2dPYP+ZAPOV6xcMzz3J4Regl5ajT7ioX7k4x2SuoFuD7iV3jCLmWnztVYK31z7pm6z1MvT4UnbNWuvMlPOHLE6c2J29DZeXzKPYJjnudYCCmZL4TEUbAWTwnF78mRT4UnLNnJn7BVexVrhIFfe2vnyvPvYMkn2ZVvhMMbcXpz5TZ09qnHpynZUwtBU/ZI+gDfRfKiEq/yFecaMs21cld4wlbtM7lmOb1xdRs6+/Dx6Stf+cr40p3eNaKo1NlewV6I8BlZ+VUYsROe7Ds+O7HU78pXnGvIlXls60m+q3bFTX7CkTOcdmy9jc7OS3c//MM/nB+fVgth5Yzgxe/q3oE2xqWxnXg7PupH5SvONeTowKrwHWzHR+NQ+YqDbMfW2+jsw7dPq4XgT41mi/ICV3QvvudX4TvYtXzUlyqfONeQo3ms8B1sx0fjUPmKg2zH1tvo7Pe6NOJzBN4+paDZorzAVd070PpeGtuJt+OjflS+4lxDjuaxwnewHR8fh8pfvHZsvY3OfrGFQNKZolTcjvQOtP6Xxnbi7fioH5WvONeQozms8B1sx8fHofIXrx1bb0vnAzW+oZa2B9Wlkd8jEGCmqJRoxq6ie9xLYzvxdnzUl8pXnGvImTlMnGSn7oQle+Xj41D5i9eOrbfR2flAjYUQ3zWqFoJfGs0WruJ2pHeg9b80thNvx4d+VH5tP89uzxxYiZPs1JywZK98fAwqf/Ha8fU2OvvwFYtqIfjN8kzhKtoLUbEzsvK7NLYTb8eHfld+M+NyaY7mKcVNeLITJ2HJXvl4XZW/eO34ehudffmpkRLjvLIQ5EdxXoiKnZEjv4Qne1XLtXzU7yqfONeSPle9nBWesFU7eZOP1zTi9MbVbdL5zvLU5wi9hFoIKqzHEYYEV2K3z+gjvwrfwa7lo75X+cS5lpyZx1RL8l21Ez/5eO4RpzeubkNnH750x6VRSsYny29/+9tvC048L3xX9+J7MXbx5Jfs5E5Yslc+6kvlK8415MwcVpyEJTv9Tt89SD4+DiNOb1zdhs4+fOnuFa94RXzFgqdGfENNxUh6oZfSvfgUs+IkbNVO7kv6eF9SXOecrc/MYcVJ2KqdfiYfH4MRpzemsrnUGYHYsnueB9VC4KnRyvcRPPCq3iuujVFxEpbsxE7Yqr2K5X1IcZ1ztj46sMhfcRK2ah/l0TikuMJ7Yyqby6c//em3P+ciu2Igy4XAPYK+jzAqyIPu6L3iPM4uXvklbNVOnclnpQ/OPUufmcfESXZqTViyVz7e98ofXm/c3YbOzs3yc5/73Dv8O7zZM8KoIC9+R/eiev67eOWXsFU79SYf9WWEi3e2nJnHxEl2ak5Yslc+GoPKV5zeuLpNup4aqY3/Hb1aCD/3cz93tXeNvCh10uUuXvklbNXeDqrXLT3FFH4tOXNwJU6yU3vCkr3y0VhUvuL0xtVt6Ox+jyBfpLjx0ogiuFnWU6OZojzBqq6Ckt8uXvklbNVOzclH/Rnh4p0tZ+YxcVbt9CX5jLAZHE5vXN2Gzp4WgmLEhQDBH59WHYJ7382L78XaxSu/hK3aqTf5qC8jXLyz5cw8Js6qnb4knxE2g8PpjavbpHNpxM+5tPUIjwsBh6fOCAz1ezcN2nst79UqTKwZjrhnyfZA6OVJnGQnRsKSvfJRTZWvOMh2XL2Nzq7PEdzPfbsLgQJw/v94j+CDmAattfuA9jDZqtjiXEOODrCEJzs1JyzZKx+NQeUrDrIdV2+js+tdI/dz37gQIP1/PCP4IKZBa+20Kz/xZzjinilHB1jCk51aE5bslY/6XvmKg2zH1dvo7MsLgeTsvLf91BnBh/vxAXfUB9/t0ke4eNeQowMs4clOzQlL9spHY1D5ioNsx9bb6OxTl0a9hDizEPg1bLYe5wAu9I8Xn0JWnIQlOzl6WM+menaxlEtxry1Hc5nwZKf+hCV75aPxqHzFQbbz4m10dn1V0/3c98HLX/7y+K4Rr1g8KZ8se9FtZyrMB6X162E9m/x2sao+xb6mHB1gCU92ak9Yslc+GovKVxxkOy/eRmdPl0byLxcCZwS9azRblBe4onvxya/iJOxSdg3YTm0j3xTzDDvjkd4GVb4018mOX8KSvfIZ1SEc2Ztft6GzpzOCYjy1EHxUw8CK4gMsm2SFwRnhinMNWR2c5E94slc+YCy8Xv+reKOY4Gy9uG5DZ+cDtfK/l60ujZ6kp0ap08dohAHZ8fFBVGzJXWxUh+JfS+4egJXfDlb5aCxGnN6cuA2dXd9ZVtxWxjMCBXBp9CTdI/AkKw2Md/6xTj4ciHZb5eO/4+N5K3/nna2nMSTvNbEql8ZghtOOq7el88ky/89y2u4sBJyUGKmFMLqmTMFX7Cq48qk4q9gqn7p2fLw/lb/zztY1x70818SqXKpthtOOq7fR2at3jch1ZyF4cpz5PgLfUHsSFoJ3TnW6rPAe1rMpXsKSHb8KG8UVfi05OrgSnuzUvYNVPhqLGU479t5GZ1++R/DELIT3hbdPveMaQJc9vGeTT8KSHb8KG8UVfi3pc9zLmfBkJ8YOVvmorhlOO/beRmevHp+S68HLXvay+DkCN8vveMc7bjs5U5Q6sCq9+J5vhe9gl/SpYnlfZnnuc4Y+mseEJzs1JizZKx/vc+UPrzembpPOJ8u8fRp/6a5aCHyg9qT897LqkA+S9B0s+SR7GvTKrvokq9jiXEOODq6EJzs1JyzZKx8fg8ofXm9M3SZdZwS1PccRp1oIenwqp1FR4u3IVKBiVfgOlnySnToSluyqXXKWJ/5ZcjSPCU926tzBKh/1fYbTjqu3pQ+fGlUL4ed//uePr2quFCXuqlTBya/Cd7Dkk+zUlbBk977McJzf0xVj5uDo+WOb8U2cZK/i7vh47ZU/PI2J+8gmCcYnyy984Quddkd/UC0Ef3xK0FFRdyJvNLzw1v3S2E685JPs6sMIFy/Jnv/uXMz4Jc6qnf4knxGmsaj84fTGRjaXT3va046fc5FN8SXjQqAAzgj6QA2HUVEKuiNTgYpV4TtY8kl26khYss/ULs5Ieo77zMOMb+IkO7UnLNkrHx+Lyh+ej4v8ZHPJJ8t8oCabuJLlQviFX/iFJ+alu9SB2448PGP1tuSX7MRI2Krd60m+zhnpijE6OEZxKv9LY7vx1IfKXxyNS68Nxj78HCFdGlGAnxFmClIhO7LtTBtjF6/8EnYpu/chxXTOSFeM+85F5X9pbDeexqLyF0fj0muDsd9rIXCPoN8+nSlIhezItjNtjF288kvYqp1ak4/6McLFu4as5vLS2G48jUPlL047tt6W3vuBL/kj71watUnbzxHc8dK6Ck5xd/HKr4f1bKppF8O/8lX8a8l2ntu8CU92/BOW7JWP11P5i9eOrbel6x5h+IFaL6GeGs0WrcJ2pApOvrt45dfDejbVtIvhX/kq/rVkb649d8JX7cRMPiNM9VT+4rRj62109uFLd7pH6CVcXQiK4YWo2JGc8ak4CbuUnfpTrBGmvlf+4lxDap5SroQnO3ESluyVj9dV+cPrjanb0Nn5HOH5z39+l3/EYSGkZFwaPSkv3aVOY2fzzj+yPPp31b4Tq/JRLYxxOi2Lcy2Z5lv5E75qJ17yGWGjWoT35tdt6Oy8YsF/HeWYYiCPe4RUrG6W9VW7xPOAu3oq0ONVnISt2sl3SZ/Z+p13tj6ax4Sv2ulH8hlhGoPKX5x2vryNzs7/j1D+97IvfelL49unPD7ly/sEoqCZolTcqvTie767ePJLdnInLNkrH+9L5e+8s/XRPCZ81U4/ks8I0xhU/uK04+pt6cOX7mYWAsUQcKYoFbcqVXDy28WTX7KTP2HJXvl4fyp/552tj+Yx4at2+pF8RpjGoPIXpx1Xb6Oz66mRY/JHPphZCBBnCoK3u6UCFW8XT37JTr6EJXvlM1u/eNeQo7lM+Kpdfdn1wz/5KjaynRdvo7MPnxpVC0FPjWaK8cJ2dC++57+LJ79kJ3fCkr3yUV8qX3GuJUfzmfBVu/qz64d/8lVsZDu23kbnIQULgadGPf5hqxaCnhq9L39n2QflGIX3/JPsaaAq+wibweFcaxsdXAlftas/u374J1/FRrZz6W10FoK+oUY8xxWnvDR6khZCr8PqRIX1Ol3xKyzFqnzA2CrfR4zr/DtzYCXOql092vXDP/kqNrIdW2+js+tdox7/sKUzAgXopTuIMwXB2928+BSj4iQs2cmRsFV7FUt9STGFX0vOzGPirNrpU/IZYRqPyl+cdmy9Ld1/8lE2+SNvzwi9hNwjvL9+oHZ0/uFfit7WG6iKP8Jm8F4dZ9h689zmSZxkx38Hq3xU0wynnS9vS9fjU+LKphyHjTNCSsYZQW+fQk48D7ir94prY1WchCU7sRO2aledya/KJd9ryZk5rDgJW7XT3+TjYzHi9MbcbdKf+cxnHv/PMrFl8zwPXvKSl8QP1LhHeFJ+ziV1QJ3pde7SPinHqIZRHfK/hhwdWNRQcRK2ah/l0VikuMJ7c+I2dHa/R+j5lgvBL41mC1eSVenFJ9+Kk7BkJ0fCVu2qN/lVueR7LTk6sKij4iRs1T7K4+ORYsPpjbnb0Nm5R+B3jVpMecqF8P58s+wDosGQTFiyj/zAR76KcbasDirlrjgJW7WTK/mojhlOb1zdhs6ul+489h3ezKXRk/A5Ah3wwr1DFbbqs8r3Ou7j63HO1O978CX/VTt9TD7e/xGnN+ZuQ2fnc4T2y/t3eNVC8JvlUUFe/I7uRSX/ipOwZCdHD+vZVE+FpXizvuKdLWfmseIkbNVOP5OPj8GI05sTt6Gz9xYCecQtL434FQv9nMuoIC9+R1dBlW/FSViyk6eH9WyqqcJSvFlf8c6WM/OYOMlOzQlL9srHx2Dkz6fGcHxuWp1279IIP31HJC4ESK997Wv/3y0EJsEH0icl2Ssf+Ve+4lxDVgeW8lechK3ayZV8VMcMpzeubkNn5/sIvGukA185xH1sIXhxXBo99YGahiwvEBga0Pey72oj/C77vJbPby/LLp78kp3cFabaRpzeuLoNnV1fzHFMOQ6O3yO0SZ9aCBqqR7I3iGJUGJwRrjhny3aOPR81jh6MJP9VO3mTj9c04vTG1W3o7OkegVwHRwuhl/BJWgjeOR8o6Qm/lF0DpnytTHnEG+HinS1789zmrDgJW7WTM/l4PSNOb1zdJr368j6c20ujXsKnFoJPSf1XXQN+1+O9rRH+Xua5Wm+e24wVJ2GrdnImH69nxOmNq9vQ2fV9BMeU5+BUZwResXjnO995FDwqSEF3Za9Aj7WLJ79VO7UknxE2g8O5xjYzjxUnYat2+pp8fBxGnN6cyIYvN8e0+apm+hUL8OOM0EuGTWeE2aK9A6u6iq/89Kisx0n+l7KTM8UaYTM4nGtsvblu8yZOsuOfsGSvfLyeyh9eb07chs7OTz7+0A/9UJd/xOGMkJJpIYAnjhd9H92LT3EqTsIuZT8G6+GApi3lEX+Ei3e2nJnHxEl2ak5Yslc+PgaVfxpTt0uv7hHI9+DFL35xfPv0SVoI6pAPkusJv5T9GKzNhZBq8PqvpVcHlmpInGTHL2HJXvmojhEnjavb0dm5Ryj/M8FqIeiT5VFBXviu7sX3YuzilV/CVu3Um3xGWK+vZ9uqg5PcCU/2S/t4/6uc8Hrj7jbp22cECuA1bG6WR8+WvfBdXQUn/1288ktYslNbwpK98kl9Pds+OrgSnuzUm7Bkr3y8/5U/vN64uw2dfeuMoOScEfwbal7gpXUvvhd7F6/8Epbs1JWwZK98ev28hk3zm3IlPNmJk7Bkr3y8rsofXm/c3SZd7xqp7TmOOL1LIyV/3eted/uuEWTZ2yCXaKcCFXsXr/wStmqnxuQzwtS/a8rRPCY82ak9Ycle+fhYVP7weuPuNnT24VOjaiFws/ykfFXTO+cDJT3hyZ4Gccde+Yww8Gtvo4OrwntYz6Y+JSzZ5Yec4cBr59jb6OzVu0ZHjLQQcPabZcizhcFd3bz45FtxdrDks2qn3uQzwlJfz7SP5rHCe1jPpvoTluzyQ85w4LVj723p+mS5ffsUf7bHHp96ct0jPKLOFyb+ilTByec+ePK9lJ2aU6wRlvp7pt3nuJenwntYz6a4uxj+la/iI9ux97Z0XRpNLYQ2Md9H0M1yi3khl9BVcBWr4uxgyWfVTs3JR/0Z4eKdLWfmMXFW7fQl+YwwjUPlL047tt5GZ9dTI7XlK3l7Rugl5Izwvv59BDrqA6OOX9JexVK+VIPwa8nePLe5E2fVTtzkM8JmcDhs7dh6G519eyHQAc4ITy2ER4PdG/D3Io9PxizmvGvo1YGp/ImT7PglLNkrn1EdwiX9wMemNrn10p2+j+C4/A8bN8up2Cfp0kid8+Jdr/CEXcp+DOTDvzppS3kS/0x7mmvPmTjJju8OVvmMYqre3ti6DZ1dC8ExxUAel0apIP8cIXE82H30VKBi3gdPvpeyU2OKNcLUv2vJmXlMnGSn9h2s8hnF1Hj1xt1t6Oz6gS/8HL+NU50R/KnRqGgF3JW94jzWffDkeyk7daZYI8z7eA19Zh4TJ9mpewerfDQWI05v3N0mXe8aEVc25Thso4XwpNwj9Iq/05GHqz5tPd+eTf4JS3b8djHlvJYcHVjUkTjJfmkfjUWVT5zeuLsNnV0fqCW/eGlEEXyy/L7+DTU67gOTBkL2xK/s98E87zX0mYOr4iRs1U5fk4/GYYSL186vt9HZuUdov6F2h5fOCBShm2Uczn4D1YtSB13eB+/59mzKl7Bkx28XU85ryZmDq+IkbNVOf5OPxmKEi9eOvbfR2XnprvcNNXHLM4JulmeKVlG7UgUl//vgPd+eTbkTluz47WLKeS05c3BVnISt2ulv8vGxmOG0Y+9tdHZ9Z9ljo4v74EUvelH3G2qcAX7xF3/xiflkWQW3HfHO9LCE78Tb8Un5U63XsI8OrgpP2KqdfiYfH4MZTjsv3kZn9w/UPL64cSFQwJP0gZoK9k5I38Gu5TNTozjXlNUBtoMln2SnrxWmsZjhtHPpbXR2nhq1v4atHAcnnREogMeneg17piAF3pFefPJPnGQnTsKS/dI+6kuVT5xrydFcVnjCVu30Nfn4OMxw2rH1Njr71kIgOTtnBBbC2TfKdNyL94FwPXGSfRQ3+SV7Fa/yqfy8f9fSq4Orwqgv4av2KpaPQ4rrnHbsvY3O3j4+bf27l0ZKrkujmYWAjxfgiWb0Gd/ESXby7mCX9hnVMTM+l+RofnsxKwx+wlftVSyvK8V1Tjtf3kZnZyHwa9iOKcbB6V0aKfn786URg9AblB175QPGlnI9Qq/3r+Y2ZdzFk1+yk7/CVN8Mpx1bb0vXd5YV1yWcx84InlifI7jNA1xSV8FVzIqTsGQnTw/r2VTTLjbjL87ZcjSXu3jyS3b6WWEahxGnNyduk85CeO5zn9udc3KVC0GfI4yKUdH3kSo4xaCG9O0ifJJ/siefVb7qrfxWOOKeJUdzuYsnv2SnfxWm/o84vXF3Gzr70572tJsXvOAF+ThpL408sX8xR4VVUr5eSMV3bMYncZKd+KvYKl99qPxWOOKeJTVHKf4unvySnfwVpvpGnN64u0368DVsXwieFF0fqM3eLKt4JVd7Rs74VJyEJTs1JWzVXsXyvqe4zjlb9zlOuSpOwlbt5E4+XteI0xtTt6Gz9941Up6Do4XQJqStp0YtpgCtFM8LaTmpPeNTcRKW7NSRsFV7Fcv7m+I652xdc1TlqTgJW7WTP/m0tVW83pi6Tbo+R0iX13fuETwhuj81aovrteWv5D1Oss34VJyEJTt1JGzVXsXy/qa4zjlb1xyN8iTepezkT7Ha2ipeb0zdhs7Ou0bTN8ueEJ2bZb6P8O53vzseNF60/L0Qxyt9xqfiJCzZqSVhq/Yqlvc5xXXO2brmaJQn8S5lJ3+K1dZW8Xpj6jZ09umF0Caj/f5wacSg+sD4IF/KXuVQvpRL+LVkO88pb+Jdyq68Kd4sDq8dW2+js6eX7pTn9tKoLYi2zgjoLa4ALuF4EY6N9Bm/irODJZ9VO31LPur3CBfvbDkzj9SQeJeyq58p3iwOrx1bb6Oz65PlHv+wVTfLempEsaOCCQbHi8A2u834VZwdLPms2ulj8lH/R7h4Z8uZeaSGxLuUXf1M8WZxeO3YehudXTfLPf5hqxaCLo0gjgqGc5/Ni09xKs4OlnxW7dSbfNSXES7e2XJmHitOwlbt9DP5+BjMcNqx9TY6O5dGeg3bceUqL41+6Zd+6fZn4WcKUtAd2SuujVNxdrDks2qnzuSjPoxw8c6WM/NYcRK2aqefycfHYIbTjq230dn5HEFPjRxXrnIh8Pj0SfnyPgX3OnDbkYedTVvyu5SdvCmWahrh4l1Djg6uCk/Yqp1+Jh8fgxlOO7beRmfXd5aJ7bhylQth9WZZQXdkr7g2TsXZwZLPqp06k4/6MMLFu4YcHVwVnrBVO/1MPj4GM5x2bL2Nzs49gn7FwnHlKhcC9wjvC99QozO9zt128uFA9Lbks2ondvJR3hEu3jXk6OCq8ISt2uln8vExmOG0Y+ttdHY9PlVs52A7FkIvGbanbpY1bI9kO3iOVph4Mxxxz5S9+fZ8FZ6wVTv5ks9sLeK14+ptdHY/I+DnnKPNU6O2ILVXX7FQYTuyLawXo+LsYMln1X4M5MPBrrYUs/I5C9P8pvgVnrBkJ0fCkt3rGnF649raaOvxqTBJ5eqeEZTcf+lODmfJtrBenoqzgyWfVTu1Jh/1Y4SLdw2p+U25KjxhyU6OhCW71zXi9Ma1tfGiXXtGIIfzyoXAzbL+xxwv7gzdi0rxK84OlnxW7dSbfLwvMxznn6WPDq4KT1iy04eEJbv3e8TpjWlrYyE861nPuvm+7/u+x+ZJ3PeZhaCCfZBcr/CEXcpOHSnWbI3OO1sfHVwVnrBkpy8JS3b1f4TD6417a2Mh8NIdP/nY+ogbFwJF8IrF++uvYbcDcozQe/7R4Lit4o8wxUlxhV9Ljg6wCk9YstOnhCW7xmGEi9eOq7el610jtVvfciHocwScZotSglXZFtj63wdPvpeyU2uKpX6McPGuIUdzWeEJS3b6k7Bk1xiMcPHasfW2dN0jtF/MEf7YQvDkukeoOqNi7itVUIpzHzz5XsqumlM88AqT/7Wkz3EvZ4UnLNmJn7BkV00jXLx2bL2Nzu7vGskPKW5cCBTxmte85uZd73rXVX7pzovyQqWrYLVbmfBkx38Vq/ijeDM4nGtsowOswhO2aqefycfHYIbTzou30dnvtRA4I1zrk2U67x3wwRhhFb4bs+fXs3md98U91pn66OCq8ISt2ulf8vG+z3Dacfe2dL1rpLbnwFaeEa55j0BhvSK9YK7v0sAk32Qf5ev59Wxe331xj3WmnsZQOSs8Yat2ciUf1THLacfd2+js+qqmx5Z+cH78x3/8zv+P4MXpXaOZn3NR0F3pxacYFSdhyU6OVWyV3/aj8m+5Z7Z9jnt5Kjxhq3byJh+vaYYD38e21Wnr8aljyoPtgS8ET4qux6ezC0H+vWRKmuSMT8VJWLJTxyq2ym/7Wvm33DPbmqeUo8ITtmond/LxumY48NuxVRvJnu4R5Du1EChmtiDvxIquwiufipOwZNcApHw9v55N/hW2whH3TDmay4QnO7UmLNkrH+975e+8dvy9ja5LI7fLH9v7/UKgs73OV/aEpTiJj923yt95Z+ozB1biJDv1JizZKx/vf+XvvHZsvc29pb6hho9jilEuBN0jQF4paJarIpC94hwfcSr/hCV7yrXKX6m/5Z7VnpmbxEl2ak1Yslc+6nvlK45kOzdqI9n1gRp8YfI9bLpHaJPS5u3Tv/7rvz74Le5B0B3vJWr5bXvGp+LsYKs+q/ydPrY+l277PKXYiZPsxElYslc+qqvyFUeynRtvc0bg8ekP/MAPHIvAsVv/aiGsfo5A4b0kSjaSI98K38GST7JT/xnYaFwuic8cXImT7NSXsGSvfNTfylccyXZevN0uBHwcP9rVQvjlX/7l41csVp4atQlU6Iwc+Vb4DpZ8kv0YsIen2bTt+qV4Z9hnDq7ESXbqTFiyVz7qd+UrjmQ79t5mIfD/Izzvec+7XQCOE+P2HqFNSlsfqOE0uxhU2I5si2tjVPgOlnySnXrOwNp+ntlu57mXK3GSnRgJS/bKRzVVvuJItvPibXTdI7T2W//qjKCb5dmC4HkiJZmVI98K38GST7LTjzOw2fG5BG9mLhMn2akrYcle+Xg/K3/ntfPibc4IfI6gX7GQn3O6ZwSSs7MQ9LtGck7SC/YEid+zj/wqfAdLPslOzbvYyLc3HmfZfK56ORKe7MRIWLJXPl5T5e+8dl68fa+FQBJdGs0WI54X4cWO9JFfhe9gySfZqX8XG/mOxuaSuOapF7PC4Cd81V7F8rpSXOegt/PibRYCH6j94A/+YOSVZwQthDZpaqtoLyJxe/aRX4XvYMkn2al5Fxv59sbjLJvmqY1P30b3gsl31U7u5KO6Rrh4yHZevI2ux6csCt/Ee2whKDlS7xrJ5gFa3TkK3nKq9oxPxdnBkk+yU3/Ckt37PMNx/hm6z1Mv/i6e/JKd3BU2g6v+3rjKJqlPltWWLxJbuRD8cwR37OnqVC9Rj9/aZvwqzg6WfJKdmhOW7N7PGY7zz9A1Tyn2Lp78kp38FTaDqw+9cZUNyd67WXb/YyF4QdKRO2cEFaAks3LGr+LsYMkn2elLwpLd+z/Dcf4ZuuY3xd7Fk1+yk7/CZnD1oTeusiHZeXzKr1i0l0bEODg8PvWC0NXml+54xUJtJU5SPBWReMk+8qvwHSz5JDt172Ij3zQmZ9g1Tyl2hSds1U7u5KO6Rrh4vTmRDcnOQuBn4dmEuX95Rlh5fEpQFd4mUsJKzvhUnB0s+SQ79e9iI99qbC6JaY6qmBUnYat28icf1TbCxWvnxNvo7Fwapf8f4eD0zggq8qmFoKF+r/RBfq/1kVZhMEZ4G++M9szBVXEStmqnb8lH/R7h4rXj6m10dp4aff/3f/+hO06Mg+MLwRPzGI3/MUc/8KWkSbpvmyj5tPaRX4XvYMkn2al3Fxv5tmNxVtvnKeVInGQnTsJW7V5T8nUOejsn3kZn1+NT+T7GqRYCZ4Sd17B7yWSrpBfX41X4DpZ8kp2adrGRb6+/Z9hGB1eFJyzZqT9hya4+j3DxkO2ceBud3e8RWp+DUy2EX/3VX71561vfGjvjxfQK94Kcm/QRv8J3sOST7O0Atv2o/Ea+bayz2r158lwVnrBkJ27Ckl21jHDxJNux9zZPivTUSHZJ/NHv3Cx7cl0azfyukfupMCXw9kj34nrcCt/Bkk+yj/pU+Y18e/09w5bmSrkqPGHJTsyEJftMHeK4bMfe2+jPfOYz7/watuPEKRcC31D727/92yNfVXiLtUm84Eof+VX4DnYtH+9zldN5Z+ntXLV5dvDKJ2HJ7vXMcMRvx9Xb6Lo0au23/j/2Yz92/K5Rm5QzAl/Mmfn/EVpfT6ZEM3LkV+E72LV8vO9VTuedpbdz1eap8IQlO7ETluxezwxH/HZcvc2lkT816vk8SAuBImZfsWgL9iKUdEaO/Cp8B7uWj/e9yum8s/R2rnp5EmfVTuwdH9WUfIW7bMfV2+i9MwL+4sWF8O53v/v4PsLf/M3fxM6okLZgBRc+I2d8Ks4OtuPDX5e2v+pfFW+FI+5ZMtWvfAlftRNvx2dUh/BW+vi3Oi/d8Rp2+4qFeHEhcGnEu0a6WW6TervtrII7Z0Yf+VX4DnYtH+97ldN5Z+rtfLW5Er5qJ+6Oj+pJvsJb6WPrOgc/nyz33jUSLy4EiuDSiG+osSiqDS4BJStuwlRQwrFXnB1sx6eqo4qnfs1wxD1Ljg6whK/aqX/HR/1OvsJb6WPrOguBL+bwyfLWGUEfqI0KYqF4YtfbYqv2yK/CL43txKt81O8ZjrhnydF8JnzVTv07Pup38hXeSh9b1zn4uVnmPxNcWggUwD67EHoFeyFtwak98qnwS2MpXrLTpwpTn2c44p4he3PV5kmcVTtxd3xUT/IV3kof21bXB2qnLYRUrBfSFpzaI58KvzSW4iU7faow9XmGI+4ZMs2XclV4wpKdmAlLdtVR+TrHdR9b1zn4+UDtu7/7u28+8AM/0F0OHW73HoEi2WdullOHvJDHMheGyq/CCNnDezalT1iypxyjeLO4eGfKNF/kpN/V/WDyTXZiJizZ8dE2wxG3nTNvo/vnCI7hT/uxhaDkSBYCb59Wm/gtp03W4qld+VUY8RJ+KXuVY4TN4HDO3tJ8KW+FJyzZiZmwZFcdla9zpLdz7G10bpbTb5+Cx4XAXwY+WWYhtDfDSj4q1otxn0qvfCqMmAm/lF05mMRezJ6t7esMp/W5ZPs+B2DyTXbqTliye19nOOK34+ptLo24R2AhoDuGP+1yIbz+9a+/edOb3hQ7Q5Cq2DYh/NFW+exg1NfeIKmGFC/Z8dvFRjmFny2r+VLuxFm1E2/HZ1SHcJftvHgb/V5nhDe84Q03b3zjG2NnKCR1FMyLoT2zjXwqPGGXslN/ijXC1PfKX5wzZTVf5K3wHSz5JLv3fYYjfjuu3kZ/9rOfffOd3/mdj/76P2z7Bl6eEX7nd37n5o//+I+3B8eL8cSVPvKp8IRdyk7dKdYIU58rf3HOlKODq8ITtmqnf8lHfR/h4km24+ptrghYCM95znPWL4141+g3fuM3bt7ylreURVcFezEqeCRHPhWesEvZqT3FGmHqd+Uvzpmymi/yVnjCVu2jPDM4HN/acfU2Oo9Pv/d7v/dYCNTb4uUZge8jvOtd79oaHIr0ZF50pVc+FVblS36rdtW961fVqNhny3TQKm+FJ2zVTq7kM1OHOC7bOfE2ZwR9siy7JDHQ40LgjMDvGvHFHIp2Ry+g6lDycf9Wr3wqjDgJT/Ydn51Y6mPlK87Zspovcld4wlbtozwzOBzf2rH1NgtB7xrJLkkM9HIh6Btq7uTJ0dMggFV+4L2t8qkwYiU82Xd8GNTU5ypPlQvsWluqXfkrPGGrdnIln5k6xHHZjr230f0DNfnd4fgXc7w4zgj8nMvb3va27sfSCuY+skl6ItlGcuRT4TtY8lm106/koz6PcPHOltWc7WDJJ9npX4XN4L0x8vF1nT9ez3jGM26+53u+586jdOfcOSOoOCQforEQ+Bzh6U9/ei/vYZNPj+CJenjPNvKp8B0s+aza6UvyUT9HuHhnymq+yFvhCVu1j/LM4HDazcfXdd4v4tKIheDvGjnnWAjqiEsWAt9HePOb33wsBHfyAuTjNteTn3NcH/ErfAdLPqt2+pB81L8RLt6ZcjRfFZ6wVTv9Sz7q+wgXz2U7vmp/0Ad90O1C4OzgG5xj59JISV1qIfD4FOcP/uAPPvzhKAEG+Xhw1+G2Po63usduMdoVvoMln1X7qLYZHM7Z22i+Kjxhq3b6mHzU/xEunqTPFzr+snHs8r9q6hUL+SDFKc8IvHTHPcJ//Md/3PCdz3abKVaJWt/UHvErfAdLPqt2+pN81NcRLt6ZcjRnFZ6wVTv9Sz7q+wgXT7I3ttjYuRzi8p5vqPmlEb7yKxcC9wj8nMu//du/HSuKU4xvM8UqkftV+ohf4TtY8lm106fko/6OcPHOkjPzVXEStmqnf8kHjHHiimR1a8eXNjsHP2cE/R9qzpM+XAh8ef9f//Vfj8L9rFB1xDugRG6r9Bl+4iQ7+RJ2KXuVQ/1NuYSfLWfmrOIkbNVOP5OPxmCEi+eyHV/a2jl29VVN50m/XQhKLMmK5NKIHwHmjMDjVFYVZwVxvIikK1HCW/sMP3GSnRwJu5S9yqE+plzCryFHc1fhCVu108/kM8KqMWrH12+M+RUL/ZyL86THhcCBz/cR9CsWLAYWB4+hqk60hSpRa0/tGX7iJDu5EnYpe5VDfU25hF9DjuauwhO2aqefyWeEVWPUji9t2Tgj6FcsZCOW9OmFwA3zf/3Xfx1PkPiSQ9URL1aJ3FbpM/zESXbyJexS9iqH+ptyCb+GHM1bhSds1U4/k88Iq8ZI46vYfmPMJ8t66U48YkmPC4G//tws64zAGeI///M/j8XA6vLTzkxxFccxFeY21yt8B0s+q3ZqTD6qf4SLd6bUQZJyVHjCVu3kTj4jLNUtP8aY2Byffoymb6hpTuJC8EsjFf3v//7vx0IA4yPrmU2JZrhwRvwK38GSz6r9vrXPjs99eJrHKkbFSdiqnfzJZ4RVtTNnumrhbOBz6PcIxBB2K/WBmgqT5GD/lV/5leMnHzk74IBsL5GqwjzhiCdchandygrfwZLPqp06k4/6MMLFO0tqbqv4FSdhq3byJ58RVtXOImDjgY7OBow5OwvBP0fQXNzKaiFwadT+97JaCFwmcYnUfrbQFqpErT21R/wK38GSz6qd/iQf7+sMx/mX1KuDT3kqTsJW7eRKPiNMdbpULI5JzgQckz7OLAoujXh86vcN4iDjpRGri6dGvhCUkEskzhhwdImkoF4gerK3PLVH/ArfwZLPqn22rymu+n+m1PxVOSpOwlbt5E8+I8xrJ4bGk2OSg5yDvv3jjI1PlnnFYmkhkED3CL4QVAQLgJ0VyMYjVRUkjmSyC2/liL+LJ79L2elHiuV9nOE4/1J6deB5joqXsFU7+ZLPCPNapbMIGFcWgA50H2d0jlGeGgnHVxzkcUbASGG+6x6BhcC9gW/wWAQ6K7DiuEzqbWBVp1sfFdfa1d7Fe3492ygPPvSn59uzKR5yhDv30vrsHFS8hK3a6duOTzsmxOAPMscnB3h7SaTxRuo1bD9bOD5cCDw+7RVNcl8MJOCGRMFVdNuWPckRfxfv+fVsqithyY5fhc3gyn2G7M1hL0/FS9iqnbw7Pm29HH8sBC0C/2sPV/OB5NjU26duF+/2PxPUX31JEvDUqHdppE4guXnmzMDO665ciymRkiBnN/ft+eziPb+eTTkTluz4VdgMrtxnSM3ZKHbFS9iqnRqSzwhT/SwCdg5+jjvGnqsP3zQfyO2FwIHN/7Pc+x9z6AQ7CXR5dKnFoOK9Q67v4j2/nk25Epbs+FXYDK7cZ8jqwPN8FS9hq3byJZ8RBq4zAQc+C4GdsW/HX214eg0bXQtG+OGr/3CcMwHFqcCZMwJFEYTCtBCQ7WWSEsIfbTPcxEl2cibsUvYqh/qccgk/U2peRzkSL9mJl7Bkr3xUX88XG8clx5svgvbAVgyNN3LpjEAiFTC7EJQUPouABYVklfK2qlareCOp4ite4iQ7sRK2at+Jpb6kXMLPlJrXUY7ES3biJSzZKx/V1/rquOI4Y+O4YgH0bn4VQ+ON9M8R3A6X9p17BJJr52Dm0qh3s+xFoh+BHgbjfkEF68zA9RvFKrmKTHKGlzjJrs72ciafZN+JpbxVTHHOkj5nVY7ES3ZiJSzZKx/V5r4cUywAJHZfBLRZEMh2fNVG3mshjG6WVbRLnRl0dqBoFgK7TmHO7+nqQA/DlvBk3/G5ZCzvRxXXeWfofnCl+ImT7MRJWLJXPqoLX3ZfBGC+CMSVbMdWbSSXRnrFQnb80I+9d49AARzIOwuB4Fq9WgwsAHbODnRktHmhPW7Ck50YCVu178TyPqR8zjlLrw5M5UycZMcvYcle+QjDV8cPko1jSH9YD0PzTzu2aiP9k2XZcUc/di0EEuvUg87BzEJo/8PxqnNeF8Vrx0cJtRi8GPdTca1NbWKlM8tOzOST7FV9lY/qn+GIe2k5M3eJk+zUmLBkH/lwHGrnGGLM2KtFQMx2bL3tnyy7Hf3YX/SiFz2s99EiaBcC9wjt5whV5yjGN+Lp7IDO5qe2nQOaGN4R2tqSHTxhyb7jU8WaqVGcs+TM3FWchK3a6V/rQ1t7uwg4Ttj9xrg3Ru34e5s3H/ylOzDhh14tBF0aedK2A471dPhaDOooiekYi4JdBcm/bcsumfBkxy9hyb7jU8Ua1S78TDkzdxUnYat2+ug+6Oz89UeyENA5RhhTriLQR1s7/mojuUfgXSNisWFz/EFaCDyr1RnBC/AOuH2kazHQSWKoEF8QiqEC1W5lhSfsUnZqWY3l9Sdf55ylz8xdxUnYqp3+yUfHg6QWgy+C2TFreWojOSPw38vqCSY2xx9bCCqIA/fXfu3Xbh+fykkd2JksYhOXGIqjgui4F1nFVy09TsIuZSdnijXCZnA4Z20a8yp+xUnYjh0fjgc2P+Y0thwLo0uhXj/kDyYdyT3Cd33Xdz12jIEd+4tf/OL/oRDfKZIzApdG/P8I2lKHhY8kCcnDqlfnkVr94DpDINMGL20Ju5SdvCnWCJvB4Zy1zcxfxUnYrB2eds0/fdUfR8ZVfxCr+a/Gx+dGOlKXRu0fW7Bj7y0EiqS4X//1Xz9ulkmsDlRFzGAqjsWgAdBAqvNw0HVj3cZVjNZOO2GXslc5RtgMDuesTeNcxa84CZux68CHqx0bxwEb882ua/iqxgrzeZaOZCHwa9jEp+0Y8R6wEHRdRmHaOSNwacTjU22pw8JnpAqASzwWAznZkOBaENh0M43U5jFkk0zYpezkSbFG2KhG4WfJmfmrOAnr2WVDMq9I33XMMZZaAEj57Y6Bz410JJ8s6x6BPI6R61gIOviRFIhkIfzmb/7m8fYpTurEboHyUwHeJqefHcjVFosfOysavI3j8aS7vBSfmCnWCJvB4Zy1zRxkiZPs1NrDmFN2xko4Unb9YevdC4i/Mw4+N663r1gIu5WcEVRguxB4asR/Jpg6e99CW38NEvVoMHxBiI9NZwp1RFjbvrSdeCnHCJvB4Zy1aUyr+ImT7MQShuQPGhtj5HbNLXZ25lCXKYfDe/6Rj9tWdJ8b6Uh+4Iv/Z7l3j0D844xAcgplIehShTMC/72sLo3uW6A6o+LU7knVoZy0/QmCYoAzoOocsYS1cS9lr3KMMNWUahF+ltR4VvETp2eXDckLl8yD29B1PNFnduaLt5KrTTEqTsJ8bKUjdWmkxecYscqFoDMCTvcpzotWAW5LuhYnuZUffwZTm9fGRID1cvRsxFi1Vz4jDJwt5XyEnvevxrDKUHEc0194Ymk+wLULF8YZXAehx+nVMsJ7PrL52EpHshC4WdYfTcfw7S4EOqGb5b/7u7+7PQiV7L5SRVRxnEM9/GXBxtmBDV2DjM7gSaLTYV0+KQ94u/VscJL9PphyV7HFOUPOHGA9DmNOzWD85fc/NtiEaZ40RtjZeeFNWy++MMkZjritJJ826aqBVyyWFwId5qnR3//93/+fLwR1jAlhsJEaLDrpEyMudi0aFoQWhQbHedJdtrxLYLMxnHdpXQd1L67GFAydnfFmZzwYQ23iak7gsMFjPuBy0LWb/Fq7t2c4znfd5811PlDTUyPswm5l+zkCf3npFAuBS6N/+Id/uD3oPOF9dCWvYlQcBkrXnsTQwOHDJLD7hh2ODgJfGOJ5PrhtDPEknS8bMtmds8Jr/e7b1lgpjrfR2Zl7pP56oqtf4miB0GYDZ8y4/NGCEaZcksk+i4uXpGoFR2ef+hyBA0S7LwSdEQg4Kh7O7OaFJp8ZDr76i0R92rFrQWggsGnDxkTCR2finO886a1M9SX7rH/Lu1Rb80d9GiekDmjGkTFgLNQHJHaNE1z/AwQuHy0ar1c53Yae7COsjZPaqh8cnZ17BF6x4EZdNuGHbB+f0lF2/irwyfKTdGlEwb6pQxpYTaraSHYd6OJ7DOnw8NeGjyYXP21J7+Gy9aTH6eH3san/HoMDWnO7Mibuo5r94CcH7V7Ong1+so8w8JlNdcJFZ+fx6Xd8x3fc3rCLcyt7C4EDgv8h53d/93dv3vrWt87kXuaogOR4X5w+6K8Zko0JYNK0ew7XVRN+ioENjhYVMWi7n+viK1YrW26LV+3egYSNXTWr/6qRutmrTf48KPE/CvSVjT8MevJDu1cHdm0JT3b8KkxxK9mOq2pnITznOc+5PSNgJ5f48akRC+GP/uiPbv7kT/6kyruNqYAUYBfv+emg8MnVgMNnULRTTy+G1ylf4qEjFQcesdRGtrvHSrpyIH3XwnQb+bRAPb/Hhg8PySZ/aufAV5ta2ZDE5OBH0pbvQXj4T9uWXTLhyY5fhSnuSKoP8NDZP/ZjP/bmW77lW46FLPsd+ZKXvOR4+5QBYZCR7CyEv/zLv7x5wxveAP/imxfbC76Lt34MbGvzvpK7HXwmXpOPL7viSPeaPX4bC54OXvn0OMIkFVOLirZ25xBbXLdjE4ZUDW3f4VEPedj5iy9d8ZC9mnu2kU+KJb9RTPEq2Y4H/fn8z//8m6/6qq96bCEQB/4DLQQGiutBSe4R+Jom7xudsbXF9nJUnB2s58PAs9NvDhLpcDUp8tMBIim7pPehtbWxWq7w1u5tdOL2uNjYdcB7f5yvupD6i6/+EN+5tLVdyk681ViqYVaqj/Clf93Xfd3NZ3/2Zx9nOMURhryzEDR4uln+l3/5l5vXvva18ruoVBFV0Iqzg836MFGMBeOgSaOtTTa1kcTmwGLT2YQDTJtyI/FHtjZxe/FloyY2Fq1L4YpJW/mROuhV4+Fs/8jfTHfUhK/aCbrjc6eYQUNjIBr9/7Zv+7abj/7oj76dIzDxkN2FwCBz3ch/NP66173u0OWk4PeVM/Eqzg626tPymUB2FgW79HZi1Ua2MTRu4jhe8eUHv+Vh08GOpK0Dvo2vOD2pmlaw5JPsxE5YsvfqqWzeZ40NnyrzWUJvXOAcC4ECNLksAi0Ezgi//du/ffvlnNnkFU+YFytbKyvODpZ8kp2Dqp0c2vCTD33Q2QOu+Iyp2m0/abfxyC278kkKOwjv8SV22irMfSpewlbt5Nvx8TpHejuWH/VRH3WcEXT/g79zjnF96Utf+thXNZk0TsGcEf7sz/7s5g/+4A9GuQ/cg884jPi7ePK7lJ2+pVgjbAaHc8ktHXhtjoqXsEvZqSXFauucaWt+kF/0RV908+Vf/uW3j07xd/xosxAogL9iLACdGVgIPDnipbvXv/71t9ekoyKUYMQ7kj8sstpGsRJ+tn1Ue8rvfZ3hOP8++uwBVvESdik7/UuxdvuuM/o3fdM33XzSJ33S7QekxNP438qXvexlt2cECtFiYCHw5Oif//mfjydH//RP/zRdj4KPHEa8XTz5XcruA9nrY8rTcmd5rd9qe+YAG3ESfik7fUqxVvsLX2PLm6/f/u3ffvyKBZ+JaBN+K1kIFMACYNNCQHLDzEJ4y1vecvP7v//7t4XKWUFbOcKdP+JWeMKSnbw9rGdLXNWefEZ+8l/huc+OPnuAVbyEXcpOv1KsnT7jwxxxWfQlX/Il5Y3ywX35y19+e0bgsohidJnEYuA+gTdQee9Ii2VUWHWQtL4jboUnLNmPDncuxxI/2VMc9a3yE2cUw3n31WcPsIqXsEvZ6WOKtdN/5oBLo2/91m+9+ciP/Mjy/oD4D1gIFKB7Ay0GnRm4T+CyiFct+KR5tthLHQxVnB2s59OzHYPTWTSalOQz8pP/Cs99dvTZOat4CVu1c3ylsUuxdvqMzyd/8iff8EEav3KnFyixK7/kYXvFK15xnBEoQotBOouBewUuj3gLlU+Z4cxsnqTij3gVvoMln569Z1NfdjH5I6sYzruvPnuAJV6yU1fCLmXf7TufF3zjN37jzbOf/ezjFWzaGu+efMBCoGidCVyisxD4D53/8R//8Tgr/MVf/MVtwKpIJas4wirupbEUr2fv2e5bs/yRVXzn3VdPB6XHrTg7WPJZtXuNK/qnfMqn3Hz1V3/1cZPMdxD8sxeNu8sHr3zlKx/Wdnch+GLgrKCbZu4VVs4KFK5kVScqzqWxFK9n79nUj11sxl+cS8h04LWxK94OlnxW7W2dM20O+m/+5m8+7g24LBqdDYh5uxAokN0XAW1dHulege8n8AGbntGOCqsOGPlWnEtjKd6q/Ri8cA+RYqm/la9zLqGnA68XO3GTnRg9rGdTvoQlu/xmJDEY+y/4gi+4+dzP/dzjbMDjU71WQQzNzWNSZwRIBGL3xYDOYtBnClwisRD4cWCCjTqghMRP24iT8GQnT8IuZd/J4f1PdTjnEvpofjxH4iY7vj2sZ1OehCW7/Gbls571rJuv//qvPxYBX8/UaxXE1+WRj73044xAEoi+azFgQ+fyiLOCbpx/67d+Kx5sbdFK1trV3sUrv4Rdyk7tq7HU38rXOZfSmcPRVnEStmqnhh2ftnZitGOvuN/wDd9we0k0ezYg/oNXvepVD2Pc/dYSbXYtBp0V9ASJx6lvf/vbb/7wD/+wrbHbbotuSbt45ZewS9npw2os73fydc6ldM1vFY857tVU+SYs2cmfsGRva048av/iL/7im8/4jM84HpfypqkemapfSZKjuxAAGBhJkmsx6KzAJdKb3/zm47MFErBXRR7Bin9UZI+SsGQnRsIuZd/J4X1LdTjnUnqaF4+fOMmOb8JW7VUsr7HHYxzJ9wmf8Ak3X/ZlX3ZcEvEbRlwSzdwkK/5jC0HJCN7ueoLEp81cIrHzQVv7P28quMvRxFd4wpKdvAm7lH0nh49H5d/y7ttOB6bHTZxkxzdhq/YqVlUjeZhPvpj/NV/zNceZAJ1LIj8baM5bqdjYj4WgQjDwl18dQba7bpz5rgI7j1Tf+MY3HotCiZTAZYXBq/AdLPlcyl7VnHL4eFT+Le++bc1nFSdxkp1YCVu1V7G85jYubR6P8nnBM5/5zOODMy6JdIPc3hxrXiSJLf12IagYJXOJrjYLRR+y6azAZRIv5fGm3VQxAAAOBklEQVRkyYMfjff8o4Ruc73Cd7Dkcyk7tadYI0z9rvzFuYTU3FWxKk7CLmWnrhSrrdl5HOhf+7Vfe8OTIp4QsevDMzCNL9J1j3lrf/WrX/0w9ntvlr0o2Tn4caCNrsXA/QKXSdw8s/NYlbOEVqInRFfS1n4Gtpor8ZP9PjWr/1VscS4hNY9VrIqTsLPtvXqVk7/6X/EVX3E8IdIi8EsiHYOMsY+z68RX+8HMQsCBAlSELwYWAgc/Zwfk7/3e78W3VJWUeO22ixGn59uzKWcP69lS7CrODLbCEfc+UvNWxag4CTvb3tZLPnau/7knYAFwaYTUItANMvOpOW2l4spOu7sQANRJSdnU1mLQl/xZBFoQnBk4W2jDxwuTvZVe2CWwFK9n79moIdnvg3nfqvjOu4+uOUsxdvHkdyl7Wy9xOfC/9Eu/9LhB5n6AnUWgp0Srl0TKcWchYPROSJd0HJsWA/cGnBk4+LlEQv/TP/3T441VJUKOJr3Cd7Dk07P3bKOak8/ID1xbFUOc+0ifuxSn4uxgyWfVrno5zjjAOdi/8iu/8nhEqkXAPUFvEbQLQrGQvTE/FgKgFyldssJ7i4EzA4uBb7a97W1vu5O4VwTx2S6NpXg9e892Rk1HR9/zT8rpnPvqPodVrMRLdmIlbMWeuF4rnI//+I8/3h/ioNelEIuByyQuh/ySCF/GVuMrqZht++Bzj4DiBc3o8oHL7p8xcGbQYuA/I/TfT+0VQSxtFZ6wS9hXY1Bv8hlh6usKz31mdZ/HkU/irtrJ0/Pp2VouHB9T2uyf9VmfdXz5nr/+uhTS5RB/+bUI0OH72YAcHtN1x8ozAkQ2gmvr6djYtRhYCL4YuFziZ2GwtYUormSFJ+xMe4pNvRU2g89y4O1sPleVf8VL2Nl26uWv/+d93ucdT4a0AFgMvgg46HXgMx+ak1aq/7K37e5CgOQddb3CdJmkF/S0ILhM4ss9XCq94x3vOGpoCzqMD/9JdvCEnWlPsat6Rhi4tiq+OLuynbcUp+Il7Ew7sfl5Rn6rlMsgDn6dDVgc7FoAWgT0jbHUeLqufgvrteNCgNx21ttJ12LQh24sAN1Io3Op9Od//ufHjbYKctkWO4Mln0vYUwzqqrAZfJYDb2fzOUr+I04P79kUP2Gzdq75P/MzP/Pm4z7u444DXn/9tRh0T6AFIEl+zUcrVZvsvfb2QiBY2zm1kSwIvY6hMwJnCC0Mzg58p4GNAvFpCz1A+yfhZ9pTbNVt5d1RKz8nzvLcZ1bXfIz4Fa+H9WzKkbCRHZyX5b7wC7/wOAvwV59FwIHvi0BnAsbNd/JrLJNUjc6V7XYhYOgV29pGbcWBx97eN7AQ2HnkyqsZb3rTm44zxm1BDzuYNnWwxc+0p9jUsIt5/VUM5+3o7Vz1Yow4PbxnU+yEVXYOdm6I+aK9H/QsBtpIOO0iICc2No1jKx07iMZV++DoqRGNqlh36vHc1uosBnbdM7AI2LUgeHuVV7o5i7CpM57zSbTv1DTbp5a32vY5qHxHvB7es5Ej2SuML9l/4id+4u0NsA56XwA8FdIiIJYf/BwrOl5aCVc2dLa2/cj60O4LAWOvMzs290HXpZJupLUItCCwc3bgHkJ1tEW37YP48J9VO349n54tcSv7CAPXlnIK35U+/lWMipewFTv9gy8ftXld+nM+53OOT4o50FkAWgRIFgJ2PRrFr7fTN9nVT9raXMfWtm95P/ETP/Gwxv7jUZGQzhnZxZWUP212DnotgPbswOcP/GQM9xUU7TFiJ6zjXhv6is8KV3l2fORb1eecVd3HbORbcRO2aqcGfBgrXQbxU+3o3AfwFx7dF4POAviknbga/1Y61uq02+1BuxAgrHa05VdtMHbdO7AQuGRicWiBIPkVbs4Q4PA1GG0HaGsQVrDk07P3bMqVsGSXn+QsT/wZ2Y5/5VNxE7ZiF5cD+1M/9VOPb5LpoEf6zkLQAvBLIcao3emTxq6Vjqnv4qjt8oi9shDkrM6pjWxtVVsYl0s8ZtUC4HIJXRKM+wf/qcleh3o21Zaws+3kTzlU2yzH+TO6xve+3BRnxg5H/ec+gK9S+nW/LwDpugzq3QMQS7uPm3K4rdJ9TO74shAA2861bQ+QsNbetnt5dO/AGUKXSSwGLQ5sLAjeWeIHA4hJB5CK7wMnm+r1zsqGPNte5fA6VnitX6/d9r/HcVvFT1iyExeMnTnhv3T99E//9DvX/hzsOvAl9dcfqXlBtjvxHe+13dbqtH1TLGzHpRFK27m2DafdepwZW8uhza6nSxz8WggsAi0QdP6nTxYEl1Ns6oxkW+P/ld1ra2tq26nGljfTbse28hlxE96zY2Pn4ObHd/lAjDOADnZJXwi6DKL/2qlXukvZK+lYq9PWRtx2iwsBYq/DbYAeBxvJHHNdMdyGrt0vmXR2cMmC4Gaan5PBro5Jqnba2j0XuHNVzyXtVSzPJz3VI3xWtv2s/EZcx1UfNuaHNjqSP2Bc3/NeEN8dbg92FoFsyN4CII5y9HRs5POzP32TT6X7GDj/jl2XRhi94yL1bMIke5yeDX5r77WxseuySYuABYDukg/l3vnOdx73EkyIDyL5YscfDmxvuxS/yr2St8etbO143ofbiyWbFsPHfMzHHJ8DaAH4Ae8LgAPYFwB19Q5qzZ/mQW34bqPN1rO5/SDZP+Kb6VBvzwi01Ekn9WyOS0+8GXuPIxuSA5yBbxcBbTAuneCxKPhCEG+7+qCDtQPQttWPS9mJl2IpV0/u+HgcjZvbkl5xW4w2c8DOt8Q+4+EPafEfcHCwczbgoEanfqQWgeYBXH1DzujULa7z1Z+eTT7iuBTfbdKHC0HEdmBkd5k4PfuKTVxNBGcE31kMfpbgqRP3Ejxx4udmmASfCGpOg3Ipu8YlxRPeylV+66+xau29duLKjtSY8wEY1/3cAOsdIP/rz/jqoNcioC/Y2dDVN5czeuuvNpJNMR61Hm/3OOJK3lkIGDUIIrissBlez79nI1bPjk07E8QC0CLwhcGZQhOInf/khFc4+GyCQdOEMUltnnZQ1a9kB9/FFNtlFct5SW/7k3jkYYzaTWNHHA7+T/u0T7vRh18c4IyZpMZRBz5t4sJBqi892bNRy8hPHNWtOKnd8sVr5Z2FQFAdaC3R26PBrvAe1rORr2d3Gzq7LwgtDC0ULRDa6Fw+8dYri4JLKDYmTpOH7G3tgDtnF/MY0qtY4lTSx2fE0x8Lxgw/Lnm43OG7ADr4GQ8OcO0aK18M1KxFQE71AUlcpPYWb9vu22LeRmcTv9UPsMFl68k7C0GElcGUT09WcRLWs/dsyicMqQn1xcDBD4bE7js2foaGhcEXhngSxaZJlfRJVF6XPhluR6+wlrvD9xgaC7dJV785+OGxc23Pd4HZ9T1g9RnJrj8Q3pZdGLHQtXmf27ET5vaejVjYR7GVU/y2rRhud/02tz81cgIFzGwjXoVXGLlbvG17fWDCpeus4FK6DgxJ2VkMnCl4+Q+pT7k10UjtDOLtQD7Ue5vwHtaztXz60tpoq4/EUL/pAzp9Eo7kwOWrjrzvz6vOz3jGM26/+eV90QFOfHRJOMLQ2VRTKw/Q8Jbb8kft1r8X3zkJl11SeW/baSGIoEFWu5UEZAKqbRQD38Tp2Xs25W8x2jpAdLC7dEx2HUhqc93MmYNFwv0Gl1d8oAePA4McjIMGV9IPGmxqq1ZJ8Wl7/apdduWhLrfJh8sVPsTiQOdxJpc5urElN2cANnTtOuDVVp1qS3qNrhPP2z1dtlXpseXrNnQ2x3rtg/Sef1qusAc/+ZM/+XAc67/+I5xgZ3JS7GTv1SMuUge/dLU5sNHVli6Z+CwKHuGyUNB5g1affMvXY6qW20l4uEiwMUmSHIBsHKiS6BzoHNz6hTf+0usTXA50YrDjL6mDWTbiSUfqr718XR7J3/MPdt+8PdKFjyTxW06yuR1dm/zVbmUPn1oIBGonrw2u9gzvPpzKdxWD3+46YLH7mYG2Y96W3cdJNnhstNnkp8kQzgEJB8kGzgHqOHbhLtHhj3bxiCuubMqJZANPW4up3co2Drg4jlW2Hqa6HPN4wlvZ8h0/FgIGDbiDrT7Dkc+IO8Jn4qQYyV7FdB/0tPsB7ge3/OVHrtYmjAkR5pPT6mpX0jHpOrhps3ubusSTdBt6b3OucLf1dNlaiX9lW8FVi/u4zXXldJv0pYWAkyZQASp5SW4VK2HJ7jUnDnYNnDhI7cSYscPTgkFnk9+j1qN/yeV25RaHtnZsPV0+LqV7HOkj2fqK73bpknB6umySI17CWzttNo/7yHL33yHOPQIuPgl3Q/Rbs/xZnrKM+BW+iym3ZBUncVofbyddsZJsJ09tSfxcV5yeTVglKz8wdvXFuZUOnzOSpPJXPnAS3mK9NjbfPJbbXV8+I7izBsVtPX2W574jnxFOrBFnhKueWZ74IzkTb2byRnkqfCZ+y6najvX0no36ZJd0W6v32smGnc3jPrL0/73XQlDImYmd4Sie5IzPiDPCV3LtcOXzfymnD4aHf/F7W+tftR2T3krlkJ22dMkex3kJH9mFt/J2IQDMHjRtkFXf//kfnqD0B70XW7aZ+kacEa5ckqv8+/rJ36UOjrYW2Z07q8/4thxvu05Ob/f0nm3Gz/vjMVrfiudY0u8sBEjtYCfHnn3V9yz+atzZfu/E7Y3T/4WtPYhSDT2e21xXDLf19J6t9XUO2Kjd47Qx1Z6Rjy0EOe1O+o7f2T5nx9eYIXdyuf+q3h4ws/4zfi1ntu28VZ363afXTrbKDpY28v0vvvyBczhvNboAAAAASUVORK5CYII=;" vertex="1" parent="1">
          <mxGeometry x="730" y="560" width="24" height="68.78" as="geometry" />
        </mxCell>
        <mxCell id="9RCpdgvjtAtGVtdAYFdB-5" value="" style="shape=curlyBracket;whiteSpace=wrap;html=1;rounded=1;flipH=1;labelPosition=right;verticalLabelPosition=middle;align=left;verticalAlign=middle;direction=south;rotation=30;" vertex="1" parent="1">
          <mxGeometry x="619.33" y="572.5" width="60" height="20" as="geometry" />
        </mxCell>
        <mxCell id="9RCpdgvjtAtGVtdAYFdB-6" value="0.6 - 1.8" style="text;html=1;align=center;verticalAlign=middle;resizable=0;points=[];autosize=1;strokeColor=none;fillColor=none;rotation=30;" vertex="1" parent="1">
          <mxGeometry x="630" y="550" width="70" height="30" as="geometry" />
        </mxCell>
        <mxCell id="9RCpdgvjtAtGVtdAYFdB-8" value="" style="curved=1;endArrow=classic;html=1;rounded=0;entryX=0.75;entryY=1;entryDx=0;entryDy=0;" edge="1" parent="1" target="9RCpdgvjtAtGVtdAYFdB-3">
          <mxGeometry width="50" height="50" relative="1" as="geometry">
            <mxPoint x="520" y="730" as="sourcePoint" />
            <mxPoint x="605.56" y="710" as="targetPoint" />
            <Array as="points">
              <mxPoint x="590" y="740" />
              <mxPoint x="690" y="710" />
              <mxPoint x="760" y="660" />
              <mxPoint x="760" y="640" />
            </Array>
          </mxGeometry>
        </mxCell>
        <mxCell id="9RCpdgvjtAtGVtdAYFdB-10" value="" style="curved=1;endArrow=classic;html=1;rounded=0;exitX=0;exitY=0.5;exitDx=0;exitDy=0;" edge="1" parent="1" source="9RCpdgvjtAtGVtdAYFdB-12">
          <mxGeometry width="50" height="50" relative="1" as="geometry">
            <mxPoint x="510" y="720" as="sourcePoint" />
            <mxPoint x="720" y="610" as="targetPoint" />
            <Array as="points">
              <mxPoint x="460" y="650" />
            </Array>
          </mxGeometry>
        </mxCell>
        <mxCell id="9RCpdgvjtAtGVtdAYFdB-1" value="" style="shape=image;verticalLabelPosition=bottom;labelBackgroundColor=default;verticalAlign=top;aspect=fixed;imageAspect=0;image=data:image/png,iVBORw0KGgoAAAANSUhEUgAAAMIAAAIsCAYAAACgMHbqAAAMQGlDQ1BJQ0MgUHJvZmlsZQAASImVVwdYU8kWnluSkEBogQhICb0JIr1ICaGFICBVsBGSAKHEGAgidnRRwbWgIgo2dFVE0bUAslbE7qLY+6KIgLIuFuzKmxTQZV/53nzf3PnvP2f+c+bcuXPvAKBxkisWZ6OaAOSI8iQxoYGMCUnJDFIXwIE2AEATeHB5uWJmdHQEvAOD7d/Lu1sAkbXXHWRa/+z/r0WLL8jlAYBEQ5zKz+XlQHwIALyKJ5bkAUCU8eYz8sQyDCvQkcAAIV4iw+kKXCXDqQq8X24TF8OCuAUAFTUuV5IOgPpVyDPyeelQQ70PYicRXygCQIMBsV9OzjQ+xCkQ20AbMcQyfc/UH3TS/6aZOqTJ5aYPYcVc5EUlSJgrzubO/D/T8b9LTrZ00IcVrGoZkrAY2Zxh3u5kTePIsBrEvaLUyCiI4VNEPgj5cnuIUUqGNCxeYY8a8nJZMGeADrETnxvEgdgQ4hBRdmSEkk9NE4awgWwlALRAmMeOg1gP4iWC3OBYpc0WybQYpS+0Pk3CYir581yJ3K/M1yNpVjxTqf86Q8BW6mPqhRlxiRBTILbIFyZEQqwOsWNuVixHaTO2MIMVOWgjkcbI4reAOEYgCg1U6GP5aZKQGKV9SU7u4HyxLRlCdqQSH8jLiAtT5Adr4XHl8cO5YFcFImb8oI4gd0LE4Fz4gqBgxdyxboEoPlap80GcFxijGItTxNnRSnvcTJAdKuPNIHbNzY9VjsUT8uCCVOjjaeK86DhFnHhhJjc8WhEPvhJEABYIAgwghTUVTAOZQNja29AL7xQ9IYALJCAdCICDkhkckSjvEcFrLCgEf0IkALlD4wLlvQKQD/mvQ6zi6gDS5L358hFZ4BnEOYADsuG9VD5KNOQtATyFjPAf3rmw8mC82bDK+v89P8h+Z5iQiVAy0kGPDI1BS2IwMYgYRgwh2uIGuB/ug0fAawCszrgn7jU4j+/2hGeENsITwk1CO+HuVGGRZFiU40A71A9R5iL1x1zgVlDTDQ/EfaE6VMbpuAFwwF2hHybuDz27QZaljFuWFcYw7b/N4IenobQjO5FR8ghyANlm+Eh1O3W3IRVZrn/MjyLW1KF8s4Z6hvtn/ZB9Pmw5wy2xJdhB7Bx2CruAHcUaAAM7gTVil7FjMjy0up7KV9egtxh5PFlQR/gPf4NPVpbJXKdapx6nL4q+PEGBbI8GrGnimRJhekYegwm/CAIGW8RzHMVwdnJ2AUD2fVFsX2/o8u8GQr/4nVtoCoDvzIGBgaPfOQ7cWw8eg6//ve+cdSfcJi4CcH4dTyrJV3C47EKAu4QGfNP0gTEwBzZwPs7AHfiAABAMwkEUiANJYAqMPgOucwmYAWaDBaAYlIKVYC3YADaDbWAX2AsOgAZwFJwCZ8ElcBXcBPfh6ukEL0AfeAc+IwhCQqgIDdFHTBBLxB5xRjwRPyQYiUBikCQkBUlHRIgUmY0sREqRMmQDshWpQX5FjiCnkAtIG3IXeYz0IK+RTyiGqqE6qBFqhY5GPVEmykHj0MloOjodLUQXocvRCrQa3YPWo6fQS+hNtB19gfZjAFPF6Jgp5oB5YiwsCkvG0jAJNhcrwcqxaqwOa4LP+TrWjvViH3EiTsMZuANcwWF4PM7Dp+Nz8WX4BnwXXo+34Nfxx3gf/o1AJRgS7AneBDZhAiGdMINQTCgn7CAcJpyB71In4R2RSKQTrYke8F1MImYSZxGXETcS9xFPEtuIHcR+EomkT7In+ZKiSFxSHqmYtJ60h3SCdI3USfqgoqpiouKsEqKSrCJSKVIpV9mtclzlmkqXymeyJtmS7E2OIvPJM8kryNvJTeQr5E7yZ4oWxZriS4mjZFIWUCoodZQzlAeUN6qqqmaqXqrjVYWq81UrVPernld9rPpRTVvNTo2lNklNqrZcbafaSbW7am+oVKoVNYCaTM2jLqfWUE9TH1E/qNPUHdXZ6nz1eeqV6vXq19RfapA1LDWYGlM0CjXKNQ5qXNHo1SRrWmmyNLmaczUrNY9o3tbs16JpjdGK0srRWqa1W+uCVrc2SdtKO1ibr71Ie5v2ae0OGkYzp7FoPNpC2nbaGVqnDlHHWoetk6lTqrNXp1WnT1db11U3QbdAt1L3mG47HaNb0dn0bPoK+gH6LfqnEUYjmCMEI5aOqBtxbcR7vZF6AXoCvRK9fXo39T7pM/SD9bP0V+k36D80wA3sDMYbzDDYZHDGoHekzkifkbyRJSMPjLxniBraGcYYzjLcZnjZsN/I2CjUSGy03ui0Ua8x3TjAONN4jfFx4x4TmomfidBkjckJk+cMXQaTkc2oYLQw+kwNTcNMpaZbTVtNP5tZm8WbFZntM3toTjH3NE8zX2PebN5nYWIxzmK2Ra3FPUuypadlhuU6y3OW762srRKtFls1WHVb61mzrQuta60f2FBt/G2m21Tb3LAl2nraZtlutL1qh9q52WXYVdpdsUft3e2F9hvt20YRRnmNEo2qHnXbQc2B6ZDvUOvw2JHuGOFY5Njg+HK0xejk0atGnxv9zcnNKdtpu9P9MdpjwscUjWka89rZzpnnXOl8w4XqEuIyz6XR5ZWrvavAdZPrHTea2zi3xW7Nbl/dPdwl7nXuPR4WHikeVR63PXU8oz2XeZ73IngFes3zOur10dvdO8/7gPdfPg4+WT67fbrHWo8VjN0+tsPXzJfru9W33Y/hl+K3xa/d39Sf61/t/yTAPIAfsCOgi2nLzGTuYb4MdAqUBB4OfM/yZs1hnQzCgkKDSoJag7WD44M3BD8KMQtJD6kN6Qt1C50VejKMEMYJWxV2m23E5rFr2H3hHuFzwls4apxYzgbOkwi7CElE0zh0XPi41eMeRFpGiiIbokAUO2p11MNo6+jp0b+NJ46PHl85/lnMmJjZMediabFTY3fHvosLjFsRdz/eJl4a35ygkTApoSbhfWJQYlli+4TRE+ZMuJRkkCRMakwmJSck70junxg8ce3Ezkluk4on3ZpsPblg8oUpBlOypxybqjGVO/VgCiElMWV3yhduFLea25/KTq1K7eOxeOt4L/gB/DX8HoGvoEzQleabVpbWne6bvjq9J8M/ozyjV8gSbhC+ygzL3Jz5Pisqa2fWQHZi9r4clZyUnCMibVGWqGWa8bSCaW1ie3GxuH269/S10/skHMmOXCR3cm5jng78kb8stZH+JH2c75dfmf9hRsKMgwVaBaKCyzPtZi6d2VUYUvjLLHwWb1bzbNPZC2Y/nsOcs3UuMjd1bvM883mL5nXOD52/awFlQdaC34ucisqK3i5MXNi0yGjR/EUdP4X+VFusXiwpvr3YZ/HmJfgS4ZLWpS5L1y/9VsIvuVjqVFpe+mUZb9nFn8f8XPHzwPK05a0r3FdsWklcKVp5a5X/ql1lWmWFZR2rx62uX8NYU7Lm7dqpay+Uu5ZvXkdZJ13XXhFR0bjeYv3K9V82ZGy4WRlYua/KsGpp1fuN/I3XNgVsqttstLl086ctwi13toZura+2qi7fRtyWv+3Z9oTt537x/KVmh8GO0h1fd4p2tu+K2dVS41FTs9tw94patFZa27Nn0p6re4P2NtY51G3dR99Xuh/sl+5//mvKr7cOcA40H/Q8WHfI8lDVYdrhknqkfmZ9X0NGQ3tjUmPbkfAjzU0+TYd/c/xt51HTo5XHdI+tOE45vuj4wInCE/0nxSd7T6Wf6mie2nz/9ITTN1rGt7Se4Zw5fzbk7OlzzHMnzvueP3rB+8KRi54XGy65X6q/7Hb58O9uvx9udW+tv+JxpfGq19WmtrFtx6/5Xzt1Pej62RvsG5duRt5suxV/687tSbfb7/DvdN/NvvvqXv69z/fnPyA8KHmo+bD8keGj6j9s/9jX7t5+7HHQ48tPYp/c7+B1vHia+/RL56Jn1GflXSZdNd3O3Ud7QnquPp/4vPOF+MXn3uI/tf6semnz8tBfAX9d7pvQ1/lK8mrg9bI3+m92vnV929wf3f/oXc67z+9LPuh/2PXR8+O5T4mfuj7P+EL6UvHV9mvTN863BwM5AwNiroQr/xXAYEXT0gB4vRMAahIANPgPQZmoOP/JC6I4s8oR+E9YcUaUF3cA6mAj+41nnQRgP6xW86E2bGW/8HEBAHVxGaqDZzX5uVJWiPAcsCVIhu6unjwfDCuKM+cPcQ9vgUzVFQxv/wVsW3yzsY1oZgAAAIplWElmTU0AKgAAAAgABAEaAAUAAAABAAAAPgEbAAUAAAABAAAARgEoAAMAAAABAAIAAIdpAAQAAAABAAAATgAAAAAAAACQAAAAAQAAAJAAAAABAAOShgAHAAAAEgAAAHigAgAEAAAAAQAAAMKgAwAEAAAAAQAAAiwAAAAAQVNDSUkAAABTY3JlZW5zaG90tMHstwAAAAlwSFlzAAAWJQAAFiUBSVIk8AAAAdZpVFh0WE1MOmNvbS5hZG9iZS54bXAAAAAAADx4OnhtcG1ldGEgeG1sbnM6eD0iYWRvYmU6bnM6bWV0YS8iIHg6eG1wdGs9IlhNUCBDb3JlIDYuMC4wIj4KICAgPHJkZjpSREYgeG1sbnM6cmRmPSJodHRwOi8vd3d3LnczLm9yZy8xOTk5LzAyLzIyLXJkZi1zeW50YXgtbnMjIj4KICAgICAgPHJkZjpEZXNjcmlwdGlvbiByZGY6YWJvdXQ9IiIKICAgICAgICAgICAgeG1sbnM6ZXhpZj0iaHR0cDovL25zLmFkb2JlLmNvbS9leGlmLzEuMC8iPgogICAgICAgICA8ZXhpZjpQaXhlbFlEaW1lbnNpb24+NTU2PC9leGlmOlBpeGVsWURpbWVuc2lvbj4KICAgICAgICAgPGV4aWY6UGl4ZWxYRGltZW5zaW9uPjE5NDwvZXhpZjpQaXhlbFhEaW1lbnNpb24+CiAgICAgICAgIDxleGlmOlVzZXJDb21tZW50PlNjcmVlbnNob3Q8L2V4aWY6VXNlckNvbW1lbnQ+CiAgICAgIDwvcmRmOkRlc2NyaXB0aW9uPgogICA8L3JkZjpSREY+CjwveDp4bXBtZXRhPgptclABAAAAHGlET1QAAAACAAAAAAAAARYAAAAoAAABFgAAARYAAEyIz3HF2AAAQABJREFUeAHsncevbdlV9e8zYBNdhcFJBGFEFCARhQRCIkjQogFI0ADbVWUD/wk5d2ggISSEACEyxhg6ZCGCyTSAhqvALpzJ2fh7v10eV/PNN8dca+2z93llf29J+8615hgzrHR2OOHe+YEf+IF33zwsVx+BO3fuXD3mTMBr5nXNWK7vyuHOw43ghuhcvSbg3Cjr3q+dF/He/e5331w7rkZGcR9uBI3IA5aakAecxtUX5IPodxXz4UZ40CvvbvxqYh5kWg8in2vGrGI93AgPcsW9J3Y1MQ8yrQeRz7Vj5ngPN8KDXHEhdp6YAF21+qDyuGbcKtbDjXDwMmOQufmLpbsZrCYl2lKXT8mMn9GeyevIuNeMV8V6uBGOnM3G12gRV5PTuDsVehC5XDtmjrdrI8RXuFg/dXaexc7zGDDI//d//3ffK3kcfGxiEYaMmNpI1cGf85zn3D52jPzo89I68a5VrhlLfYoxpzdCNdiamMqxdO+rkvH43//935v/+Z//ufn3f//3m//4j/+4+c///M+tTpvjv/7rv7bjXe961w0Hm4ODusZTY4iME8O4vd/7vd/N+7//+9980Ad90Caf+9zn3jzvec+7+cAP/MCbD/3QD715/vOfv2HC4bNBjiw5pyN9R1/XiuNi2o2gicKQJGNbzrL+QXRGuazKmLvq9JG62vhE99///d8373jHO27e8pa3bMc///M/b4ueRQ2uQ3wWI1i1KOGOCvHlq+IqP/GQHMRjo7BBXvKSl2zHh33Yh206MPHxSX5qgykvpPTwYp32WeVacXL+invRRshO1ZZztaPUgKMb8YTnyYn+9tajT+KwMHgFZ5G//e1vv3nzm99889a3vnV7pQejKJ8YM/qJ+liv7DKucZGMOHXF6XB4xBJXcbVBPvzDP/zmoz7qo25e+MIXbpuFTQNHNtjnIh9Zf3T7WnFy3opbbgQ32NkJbQ26MNp6hVGQiFHPeuFRKocZbrTr6tknlzJvfOMbb5588slt4bMRYlHs3Ef1D644uZ7b2Qd2ygduLhlz7fjKHjmxLt/EVL70gUstzh4f/dEfffNxH/dxN5w9hCs/teXjLHmtODl/xb3z/d///e+Ona4GMBsf1VYSlT/yyLjyrPhOhx8OJv5f//Vf71n4XKvnGJUfcZzERpjsc1t6yW6cHRb1sY7P2Kae24obpXKU5B7jxS9+8c3LXvay7bKK+xDG7RpFOVwjVoyhuNtGiMC16yTCpCkhxddECpc+86SPUv54teTa/q/+6q9unn766e0yJ9uLK3vhSNXBclv8LJU3+lifactXtpM+ypib9M4u63Nb9kj5RXJT/qIXvejmUz/1U7eNoU0BFs9E0X5vXXH32u+1U9wHvhHUASVEWxMlndpg0lFXAZeepzhve9vbbv7iL/5ie/VHH3HZIKWXLVJ18FinrYIdB0X13I6Y6pVE50oVXzqk6tirnqV8o1eu0kUpjMVOPfpBx9nipS996c0nfdInbWcNLqvEiX721pXfkT5nclG8Z81GmE06ThJ1CpIb3D/7sz/bXvl5rKkOOr/CJR0P39XBK2LUKw90KrEunWSHidPJmLfqyHzgQ7rsT3ZZX7XFZVPwSPcjPuIjbj7jMz5j2xy06Y84yNX+ZRv5qnI5Q/detREYgDhAXPP/6Z/+6c3f/u3f3p6qwTncqTvaxwFl4qoDP1r08MWJtqv1lUXiuE4fc9FYoGMBqy2JPtfRVQUeMcVH4pODs8SnfMqnbDfewisfM7oYZ4Z/FOe9biOwKHnS8/rXv/7mne985+3ExAGJi4SBjUWYpBY57bjoaYsT7alrslTP+Kjt/FZ2FbfSYVvps04LVbLbIPjM4xfb2QdPoD75kz/55hM/8RO3J1LY7ykxxh77PTbPmo3AhGkAYl2d4k2tv/zLv9wuf8CZQAo2muwo5QuO9HHRo9M7vNR1wFeJPqTLcoYTbZRL1HV1x6/0WZfbxKl02gxRwqVv8ZAuyljnPoKCHzbDZ3/2Z2833OIQm2NmzGY4W7CD/jxrNkLsD4OgQeOjCr//+79/83d/93fbK7YGWxMqXrSPGHq90kvKRjw36E4fY81wxFc8tUfS8Sv9Xl22oz8ccVNIR77oKdIh1cYXuGyZK97A+6zP+qybF7zgBRsvcm8VRUV+C+gU1bNyI9BTPrvz27/929sGYEAZXAY6TpzqWeqVXwtfbfGqkawGvtJVtmfpXL6Vfka3ylH/tbi1wNFz0KaonevMm3i8WfelX/qlN4888sgtv8pHPpDXLM+ajcCAMTD/8i//cnsGYCA02BoUOCxsFS1y2sLQxcsecZHEqcqqvvJxpM4tkkp/pM75Ynw4tCliW/UoGQu1ZcPG4BHs533e5908+uij9w0X/AdVHthGoNMMugaexcslEG9+8TiOwgCKkyW4NoGkFj9tN6ireuI4G7Cji8aj8uuwSp91uY3/GV3FwVaLm7GJddrVgY3O7OAf8zEfc/NFX/RFtzfV6Jg/OA+iPLCNQGc1yH/zN39z8wd/8AfbpzzzQGiRw+WgTUHq0AbYgPCHwc2l0sFxetmPcPH2SI1DZ+s4lX6vLtvltvKLesZFG0FSOmQ+xEHygvfpn/7p2/sRmnf4D6I80I3AJz1f85rXbPcDOgswEAy0Fjn1eKBn4UecgasGUJMQJ85xOz2YShVH2IrMOTnbjuewrM9tYs3oZjjRV3zFj3XNA4ufOpICh4PvU3D/wJt0tKu4m8GJf662ERgAdZB3fnkj7E/+5E+2jmuAwFngWUadXv3lK45NtUgrHTaVvtJF/7m+yse+yjv7VdtxV/QVd0ZXcar8Kx7zycGiZozUVh2pA47m/+M//uNvPv/zP3975Br9wj27XHUj0Jl/+7d/u/n5n//57SygQaDTHFrwWuyxTR19LHmAchtupev08u/shJ8h4+Q7/xWn0mGf9bldcRR3hjviaH7jhmBctfDjBhH3Az7gA26+7Mu+bPuQH1xiXGMurrYR6BCfBfrDP/zDe14t0LPIR0c16NUAzeo04RVfGHKER+7eetW37MtxZvUVr9IRN+tzu+Io38xl/LTgs4wYdTaDDj7x+jmf8zmbrXyfKU/fCAwMr+Svfe1rt685aufT8bz4dSZA6gyggYWfS6WDU+krnfx1mDhZrtrAV1/wFevZt9odx2GVflbn8sr2ud3lKy7919wj1UbqDBFx6nwf4iu+4ituPuRDPqScU8U9Qp6+EfhgHJdCfPuLG2ItCAYoL/jYZiPEgl0ulQ7Oql5+nZ1wJ0d2WgzOPutHfIdX+lkdOcxwK86sLTzGikWuRZ/PEmprreRLJXycUU7dCHws4td+7dduO88gMJB6tY8LHz030XkDxE4zSHki3CJc1cc41J195h3Vzv3Kfju8wiodPiv9JTrn0+mJxdgyl9oQSOm0EYSJx5twXC7JHv9HltM2wl//9V/f/MZv/MbWWe1uFrk2AVILP+ronFuER+k1gM6fcMlZnvgzslp8zs5xV/QVt9KRQ6WvdI7r9NkH48qCZ33EDYBeG0AbAsl7Dp/5mZ+5YcQ4shy+Eegsj0Z5l5jTGge6uAm0ATgj6KxQDVLV0W5ROszp5X+Ei5fljF3uV/bh2p2dwyp9pSNmpa90R3CdD/SUuNjjhoh1bZaP/diPvfniL/5i+2L5jMf1v4dtBAaRhcH3BP7oj/5o2+UkT9EmYANo8UuCueIWmtPjZy82snU5Hql3C1ExOrzCZnX4n+VWPGc/yjv6YtGzXrQp8iZgXsGRfF7py7/8y9u5VuxZechGoEMk+Lu/+7vbdwboDGcCii57tPDjZoibwC3gVb06vtdO9pKVH/VXnL0yLoTOR8ersFkdMS/lrvpwfPQsftaOXv2pa0PETcKcvOzuL23wWSXwI8ohG4HE+LDcb/3Wb20bgKQp2gRx8WtDgGGniaDuyhmYYnW+xYlylR9tqau/WZ/bM7yKc4muy2/Wb/aBncas8qF+C4ubIZ8dtBm0vj7hEz7h5gu/8As3F4ohf6vykI3AD2S97nWvu70cojN0jF+UYOFrI0iq0znZUWc6fC+mHDp7cc6WblxiXMeZ1c/yFLPiVzr4q3pnw1yw2LXwdWaIG0NXHJ/2aZ9287mf+7m3m015r8qLN8I//uM/3vzUT/3UdooiOTrBgGgDsPi1AdC5wVLiowV5Nj6bh3iXytF4yH/Hq7BLdMSs7J1+hTvTH3HyZmAjxM1Bm8Kbbtw3XFIu2gh8i+wnfuIntkXPJtCZgMsezgbaANoMccBGC1qdcjynH9kJR458RO4efraP/c9Ybo+4Dl/RV9xKR24resft/FQY88PC19qiHi+d1Mb2a77ma7Z3olfnFFvKro1AMBb7z/3cz20/lBt/TBY9C18bQZsBfS6zSXe8Dts6eDfXURn5GNkfiXeLiDgd7rBKf4muy2PWbx6zyg4Oc6PNoEsjSfTU4fBV0K/6qq/a2tn3THvXRsAx7xX83u/93u3NMTtVN8JxE7ARqk2g5GYX4Yh3KU4+Ix/K+WjpFkGOU/EqnewqbFaHj7O4ys/FyHrmhV/W08KXZBNQ56DwHsOXfMmX7JrHXRuB7xX/2I/92Haa4mxAQgyaLoHYCNoM3SbYsk9/RovxbDymM4oVubP1anF1to7v9PhyWNbndswjY7ktbqWvdB1/BuOFVpuBOpdL2ghI2qw/NsLL7j5aXS3LG4Fg3ByzGQiu3aibY20AbYqVhBhALT5JZ3827uJKP4oPr1sQ8lPJzs5hTu/ycPxKP6tbjRX7XsWIOHVthrwJdFZgTqh/7dd+7e13obMP117aCCTLdwp440y7k93Iqz4bgR/h0kZAqqiTM4tHNpIjmxGOn6M4yuloqfHp/DqO08tXxnPb8dBfynX2XcwOYx5Z6GyEuBnQ6eyAPT9B+QVf8AVyNSWXNgKL+0d+5Ee2AWIjEJzk2ARgbATOBEgGYTQQyvCIhTryMcKVi+QqX3YjOTsm8uP4Tt/ZOZtKf4mOHCr7Tt/lLQzJvLD2dDWis4EkZw3W4Fd/9Vff8B+CZsvSRvid3/md7YwQdyQdZhPo0GaYTSDzRgsQnMMNNP5GPmY5ObfYzjFyTl1+0U+uj+wqHF2OH/06m8hRveKCVfpZnbMfxRQuSTz6yQuwrkjihqDORoDH77DyFIn2TJneCHzX+Ed/9Ec3xwpOUrok0pmADbF6g5wTxe+oHMGZ8THK4yi8WlTZd8dxWKWvdMSq9EfrYp8q3zM488YajJuBti6PdFZgI3BWmJnndiOQKE6Q3BfwyJSA2gjotQHi/UHsjOpVp2cSlH3H7TDsR7hiRLnHJtq7ejUOjou+4zvsCH3lQzqkxke63IdVveydnXAkHC6F2AjaDLS1LtkQvBjzu6t8SnWmtBuBzhIUpz/8wz+8LXptBHYdet0bsBF0bxADz3RMgxrtqvoMb8QZ4XvjVnboZvpf2Y7sHL6iv5Rb2Ve6bhwcvxoT+dEcaiNoA0iyKSiszZe//OW3v8i9Kc2fdiOQJEH5fwS8i0wggusmmbOBNgLfSaZNWe1czE2djLpcH3FGuPzN8sQ/Q66MVcd1WKWvdPSt0s/qVuwdF71KFVeYJOuQ97FYk3qB1pkBDuuR/+rDbyUx153PdiPgDOOf/Mmf3P4pB0FiIJ0FkGwEBZLE/pIyWqgjnNgznCrHvXaVr0q3MkYjbsZzW/GdHrzCjtbtzUN2leQfHuryKErmj/tXdF//9V8/vGluNwIDwQLnsohLIe066mDaAEh3k1wNZuzQzIK7JifmpvpMfHGzHPU/89Xu7FYxx1/RV9xZHX2quDN9FSdK+WJeWJOcFbQ2JTlbwGNdft3Xfd32c/TRR64PNwKXRfwci84ESDaC3jvgn3azWWgrQQXJbekrObPYjuIo/ow/ca8hR+O1B69sKp36l7Hcdjz0FbfSdT6EOX8RZ/5YizoraBMgWacUNgK/gMGX/snFzXm7EXDEt854N1lBCICz+LSIzcCNszotif2e4pKNvo7irPqM/L311fHp+A47Ql/5qHSMQ9bntsbK6Wdx8aLkR4R1VtDlUVynPELlY9pdGW6EH//xH7/hyzecarTTWIS6SdYZQR2UjEGzbmYRYz/DO4oT81V9xre4MzKPQ2cz4jr8LP2K3xWuxsDZCK8kNswRm0BnBTaAXrTBdOXyzd/8zZsLN6flRlAAXuV/8Ad/cAsm53pixEbgkogv51DHJnYm1qtORJ1LboUz40P+VriyOVPOjlXHc9gR+srHrI5xq7idXmPt7IRLsjY5K3A20BkBHZdNrGHW6RNPPLFtGNlkebsRclAWC4v8h37oh27PBASJNyGcDTi4TMJePiRzsJn2aJGOcGLMcJTLClc2R8nZcep4q5jjV/pKR98r/azO2ccxrXxFPNdZkx/8wR+8LXS3Ebg0etGLXpRNb9vbRqgCs0D+/u///uZnf/Znb2+U2WXaCHpixGbRRsBr5es22kJlZoGOOCM8p7PKz/Yz7dnxmeF1nAqrdORc6Wd1lX1lW/HQxeLsIqeqM2/8UHB+T0FnBNYq7yXw3z1daTcC/8jjN3/zN7eNoJ3GRqBwOcTZgH//qidGuSO5HZOYXXQPihdzvVa9Gy/l0HFWsYo/qyOfWW7Fm+lPjoGfaj2w4Dkj6D5Bl/FxI/Bxi6/8yq9U2Pvkne/7vu97933auwoC8u9d//iP/3jbCLoJ0UbgLMDZgA/jaSPIT9dxcaKsOreC7+GOYkafZ9ZXxspxnV55V/g1dMSv4nR5zWDiSDKXnBHcRuAegX9LxRd2XLEbAYNf//Vfv/nzP//z23sEXRoRmNMNZ4S4EbpOuwSyfmaBHsXJsWnP+K7sZnUrYzTidrjDKv0lOvo9a++4GrvKj7BOMmfaCHqMylpFr5tlvtz/Dd/wDdZNuxF+8Rd/8eYNb3jDdl+gSyM9n9WlEV/Z5IxAyR3JbTizC22GN8NZiQk3lln/0SbWq/5HvKrP2Iw4FT6rI6dLuJWt+ukwp5edZOZpfpBsBD050qURetYmZwSwxx9/XK7uk+1G+Omf/umbN73pTbfvIRBAG0GXRtoISlLyvkiFQh0poHtUM7wZDk5nefckcIXG7Lh1PIdV+kpHNyv9JTrns9ODUaq4zyD3/mVO+SJOvDTSOtVG4EzBI1Q3/+1G+Jmf+ZntyRFOObQRdBPCPcI//dM/bU+NVhK/txvPtFyCkTvDgT/LW+XGXI6oz050x9uDVTaVjj5mfW5rHCp9pev4VTzxK4l/5prjkUce2Z4a6dIo3sty9cLN9Ctf+Uq7NqY2Ak7jRqCuncZG4H4hdzq3z1icMz5nONUg77XLvvI4ZNy1Z+wcp9JXOsWusKN1XSywKp5sRpK54mMU8fEpaxafbAIOLu1f9apXbW+yVf7ajcClER+6w2neDDjj2ot/Gs6ZgaAznVlZYDPcGQ65zvLgdkV+Zvra+XHYjF/HOVNf+Z7Vqa8VH8zpZZc5mgPhrE1tBN0f6KqFF2k2AjfLu88Iv/ALv7DdLOM0bwR0BOAegYPCHfpqyZ1y9jO8GQ7+Z3kulyP1M4tA8Tquw1b0FbfSkU+lr3SOO9Onka18cNnDQudVXw91mGOuWtgI3M/yHzp33yzzrjL/EJCi+wRdIrExdMP89re/fdsEcYFRdwOjDkQZbaM+1mc48Gd5q9yYy6X1lbHpuA47Ql/5qHSMRaWvdHHcHO700TbWuT/QRyw4I7A2KbosYp3yVIlLI1faSyO+nvnUU09ttjjn0KlHwXgvgY1AUErXidkFOsNb5cDvctuST39mYkSTVf/RNtZn/DjOqp64lc2sbsVefax8Oz+ycZI54s0ynhhpbXK1QgxdFnGlwkZ59atf7dzctBtBZwScsvA5G2gzIDnYAHxMm/+n7DqYo88usBneUZyc40qbfs/k0fmcHbuO57AVfcWtdOpLhVU6+E4/whQrS/yxAbg/4JKIjcAapXBZpDMCbS6ddl8axTMCE63NEC+T2G183uitb31r21GSqcrMAprh4HuWpzxW+bLbI4mlhSA562fE7/AKq3TkkvW5HfOtsEpX+Y1+LsXZBLzaayOwRslDm4DLIsaeS6Pd7yOwEbhHYLHjTGeBuBE4DXEKYiNwmVSVmQV3TU7OcSZ2tllpuwXS+Zix6TgOq/SzOuW7wq+48oN0uNNHW9beR37kR96+kca6ZC5Zr/GyCBtuli+6R2AjkBQHgd1Zgc8cjc4KswtuhjfDYQBmeXAfdJmZfHLseA5b0Tuui13xK53Gt8NcDNlGyeUO7yjz/gGbgLXJJuAswKH7VtYAN9Q8PnWlvUfQGYHEOXBYnRXQ8Z7Cm9/85k3C4+g6DD4qMxx8zPBmOKN8zsK7ccoxHdfpsXdYpa90Z/vo/INVhTUXzwa0KTobsBG4T2DeOS6+R4hnBAIRkDNDvDxSEtwwsxkoMwvvKM5svC2x9/yZiR35R9bdYnMxOn6H4a/CK90qd5XvYjo/6F3B16OPPnr73kE+G3AmYCPAY545uI/g0sjNe3tG4KkR31JTJ+SYha9DG4I2O/Atb3nL9tHs3AmXgHgjHN4MZ4Wn2JKz/sWflRq/WT68GZuO47AV/QrX5ex8aCxGeOWXNffiF794uyTiSREvzBQ9KYpnA/TMKzfLPDUSF30s7Ubg94x4H0HJSupegcWv3YgkIDcpfCyDU1RVRotthOPzKE6VX9TNxIl86hqjrJ9tz9h3HIc5vcvZ8Y/Su7hxnKpYzAnfPdYnTVl3FN0bcDZgQ2Ab5497iccee+weXYzVboR4j4CREiOA2wzw+CAeb7KJjy6WmGDUx/pRnFWfkX+NuhujKvaI6/BKX+mI6fQd5mwqfaXLfa046FgT3PRyxI9SsAl0NkBywI1rSO8sR12M226E6tJIxmyEajNwliAxd4kke6RL6gxO9DkbO9sc2a4mu/Pf8R3m9MRxWKWvdKs+Oj4YxcV5Br3Z3jDTJZGuRLQJuBzSJRF+tLaQHPqskfTyKdluBJ0RCIaDmChttxnQY8MlEk+TXHAlgew4HRZ9jPxkbm6vxMm2rh3HzHE6fWe/iq3yycvZHKVX350/4aypl7zkJbeXRJorXv3jJtBalZ14emqktnDJqY1AklWiOI1nBd1AI9Fzv8DNdk5OwbN0SUbeDAf+LC/6zvU9Pqpxyn679oz9iFPhlU55OKzSV7o9fkY2wpHMA/cFegeZtUVhXeVNQH5x3qhz8FVNPmsUsc3Je/5ctBHwgWMt/LgRVOeMoJvnnGRMRHWXqPAoz+LGGGfXu4WVY4+4Dl/VE7eyqXSOq9z32DCvevHEnsshrvF5QsS6onAmgKObY+qKFdcFdY6LNkK8R1AQdTBKnRWy1AaJmyEmGX3k+tE8+Z/1K/5ZshvPKuaIX+GVDt9O77BVvvJ3dk4f7TRPvGnG9b0+WYotRzwTsCmiT9nijzrHYe8jxEBKWFLBtPCjpA7OztVlkhKU/UhiP1NmeZWvS2wrf1HXjV3k5frIbg9+pE3nay8Wx+CFL3zh7SZgHVF45Wfh696ANkcscS6pc/C49Ru/8Ru3euSq3l4axfcRXMfQKxhnBB3aDNzdSxfvGW4TOHiRx0FQjD1yrx83TrM5zNp3PIc5Pbk5rNJXOvVvLxZzYOz3bgLlofmT1BmBtVgVuxHoEE+N9M6y66D0BOTQokdqMyBV55T29NNPb0+TckJKOutz+2he9n/NtsZvJuaI63CnJ6bDVvWdrxEmnDXD3OrGOL5r7M4EyjOvCbUlD3tDTQFJWiXrCKrOaENoA0SJHb+XxJf+c1HiWd+1V2xWuF3MS7E8dp2/EbfDO4yYFV7pHFd577GRrSQLn0ek+jQpc4VfjupyKMaM84qe9UdBz8Hj08dW3lnGiRL4pV/6pe3L++hiUCVe6RRYGyHKeGbAB99s4x3oquBnpazy5XuvnexXZDVenf2IfwnubFf15L/HRv2WLQuVr1zyjjHrhHkB05kAydUEkkN28pPnMbapc4+gfxYimyjvuTSScyXBPYK+vE/wXMTPeuzZAJJxM6iuzybpiRI7Hiz7xMdsWeE6n5f6yPm7OCP9yE+HH4kd6Sv3Gd+MN0+G2Ajx8agWu84ESLcJ8JvnLbapc4/Qvo/wvd/7veWvYeOcn3PRh+6qAal02KloZ2tTqI3UhqBOB/n4Nl/uoWiA5CfK2MGoj/UZTuQ/6PpoHHN+Hd9hTi/fFV7pOj6Ys2FOwJB6UeXZvr5ToDWBDy14LX5J9J1/bFXiGmCtDZ8adRtBZwSCVwlUOiWCJBkOLfpYlw6pQeC7z9xI03H0KjlO7KQ4Tq5wnY8z9blvXayOuxcjXmVb6ZSbwyo94y89deYWyVMhbmD1VFE8bQIkXA7su01AXtjHEtvU9Z3luK7u4Z+5EQhEEhxa+K4unE6/7W1v2340TAMYE1YdP6tlj81qjBl+16/KvuN3GL463GFO3/nrbBh3cA7OAmyCfEOMbxZ93gjYoB+VPLexTV2fNcJPxOT3TrcRuDR68sknN0MSzKXrfOQSWIcWPBKd2rGOjjfg+GgGN0ijgu0l5VJ7F3t2fJw9+s5Hh+217XzuwbBhfDle+tKXbtfqcc71Sh83QK534yMszmGsgxOPs4++s5xxOMONcMk9AgFUCK6DxKjHAVFbUhz9KAAbAiwXdBrsjF3ajvG0CKKu8i9ehc3qZnyMOA53enI7GsMf8/iCF7xg+w6BPjqtWOAcuvyJZwT01YuvG8M4L7EOnxz0WSPZZ067EfhHIZwRlLCcZAk+KjGwFjk66mpLoufg3kF1vg/NdxxmYikXbN8bykqfRlyHO73Gp8M7DHvhSOYQydjzm0N8iYanQbSFYaNXfbiqRymfcGdKnOtcp33RRhg9NSJBgszs3Jic7LTwncRGB5uCwq9v8/4Dl057Ss5jj49LbVYnmXgjm0twZ+v0sf+Zw1zyxXqOfCOMHWsFG4688HVmgJf9outKnNdcp61vqMlv5OC3PSPoqREJYygnOSGnFy8HlR4ZN0GsY5MP4cRjI3CGqL74A97FVPwZjrhHydFY5Tgz/BHH4U5PDhWGLo5ZXBe8UOmTonkDYJcPbQhdDglX/2nPlpgTNrFNnYOb82/6pm+6x+U9vO5mWRtBSUne4+1uw+nFiwGlixKcRa6FLok+H9hFLh/ke8c73rH97KQmBg52o7zEQ55RZuK7uDO2I85efNaOMeaSg0sgZLyUpV/MR5T41QZA6gwg3kZ+z59RDpFLHrHEtuo6I4gn/W272wj6qqbILjmnl10OKn2WcYF3m0H+Ip/B5LNL73znO7efnhQnx9jbzv5GfV6Jgy/5n/E74nR4h5FDtSjpC3YcmhdugHkkqVd/OGCyVxzZoacuqTMBdlWRfYVlncZO+thWXR+6qzjo2ksjPT6VcZVcpRNfUsmo3Um4HHGRa/CFyV9sxzpPmLiX4B+YcAkFRp6yi/GdPnLOqs+MXYw9wx9xHI5e45RjoufVnldVrv35PJDmJHKp40eH2nnxq51tY9vlGTmqV/MqHZKDL/fwI8DyK/zWR3dGiDfLGMiJjJ0u4jlgxKp65Guw0cWNQVsHPmQjnSQYrzw8guVM4R7BwrtmqcZxFH/G5ghO9MHTHhY/i0gfhtOcRB6505ZOdRa8Fn0+A4jr+j3Co53mv9JpLVz01Ch+H4EgVXKVrkoo6rp61am8CTQZkviTnaRiiINkI/AYloMzha5Rs41sj5SjcepizdhewsFWY8CC55EnG4DLHvQckaNcY0zq8cgbIHKxz235lBzh4iGVe6VT/vpijjjZ5vRLoxxQiTjZ8VnMcWGrk+goast39JUxOGwE7ivYGDx9YvKOLisTWsWu7NGpbxWe/cCRTZSMG09TWPS8YupVX76zH/SKJwlH44bUoReZyMv+9mLZT5WvdEiOfEaQj1ted2mkL+/LqEq80omPVKCo6+odXxiSI24MtRUzcnO8iFGnD0gmjzMF9xb8rwfOIEys+PITbWL/Y13cS+TI3wyuXPVEh8sdbhz1lCe+iKzkSmwOxkeSujaAfHU57sXkWzLPD3rpkBycEap/FHLL6zbCEU+NFEhJj2THrzAmEr1krtOOdtSZgKjTwEW9eEwsj2jZIEhtELjdRI76WeHyp9gdJ+Ycedjqc/282udX+tjvWI8+5Dvr1Oe4+NExRtJVNlmntvqrdpQdFnmq576ojeTgCVf172Vved1GmLlZJhEGQQ6VmKTTC8+y448wbQZJ+LEue0liUx8NOpxog50mXhuESys2CmcR/OmAK/+S6FZKjK3+8ArPgudgwcfLGuVLvGibY3ZY5KovSL3iSzIOFNc3p+9sRhh4LrkvaiM52AiP3f2qZi63vG4jxJvlvR1SoJyAa3f8WQyeFkyu046H8kBHoZ+qC5uVsotjRV0Hi6ZaODFmzI0+CFN/Yi6KF3VVPfJcHTtiSSpnSb3qxz5s5GCndpTyGXXUnV68ES6eZOwXOrUl9Q018aOE094s86G7N7zhDZtNl1iHKZEYuKt3/FVs62BY+FpMksLJJ9dzjvQRTtfXbNO18RWL/Eqf23BH8WUrrvxHfcQUAx11Dha6pBa9dOIhY4l+op66w5xe9iNcPEnXR/Qc+amR7JAb533ljKAOxQ6qHgeJOhshbgbqst8G5T2Dl+3kb6/Mkxv9z/iM/FhX7tFHxsEUX1ILnHZe9NLJp2zUjnIP1tnge4TH+NRzf9VGcrh7BNm2Z4R4j+ASc3olqoTUHsmO32HqUOW/spMOyaGNISm9JH7jholx4BxdKp9RR52xly7WyUXzEiV1FjwlLvy4ITbw7h/Zubb0yMydwTqbkc/oX3WNQ26j56g+dBe57UaIH7rrEu+wnKCCO9nxOwx/Dp/VwxNXG0KLX23h4krm+OKpn7ktfZQznMiPdeYgHmBqa9HT1qIHp14VeLlUOnH2YJ0Nfke4YkvmsVMbyXHR+wgzG2GUsBJSwiPZ8TsMvw6/VC97ZNwQtHUQX1jOJdpnrGqjq8ZVOknxaOvQQldbEq4Kuq5UeKWTjz1YZ4PfEa7Ykhrj3Jaej4nwzwSzX+EXnxGyYyUiqUBqj2THPxpb9Zf5tDkYA9Xpn+rI2FZ9U07+0fhGGevRDXphUR/rl+DO1umJ6zCnX8k1cjXW0qmtueDdc95Qy+WW190sP9vOCHRCibsOZf2z2cb1peoDupnF42yln/HhOKv6LmfnS3l2tpGjeh5LtZEc7tII+43jNgKJ6jvLkF3iTo8NRQk90xr/HfEd7vRdDteyUa+7eOKcLUfzRXzHWdXv8RX77+JFjup5bNVGcriNcMtzG4EA8YxAu0qs0sFVUSC1R7LjH405f05P7nuxke1oXI7CR/PV4Q5zenJ2mNOrnyNcPGQ1J9JJshH4/whVgXPPPQLBUUo+3Aj3D5sG9n6knpDI62wj78z6aIF1uMOcnn44zOnV9xEuHrIaV+mQHO5Dd/JjNwIEPmKh/3+Gsyq5SifnSCUUdV294x+NOX9OP+pPZzey7cbkSGw0Xx3uMKcnb4c5vfo6wsVD5nGPbeoc7rNG8nO7EarAOiOIXHEqnfjImFTUu3rHPxpz/px+1J/ObmTrxuNo/Wi+OtxhTk/uDnN69XeEi4fM4x7b1Dku2gi8s8zPwispyZhEpYt4TCrqXb3jH405f05Pzg5z+tjPGU7kn1EfzRcxHWdVv8eX+uxiCY8yj2tsU+fQr2FHu1i/8z3f8z323ZWHl0ZxqJ6px0GOqNOvciL/jPrMAnOcVT3577Hp7KoxyWMf29Q5uo9Y4HNqI6gzkjGZShfxmFTUu3rHPxpz/lb19MXZxH7OcCL/jPpovojpOKv6Pb7UZxdLeJR5XGObOgffw37FK14Rze6ptxuBr2ry/wr0mZQquUoXI8Skot7VO/7RmPO3qqcvzib2c4YT+WfUR/NFTMc5St/FUJ9dLOFR5nGNbdW7x6f4ajcCb6jp17AhV8lVOrgqSkTtTo64e3Fnt6on9z026rOzFX4NOZovcnCco/RdDI2BiyU8ympcpUNyXHSPEP+ZIM6q5CrdKMmIxzofWuv8qXPRJtYdfpSeWKu+ZvKLnLPr3fgqtuMcpSeO8zXKQXiU1ZxIJ6kf+Ip2sT59RnCJO72CKBG1Ozni7sWd3aqe3PfYqM/OVvg15Gi+yMFxVvV7fGkMXCzhWeaxVRvJ0X1DDV/tRuB9hNl/OJ4TU1sJqd3JEXcv7uxW9eTubEbYDA7n7DJaYB3uMKenLw5zevV/hIsnmedFbSTHRZdGenxKUi4xp3cJSl9JJV9h6Pbizm5VP8rB+VN/Rrh4Z8rRfHW4w5yefjjM6WPfZzjix7HNddoXnRFe85rXbF/e11MjBY1ylGxMKtpV9RF3D97ZOMzpyXkvNrKtxuMM3Wi+OtxhTk/+DnP62OcZjvhxXnKd9kUbIT41ckk5PQnGhJRwJ0f8PXhn4zCnH/WpsxvZduNyJNbNF3E63GFO3/nrbNTfGY64cexznTaXRu0/HB+9s8w9wt4OxYSUcCdH/A53mNOTh8OcvrMZYTM4nLPLaHF1uMOcnr44zOlj/2c44sc5q+oXPTWKnzVySTk9CcaElHAnR/wOd5jTd/k5G6dXny7F5edM2c0XcTvcYU7f+ets1P8Zjrhx7HOdNhvh8ccfF/0+2T410qXRe8M9Qux87KXTw3HYql7xnN0sLt7Zsltge7CjbdT/zq84knHsqzr3CFwaudJuhPgx7C6pCovJuOBZP7LpcIc5PbEdtqpXP5zdLC7embKaqxivwx3m9Ph1mNPP5hJ51OPYV/WLNoJ+4ItAXeIVFpPBfqaMbDrcYU5PPg5b1atvzm4WF+9MWc1VjNfhDnN6/DrM6WdziTzqcexznbb7FQv5ac8I+vI+jvZeHsWkFNTJEbfD92DOZlWv/ji7WVy8M+UlC9DZOj39cJjTq+8jXDzJOPa5TvuiN9R0RsDRno0QE1LCnRzxO3wP5mxW9eqTs5vFxTtTziwwx1nV0489Np2dG5s49rlO2/2Khfy1ZwR9xKLbBF3SMSEF7OSI3+F7MGezqlefnN0sLt6Z0i1Mxexwhzk9Ph3m9Mqjs40c1fPY05YOedGlUXx82iXmOqVElOxIjvgdvgdzNqt69cvZgXeY7K8h3Vwpdoc7zOnx6TCnVx6dbeSonsdXbSTHIY9PSbpL3GFKRsmO5Ijf4XswZ7OqV7+cHXiHyf4a0s2VYne4w5wenw5zeuXR2UaO6nl81UZyXHSPoPcRSLpL3GFKRsmO5Ijf4XswZ7OqV7+cHXiHyf4a0s2VYne4w5wenw5zeuXR2UaO6nl81UZyXHSPwBdznnzyya0zXeIOUzJKdkZ2Nkdjzt+qXv1ydrO4eGdKN1eK2eEOW9UTy9koj1kOvDzusU2d46IzwszHsF3CMRk4M2Vk0+F7MGezqlffnN0sLt6ZcrQAO9xhq3r652xi32c48PO4x7bq+vSp2jHO5qP60J0S4GPY1zwjuCSVdIfvwZzNqn4mv22w774yPeiiuXV5dLjDVvXEdjYxrxkO/DxfsU0dP48++uj2KxYRi7Hue3yq4Bjo8Sk66aOx6hlzwcR3cmTX4XswZ7OqV3+c3Swu3pkyz1WO1eEOc3p8O8zpYz4zHPh53GObOsfwl+7yGSEG5/Hp6KuaJBJtaFNiMs9oxn9HNh2+B3M2q/qZ/jqf41E5llHNVYzQ4Q5zevw6zOlnc4m8PLaxTZ1DP+fi4t6eETIBY72PsOcNtZhMTLqrj2w6fA/mbFb19MnZqL8jXLyzZZ7nKp7jOD0+HLaqj/k428ihnsc2tqlzDJ8affd3f3f5k48Yvy98+rQaKA1kHDDp9vA7G/l1sYRfS84sLsdxenJ32Ko+joOzjRzqeWxjW3UujdrvI3QbQWcEEuqS6jAlkpOv2iNuh+/BnM2qvpqM3D/nM/PObndzpdiO4/TYOWxVrxw6n5FDPY9tbKs+fGrUbYS9N8sxUSUSdVV9htdx9mDO5ih97qfzm3lntt3CjDEdx+mxddiqfiaPyKGexzW2qXPwI8D8x5yIRT93Hm6EOBzP1O1g3R3Qqjh+5M5wIv+suluYMZ7jOD22DlvVKw9nJzzKPLaxTZ1j+KG7mY1AUBJzyTk9djEp2l0ZcTvcYU5PHg5b1Xe+1F/nU/i1ZDdX5LAXd3areo2DsxMeZR7b2FZ9+A01txEIFB+f0nbJOT02SoT6qIy4He4wpycXh63qO1/qs/Mp/Fqymyty2Is7u1W9xsHZCY8yj21sU+cYfsTCbQSM480ygV1yTh8Tiom7+ojf4Q5zenJw2Kq+86W+Op/CryXdXCl+h+/BnI3Tz+QhjmQe29hWffhzLm4jEOSXf/mXt1+6U9KSSkDS6ZWEeCM54nf4HszZrOrpl7NRn0e4eGdKN08x5ohT4ZUOn04/wmZwOIwpMfLYxrbqF10a6akRQSmuY06vJJ6xHv8d8Tt8D+ZsVvX0zNmo1yNcvLOlmyvF3YM7G6cnVofN4MoXmcc2tqlz7L40IgDfRxj9M0F4rlMxIXijMuJ3+B7M2azq6ZezUZ9HuHhnSzdXitvhDlvVE8vZzOQhTpRxfHOdtt5HiDaxbh+fQtLNMnUSd8k7fUwIH6My4nf4HszZrOrpl7NRn0e4eGdLN1eK2+EOW9UTy9nM5CGOZB7b2KbOMfzQXXeP8PCMoKF+RsYBvhcZ4yPbyt8ZuksWoLNd1dMvZ6M+j3DxkHlsY5s6x/C/aj7cCHFIn6nHgYyo04vT4R0m+2vI0QLrcIet6umns9EYjHDxkHlsY5s6B/cI7a9hdxtBl0ZKSjImQd3pY0LZpmqP+B2+B3M2q3r1xdmBd5jsryHdXCl2hztsVU8sZzOThziSeWxjW/XnP//5N6985SvtPLT3CDw1euMb33ibdJd8xpSAkp2RI5sOd5jTk4/DnH6vTWcHds2S56mK7ThH6YnpfCmfES4eMs9XbFPnuOiM8L5wjxAHJQ5eNYDCj7bpYinmteTMAnOco/T01fnSOIxw8ZB5vmJbdT01Ujvabz66S6NLNoILmBOI7ZFNhzvM6bfO332lqMrRNorR+RXnbDlaYB3usFU9fXQ26v8IFw+ZxzW2qXPwoTu+jxCxe3x0G+GSewQXMAbP9ZFNhzvM6YntMKffa6N+dn7FOVvOLDDHOUpPH50v9X+Ei4fM4xrb1Dk4IzzxxBP3ceWnvUfQGYGvauLMJVfpYzIKNpIjmw53mNOTi8Ocfq+N+t35FedsWc1Vjuk4R+mJ53wplxEunmQc21ynzVc1X/WqV/k5784I2ghKSlLBJSt9TEa8kRzZdLjDnJ5cHOb0e23U786vOGfKap5iPPLrvp/u7Ff1xHQ2ymeEi4fM46o2Pp7znOdsOB+6e+yxx+7jyk97Rrjkd42UjALNyJFNhztsVU+ezqbDOhv1fYYj7hlyZnF1HIet6umbs1G/R7h4yDyusU2dY+rL+wSFHIPT5h6Bx6e8SkQsJuH02K+WkU2HO2xVT85H2mgMnE/h15K6zHXx3HzCd9iqvvMV83J+I4d6HtvYps4xvDT6ru/6rvJXLAjApdGe3zWKieBntozsOtxhq3pyPdJGfXc+hV9DziysjuOwVT19dTZxHGY48PPYxjZ1juFTo24j8CPATz311JZbl1TGYiKxY6P6yK7DV7FVPrnvsVGfO1txzpZ5nqp4Hcdhq3riOpuY0wwHfh7b2KbOMbxH6DbC3jOCOhMTkq6TI36Hr2KrfPLeY6P+drbinC1nFlbHcdiqnn46mzgGMxz4eWxjmzrH8B6h2wh7zwhVcrGDrh47UHE6fBVb5Y/61Pkb2VZ9PUs3Wlwd7rBVPX1zNrHfMxz4eexjmzrH8Is5o42gL+Z0SWWMthKIHRvVYwcqboevYqt88tljE/vR2UfemfU8VzlWhztsVU9MZxPzmeHAz+Ma29Q59KG76D/W73QbQR+6w6BLqsJiMjFgVx/ZdLjDVvXkd6RN7K/zGzln16u5yjEd5yg98ZyvmMsMB34e19hWXb9rpHaMs/noNgLvI+hmefWNFhcwJxDbI5sOd9iqfhuUu68gVXG+Opvop7OPvDPrM4vLcY7S0z/nK/Z9hgM/j2tsq64v7+NTuhirPSPofQSMu6QcVgWMwXN9xO9wh63qyelIm9hH5zdyzq67uYpxHecoPbGcr5k8Iod6HtfYps6hM0K2VbvdCHpnGUerZ4QqQQV1Mnag4nS4w1b1Xd7OV2cT+9HZR96Z9dEC7HCHrerpn7OJfZ/hwM/jGtvUOfShu4q/6bpLI54a7blZxjElJvSMpv874ne4w1b1Xd7OV2cTe9zZR96Z9dHi6nCHrerpn7OJfZ/hwM/jGtvUOfTOcsXfdN1G0KVRdzbASZVwTAbOTBnZdLjDVvXkeaRN7LfzGzln16u5ijE73GGreuI5m9lcIo96HNtcp613ljNXfqYujUR2yVf6mIzsR3Jk0+EOW9WT46qN48f+znAi/6x6NVcxlsOdHts9WGejfGY44sbxrer6hhr8iN/aj84I+qwRxi6xSl8FU1AnRzYd7jCnJweHHaWP/XQ+I+ca9WquYlyHOz22e7DORvnMcMSN45vrtHVpFDHZItszQrw0woFLrNK7gDF4ro9sOtxhq/ptUO72tSp7fMmPsxV+LVnNVYztcKfHdg/W2SifGY64cXxznbYujSImW2S7EeJnjSC7xCq9C4gfV0Y2He6wVT25rdo4fuznDCfyz6pXcxVjOdzpsXWY03c2M7lEjup5fNVGcuhDd/CFyXbTdZdG8bNGkF3HKn0VLAau6iObDnfYqp68Vm0cX30c4eJdQ1ZzFeM63OmxdZjTdzYzuUSO6nmM1UZy6F9HwRcm203XbQQ+YvGmN73ptqMrHauCxcBVfWTT4Q5b1W+DcnfgqrLHV+evinG2rptDYjvc6Y+2if3vYkZenpfYps7Bh+74zjJf3axKe2kU30fAuEssYzGZKnClG9l0uMNW9eS1auP46uMIF+8aMs9Tjulwp8feYU7f2cR8OvvIy+Mb2yx8/OhHgCN2jw93RsCYm+X/384IbqAYtDOwOBnXqI8Wl8Odnpwd5vSdTRyDzj7y8rzENnUOnREyJj9TZwR9z3WUmPAYTIFGcsam4zjsKD35O1+XYKNxORrXHDm/Dnd6/DjM6TubmFdnH3l5XmJbdX3EQm3Zq91uhNmnRjjFod6BlnMFm5EzNh3HYUfp1UfXFxdnZOf8naUfLS6HOz15OszpO5vY784+8vLYx7bq3fcR4LQbgZvlp59++uZd73rXttBHiQlX8JjsqD5j03Ec5vTkU2GVTrmfgcn3taTmyMXr8FVslZ9z6uwjN89LbFPn0Btq0Y66uHe+8zu/875fsQAkCc4Ie34NW85z0K49Y9Nx9mCVTaVT3mdg8n0NObOwOs4qtsrPY9DZR26el9imznHRRuC/aj755JPbpsCZSyzrYyIx4a4+Y9Nx9mCVTaVT3mdg8n0NmeepitlxVrFVfs6ns4/cPC+xTZ1D7yxHO+rilmcEkWfPCFXCCiBfIznD7zgOc3rycdhRevXZ+RN+LVnNU47dcVaxVf5KLpGbxze2qXPoZjnaqb5xqksjEfQ+gtquY04fE5IPJ2e4HcdhTk8eDjtKr746f8KvJd08xfgdZxVb5cc8qHf2kZvHN7apc+gfhUQ71TdOtxF0szx6fFolHJNRwE7O8DuOw5yeXBx2lF79df6EX0tW85Rjd5xVbJW/kkvk5vGNbdWHT426jcBXNfmGmh6LxuCxXnVYCUReV5/hdxyHrerJ8Uibzl83Hmdg1TzlOB3HYat6YjqbmM8MB36er9imzsE7y/wPtapsnG4jxEujLqkKi8lUwbNuht9xHLaqJ68jbTp/eQzOblfzlGN2HIet6onpbGI+Mxz4eb5imzpH/NBdjKF6e7N8yRmhSlBBKxmTr/CRP2e/qu/iOF+dzQgDv1aZWVgdx2GrevrrbOJYzHDg53mJbeoc7qmR4rUbgTMC31AbXRrhrEo6JqSAnRzxO9xhq3ryO9Km89eNxRlYNUc5Tsdx2KqemM4m5jPDgZ/nK7apc3Q3y5uP0aURG4FCUqPEMh4T2pwM/oz4He6wo/Sk7nxdgg2G5HA4z1EO0OEOW9UT09nEfGY48PO8xLbqenyqdoyz+eg2wuz7CDiqknZBcxJqj/gd7rCj9OTofF2Cqe/XktU8xdgd7rBVPfGczWwukZfnJbapc1x0aaSNMHp86joWE4qJu/qI3+EOO0pPzs7XCJvB4VyjjBZghztsVU8/nU0cgxkO/Dwvsa36RY9PZ7+P4BJWErFzXX3E73CHreqrgVXOzldnM2MrzjWkmyvF7nCHreqJ5WyUxywHXp6X2KbOoUuj6F/1jXPEpVHVqZiMAo7kyKbDHbaqJ8cjbdRn51P4tWQ1VzF2hztsVU88ZzObS+TlsY1t6hzdzfLG6TaCnhopacmYBPWsj4lkbtce2XW4w1b15HekjfrrfAq/lsxzleM63Omxd5jTdzYxn84+8vLYxjZ1ju4eYeNUG4EEAHWPQHuUVMSx3VNGdh3usKP09Mf5GmEzOJxrlDhPLp7jrOrxv8dGeTlb4ZJ5XmJbdS6N+PK+K+X7CCSAA72hRrtLKmIK7AJ2+pFthzvsKD15O18jbAaHc40S58rFc5xVPf732CgvZytcMs9LbFPn6C6N8HPnO77jO+77Yo4C6IxAe5SU8JiE/MzKkW2HO+woPX1wvkbYDA7nGkXz1MVynFU9MfbYKDdnK1wyz0tsq65fsZBNlu1G4B5B31CbTSoHWGkr6cqmw+A7/Cj9nhixHy6PyLlGfWYeHWdVT3/22HR21RjlsY1t6hzdPQI+243AN9Rm/j9CldweXexAtu8wuA4/Sr8nRuyDyyNyrlF3CzPGdpxVPT732HR2MU/V89jGNnWOiy6NuEfQr2G7DimZI2TsQPbXYXAdfpR+Twz1weUg/JpyZh4dZ1VPv/bYdHbVWOXxjW3qHO47y/LXnhFe+9rXbt9ZXk1Mzldl7EC27TC4Dnd6Z7PKV56dnYsl22tKtzBjDo6zqsfnHpvOLuapeh772KbO0X0fAT/tRuAbav/wD/+wdcZ1SMkcIWMHsr8Og+twp3c2q3zl2dm5WLK9ppyZR8dZ1dOvPTadnRurOP65TpvHp48//rhfJ6OnRvrJR9chl9gefexAtu8wuA53emezyleenZ2LJdtrypl5dJxVPf3aY9PZubGK45/rtPlZeL6hFrHoqz0j6H2EPYnFILN1lyT2HdbhnV2FVTrlvxfr8pPva0m3MGN8x1nV43OPTWcX81Q9z0tsU+fg0ugVr3iFXUftRnhffnzKIMYB06Du0Xc2IyzGvUbdLcwYu+JUOtnswTob+UXO8PI8xjZ1joueGu3ZCCQeE4md6uojm714Z+ewVT39cjYjrBuTM7DRwupwhzk9+TvM6XOfZ3h57GNbdZ4avfrVr87ub9vtGWH10igmrQRuIw0qI/5evLNz2KqerjkbdXuEi3e2jHNUxepwhzk9/h3m9DmnGV4e29imznH1N9SUeEwmd65qz/A7jsOcnhwqrNIp372YiyW/15SaHxezwx3m9MTYiym/zl6cPC+xTZ3joqdGekONgKMv8OeEYzJKuJMz/I7jsKP05O58jbAZHM41Sp6nHLPDHeb0+N6LKa/OXpw8L7Gtut5QU1u2ksNLo5l3lkmWIwaJdQXr5Ay/4zjsKD25O18jbAaHc40yWlgdvgfbYxPHobMXL89LbFPn6L6hhp92I8TPGkHukspYTAbbURnx9+LOblVP/s5mhM3gcK5R8jzlmB2+B3M2Tr+Sj7h5XmJbdd5H4A01V+xGIFEujfTpUxx0yWdMCbjAWT/i78Wd3aqefJ3NCJvB4Vyj5HnKMTt8D+ZsnH4lH3HzvHGPzMcAAAxISURBVMQ2dY6px6c5KTnS9xHA0WWeEpGMuHwIG8kRfy/u7Fb15O9sRtgMDucaJc5RFa/D92DOxulzTjO8PC+xrboujdTOce58+7d/u/1iDpdG+qU7HIySirgLmBNQe8Tfizs7pycfhzl9ZzPbP/HOlnGOqlgdvgdzNk4fc5rhwM/zEtvUObhZfuKJJ+7jKl67EfSGmsijxCIek5F9J2f4juP0xHOY0x9toz538cS5hoxzVMXr8D2Ys3H6mNMMB34e29imzsGlEd9ZjliM9T6xEarBUCdtx+8OjitH2iiG8yn8WnK0uDp8D+ZsnD6OwwwHfh7b2KbOwaXRY489dsM/IK9KuxFWbpZxHhOPyVSBs26G33EctqonryNt1E/nU/i1ZJyjKmaH78GcjdPHnGY48PPYxjZ1juGnT2fuEZSQZEw21+HERDLu2jM2Hcdhq3ryO9Im9tf5jZyz66M57PA9mLNx+tz/Ea8a06ijzqGb5exf7UPPCDhV4jEZBevkDL/jOGxVT45H2sQ+O7+Rc3Zd8+PidPgezNk4fc5rxKvGNOpU10ZQO8dpNwKPT/mH4zM/AizHStwFFC/LGX7HcdiqnryOtIn9dH4j5+y65sfF6fA9mLNx+pzXiFeNadRR5+BDd9wjRCzGajeCHp+SzCghORXPBRQvyxl+x3HYqp68jrSJ/XR+I+fsuubHxelwhzk9MRzm9DGvGU41plFHnePip0arX9Uk+ZhI7NioPrLrcIet6snxSJvYZ+c3cs6ujxZXhzvM6emLw5w+9n+GU41p1KmuM8Kup0a6NCKhmaRiJ1brSriz6zgOW9UT/0ib2B/nN3LOro/mscMd5vT0xWFOH/s/w6nGNOpU169YqB3jUG8vjeLj05mksvPVtktSfjrcYat6Yq3aOL7y7nxGzjXqo3nscIc5Pf1xmNPHMZjhVGMfddQ5dEaIWIzVboQ99wjR+WrdJSk/Hb6KrfLJwdk4vfLubCPnGvXR4upwhzk9/XGY02sMRrh41dhHHXWO3fcIJPIrv/IrN0899dTmaPTFHCV2iYwdqPx0+Cq2yicfZ+P0sQ8znMg/qz6zwBxnVU8f9tio785WuGQe29imzrH7s0YkoY1AwJmk4MQklOisHNl2uMNW9eS6auP4sd8znMg/qz6axw53mNPTB4c5fez3DAd+HtvYps6x+9KIJOKlUUzQ1ZV4TMRxs37GpuM47Cg9+a76in10tpFzjbrmyMXqcIc5PTEc5vQxrxkO/Dy2sU2dY+qzRjkghujYCPpiTubEhFUXJyYibCRnbDqOw47Sk/+qr9hnZxs516hrjlysDneY0xPDYU4f85rhwM9jG9vUOXRpVPE3nT5rFINiSJunRivvI2ATkyDAbJmx6zgOO0pPP1Z9xb4728i5Rj3OcxWvwx3m9Pjfi41sY+55bGObOoc+dOfs7nzbt32b/WIOv4bN/0dQ6TolziUydqDy0+EOO0pPPqu+Yh+cbeRcoz6aww53mNPTn72YxqKzFyePbWxT59BTI9kg7+F1G+F1r3vd9tRIyUhGZ0fWY2KV3w532FF68ln1FfvgbCPnGvXRHHa4w5ye/uzFNBadvTh5bGObOu8mP+95z7vvnwnew+s2Ak+N9B9zVjoVAyjZGTmy63CHHaUn/1Vfsc/ONnKuUR8trA53mNPTn72YxqKzFyePbWxT5+CMkL+qeQ+v2wjxHmHUKSV1iYyJVX463GGreuKu2jh+7MMMJ/LPqo8WVoc7zOnpw15sZBvHJ49tbFPnjPDc5z73nt8+jRx8tfcI8anRSmIxyZV6Ti7bdrjDVvXEXLVx/Jj/DCfyz6p3C5OYHe4wp9/rT33v/IqDzGMb29Q5eGoU/1FI5Gw+ujPCno1A8jlITLqrj+w63GGr+m1Q7g5cVfb4kh9nK/xacrS4OtxhTk+f9mIj2zheeWxjmzpnBL2PILvIQWfPCHSAe4SZn3zEUexwDgI+U0Z2Dnd6Yu7BnM2qXn12dsKvKeM8VXE73GGresV1drO4eHl8Y5s6h95ZtjbdGSHeLK8mHZNR8JEc2Tjc6Ym3B3M2q3r119kJv6ZcnceYm7Nd1cuns5vFxcvjG9vUOeIbathFztY+aiPgTB3LQcBmysjO4U5PzD2Ys3H6vXFmxuRojubI+e1wh63qFdvZzeLi5XmJbeoccSNE/NZHtxF+9Vd/dfv3skpYUsZRRqwKFLlVfcbGcZyeOHswZ+P0e+NU43C2Ls5TFavD92B7bGJenb14eV5iW3UujfQjwNLJHnnfPQKBISJ1syyDUVIRr4LJTyVn+I7j9MTZgzkbp98bpxqHs3VxjqpYHb4H22MT8+rsxcvzEtvUOXSznLFbH/mMQGDISH7yUf9nGYMuKWExkILMyBk7x3F64u7BnI3T740zMy5HczRPzm+H78H22MTcOnvx8rzEtuqPPPLIzctf/nKZbFIYjdszQhWQzxrp06eQKw76I0pMyvlzHKfHzx7M2Tj9KM4MDucaZTSHHb4H22MTx6GzFy/PS2xT5+DSKP+f5Xt43/qt39p+6O69YSMwILFTGqAj9Z2vS7CY6zXqo4XV4XswZ+P0cQxmONXYx7Wguj50p7biqH3n4UbQkDwjNTD3as/Dqjhn6kaLq8P3YM7G6WPfZzjw85zFNnWO+NQoxhD34UaIo1IMaoQ1aFGn+l5M9teSo8XV4XuwPTYai85WHGQe+9imzsHNsp4aVbbtRuCpEV/MGf3kY044JhKDdvUZm47jsFU9OR5p0/nrxuMsLM9VjtPhDnN6fJ+B5ZzzfMU2dY7q06fys3G6SyNtBHVGUg6yjHhMJvOq9gy/4zhsVU9uR9p0/qpxOFsX56iK1eEOc3r878VGtjH3PF+xrTpnBD6GHYswdFNnBHVGMjpTvcJiIPGcnOF2HIet6snvSJvOnxuLM/XVPMV4He4wp8fvXmxkG3PO8xXb1DnyZ42yfbsRVh6f5g7HZGJQV5/hdxyHOT15OGxV3/kaYeDXLHmecuwOX8U6PnFH+Cwnz1dsU+fTp/oYdu4vbTjtRpi5NKIzCqyOqV0FdboZG8dxenVyNabz5/SjODO4y/FovebI+e3wPdgem5hbZy9enpfYps6hx6eyybLdCCtnBBwr6ZhIDujaMzaO4/TE2oM5G6cfxZnB4VyjaI5crA7fg+2xibl19uLleYlt6hzu8emtj+pmmeAY8+X92e8s41BJx0QUaCRnbBzH6YnpsFV952uEzeBwrlE0Ry5Wh+/B9tjE3Dp78fJcxjZ1Lo301Eg2Wd53RlBgHMRLI+mzg6PaMXnn03GcHj8OW9V3vkbYDA7nGmU0jx2+B9tjE8ehsxcvz2Vsq673EdSWreS2EapgGGgjPBt+AJiEbSfu5urKqo3jd/FH2Azu8j9aX811jNHhe7A9NrP5iJfnLLZVrz50J3uk3QiA/IqFPn3adQhuLiSwYqOEs5/Y7jgOO0pPHs7XCJvB4VyjjOakw/dge2ziOHT24uV5iW3qHNUv3ckeeedbvuVb7Ifu+KqmPnQ3kxAO4cVE0M2Ukc1e3Nmt6umDsxlhMzica5TRPHb4HmyPTRyHzl68PC+xTZ1DP/AVMdkj243AU6OV3z7FYUzcBYWXy4i7F3d2q3rydTYjbAaHc40S56eK1+F7sD02Ma/OXrw8L7FNnUP3CLLJst0IOiPM3iOQNIeC52BdOybveNz9u4Fx9kfpycn5GmEzOJxrFDd+it3he7A9NsoF2dmLl+cltqlzDN9HOPLSKCYdk1HCnZzhdxyHHaUnd+drhM3gcK5R4hxV8TrcYU6P/73YyDbmnucltqlzDN9H6DYC7yPod41GieUOx2Ri0q4+w+84DjtKT97O1wibweFco+R5yjE73GFOj++9mPLq7MXJ8xLbquvSSG3ZSraXRvEeAYMuqYy5gAqc5Qy/4zjsKD35Ol8jbAaHc42S5ynH7HCHOT2+92Ij25h3npfYps7RfegOXw83QhxRBuTuoLmyF8NfZ+viHa3vFqVidRyHOT0+92IjW+WLzGMb29Q5dEaIdrHeboSHl0ZxqO4f8IjGwY961Ue4eGfKblEqbsdxmNPjcy82slW+yDy2sU2dQ58+jdg9PuI9Qk6ap0Z6fIpRxqOjjLuA2UbtGX7HcdhRevJ0vkbYDA7n7DKaP+J3HIc5/V5/cRw63+LleYlt6hycER577DE7h/8PAAD//8pLzP0AAEAASURBVO2dZ68lzVWF7xBskm0wWWREziBAIPhGkJBAmJwMDvwMcA7wiwgGbDJGSCCQkQGRnbANmJwNzNPjdb1uTa1d4Z4+jM3bUs/etdfaoaq6bofT58yDV7/61f/zcLvpbT/zMz9z89a3vvVGuGSPi83xBw8eJFrXPsOvOAlLdopI2Kq9iqXOppjCryV9jno5KzxhyU78XUy1Vf7itGPrbXT2D/3QD7154QtfKJfH5INqIfz0T//0zdve9rbbzswUBccLeSxjMMz4VJyEJTtlJGzVXsVSd1NM4deSozms8IQlO33axTQelb847dh6G52dhfCCF7wgz/mrXvWq/ungYZaf+qmfOhaCEs4UJY4XI/9KzvArTsJW7dS46pP43t8ZjvPP0jU/KX6FJyzZybGLqb7KX5x2bL2Nzv4RH/ERNz/yIz+S57ZaCH5GmClIhe1ILz75V5yErdrJveqT+N6PGY7zz9JH81jhO9iOj/e98hevHVtvo7M/4xnPOBaCfFr5oFoIP/uzP3vzlre85ea///u/W79u24v2YrrkxjjDrzgJW7VT1qpP4nsXZzjOP0v3OerlqPAdbMfH66r8xWvH1tvSuTT60R/9Ubk8JsuF4DfLMwU9Fn3BoIIrl4qTsFU7+Vd9Et/7MsNx/ln6aB4rfAfb8fG+V/7itWPrbekf9mEftn+P8NRC0FA/khrUu9a8cJyXfJ1zDX10YFX4Drbj4+NQ+YvXjq230dmHT42qS6PXvOY1N29+85tvb3hmilJxq9KLT74VJ2GXslPTaizvR/J1zjX00RxW+A624+PjUPnD642r29DZ7/3U6K/+6q+OuihoVJR3YFX34pNvxUnYpezUtBrL+5F8nXMNfTSHFb6DJZ9kb8dgxOuNq9vQ2VkIz3/+828+4AM+oE1xtKfvEWCPiupmmDR68cml4iTsUnZqSrFG2AwO51pbNY+XxnrxGMedBzC98enNidvQ2T/8wz/85nnPe16cw3IhrF4aqdNeSK/4nm3Gp+Ik7FJ2al6N5f1Mvs65lq556uXbwZJPsivvCIc34vTG1W3o7MsLgcQ4Inl8uvOKhReiTo/kjE/FSdil7NS/Gsv7nHydcw19dGBVeMJW7epn8hOOHHF64+o2dPYP+ZAPOV6xcMzz3J4Regl5ajT7ioX7k4x2SuoFuD7iV3jCLmWnztVYK31z7pm6z1MvT4UnbNWuvMlPOHLE6c2J29DZeXzKPYJjnudYCCmZL4TEUbAWTwnF78mRT4UnLNnJn7BVexVrhIFfe2vnyvPvYMkn2ZVvhMMbcXpz5TZ09qnHpynZUwtBU/ZI+gDfRfKiEq/yFecaMs21cld4wlbtM7lmOb1xdRs6+/Dx6Stf+cr40p3eNaKo1NlewV6I8BlZ+VUYsROe7Ds+O7HU78pXnGvIlXls60m+q3bFTX7CkTOcdmy9jc7OS3c//MM/nB+fVgth5Yzgxe/q3oE2xqWxnXg7PupH5SvONeTowKrwHWzHR+NQ+YqDbMfW2+jsw7dPq4XgT41mi/ICV3QvvudX4TvYtXzUlyqfONeQo3ms8B1sx0fjUPmKg2zH1tvo7Pe6NOJzBN4+paDZorzAVd070PpeGtuJt+OjflS+4lxDjuaxwnewHR8fh8pfvHZsvY3OfrGFQNKZolTcjvQOtP6Xxnbi7fioH5WvONeQozms8B1sx8fHofIXrx1bb0vnAzW+oZa2B9Wlkd8jEGCmqJRoxq6ie9xLYzvxdnzUl8pXnGvImTlMnGSn7oQle+Xj41D5i9eOrbfR2flAjYUQ3zWqFoJfGs0WruJ2pHeg9b80thNvx4d+VH5tP89uzxxYiZPs1JywZK98fAwqf/Ha8fU2OvvwFYtqIfjN8kzhKtoLUbEzsvK7NLYTb8eHfld+M+NyaY7mKcVNeLITJ2HJXvl4XZW/eO34ehudffmpkRLjvLIQ5EdxXoiKnZEjv4Qne1XLtXzU7yqfONeSPle9nBWesFU7eZOP1zTi9MbVbdL5zvLU5wi9hFoIKqzHEYYEV2K3z+gjvwrfwa7lo75X+cS5lpyZx1RL8l21Ez/5eO4RpzeubkNnH750x6VRSsYny29/+9tvC048L3xX9+J7MXbx5Jfs5E5Yslc+6kvlK8415MwcVpyEJTv9Tt89SD4+DiNOb1zdhs4+fOnuFa94RXzFgqdGfENNxUh6oZfSvfgUs+IkbNVO7kv6eF9SXOecrc/MYcVJ2KqdfiYfH4MRpzemsrnUGYHYsnueB9VC4KnRyvcRPPCq3iuujVFxEpbsxE7Yqr2K5X1IcZ1ztj46sMhfcRK2ah/l0TikuMJ7Yyqby6c//em3P+ciu2Igy4XAPYK+jzAqyIPu6L3iPM4uXvklbNVOnclnpQ/OPUufmcfESXZqTViyVz7e98ofXm/c3YbOzs3yc5/73Dv8O7zZM8KoIC9+R/eiev67eOWXsFU79SYf9WWEi3e2nJnHxEl2ak5Yslc+GoPKV5zeuLpNup4aqY3/Hb1aCD/3cz93tXeNvCh10uUuXvklbNXeDqrXLT3FFH4tOXNwJU6yU3vCkr3y0VhUvuL0xtVt6Ox+jyBfpLjx0ogiuFnWU6OZojzBqq6Ckt8uXvklbNVOzclH/Rnh4p0tZ+YxcVbt9CX5jLAZHE5vXN2Gzp4WgmLEhQDBH59WHYJ7382L78XaxSu/hK3aqTf5qC8jXLyz5cw8Js6qnb4knxE2g8PpjavbpHNpxM+5tPUIjwsBh6fOCAz1ezcN2nst79UqTKwZjrhnyfZA6OVJnGQnRsKSvfJRTZWvOMh2XL2Nzq7PEdzPfbsLgQJw/v94j+CDmAattfuA9jDZqtjiXEOODrCEJzs1JyzZKx+NQeUrDrIdV2+js+tdI/dz37gQIP1/PCP4IKZBa+20Kz/xZzjinilHB1jCk51aE5bslY/6XvmKg2zH1dvo7MsLgeTsvLf91BnBh/vxAXfUB9/t0ke4eNeQowMs4clOzQlL9spHY1D5ioNsx9bb6OxTl0a9hDizEPg1bLYe5wAu9I8Xn0JWnIQlOzl6WM+menaxlEtxry1Hc5nwZKf+hCV75aPxqHzFQbbz4m10dn1V0/3c98HLX/7y+K4Rr1g8KZ8se9FtZyrMB6X162E9m/x2sao+xb6mHB1gCU92ak9Yslc+GovKVxxkOy/eRmdPl0byLxcCZwS9azRblBe4onvxya/iJOxSdg3YTm0j3xTzDDvjkd4GVb4018mOX8KSvfIZ1SEc2Ztft6GzpzOCYjy1EHxUw8CK4gMsm2SFwRnhinMNWR2c5E94slc+YCy8Xv+reKOY4Gy9uG5DZ+cDtfK/l60ujZ6kp0ap08dohAHZ8fFBVGzJXWxUh+JfS+4egJXfDlb5aCxGnN6cuA2dXd9ZVtxWxjMCBXBp9CTdI/AkKw2Md/6xTj4ciHZb5eO/4+N5K3/nna2nMSTvNbEql8ZghtOOq7el88ky/89y2u4sBJyUGKmFMLqmTMFX7Cq48qk4q9gqn7p2fLw/lb/zztY1x70818SqXKpthtOOq7fR2at3jch1ZyF4cpz5PgLfUHsSFoJ3TnW6rPAe1rMpXsKSHb8KG8UVfi05OrgSnuzUvYNVPhqLGU479t5GZ1++R/DELIT3hbdPveMaQJc9vGeTT8KSHb8KG8UVfi3pc9zLmfBkJ8YOVvmorhlOO/beRmevHp+S68HLXvay+DkCN8vveMc7bjs5U5Q6sCq9+J5vhe9gl/SpYnlfZnnuc4Y+mseEJzs1JizZKx/vc+UPrzembpPOJ8u8fRp/6a5aCHyg9qT897LqkA+S9B0s+SR7GvTKrvokq9jiXEOODq6EJzs1JyzZKx8fg8ofXm9M3SZdZwS1PccRp1oIenwqp1FR4u3IVKBiVfgOlnySnToSluyqXXKWJ/5ZcjSPCU926tzBKh/1fYbTjqu3pQ+fGlUL4ed//uePr2quFCXuqlTBya/Cd7Dkk+zUlbBk977McJzf0xVj5uDo+WOb8U2cZK/i7vh47ZU/PI2J+8gmCcYnyy984Quddkd/UC0Ef3xK0FFRdyJvNLzw1v3S2E685JPs6sMIFy/Jnv/uXMz4Jc6qnf4knxGmsaj84fTGRjaXT3va046fc5FN8SXjQqAAzgj6QA2HUVEKuiNTgYpV4TtY8kl26khYss/ULs5Ieo77zMOMb+IkO7UnLNkrHx+Lyh+ej4v8ZHPJJ8t8oCabuJLlQviFX/iFJ+alu9SB2448PGP1tuSX7MRI2Krd60m+zhnpijE6OEZxKv9LY7vx1IfKXxyNS68Nxj78HCFdGlGAnxFmClIhO7LtTBtjF6/8EnYpu/chxXTOSFeM+85F5X9pbDeexqLyF0fj0muDsd9rIXCPoN8+nSlIhezItjNtjF288kvYqp1ak4/6McLFu4as5vLS2G48jUPlL047tt6W3vuBL/kj71watUnbzxHc8dK6Ck5xd/HKr4f1bKppF8O/8lX8a8l2ntu8CU92/BOW7JWP11P5i9eOrbel6x5h+IFaL6GeGs0WrcJ2pApOvrt45dfDejbVtIvhX/kq/rVkb649d8JX7cRMPiNM9VT+4rRj62109uFLd7pH6CVcXQiK4YWo2JGc8ak4CbuUnfpTrBGmvlf+4lxDap5SroQnO3ESluyVj9dV+cPrjanb0Nn5HOH5z39+l3/EYSGkZFwaPSkv3aVOY2fzzj+yPPp31b4Tq/JRLYxxOi2Lcy2Z5lv5E75qJ17yGWGjWoT35tdt6Oy8YsF/HeWYYiCPe4RUrG6W9VW7xPOAu3oq0ONVnISt2sl3SZ/Z+p13tj6ax4Sv2ulH8hlhGoPKX5x2vryNzs7/j1D+97IvfelL49unPD7ly/sEoqCZolTcqvTie767ePJLdnInLNkrH+9L5e+8s/XRPCZ81U4/ks8I0xhU/uK04+pt6cOX7mYWAsUQcKYoFbcqVXDy28WTX7KTP2HJXvl4fyp/552tj+Yx4at2+pF8RpjGoPIXpx1Xb6Oz66mRY/JHPphZCBBnCoK3u6UCFW8XT37JTr6EJXvlM1u/eNeQo7lM+Kpdfdn1wz/5KjaynRdvo7MPnxpVC0FPjWaK8cJ2dC++57+LJ79kJ3fCkr3yUV8qX3GuJUfzmfBVu/qz64d/8lVsZDu23kbnIQULgadGPf5hqxaCnhq9L39n2QflGIX3/JPsaaAq+wibweFcaxsdXAlftas/u374J1/FRrZz6W10FoK+oUY8xxWnvDR6khZCr8PqRIX1Ol3xKyzFqnzA2CrfR4zr/DtzYCXOql092vXDP/kqNrIdW2+js+tdox7/sKUzAgXopTuIMwXB2928+BSj4iQs2cmRsFV7FUt9STGFX0vOzGPirNrpU/IZYRqPyl+cdmy9Ld1/8lE2+SNvzwi9hNwjvL9+oHZ0/uFfit7WG6iKP8Jm8F4dZ9h689zmSZxkx38Hq3xU0wynnS9vS9fjU+LKphyHjTNCSsYZQW+fQk48D7ir94prY1WchCU7sRO2aledya/KJd9ryZk5rDgJW7XT3+TjYzHi9MbcbdKf+cxnHv/PMrFl8zwPXvKSl8QP1LhHeFJ+ziV1QJ3pde7SPinHqIZRHfK/hhwdWNRQcRK2ah/l0VikuMJ7c+I2dHa/R+j5lgvBL41mC1eSVenFJ9+Kk7BkJ0fCVu2qN/lVueR7LTk6sKij4iRs1T7K4+ORYsPpjbnb0Nm5R+B3jVpMecqF8P58s+wDosGQTFiyj/zAR76KcbasDirlrjgJW7WTK/mojhlOb1zdhs6ul+489h3ezKXRk/A5Ah3wwr1DFbbqs8r3Ou7j63HO1O978CX/VTt9TD7e/xGnN+ZuQ2fnc4T2y/t3eNVC8JvlUUFe/I7uRSX/ipOwZCdHD+vZVE+FpXizvuKdLWfmseIkbNVOP5OPj8GI05sTt6Gz9xYCecQtL434FQv9nMuoIC9+R1dBlW/FSViyk6eH9WyqqcJSvFlf8c6WM/OYOMlOzQlL9srHx2Dkz6fGcHxuWp1279IIP31HJC4ESK997Wv/3y0EJsEH0icl2Ssf+Ve+4lxDVgeW8lechK3ayZV8VMcMpzeubkNn5/sIvGukA185xH1sIXhxXBo99YGahiwvEBga0Pey72oj/C77vJbPby/LLp78kp3cFabaRpzeuLoNnV1fzHFMOQ6O3yO0SZ9aCBqqR7I3iGJUGJwRrjhny3aOPR81jh6MJP9VO3mTj9c04vTG1W3o7OkegVwHRwuhl/BJWgjeOR8o6Qm/lF0DpnytTHnEG+HinS1789zmrDgJW7WTM/l4PSNOb1zdJr368j6c20ujXsKnFoJPSf1XXQN+1+O9rRH+Xua5Wm+e24wVJ2GrdnImH69nxOmNq9vQ2fV9BMeU5+BUZwResXjnO995FDwqSEF3Za9Aj7WLJ79VO7UknxE2g8O5xjYzjxUnYat2+pp8fBxGnN6cyIYvN8e0+apm+hUL8OOM0EuGTWeE2aK9A6u6iq/89Kisx0n+l7KTM8UaYTM4nGtsvblu8yZOsuOfsGSvfLyeyh9eb07chs7OTz7+0A/9UJd/xOGMkJJpIYAnjhd9H92LT3EqTsIuZT8G6+GApi3lEX+Ei3e2nJnHxEl2ak5Yslc+PgaVfxpTt0uv7hHI9+DFL35xfPv0SVoI6pAPkusJv5T9GKzNhZBq8PqvpVcHlmpInGTHL2HJXvmojhEnjavb0dm5Ryj/M8FqIeiT5VFBXviu7sX3YuzilV/CVu3Um3xGWK+vZ9uqg5PcCU/2S/t4/6uc8Hrj7jbp22cECuA1bG6WR8+WvfBdXQUn/1288ktYslNbwpK98kl9Pds+OrgSnuzUm7Bkr3y8/5U/vN64uw2dfeuMoOScEfwbal7gpXUvvhd7F6/8Epbs1JWwZK98ev28hk3zm3IlPNmJk7Bkr3y8rsofXm/c3SZd7xqp7TmOOL1LIyV/3eted/uuEWTZ2yCXaKcCFXsXr/wStmqnxuQzwtS/a8rRPCY82ak9Ycle+fhYVP7weuPuNnT24VOjaiFws/ykfFXTO+cDJT3hyZ4Gccde+Yww8Gtvo4OrwntYz6Y+JSzZ5Yec4cBr59jb6OzVu0ZHjLQQcPabZcizhcFd3bz45FtxdrDks2qn3uQzwlJfz7SP5rHCe1jPpvoTluzyQ85w4LVj723p+mS5ffsUf7bHHp96ct0jPKLOFyb+ilTByec+ePK9lJ2aU6wRlvp7pt3nuJenwntYz6a4uxj+la/iI9ux97Z0XRpNLYQ2Md9H0M1yi3khl9BVcBWr4uxgyWfVTs3JR/0Z4eKdLWfmMXFW7fQl+YwwjUPlL047tt5GZ9dTI7XlK3l7Rugl5Izwvv59BDrqA6OOX9JexVK+VIPwa8nePLe5E2fVTtzkM8JmcDhs7dh6G519eyHQAc4ITy2ER4PdG/D3Io9PxizmvGvo1YGp/ImT7PglLNkrn1EdwiX9wMemNrn10p2+j+C4/A8bN8up2Cfp0kid8+Jdr/CEXcp+DOTDvzppS3kS/0x7mmvPmTjJju8OVvmMYqre3ti6DZ1dC8ExxUAel0apIP8cIXE82H30VKBi3gdPvpeyU2OKNcLUv2vJmXlMnGSn9h2s8hnF1Hj1xt1t6Oz6gS/8HL+NU50R/KnRqGgF3JW94jzWffDkeyk7daZYI8z7eA19Zh4TJ9mpewerfDQWI05v3N0mXe8aEVc25Thso4XwpNwj9Iq/05GHqz5tPd+eTf4JS3b8djHlvJYcHVjUkTjJfmkfjUWVT5zeuLsNnV0fqCW/eGlEEXyy/L7+DTU67gOTBkL2xK/s98E87zX0mYOr4iRs1U5fk4/GYYSL186vt9HZuUdov6F2h5fOCBShm2Uczn4D1YtSB13eB+/59mzKl7Bkx28XU85ryZmDq+IkbNVOf5OPxmKEi9eOvbfR2XnprvcNNXHLM4JulmeKVlG7UgUl//vgPd+eTbkTluz47WLKeS05c3BVnISt2ulv8vGxmOG0Y+9tdHZ9Z9ljo4v74EUvelH3G2qcAX7xF3/xiflkWQW3HfHO9LCE78Tb8Un5U63XsI8OrgpP2KqdfiYfH4MZTjsv3kZn9w/UPL64cSFQwJP0gZoK9k5I38Gu5TNTozjXlNUBtoMln2SnrxWmsZjhtHPpbXR2nhq1v4atHAcnnREogMeneg17piAF3pFefPJPnGQnTsKS/dI+6kuVT5xrydFcVnjCVu30Nfn4OMxw2rH1Njr71kIgOTtnBBbC2TfKdNyL94FwPXGSfRQ3+SV7Fa/yqfy8f9fSq4Orwqgv4av2KpaPQ4rrnHbsvY3O3j4+bf27l0ZKrkujmYWAjxfgiWb0Gd/ESXby7mCX9hnVMTM+l+RofnsxKwx+wlftVSyvK8V1Tjtf3kZnZyHwa9iOKcbB6V0aKfn786URg9AblB175QPGlnI9Qq/3r+Y2ZdzFk1+yk7/CVN8Mpx1bb0vXd5YV1yWcx84InlifI7jNA1xSV8FVzIqTsGQnTw/r2VTTLjbjL87ZcjSXu3jyS3b6WWEahxGnNyduk85CeO5zn9udc3KVC0GfI4yKUdH3kSo4xaCG9O0ifJJ/siefVb7qrfxWOOKeJUdzuYsnv2SnfxWm/o84vXF3Gzr70572tJsXvOAF+ThpL408sX8xR4VVUr5eSMV3bMYncZKd+KvYKl99qPxWOOKeJTVHKf4unvySnfwVpvpGnN64u0368DVsXwieFF0fqM3eLKt4JVd7Rs74VJyEJTs1JWzVXsXyvqe4zjlb9zlOuSpOwlbt5E4+XteI0xtTt6Gz9941Up6Do4XQJqStp0YtpgCtFM8LaTmpPeNTcRKW7NSRsFV7Fcv7m+I652xdc1TlqTgJW7WTP/m0tVW83pi6Tbo+R0iX13fuETwhuj81aovrteWv5D1Oss34VJyEJTt1JGzVXsXy/qa4zjlb1xyN8iTepezkT7Ha2ipeb0zdhs7Ou0bTN8ueEJ2bZb6P8O53vzseNF60/L0Qxyt9xqfiJCzZqSVhq/Yqlvc5xXXO2brmaJQn8S5lJ3+K1dZW8Xpj6jZ09umF0Caj/f5wacSg+sD4IF/KXuVQvpRL+LVkO88pb+Jdyq68Kd4sDq8dW2+js6eX7pTn9tKoLYi2zgjoLa4ALuF4EY6N9Bm/irODJZ9VO31LPur3CBfvbDkzj9SQeJeyq58p3iwOrx1bb6Oz65PlHv+wVTfLempEsaOCCQbHi8A2u834VZwdLPms2ulj8lH/R7h4Z8uZeaSGxLuUXf1M8WZxeO3YehudXTfLPf5hqxaCLo0gjgqGc5/Ni09xKs4OlnxW7dSbfNSXES7e2XJmHitOwlbt9DP5+BjMcNqx9TY6O5dGeg3bceUqL41+6Zd+6fZn4WcKUtAd2SuujVNxdrDks2qnzuSjPoxw8c6WM/NYcRK2aqefycfHYIbTjq230dn5HEFPjRxXrnIh8Pj0SfnyPgX3OnDbkYedTVvyu5SdvCmWahrh4l1Djg6uCk/Yqp1+Jh8fgxlOO7beRmfXd5aJ7bhylQth9WZZQXdkr7g2TsXZwZLPqp06k4/6MMLFu4YcHVwVnrBVO/1MPj4GM5x2bL2Nzs49gn7FwnHlKhcC9wjvC99QozO9zt128uFA9Lbks2ondvJR3hEu3jXk6OCq8ISt2uln8vExmOG0Y+ttdHY9PlVs52A7FkIvGbanbpY1bI9kO3iOVph4Mxxxz5S9+fZ8FZ6wVTv5ks9sLeK14+ptdHY/I+DnnKPNU6O2ILVXX7FQYTuyLawXo+LsYMln1X4M5MPBrrYUs/I5C9P8pvgVnrBkJ0fCkt3rGnF649raaOvxqTBJ5eqeEZTcf+lODmfJtrBenoqzgyWfVTu1Jh/1Y4SLdw2p+U25KjxhyU6OhCW71zXi9Ma1tfGiXXtGIIfzyoXAzbL+xxwv7gzdi0rxK84OlnxW7dSbfLwvMxznn6WPDq4KT1iy04eEJbv3e8TpjWlrYyE861nPuvm+7/u+x+ZJ3PeZhaCCfZBcr/CEXcpOHSnWbI3OO1sfHVwVnrBkpy8JS3b1f4TD6417a2Mh8NIdP/nY+ogbFwJF8IrF++uvYbcDcozQe/7R4Lit4o8wxUlxhV9Ljg6wCk9YstOnhCW7xmGEi9eOq7el610jtVvfciHocwScZotSglXZFtj63wdPvpeyU2uKpX6McPGuIUdzWeEJS3b6k7Bk1xiMcPHasfW2dN0jtF/MEf7YQvDkukeoOqNi7itVUIpzHzz5XsqumlM88AqT/7Wkz3EvZ4UnLNmJn7BkV00jXLx2bL2Nzu7vGskPKW5cCBTxmte85uZd73rXVX7pzovyQqWrYLVbmfBkx38Vq/ijeDM4nGtsowOswhO2aqefycfHYIbTzou30dnvtRA4I1zrk2U67x3wwRhhFb4bs+fXs3md98U91pn66OCq8ISt2ulf8vG+z3Dacfe2dL1rpLbnwFaeEa55j0BhvSK9YK7v0sAk32Qf5ev59Wxe331xj3WmnsZQOSs8Yat2ciUf1THLacfd2+js+qqmx5Z+cH78x3/8zv+P4MXpXaOZn3NR0F3pxacYFSdhyU6OVWyV3/aj8m+5Z7Z9jnt5Kjxhq3byJh+vaYYD38e21Wnr8aljyoPtgS8ET4qux6ezC0H+vWRKmuSMT8VJWLJTxyq2ym/7Wvm33DPbmqeUo8ITtmond/LxumY48NuxVRvJnu4R5Du1EChmtiDvxIquwiufipOwZNcApHw9v55N/hW2whH3TDmay4QnO7UmLNkrH+975e+8dvy9ja5LI7fLH9v7/UKgs73OV/aEpTiJj923yt95Z+ozB1biJDv1JizZKx/vf+XvvHZsvc29pb6hho9jilEuBN0jQF4paJarIpC94hwfcSr/hCV7yrXKX6m/5Z7VnpmbxEl2ak1Yslc+6nvlK45kOzdqI9n1gRp8YfI9bLpHaJPS5u3Tv/7rvz74Le5B0B3vJWr5bXvGp+LsYKs+q/ydPrY+l277PKXYiZPsxElYslc+qqvyFUeynRtvc0bg8ekP/MAPHIvAsVv/aiGsfo5A4b0kSjaSI98K38GST7JT/xnYaFwuic8cXImT7NSXsGSvfNTfylccyXZevN0uBHwcP9rVQvjlX/7l41csVp4atQlU6Iwc+Vb4DpZ8kv0YsIen2bTt+qV4Z9hnDq7ESXbqTFiyVz7qd+UrjmQ79t5mIfD/Izzvec+7XQCOE+P2HqFNSlsfqOE0uxhU2I5si2tjVPgOlnySnXrOwNp+ntlu57mXK3GSnRgJS/bKRzVVvuJItvPibXTdI7T2W//qjKCb5dmC4HkiJZmVI98K38GST7LTjzOw2fG5BG9mLhMn2akrYcle+Xg/K3/ntfPibc4IfI6gX7GQn3O6ZwSSs7MQ9LtGck7SC/YEid+zj/wqfAdLPslOzbvYyLc3HmfZfK56ORKe7MRIWLJXPl5T5e+8dl68fa+FQBJdGs0WI54X4cWO9JFfhe9gySfZqX8XG/mOxuaSuOapF7PC4Cd81V7F8rpSXOegt/PibRYCH6j94A/+YOSVZwQthDZpaqtoLyJxe/aRX4XvYMkn2al5Fxv59sbjLJvmqY1P30b3gsl31U7u5KO6Rrh4yHZevI2ux6csCt/Ee2whKDlS7xrJ5gFa3TkK3nKq9oxPxdnBkk+yU3/Ckt37PMNx/hm6z1Mv/i6e/JKd3BU2g6v+3rjKJqlPltWWLxJbuRD8cwR37OnqVC9Rj9/aZvwqzg6WfJKdmhOW7N7PGY7zz9A1Tyn2Lp78kp38FTaDqw+9cZUNyd67WXb/YyF4QdKRO2cEFaAks3LGr+LsYMkn2elLwpLd+z/Dcf4ZuuY3xd7Fk1+yk7/CZnD1oTeusiHZeXzKr1i0l0bEODg8PvWC0NXml+54xUJtJU5SPBWReMk+8qvwHSz5JDt172Ij3zQmZ9g1Tyl2hSds1U7u5KO6Rrh4vTmRDcnOQuBn4dmEuX95Rlh5fEpQFd4mUsJKzvhUnB0s+SQ79e9iI99qbC6JaY6qmBUnYat28icf1TbCxWvnxNvo7Fwapf8f4eD0zggq8qmFoKF+r/RBfq/1kVZhMEZ4G++M9szBVXEStmqnb8lH/R7h4rXj6m10dp4aff/3f/+hO06Mg+MLwRPzGI3/MUc/8KWkSbpvmyj5tPaRX4XvYMkn2al3Fxv5tmNxVtvnKeVInGQnTsJW7V5T8nUOejsn3kZn1+NT+T7GqRYCZ4Sd17B7yWSrpBfX41X4DpZ8kp2adrGRb6+/Z9hGB1eFJyzZqT9hya4+j3DxkO2ceBud3e8RWp+DUy2EX/3VX71561vfGjvjxfQK94Kcm/QRv8J3sOST7O0Atv2o/Ea+bayz2r158lwVnrBkJ27Ckl21jHDxJNux9zZPivTUSHZJ/NHv3Cx7cl0azfyukfupMCXw9kj34nrcCt/Bkk+yj/pU+Y18e/09w5bmSrkqPGHJTsyEJftMHeK4bMfe2+jPfOYz7/watuPEKRcC31D727/92yNfVXiLtUm84Eof+VX4DnYtH+9zldN5Z+ntXLV5dvDKJ2HJ7vXMcMRvx9Xb6Lo0au23/j/2Yz92/K5Rm5QzAl/Mmfn/EVpfT6ZEM3LkV+E72LV8vO9VTuedpbdz1eap8IQlO7ETluxezwxH/HZcvc2lkT816vk8SAuBImZfsWgL9iKUdEaO/Cp8B7uWj/e9yum8s/R2rnp5EmfVTuwdH9WUfIW7bMfV2+i9MwL+4sWF8O53v/v4PsLf/M3fxM6okLZgBRc+I2d8Ks4OtuPDX5e2v+pfFW+FI+5ZMtWvfAlftRNvx2dUh/BW+vi3Oi/d8Rp2+4qFeHEhcGnEu0a6WW6TervtrII7Z0Yf+VX4DnYtH+97ldN5Z+rtfLW5Er5qJ+6Oj+pJvsJb6WPrOgc/nyz33jUSLy4EiuDSiG+osSiqDS4BJStuwlRQwrFXnB1sx6eqo4qnfs1wxD1Ljg6whK/aqX/HR/1OvsJb6WPrOguBL+bwyfLWGUEfqI0KYqF4YtfbYqv2yK/CL43txKt81O8ZjrhnydF8JnzVTv07Pup38hXeSh9b1zn4uVnmPxNcWggUwD67EHoFeyFtwak98qnwS2MpXrLTpwpTn2c44p4he3PV5kmcVTtxd3xUT/IV3kof21bXB2qnLYRUrBfSFpzaI58KvzSW4iU7faow9XmGI+4ZMs2XclV4wpKdmAlLdtVR+TrHdR9b1zn4+UDtu7/7u28+8AM/0F0OHW73HoEi2WdullOHvJDHMheGyq/CCNnDezalT1iypxyjeLO4eGfKNF/kpN/V/WDyTXZiJizZ8dE2wxG3nTNvo/vnCI7hT/uxhaDkSBYCb59Wm/gtp03W4qld+VUY8RJ+KXuVY4TN4HDO3tJ8KW+FJyzZiZmwZFcdla9zpLdz7G10bpbTb5+Cx4XAXwY+WWYhtDfDSj4q1otxn0qvfCqMmAm/lF05mMRezJ6t7esMp/W5ZPs+B2DyTXbqTliye19nOOK34+ptLo24R2AhoDuGP+1yIbz+9a+/edOb3hQ7Q5Cq2DYh/NFW+exg1NfeIKmGFC/Z8dvFRjmFny2r+VLuxFm1E2/HZ1SHcJftvHgb/V5nhDe84Q03b3zjG2NnKCR1FMyLoT2zjXwqPGGXslN/ijXC1PfKX5wzZTVf5K3wHSz5JLv3fYYjfjuu3kZ/9rOfffOd3/mdj/76P2z7Bl6eEX7nd37n5o//+I+3B8eL8cSVPvKp8IRdyk7dKdYIU58rf3HOlKODq8ITtmqnf8lHfR/h4km24+ptrghYCM95znPWL4141+g3fuM3bt7ylreURVcFezEqeCRHPhWesEvZqT3FGmHqd+Uvzpmymi/yVnjCVu2jPDM4HN/acfU2Oo9Pv/d7v/dYCNTb4uUZge8jvOtd79oaHIr0ZF50pVc+FVblS36rdtW961fVqNhny3TQKm+FJ2zVTq7kM1OHOC7bOfE2ZwR9siy7JDHQ40LgjMDvGvHFHIp2Ry+g6lDycf9Wr3wqjDgJT/Ydn51Y6mPlK87Zspovcld4wlbtozwzOBzf2rH1NgtB7xrJLkkM9HIh6Btq7uTJ0dMggFV+4L2t8qkwYiU82Xd8GNTU5ypPlQvsWluqXfkrPGGrdnIln5k6xHHZjr230f0DNfnd4fgXc7w4zgj8nMvb3va27sfSCuY+skl6ItlGcuRT4TtY8lm106/koz6PcPHOltWc7WDJJ9npX4XN4L0x8vF1nT9ez3jGM26+53u+586jdOfcOSOoOCQforEQ+Bzh6U9/ei/vYZNPj+CJenjPNvKp8B0s+aza6UvyUT9HuHhnymq+yFvhCVu1j/LM4HDazcfXdd4v4tKIheDvGjnnWAjqiEsWAt9HePOb33wsBHfyAuTjNteTn3NcH/ErfAdLPqt2+pB81L8RLt6ZcjRfFZ6wVTv9Sz7q+wgXz2U7vmp/0Ad90O1C4OzgG5xj59JISV1qIfD4FOcP/uAPPvzhKAEG+Xhw1+G2Po63usduMdoVvoMln1X7qLYZHM7Z22i+Kjxhq3b6mHzU/xEunqTPFzr+snHs8r9q6hUL+SDFKc8IvHTHPcJ//Md/3PCdz3abKVaJWt/UHvErfAdLPqt2+pN81NcRLt6ZcjRnFZ6wVTv9Sz7q+wgXT7I3ttjYuRzi8p5vqPmlEb7yKxcC9wj8nMu//du/HSuKU4xvM8UqkftV+ohf4TtY8lm106fko/6OcPHOkjPzVXEStmqnf8kHjHHiimR1a8eXNjsHP2cE/R9qzpM+XAh8ef9f//Vfj8L9rFB1xDugRG6r9Bl+4iQ7+RJ2KXuVQ/1NuYSfLWfmrOIkbNVOP5OPxmCEi+eyHV/a2jl29VVN50m/XQhKLMmK5NKIHwHmjMDjVFYVZwVxvIikK1HCW/sMP3GSnRwJu5S9yqE+plzCryFHc1fhCVu108/kM8KqMWrH12+M+RUL/ZyL86THhcCBz/cR9CsWLAYWB4+hqk60hSpRa0/tGX7iJDu5EnYpe5VDfU25hF9DjuauwhO2aqefyWeEVWPUji9t2Tgj6FcsZCOW9OmFwA3zf/3Xfx1PkPiSQ9URL1aJ3FbpM/zESXbyJexS9iqH+ptyCb+GHM1bhSds1U4/k88Iq8ZI46vYfmPMJ8t66U48YkmPC4G//tws64zAGeI///M/j8XA6vLTzkxxFccxFeY21yt8B0s+q3ZqTD6qf4SLd6bUQZJyVHjCVu3kTj4jLNUtP8aY2Byffoymb6hpTuJC8EsjFf3v//7vx0IA4yPrmU2JZrhwRvwK38GSz6r9vrXPjs99eJrHKkbFSdiqnfzJZ4RVtTNnumrhbOBz6PcIxBB2K/WBmgqT5GD/lV/5leMnHzk74IBsL5GqwjzhiCdchandygrfwZLPqp06k4/6MMLFO0tqbqv4FSdhq3byJ58RVtXOImDjgY7OBow5OwvBP0fQXNzKaiFwadT+97JaCFwmcYnUfrbQFqpErT21R/wK38GSz6qd/iQf7+sMx/mX1KuDT3kqTsJW7eRKPiNMdbpULI5JzgQckz7OLAoujXh86vcN4iDjpRGri6dGvhCUkEskzhhwdImkoF4gerK3PLVH/ArfwZLPqn22rymu+n+m1PxVOSpOwlbt5E8+I8xrJ4bGk2OSg5yDvv3jjI1PlnnFYmkhkED3CL4QVAQLgJ0VyMYjVRUkjmSyC2/liL+LJ79L2elHiuV9nOE4/1J6deB5joqXsFU7+ZLPCPNapbMIGFcWgA50H2d0jlGeGgnHVxzkcUbASGG+6x6BhcC9gW/wWAQ6K7DiuEzqbWBVp1sfFdfa1d7Fe3492ygPPvSn59uzKR5yhDv30vrsHFS8hK3a6duOTzsmxOAPMscnB3h7SaTxRuo1bD9bOD5cCDw+7RVNcl8MJOCGRMFVdNuWPckRfxfv+fVsqithyY5fhc3gyn2G7M1hL0/FS9iqnbw7Pm29HH8sBC0C/2sPV/OB5NjU26duF+/2PxPUX31JEvDUqHdppE4guXnmzMDO665ciymRkiBnN/ft+eziPb+eTTkTluz4VdgMrtxnSM3ZKHbFS9iqnRqSzwhT/SwCdg5+jjvGnqsP3zQfyO2FwIHN/7Pc+x9z6AQ7CXR5dKnFoOK9Q67v4j2/nk25Epbs+FXYDK7cZ8jqwPN8FS9hq3byJZ8RBq4zAQc+C4GdsW/HX214eg0bXQtG+OGr/3CcMwHFqcCZMwJFEYTCtBCQ7WWSEsIfbTPcxEl2cibsUvYqh/qccgk/U2peRzkSL9mJl7Bkr3xUX88XG8clx5svgvbAVgyNN3LpjEAiFTC7EJQUPouABYVklfK2qlareCOp4ite4iQ7sRK2at+Jpb6kXMLPlJrXUY7ES3biJSzZKx/V1/rquOI4Y+O4YgH0bn4VQ+ON9M8R3A6X9p17BJJr52Dm0qh3s+xFoh+BHgbjfkEF68zA9RvFKrmKTHKGlzjJrs72ciafZN+JpbxVTHHOkj5nVY7ES3ZiJSzZKx/V5r4cUywAJHZfBLRZEMh2fNVG3mshjG6WVbRLnRl0dqBoFgK7TmHO7+nqQA/DlvBk3/G5ZCzvRxXXeWfofnCl+ImT7MRJWLJXPqoLX3ZfBGC+CMSVbMdWbSSXRnrFQnb80I+9d49AARzIOwuB4Fq9WgwsAHbODnRktHmhPW7Ck50YCVu178TyPqR8zjlLrw5M5UycZMcvYcle+QjDV8cPko1jSH9YD0PzTzu2aiP9k2XZcUc/di0EEuvUg87BzEJo/8PxqnNeF8Vrx0cJtRi8GPdTca1NbWKlM8tOzOST7FV9lY/qn+GIe2k5M3eJk+zUmLBkH/lwHGrnGGLM2KtFQMx2bL3tnyy7Hf3YX/SiFz2s99EiaBcC9wjt5whV5yjGN+Lp7IDO5qe2nQOaGN4R2tqSHTxhyb7jU8WaqVGcs+TM3FWchK3a6V/rQ1t7uwg4Ttj9xrg3Ru34e5s3H/ylOzDhh14tBF0aedK2A471dPhaDOooiekYi4JdBcm/bcsumfBkxy9hyb7jU8Ua1S78TDkzdxUnYat2+ug+6Oz89UeyENA5RhhTriLQR1s7/mojuUfgXSNisWFz/EFaCDyr1RnBC/AOuH2kazHQSWKoEF8QiqEC1W5lhSfsUnZqWY3l9Sdf55ylz8xdxUnYqp3+yUfHg6QWgy+C2TFreWojOSPw38vqCSY2xx9bCCqIA/fXfu3Xbh+fykkd2JksYhOXGIqjgui4F1nFVy09TsIuZSdnijXCZnA4Z20a8yp+xUnYjh0fjgc2P+Y0thwLo0uhXj/kDyYdyT3Cd33Xdz12jIEd+4tf/OL/oRDfKZIzApdG/P8I2lKHhY8kCcnDqlfnkVr94DpDINMGL20Ju5SdvCnWCJvB4Zy1zcxfxUnYrB2eds0/fdUfR8ZVfxCr+a/Gx+dGOlKXRu0fW7Bj7y0EiqS4X//1Xz9ulkmsDlRFzGAqjsWgAdBAqvNw0HVj3cZVjNZOO2GXslc5RtgMDuesTeNcxa84CZux68CHqx0bxwEb882ua/iqxgrzeZaOZCHwa9jEp+0Y8R6wEHRdRmHaOSNwacTjU22pw8JnpAqASzwWAznZkOBaENh0M43U5jFkk0zYpezkSbFG2KhG4WfJmfmrOAnr2WVDMq9I33XMMZZaAEj57Y6Bz410JJ8s6x6BPI6R61gIOviRFIhkIfzmb/7m8fYpTurEboHyUwHeJqefHcjVFosfOysavI3j8aS7vBSfmCnWCJvB4Zy1zRxkiZPs1NrDmFN2xko4Unb9YevdC4i/Mw4+N663r1gIu5WcEVRguxB4asR/Jpg6e99CW38NEvVoMHxBiI9NZwp1RFjbvrSdeCnHCJvB4Zy1aUyr+ImT7MQShuQPGhtj5HbNLXZ25lCXKYfDe/6Rj9tWdJ8b6Uh+4Iv/Z7l3j0D844xAcgplIehShTMC/72sLo3uW6A6o+LU7knVoZy0/QmCYoAzoOocsYS1cS9lr3KMMNWUahF+ltR4VvETp2eXDckLl8yD29B1PNFnduaLt5KrTTEqTsJ8bKUjdWmkxecYscqFoDMCTvcpzotWAW5LuhYnuZUffwZTm9fGRID1cvRsxFi1Vz4jDJwt5XyEnvevxrDKUHEc0194Ymk+wLULF8YZXAehx+nVMsJ7PrL52EpHshC4WdYfTcfw7S4EOqGb5b/7u7+7PQiV7L5SRVRxnEM9/GXBxtmBDV2DjM7gSaLTYV0+KQ94u/VscJL9PphyV7HFOUPOHGA9DmNOzWD85fc/NtiEaZ40RtjZeeFNWy++MMkZjritJJ826aqBVyyWFwId5qnR3//93/+fLwR1jAlhsJEaLDrpEyMudi0aFoQWhQbHedJdtrxLYLMxnHdpXQd1L67GFAydnfFmZzwYQ23iak7gsMFjPuBy0LWb/Fq7t2c4znfd5811PlDTUyPswm5l+zkCf3npFAuBS6N/+Id/uD3oPOF9dCWvYlQcBkrXnsTQwOHDJLD7hh2ODgJfGOJ5PrhtDPEknS8bMtmds8Jr/e7b1lgpjrfR2Zl7pP56oqtf4miB0GYDZ8y4/NGCEaZcksk+i4uXpGoFR2ef+hyBA0S7LwSdEQg4Kh7O7OaFJp8ZDr76i0R92rFrQWggsGnDxkTCR2finO886a1M9SX7rH/Lu1Rb80d9GiekDmjGkTFgLNQHJHaNE1z/AwQuHy0ar1c53Yae7COsjZPaqh8cnZ17BF6x4EZdNuGHbB+f0lF2/irwyfKTdGlEwb6pQxpYTaraSHYd6OJ7DOnw8NeGjyYXP21J7+Gy9aTH6eH3san/HoMDWnO7Mibuo5r94CcH7V7Ong1+so8w8JlNdcJFZ+fx6Xd8x3fc3rCLcyt7C4EDgv8h53d/93dv3vrWt87kXuaogOR4X5w+6K8Zko0JYNK0ew7XVRN+ioENjhYVMWi7n+viK1YrW26LV+3egYSNXTWr/6qRutmrTf48KPE/CvSVjT8MevJDu1cHdm0JT3b8KkxxK9mOq2pnITznOc+5PSNgJ5f48akRC+GP/uiPbv7kT/6kyruNqYAUYBfv+emg8MnVgMNnULRTTy+G1ylf4qEjFQcesdRGtrvHSrpyIH3XwnQb+bRAPb/Hhg8PySZ/aufAV5ta2ZDE5OBH0pbvQXj4T9uWXTLhyY5fhSnuSKoP8NDZP/ZjP/bmW77lW46FLPsd+ZKXvOR4+5QBYZCR7CyEv/zLv7x5wxveAP/imxfbC76Lt34MbGvzvpK7HXwmXpOPL7viSPeaPX4bC54OXvn0OMIkFVOLirZ25xBbXLdjE4ZUDW3f4VEPedj5iy9d8ZC9mnu2kU+KJb9RTPEq2Y4H/fn8z//8m6/6qq96bCEQB/4DLQQGiutBSe4R+Jom7xudsbXF9nJUnB2s58PAs9NvDhLpcDUp8tMBIim7pPehtbWxWq7w1u5tdOL2uNjYdcB7f5yvupD6i6/+EN+5tLVdyk681ViqYVaqj/Clf93Xfd3NZ3/2Zx9nOMURhryzEDR4uln+l3/5l5vXvva18ruoVBFV0Iqzg836MFGMBeOgSaOtTTa1kcTmwGLT2YQDTJtyI/FHtjZxe/FloyY2Fq1L4YpJW/mROuhV4+Fs/8jfTHfUhK/aCbrjc6eYQUNjIBr9/7Zv+7abj/7oj76dIzDxkN2FwCBz3ch/NP66173u0OWk4PeVM/Eqzg626tPymUB2FgW79HZi1Ua2MTRu4jhe8eUHv+Vh08GOpK0Dvo2vOD2pmlaw5JPsxE5YsvfqqWzeZ40NnyrzWUJvXOAcC4ECNLksAi0Ezgi//du/ffvlnNnkFU+YFytbKyvODpZ8kp2Dqp0c2vCTD33Q2QOu+Iyp2m0/abfxyC278kkKOwjv8SV22irMfSpewlbt5Nvx8TpHejuWH/VRH3WcEXT/g79zjnF96Utf+thXNZk0TsGcEf7sz/7s5g/+4A9GuQ/cg884jPi7ePK7lJ2+pVgjbAaHc8ktHXhtjoqXsEvZqSXFauucaWt+kF/0RV908+Vf/uW3j07xd/xosxAogL9iLACdGVgIPDnipbvXv/71t9ekoyKUYMQ7kj8sstpGsRJ+tn1Ue8rvfZ3hOP8++uwBVvESdik7/UuxdvuuM/o3fdM33XzSJ33S7QekxNP438qXvexlt2cECtFiYCHw5Oif//mfjydH//RP/zRdj4KPHEa8XTz5XcruA9nrY8rTcmd5rd9qe+YAG3ESfik7fUqxVvsLX2PLm6/f/u3ffvyKBZ+JaBN+K1kIFMACYNNCQHLDzEJ4y1vecvP7v//7t4XKWUFbOcKdP+JWeMKSnbw9rGdLXNWefEZ+8l/huc+OPnuAVbyEXcpOv1KsnT7jwxxxWfQlX/Il5Y3ywX35y19+e0bgsohidJnEYuA+gTdQee9Ii2VUWHWQtL4jboUnLNmPDncuxxI/2VMc9a3yE2cUw3n31WcPsIqXsEvZ6WOKtdN/5oBLo2/91m+9+ciP/Mjy/oD4D1gIFKB7Ay0GnRm4T+CyiFct+KR5tthLHQxVnB2s59OzHYPTWTSalOQz8pP/Cs99dvTZOat4CVu1c3ylsUuxdvqMzyd/8iff8EEav3KnFyixK7/kYXvFK15xnBEoQotBOouBewUuj3gLlU+Z4cxsnqTij3gVvoMln569Z1NfdjH5I6sYzruvPnuAJV6yU1fCLmXf7TufF3zjN37jzbOf/ezjFWzaGu+efMBCoGidCVyisxD4D53/8R//8Tgr/MVf/MVtwKpIJas4wirupbEUr2fv2e5bs/yRVXzn3VdPB6XHrTg7WPJZtXuNK/qnfMqn3Hz1V3/1cZPMdxD8sxeNu8sHr3zlKx/Wdnch+GLgrKCbZu4VVs4KFK5kVScqzqWxFK9n79nUj11sxl+cS8h04LWxK94OlnxW7W2dM20O+m/+5m8+7g24LBqdDYh5uxAokN0XAW1dHulege8n8AGbntGOCqsOGPlWnEtjKd6q/Ri8cA+RYqm/la9zLqGnA68XO3GTnRg9rGdTvoQlu/xmJDEY+y/4gi+4+dzP/dzjbMDjU71WQQzNzWNSZwRIBGL3xYDOYtBnClwisRD4cWCCjTqghMRP24iT8GQnT8IuZd/J4f1PdTjnEvpofjxH4iY7vj2sZ1OehCW7/Gbls571rJuv//qvPxYBX8/UaxXE1+WRj73044xAEoi+azFgQ+fyiLOCbpx/67d+Kx5sbdFK1trV3sUrv4Rdyk7tq7HU38rXOZfSmcPRVnEStmqnhh2ftnZitGOvuN/wDd9we0k0ezYg/oNXvepVD2Pc/dYSbXYtBp0V9ASJx6lvf/vbb/7wD/+wrbHbbotuSbt45ZewS9npw2os73fydc6ldM1vFY857tVU+SYs2cmfsGRva048av/iL/7im8/4jM84HpfypqkemapfSZKjuxAAGBhJkmsx6KzAJdKb3/zm47MFErBXRR7Bin9UZI+SsGQnRsIuZd/J4X1LdTjnUnqaF4+fOMmOb8JW7VUsr7HHYxzJ9wmf8Ak3X/ZlX3ZcEvEbRlwSzdwkK/5jC0HJCN7ueoLEp81cIrHzQVv7P28quMvRxFd4wpKdvAm7lH0nh49H5d/y7ttOB6bHTZxkxzdhq/YqVlUjeZhPvpj/NV/zNceZAJ1LIj8baM5bqdjYj4WgQjDwl18dQba7bpz5rgI7j1Tf+MY3HotCiZTAZYXBq/AdLPlcyl7VnHL4eFT+Le++bc1nFSdxkp1YCVu1V7G85jYubR6P8nnBM5/5zOODMy6JdIPc3hxrXiSJLf12IagYJXOJrjYLRR+y6azAZRIv5fGm3VQxAAAOBklEQVRkyYMfjff8o4Ruc73Cd7Dkcyk7tadYI0z9rvzFuYTU3FWxKk7CLmWnrhSrrdl5HOhf+7Vfe8OTIp4QsevDMzCNL9J1j3lrf/WrX/0w9ntvlr0o2Tn4caCNrsXA/QKXSdw8s/NYlbOEVqInRFfS1n4Gtpor8ZP9PjWr/1VscS4hNY9VrIqTsLPtvXqVk7/6X/EVX3E8IdIi8EsiHYOMsY+z68RX+8HMQsCBAlSELwYWAgc/Zwfk7/3e78W3VJWUeO22ixGn59uzKWcP69lS7CrODLbCEfc+UvNWxag4CTvb3tZLPnau/7knYAFwaYTUItANMvOpOW2l4spOu7sQANRJSdnU1mLQl/xZBFoQnBk4W2jDxwuTvZVe2CWwFK9n79moIdnvg3nfqvjOu4+uOUsxdvHkdyl7Wy9xOfC/9Eu/9LhB5n6AnUWgp0Srl0TKcWchYPROSJd0HJsWA/cGnBk4+LlEQv/TP/3T441VJUKOJr3Cd7Dk07P3bKOak8/ID1xbFUOc+0ifuxSn4uxgyWfVrno5zjjAOdi/8iu/8nhEqkXAPUFvEbQLQrGQvTE/FgKgFyldssJ7i4EzA4uBb7a97W1vu5O4VwTx2S6NpXg9e892Rk1HR9/zT8rpnPvqPodVrMRLdmIlbMWeuF4rnI//+I8/3h/ioNelEIuByyQuh/ySCF/GVuMrqZht++Bzj4DiBc3o8oHL7p8xcGbQYuA/I/TfT+0VQSxtFZ6wS9hXY1Bv8hlh6usKz31mdZ/HkU/irtrJ0/Pp2VouHB9T2uyf9VmfdXz5nr/+uhTS5RB/+bUI0OH72YAcHtN1x8ozAkQ2gmvr6djYtRhYCL4YuFziZ2GwtYUormSFJ+xMe4pNvRU2g89y4O1sPleVf8VL2Nl26uWv/+d93ucdT4a0AFgMvgg46HXgMx+ak1aq/7K37e5CgOQddb3CdJmkF/S0ILhM4ss9XCq94x3vOGpoCzqMD/9JdvCEnWlPsat6Rhi4tiq+OLuynbcUp+Il7Ew7sfl5Rn6rlMsgDn6dDVgc7FoAWgT0jbHUeLqufgvrteNCgNx21ttJ12LQh24sAN1Io3Op9Od//ufHjbYKctkWO4Mln0vYUwzqqrAZfJYDb2fzOUr+I04P79kUP2Gzdq75P/MzP/Pm4z7u444DXn/9tRh0T6AFIEl+zUcrVZvsvfb2QiBY2zm1kSwIvY6hMwJnCC0Mzg58p4GNAvFpCz1A+yfhZ9pTbNVt5d1RKz8nzvLcZ1bXfIz4Fa+H9WzKkbCRHZyX5b7wC7/wOAvwV59FwIHvi0BnAsbNd/JrLJNUjc6V7XYhYOgV29pGbcWBx97eN7AQ2HnkyqsZb3rTm44zxm1BDzuYNnWwxc+0p9jUsIt5/VUM5+3o7Vz1Yow4PbxnU+yEVXYOdm6I+aK9H/QsBtpIOO0iICc2No1jKx07iMZV++DoqRGNqlh36vHc1uosBnbdM7AI2LUgeHuVV7o5i7CpM57zSbTv1DTbp5a32vY5qHxHvB7es5Ej2SuML9l/4id+4u0NsA56XwA8FdIiIJYf/BwrOl5aCVc2dLa2/cj60O4LAWOvMzs290HXpZJupLUItCCwc3bgHkJ1tEW37YP48J9VO349n54tcSv7CAPXlnIK35U+/lWMipewFTv9gy8ftXld+nM+53OOT4o50FkAWgRIFgJ2PRrFr7fTN9nVT9raXMfWtm95P/ETP/Gwxv7jUZGQzhnZxZWUP212DnotgPbswOcP/GQM9xUU7TFiJ6zjXhv6is8KV3l2fORb1eecVd3HbORbcRO2aqcGfBgrXQbxU+3o3AfwFx7dF4POAviknbga/1Y61uq02+1BuxAgrHa05VdtMHbdO7AQuGRicWiBIPkVbs4Q4PA1GG0HaGsQVrDk07P3bMqVsGSXn+QsT/wZ2Y5/5VNxE7ZiF5cD+1M/9VOPb5LpoEf6zkLQAvBLIcao3emTxq6Vjqnv4qjt8oi9shDkrM6pjWxtVVsYl0s8ZtUC4HIJXRKM+wf/qcleh3o21Zaws+3kTzlU2yzH+TO6xve+3BRnxg5H/ec+gK9S+nW/LwDpugzq3QMQS7uPm3K4rdJ9TO74shAA2861bQ+QsNbetnt5dO/AGUKXSSwGLQ5sLAjeWeIHA4hJB5CK7wMnm+r1zsqGPNte5fA6VnitX6/d9r/HcVvFT1iyExeMnTnhv3T99E//9DvX/hzsOvAl9dcfqXlBtjvxHe+13dbqtH1TLGzHpRFK27m2DafdepwZW8uhza6nSxz8WggsAi0QdP6nTxYEl1Ns6oxkW+P/ld1ra2tq26nGljfTbse28hlxE96zY2Pn4ObHd/lAjDOADnZJXwi6DKL/2qlXukvZK+lYq9PWRtx2iwsBYq/DbYAeBxvJHHNdMdyGrt0vmXR2cMmC4Gaan5PBro5Jqnba2j0XuHNVzyXtVSzPJz3VI3xWtv2s/EZcx1UfNuaHNjqSP2Bc3/NeEN8dbg92FoFsyN4CII5y9HRs5POzP32TT6X7GDj/jl2XRhi94yL1bMIke5yeDX5r77WxseuySYuABYDukg/l3vnOdx73EkyIDyL5YscfDmxvuxS/yr2St8etbO143ofbiyWbFsPHfMzHHJ8DaAH4Ae8LgAPYFwB19Q5qzZ/mQW34bqPN1rO5/SDZP+Kb6VBvzwi01Ekn9WyOS0+8GXuPIxuSA5yBbxcBbTAuneCxKPhCEG+7+qCDtQPQttWPS9mJl2IpV0/u+HgcjZvbkl5xW4w2c8DOt8Q+4+EPafEfcHCwczbgoEanfqQWgeYBXH1DzujULa7z1Z+eTT7iuBTfbdKHC0HEdmBkd5k4PfuKTVxNBGcE31kMfpbgqRP3Ejxx4udmmASfCGpOg3Ipu8YlxRPeylV+66+xau29duLKjtSY8wEY1/3cAOsdIP/rz/jqoNcioC/Y2dDVN5czeuuvNpJNMR61Hm/3OOJK3lkIGDUIIrissBlez79nI1bPjk07E8QC0CLwhcGZQhOInf/khFc4+GyCQdOEMUltnnZQ1a9kB9/FFNtlFct5SW/7k3jkYYzaTWNHHA7+T/u0T7vRh18c4IyZpMZRBz5t4sJBqi892bNRy8hPHNWtOKnd8sVr5Z2FQFAdaC3R26PBrvAe1rORr2d3Gzq7LwgtDC0ULRDa6Fw+8dYri4JLKDYmTpOH7G3tgDtnF/MY0qtY4lTSx2fE0x8Lxgw/Lnm43OG7ADr4GQ8OcO0aK18M1KxFQE71AUlcpPYWb9vu22LeRmcTv9UPsMFl68k7C0GElcGUT09WcRLWs/dsyicMqQn1xcDBD4bE7js2foaGhcEXhngSxaZJlfRJVF6XPhluR6+wlrvD9xgaC7dJV785+OGxc23Pd4HZ9T1g9RnJrj8Q3pZdGLHQtXmf27ET5vaejVjYR7GVU/y2rRhud/02tz81cgIFzGwjXoVXGLlbvG17fWDCpeus4FK6DgxJ2VkMnCl4+Q+pT7k10UjtDOLtQD7Ue5vwHtaztXz60tpoq4/EUL/pAzp9Eo7kwOWrjrzvz6vOz3jGM26/+eV90QFOfHRJOMLQ2VRTKw/Q8Jbb8kft1r8X3zkJl11SeW/baSGIoEFWu5UEZAKqbRQD38Tp2Xs25W8x2jpAdLC7dEx2HUhqc93MmYNFwv0Gl1d8oAePA4McjIMGV9IPGmxqq1ZJ8Wl7/apdduWhLrfJh8sVPsTiQOdxJpc5urElN2cANnTtOuDVVp1qS3qNrhPP2z1dtlXpseXrNnQ2x3rtg/Sef1qusAc/+ZM/+XAc67/+I5xgZ3JS7GTv1SMuUge/dLU5sNHVli6Z+CwKHuGyUNB5g1affMvXY6qW20l4uEiwMUmSHIBsHKiS6BzoHNz6hTf+0usTXA50YrDjL6mDWTbiSUfqr718XR7J3/MPdt+8PdKFjyTxW06yuR1dm/zVbmUPn1oIBGonrw2u9gzvPpzKdxWD3+46YLH7mYG2Y96W3cdJNnhstNnkp8kQzgEJB8kGzgHqOHbhLtHhj3bxiCuubMqJZANPW4up3co2Drg4jlW2Hqa6HPN4wlvZ8h0/FgIGDbiDrT7Dkc+IO8Jn4qQYyV7FdB/0tPsB7ge3/OVHrtYmjAkR5pPT6mpX0jHpOrhps3ubusSTdBt6b3OucLf1dNlaiX9lW8FVi/u4zXXldJv0pYWAkyZQASp5SW4VK2HJ7jUnDnYNnDhI7cSYscPTgkFnk9+j1qN/yeV25RaHtnZsPV0+LqV7HOkj2fqK73bpknB6umySI17CWzttNo/7yHL33yHOPQIuPgl3Q/Rbs/xZnrKM+BW+iym3ZBUncVofbyddsZJsJ09tSfxcV5yeTVglKz8wdvXFuZUOnzOSpPJXPnAS3mK9NjbfPJbbXV8+I7izBsVtPX2W574jnxFOrBFnhKueWZ74IzkTb2byRnkqfCZ+y6najvX0no36ZJd0W6v32smGnc3jPrL0/73XQlDImYmd4Sie5IzPiDPCV3LtcOXzfymnD4aHf/F7W+tftR2T3krlkJ22dMkex3kJH9mFt/J2IQDMHjRtkFXf//kfnqD0B70XW7aZ+kacEa5ckqv8+/rJ36UOjrYW2Z07q8/4thxvu05Ob/f0nm3Gz/vjMVrfiudY0u8sBEjtYCfHnn3V9yz+atzZfu/E7Y3T/4WtPYhSDT2e21xXDLf19J6t9XUO2Kjd47Qx1Z6Rjy0EOe1O+o7f2T5nx9eYIXdyuf+q3h4ws/4zfi1ntu28VZ363afXTrbKDpY28v0vvvyBczhvNboAAAAASUVORK5CYII=;" vertex="1" parent="1">
          <mxGeometry x="600" y="570" width="34" height="97.44" as="geometry" />
        </mxCell>
        <mxCell id="9RCpdgvjtAtGVtdAYFdB-11" value="" style="endArrow=classic;html=1;rounded=0;" edge="1" parent="1">
          <mxGeometry width="50" height="50" relative="1" as="geometry">
            <mxPoint x="520" y="720" as="sourcePoint" />
            <mxPoint x="720" y="630" as="targetPoint" />
          </mxGeometry>
        </mxCell>
        <mxCell id="9RCpdgvjtAtGVtdAYFdB-2" value="" style="shape=image;verticalLabelPosition=bottom;labelBackgroundColor=default;verticalAlign=top;aspect=fixed;imageAspect=0;image=data:image/png,iVBORw0KGgoAAAANSUhEUgAAAMIAAAIsCAYAAACgMHbqAAAMQGlDQ1BJQ0MgUHJvZmlsZQAASImVVwdYU8kWnluSkEBogQhICb0JIr1ICaGFICBVsBGSAKHEGAgidnRRwbWgIgo2dFVE0bUAslbE7qLY+6KIgLIuFuzKmxTQZV/53nzf3PnvP2f+c+bcuXPvAKBxkisWZ6OaAOSI8iQxoYGMCUnJDFIXwIE2AEATeHB5uWJmdHQEvAOD7d/Lu1sAkbXXHWRa/+z/r0WLL8jlAYBEQ5zKz+XlQHwIALyKJ5bkAUCU8eYz8sQyDCvQkcAAIV4iw+kKXCXDqQq8X24TF8OCuAUAFTUuV5IOgPpVyDPyeelQQ70PYicRXygCQIMBsV9OzjQ+xCkQ20AbMcQyfc/UH3TS/6aZOqTJ5aYPYcVc5EUlSJgrzubO/D/T8b9LTrZ00IcVrGoZkrAY2Zxh3u5kTePIsBrEvaLUyCiI4VNEPgj5cnuIUUqGNCxeYY8a8nJZMGeADrETnxvEgdgQ4hBRdmSEkk9NE4awgWwlALRAmMeOg1gP4iWC3OBYpc0WybQYpS+0Pk3CYir581yJ3K/M1yNpVjxTqf86Q8BW6mPqhRlxiRBTILbIFyZEQqwOsWNuVixHaTO2MIMVOWgjkcbI4reAOEYgCg1U6GP5aZKQGKV9SU7u4HyxLRlCdqQSH8jLiAtT5Adr4XHl8cO5YFcFImb8oI4gd0LE4Fz4gqBgxdyxboEoPlap80GcFxijGItTxNnRSnvcTJAdKuPNIHbNzY9VjsUT8uCCVOjjaeK86DhFnHhhJjc8WhEPvhJEABYIAgwghTUVTAOZQNja29AL7xQ9IYALJCAdCICDkhkckSjvEcFrLCgEf0IkALlD4wLlvQKQD/mvQ6zi6gDS5L358hFZ4BnEOYADsuG9VD5KNOQtATyFjPAf3rmw8mC82bDK+v89P8h+Z5iQiVAy0kGPDI1BS2IwMYgYRgwh2uIGuB/ug0fAawCszrgn7jU4j+/2hGeENsITwk1CO+HuVGGRZFiU40A71A9R5iL1x1zgVlDTDQ/EfaE6VMbpuAFwwF2hHybuDz27QZaljFuWFcYw7b/N4IenobQjO5FR8ghyANlm+Eh1O3W3IRVZrn/MjyLW1KF8s4Z6hvtn/ZB9Pmw5wy2xJdhB7Bx2CruAHcUaAAM7gTVil7FjMjy0up7KV9egtxh5PFlQR/gPf4NPVpbJXKdapx6nL4q+PEGBbI8GrGnimRJhekYegwm/CAIGW8RzHMVwdnJ2AUD2fVFsX2/o8u8GQr/4nVtoCoDvzIGBgaPfOQ7cWw8eg6//ve+cdSfcJi4CcH4dTyrJV3C47EKAu4QGfNP0gTEwBzZwPs7AHfiAABAMwkEUiANJYAqMPgOucwmYAWaDBaAYlIKVYC3YADaDbWAX2AsOgAZwFJwCZ8ElcBXcBPfh6ukEL0AfeAc+IwhCQqgIDdFHTBBLxB5xRjwRPyQYiUBikCQkBUlHRIgUmY0sREqRMmQDshWpQX5FjiCnkAtIG3IXeYz0IK+RTyiGqqE6qBFqhY5GPVEmykHj0MloOjodLUQXocvRCrQa3YPWo6fQS+hNtB19gfZjAFPF6Jgp5oB5YiwsCkvG0jAJNhcrwcqxaqwOa4LP+TrWjvViH3EiTsMZuANcwWF4PM7Dp+Nz8WX4BnwXXo+34Nfxx3gf/o1AJRgS7AneBDZhAiGdMINQTCgn7CAcJpyB71In4R2RSKQTrYke8F1MImYSZxGXETcS9xFPEtuIHcR+EomkT7In+ZKiSFxSHqmYtJ60h3SCdI3USfqgoqpiouKsEqKSrCJSKVIpV9mtclzlmkqXymeyJtmS7E2OIvPJM8kryNvJTeQr5E7yZ4oWxZriS4mjZFIWUCoodZQzlAeUN6qqqmaqXqrjVYWq81UrVPernld9rPpRTVvNTo2lNklNqrZcbafaSbW7am+oVKoVNYCaTM2jLqfWUE9TH1E/qNPUHdXZ6nz1eeqV6vXq19RfapA1LDWYGlM0CjXKNQ5qXNHo1SRrWmmyNLmaczUrNY9o3tbs16JpjdGK0srRWqa1W+uCVrc2SdtKO1ibr71Ie5v2ae0OGkYzp7FoPNpC2nbaGVqnDlHHWoetk6lTqrNXp1WnT1db11U3QbdAt1L3mG47HaNb0dn0bPoK+gH6LfqnEUYjmCMEI5aOqBtxbcR7vZF6AXoCvRK9fXo39T7pM/SD9bP0V+k36D80wA3sDMYbzDDYZHDGoHekzkifkbyRJSMPjLxniBraGcYYzjLcZnjZsN/I2CjUSGy03ui0Ua8x3TjAONN4jfFx4x4TmomfidBkjckJk+cMXQaTkc2oYLQw+kwNTcNMpaZbTVtNP5tZm8WbFZntM3toTjH3NE8zX2PebN5nYWIxzmK2Ra3FPUuypadlhuU6y3OW762srRKtFls1WHVb61mzrQuta60f2FBt/G2m21Tb3LAl2nraZtlutL1qh9q52WXYVdpdsUft3e2F9hvt20YRRnmNEo2qHnXbQc2B6ZDvUOvw2JHuGOFY5Njg+HK0xejk0atGnxv9zcnNKdtpu9P9MdpjwscUjWka89rZzpnnXOl8w4XqEuIyz6XR5ZWrvavAdZPrHTea2zi3xW7Nbl/dPdwl7nXuPR4WHikeVR63PXU8oz2XeZ73IngFes3zOur10dvdO8/7gPdfPg4+WT67fbrHWo8VjN0+tsPXzJfru9W33Y/hl+K3xa/d39Sf61/t/yTAPIAfsCOgi2nLzGTuYb4MdAqUBB4OfM/yZs1hnQzCgkKDSoJag7WD44M3BD8KMQtJD6kN6Qt1C50VejKMEMYJWxV2m23E5rFr2H3hHuFzwls4apxYzgbOkwi7CElE0zh0XPi41eMeRFpGiiIbokAUO2p11MNo6+jp0b+NJ46PHl85/lnMmJjZMediabFTY3fHvosLjFsRdz/eJl4a35ygkTApoSbhfWJQYlli+4TRE+ZMuJRkkCRMakwmJSck70junxg8ce3Ezkluk4on3ZpsPblg8oUpBlOypxybqjGVO/VgCiElMWV3yhduFLea25/KTq1K7eOxeOt4L/gB/DX8HoGvoEzQleabVpbWne6bvjq9J8M/ozyjV8gSbhC+ygzL3Jz5Pisqa2fWQHZi9r4clZyUnCMibVGWqGWa8bSCaW1ie3GxuH269/S10/skHMmOXCR3cm5jng78kb8stZH+JH2c75dfmf9hRsKMgwVaBaKCyzPtZi6d2VUYUvjLLHwWb1bzbNPZC2Y/nsOcs3UuMjd1bvM883mL5nXOD52/awFlQdaC34ucisqK3i5MXNi0yGjR/EUdP4X+VFusXiwpvr3YZ/HmJfgS4ZLWpS5L1y/9VsIvuVjqVFpe+mUZb9nFn8f8XPHzwPK05a0r3FdsWklcKVp5a5X/ql1lWmWFZR2rx62uX8NYU7Lm7dqpay+Uu5ZvXkdZJ13XXhFR0bjeYv3K9V82ZGy4WRlYua/KsGpp1fuN/I3XNgVsqttstLl086ctwi13toZura+2qi7fRtyWv+3Z9oTt537x/KVmh8GO0h1fd4p2tu+K2dVS41FTs9tw94patFZa27Nn0p6re4P2NtY51G3dR99Xuh/sl+5//mvKr7cOcA40H/Q8WHfI8lDVYdrhknqkfmZ9X0NGQ3tjUmPbkfAjzU0+TYd/c/xt51HTo5XHdI+tOE45vuj4wInCE/0nxSd7T6Wf6mie2nz/9ITTN1rGt7Se4Zw5fzbk7OlzzHMnzvueP3rB+8KRi54XGy65X6q/7Hb58O9uvx9udW+tv+JxpfGq19WmtrFtx6/5Xzt1Pej62RvsG5duRt5suxV/687tSbfb7/DvdN/NvvvqXv69z/fnPyA8KHmo+bD8keGj6j9s/9jX7t5+7HHQ48tPYp/c7+B1vHia+/RL56Jn1GflXSZdNd3O3Ud7QnquPp/4vPOF+MXn3uI/tf6semnz8tBfAX9d7pvQ1/lK8mrg9bI3+m92vnV929wf3f/oXc67z+9LPuh/2PXR8+O5T4mfuj7P+EL6UvHV9mvTN863BwM5AwNiroQr/xXAYEXT0gB4vRMAahIANPgPQZmoOP/JC6I4s8oR+E9YcUaUF3cA6mAj+41nnQRgP6xW86E2bGW/8HEBAHVxGaqDZzX5uVJWiPAcsCVIhu6unjwfDCuKM+cPcQ9vgUzVFQxv/wVsW3yzsY1oZgAAAIplWElmTU0AKgAAAAgABAEaAAUAAAABAAAAPgEbAAUAAAABAAAARgEoAAMAAAABAAIAAIdpAAQAAAABAAAATgAAAAAAAACQAAAAAQAAAJAAAAABAAOShgAHAAAAEgAAAHigAgAEAAAAAQAAAMKgAwAEAAAAAQAAAiwAAAAAQVNDSUkAAABTY3JlZW5zaG90tMHstwAAAAlwSFlzAAAWJQAAFiUBSVIk8AAAAdZpVFh0WE1MOmNvbS5hZG9iZS54bXAAAAAAADx4OnhtcG1ldGEgeG1sbnM6eD0iYWRvYmU6bnM6bWV0YS8iIHg6eG1wdGs9IlhNUCBDb3JlIDYuMC4wIj4KICAgPHJkZjpSREYgeG1sbnM6cmRmPSJodHRwOi8vd3d3LnczLm9yZy8xOTk5LzAyLzIyLXJkZi1zeW50YXgtbnMjIj4KICAgICAgPHJkZjpEZXNjcmlwdGlvbiByZGY6YWJvdXQ9IiIKICAgICAgICAgICAgeG1sbnM6ZXhpZj0iaHR0cDovL25zLmFkb2JlLmNvbS9leGlmLzEuMC8iPgogICAgICAgICA8ZXhpZjpQaXhlbFlEaW1lbnNpb24+NTU2PC9leGlmOlBpeGVsWURpbWVuc2lvbj4KICAgICAgICAgPGV4aWY6UGl4ZWxYRGltZW5zaW9uPjE5NDwvZXhpZjpQaXhlbFhEaW1lbnNpb24+CiAgICAgICAgIDxleGlmOlVzZXJDb21tZW50PlNjcmVlbnNob3Q8L2V4aWY6VXNlckNvbW1lbnQ+CiAgICAgIDwvcmRmOkRlc2NyaXB0aW9uPgogICA8L3JkZjpSREY+CjwveDp4bXBtZXRhPgptclABAAAAHGlET1QAAAACAAAAAAAAARYAAAAoAAABFgAAARYAAEyIz3HF2AAAQABJREFUeAHsncevbdlV9e8zYBNdhcFJBGFEFCARhQRCIkjQogFI0ADbVWUD/wk5d2ggISSEACEyxhg6ZCGCyTSAhqvALpzJ2fh7v10eV/PNN8dca+2z93llf29J+8615hgzrHR2OOHe+YEf+IF33zwsVx+BO3fuXD3mTMBr5nXNWK7vyuHOw43ghuhcvSbg3Cjr3q+dF/He/e5331w7rkZGcR9uBI3IA5aakAecxtUX5IPodxXz4UZ40CvvbvxqYh5kWg8in2vGrGI93AgPcsW9J3Y1MQ8yrQeRz7Vj5ngPN8KDXHEhdp6YAF21+qDyuGbcKtbDjXDwMmOQufmLpbsZrCYl2lKXT8mMn9GeyevIuNeMV8V6uBGOnM3G12gRV5PTuDsVehC5XDtmjrdrI8RXuFg/dXaexc7zGDDI//d//3ffK3kcfGxiEYaMmNpI1cGf85zn3D52jPzo89I68a5VrhlLfYoxpzdCNdiamMqxdO+rkvH43//935v/+Z//ufn3f//3m//4j/+4+c///M+tTpvjv/7rv7bjXe961w0Hm4ODusZTY4iME8O4vd/7vd/N+7//+9980Ad90Caf+9zn3jzvec+7+cAP/MCbD/3QD715/vOfv2HC4bNBjiw5pyN9R1/XiuNi2o2gicKQJGNbzrL+QXRGuazKmLvq9JG62vhE99///d8373jHO27e8pa3bMc///M/b4ueRQ2uQ3wWI1i1KOGOCvHlq+IqP/GQHMRjo7BBXvKSl2zHh33Yh206MPHxSX5qgykvpPTwYp32WeVacXL+invRRshO1ZZztaPUgKMb8YTnyYn+9tajT+KwMHgFZ5G//e1vv3nzm99889a3vnV7pQejKJ8YM/qJ+liv7DKucZGMOHXF6XB4xBJXcbVBPvzDP/zmoz7qo25e+MIXbpuFTQNHNtjnIh9Zf3T7WnFy3opbbgQ32NkJbQ26MNp6hVGQiFHPeuFRKocZbrTr6tknlzJvfOMbb5588slt4bMRYlHs3Ef1D644uZ7b2Qd2ygduLhlz7fjKHjmxLt/EVL70gUstzh4f/dEfffNxH/dxN5w9hCs/teXjLHmtODl/xb3z/d///e+Ona4GMBsf1VYSlT/yyLjyrPhOhx8OJv5f//Vf71n4XKvnGJUfcZzERpjsc1t6yW6cHRb1sY7P2Kae24obpXKU5B7jxS9+8c3LXvay7bKK+xDG7RpFOVwjVoyhuNtGiMC16yTCpCkhxddECpc+86SPUv54teTa/q/+6q9unn766e0yJ9uLK3vhSNXBclv8LJU3+lifactXtpM+ypib9M4u63Nb9kj5RXJT/qIXvejmUz/1U7eNoU0BFs9E0X5vXXH32u+1U9wHvhHUASVEWxMlndpg0lFXAZeepzhve9vbbv7iL/5ie/VHH3HZIKWXLVJ18FinrYIdB0X13I6Y6pVE50oVXzqk6tirnqV8o1eu0kUpjMVOPfpBx9nipS996c0nfdInbWcNLqvEiX721pXfkT5nclG8Z81GmE06ThJ1CpIb3D/7sz/bXvl5rKkOOr/CJR0P39XBK2LUKw90KrEunWSHidPJmLfqyHzgQ7rsT3ZZX7XFZVPwSPcjPuIjbj7jMz5j2xy06Y84yNX+ZRv5qnI5Q/detREYgDhAXPP/6Z/+6c3f/u3f3p6qwTncqTvaxwFl4qoDP1r08MWJtqv1lUXiuE4fc9FYoGMBqy2JPtfRVQUeMcVH4pODs8SnfMqnbDfewisfM7oYZ4Z/FOe9biOwKHnS8/rXv/7mne985+3ExAGJi4SBjUWYpBY57bjoaYsT7alrslTP+Kjt/FZ2FbfSYVvps04LVbLbIPjM4xfb2QdPoD75kz/55hM/8RO3J1LY7ykxxh77PTbPmo3AhGkAYl2d4k2tv/zLv9wuf8CZQAo2muwo5QuO9HHRo9M7vNR1wFeJPqTLcoYTbZRL1HV1x6/0WZfbxKl02gxRwqVv8ZAuyljnPoKCHzbDZ3/2Z2833OIQm2NmzGY4W7CD/jxrNkLsD4OgQeOjCr//+79/83d/93fbK7YGWxMqXrSPGHq90kvKRjw36E4fY81wxFc8tUfS8Sv9Xl22oz8ccVNIR77oKdIh1cYXuGyZK97A+6zP+qybF7zgBRsvcm8VRUV+C+gU1bNyI9BTPrvz27/929sGYEAZXAY6TpzqWeqVXwtfbfGqkawGvtJVtmfpXL6Vfka3ylH/tbi1wNFz0KaonevMm3i8WfelX/qlN4888sgtv8pHPpDXLM+ajcCAMTD/8i//cnsGYCA02BoUOCxsFS1y2sLQxcsecZHEqcqqvvJxpM4tkkp/pM75Ynw4tCliW/UoGQu1ZcPG4BHs533e5908+uij9w0X/AdVHthGoNMMugaexcslEG9+8TiOwgCKkyW4NoGkFj9tN6ireuI4G7Cji8aj8uuwSp91uY3/GV3FwVaLm7GJddrVgY3O7OAf8zEfc/NFX/RFtzfV6Jg/OA+iPLCNQGc1yH/zN39z8wd/8AfbpzzzQGiRw+WgTUHq0AbYgPCHwc2l0sFxetmPcPH2SI1DZ+s4lX6vLtvltvKLesZFG0FSOmQ+xEHygvfpn/7p2/sRmnf4D6I80I3AJz1f85rXbPcDOgswEAy0Fjn1eKBn4UecgasGUJMQJ85xOz2YShVH2IrMOTnbjuewrM9tYs3oZjjRV3zFj3XNA4ufOpICh4PvU3D/wJt0tKu4m8GJf662ERgAdZB3fnkj7E/+5E+2jmuAwFngWUadXv3lK45NtUgrHTaVvtJF/7m+yse+yjv7VdtxV/QVd0ZXcar8Kx7zycGiZozUVh2pA47m/+M//uNvPv/zP3975Br9wj27XHUj0Jl/+7d/u/n5n//57SygQaDTHFrwWuyxTR19LHmAchtupev08u/shJ8h4+Q7/xWn0mGf9bldcRR3hjviaH7jhmBctfDjBhH3Az7gA26+7Mu+bPuQH1xiXGMurrYR6BCfBfrDP/zDe14t0LPIR0c16NUAzeo04RVfGHKER+7eetW37MtxZvUVr9IRN+tzu+Io38xl/LTgs4wYdTaDDj7x+jmf8zmbrXyfKU/fCAwMr+Svfe1rt685aufT8bz4dSZA6gyggYWfS6WDU+krnfx1mDhZrtrAV1/wFevZt9odx2GVflbn8sr2ud3lKy7919wj1UbqDBFx6nwf4iu+4ituPuRDPqScU8U9Qp6+EfhgHJdCfPuLG2ItCAYoL/jYZiPEgl0ulQ7Oql5+nZ1wJ0d2WgzOPutHfIdX+lkdOcxwK86sLTzGikWuRZ/PEmprreRLJXycUU7dCHws4td+7dduO88gMJB6tY8LHz030XkDxE4zSHki3CJc1cc41J195h3Vzv3Kfju8wiodPiv9JTrn0+mJxdgyl9oQSOm0EYSJx5twXC7JHv9HltM2wl//9V/f/MZv/MbWWe1uFrk2AVILP+ronFuER+k1gM6fcMlZnvgzslp8zs5xV/QVt9KRQ6WvdI7r9NkH48qCZ33EDYBeG0AbAsl7Dp/5mZ+5YcQ4shy+Eegsj0Z5l5jTGge6uAm0ATgj6KxQDVLV0W5ROszp5X+Ei5fljF3uV/bh2p2dwyp9pSNmpa90R3CdD/SUuNjjhoh1bZaP/diPvfniL/5i+2L5jMf1v4dtBAaRhcH3BP7oj/5o2+UkT9EmYANo8UuCueIWmtPjZy82snU5Hql3C1ExOrzCZnX4n+VWPGc/yjv6YtGzXrQp8iZgXsGRfF7py7/8y9u5VuxZechGoEMk+Lu/+7vbdwboDGcCii57tPDjZoibwC3gVb06vtdO9pKVH/VXnL0yLoTOR8ersFkdMS/lrvpwfPQsftaOXv2pa0PETcKcvOzuL23wWSXwI8ohG4HE+LDcb/3Wb20bgKQp2gRx8WtDgGGniaDuyhmYYnW+xYlylR9tqau/WZ/bM7yKc4muy2/Wb/aBncas8qF+C4ubIZ8dtBm0vj7hEz7h5gu/8As3F4ohf6vykI3AD2S97nWvu70cojN0jF+UYOFrI0iq0znZUWc6fC+mHDp7cc6WblxiXMeZ1c/yFLPiVzr4q3pnw1yw2LXwdWaIG0NXHJ/2aZ9287mf+7m3m015r8qLN8I//uM/3vzUT/3UdooiOTrBgGgDsPi1AdC5wVLiowV5Nj6bh3iXytF4yH/Hq7BLdMSs7J1+hTvTH3HyZmAjxM1Bm8Kbbtw3XFIu2gh8i+wnfuIntkXPJtCZgMsezgbaANoMccBGC1qdcjynH9kJR458RO4efraP/c9Ybo+4Dl/RV9xKR24resft/FQY88PC19qiHi+d1Mb2a77ma7Z3olfnFFvKro1AMBb7z/3cz20/lBt/TBY9C18bQZsBfS6zSXe8Dts6eDfXURn5GNkfiXeLiDgd7rBKf4muy2PWbx6zyg4Oc6PNoEsjSfTU4fBV0K/6qq/a2tn3THvXRsAx7xX83u/93u3NMTtVN8JxE7ARqk2g5GYX4Yh3KU4+Ix/K+WjpFkGOU/EqnewqbFaHj7O4ys/FyHrmhV/W08KXZBNQ56DwHsOXfMmX7JrHXRuB7xX/2I/92Haa4mxAQgyaLoHYCNoM3SbYsk9/RovxbDymM4oVubP1anF1to7v9PhyWNbndswjY7ktbqWvdB1/BuOFVpuBOpdL2ghI2qw/NsLL7j5aXS3LG4Fg3ByzGQiu3aibY20AbYqVhBhALT5JZ3827uJKP4oPr1sQ8lPJzs5hTu/ycPxKP6tbjRX7XsWIOHVthrwJdFZgTqh/7dd+7e13obMP117aCCTLdwp440y7k93Iqz4bgR/h0kZAqqiTM4tHNpIjmxGOn6M4yuloqfHp/DqO08tXxnPb8dBfynX2XcwOYx5Z6GyEuBnQ6eyAPT9B+QVf8AVyNSWXNgKL+0d+5Ee2AWIjEJzk2ARgbATOBEgGYTQQyvCIhTryMcKVi+QqX3YjOTsm8uP4Tt/ZOZtKf4mOHCr7Tt/lLQzJvLD2dDWis4EkZw3W4Fd/9Vff8B+CZsvSRvid3/md7YwQdyQdZhPo0GaYTSDzRgsQnMMNNP5GPmY5ObfYzjFyTl1+0U+uj+wqHF2OH/06m8hRveKCVfpZnbMfxRQuSTz6yQuwrkjihqDORoDH77DyFIn2TJneCHzX+Ed/9Ec3xwpOUrok0pmADbF6g5wTxe+oHMGZ8THK4yi8WlTZd8dxWKWvdMSq9EfrYp8q3zM488YajJuBti6PdFZgI3BWmJnndiOQKE6Q3BfwyJSA2gjotQHi/UHsjOpVp2cSlH3H7TDsR7hiRLnHJtq7ejUOjou+4zvsCH3lQzqkxke63IdVveydnXAkHC6F2AjaDLS1LtkQvBjzu6t8SnWmtBuBzhIUpz/8wz+8LXptBHYdet0bsBF0bxADz3RMgxrtqvoMb8QZ4XvjVnboZvpf2Y7sHL6iv5Rb2Ve6bhwcvxoT+dEcaiNoA0iyKSiszZe//OW3v8i9Kc2fdiOQJEH5fwS8i0wggusmmbOBNgLfSaZNWe1czE2djLpcH3FGuPzN8sQ/Q66MVcd1WKWvdPSt0s/qVuwdF71KFVeYJOuQ97FYk3qB1pkBDuuR/+rDbyUx153PdiPgDOOf/Mmf3P4pB0FiIJ0FkGwEBZLE/pIyWqgjnNgznCrHvXaVr0q3MkYjbsZzW/GdHrzCjtbtzUN2leQfHuryKErmj/tXdF//9V8/vGluNwIDwQLnsohLIe066mDaAEh3k1wNZuzQzIK7JifmpvpMfHGzHPU/89Xu7FYxx1/RV9xZHX2quDN9FSdK+WJeWJOcFbQ2JTlbwGNdft3Xfd32c/TRR64PNwKXRfwci84ESDaC3jvgn3azWWgrQQXJbekrObPYjuIo/ow/ca8hR+O1B69sKp36l7Hcdjz0FbfSdT6EOX8RZ/5YizoraBMgWacUNgK/gMGX/snFzXm7EXDEt854N1lBCICz+LSIzcCNszotif2e4pKNvo7irPqM/L311fHp+A47Ql/5qHSMQ9bntsbK6Wdx8aLkR4R1VtDlUVynPELlY9pdGW6EH//xH7/hyzecarTTWIS6SdYZQR2UjEGzbmYRYz/DO4oT81V9xre4MzKPQ2cz4jr8LP2K3xWuxsDZCK8kNswRm0BnBTaAXrTBdOXyzd/8zZsLN6flRlAAXuV/8Ad/cAsm53pixEbgkogv51DHJnYm1qtORJ1LboUz40P+VriyOVPOjlXHc9gR+srHrI5xq7idXmPt7IRLsjY5K3A20BkBHZdNrGHW6RNPPLFtGNlkebsRclAWC4v8h37oh27PBASJNyGcDTi4TMJePiRzsJn2aJGOcGLMcJTLClc2R8nZcep4q5jjV/pKR98r/azO2ccxrXxFPNdZkx/8wR+8LXS3Ebg0etGLXpRNb9vbRqgCs0D+/u///uZnf/Znb2+U2WXaCHpixGbRRsBr5es22kJlZoGOOCM8p7PKz/Yz7dnxmeF1nAqrdORc6Wd1lX1lW/HQxeLsIqeqM2/8UHB+T0FnBNYq7yXw3z1daTcC/8jjN3/zN7eNoJ3GRqBwOcTZgH//qidGuSO5HZOYXXQPihdzvVa9Gy/l0HFWsYo/qyOfWW7Fm+lPjoGfaj2w4Dkj6D5Bl/FxI/Bxi6/8yq9U2Pvkne/7vu97933auwoC8u9d//iP/3jbCLoJ0UbgLMDZgA/jaSPIT9dxcaKsOreC7+GOYkafZ9ZXxspxnV55V/g1dMSv4nR5zWDiSDKXnBHcRuAegX9LxRd2XLEbAYNf//Vfv/nzP//z23sEXRoRmNMNZ4S4EbpOuwSyfmaBHsXJsWnP+K7sZnUrYzTidrjDKv0lOvo9a++4GrvKj7BOMmfaCHqMylpFr5tlvtz/Dd/wDdZNuxF+8Rd/8eYNb3jDdl+gSyM9n9WlEV/Z5IxAyR3JbTizC22GN8NZiQk3lln/0SbWq/5HvKrP2Iw4FT6rI6dLuJWt+ukwp5edZOZpfpBsBD050qURetYmZwSwxx9/XK7uk+1G+Omf/umbN73pTbfvIRBAG0GXRtoISlLyvkiFQh0poHtUM7wZDk5nefckcIXG7Lh1PIdV+kpHNyv9JTrns9ODUaq4zyD3/mVO+SJOvDTSOtVG4EzBI1Q3/+1G+Jmf+ZntyRFOObQRdBPCPcI//dM/bU+NVhK/txvPtFyCkTvDgT/LW+XGXI6oz050x9uDVTaVjj5mfW5rHCp9pev4VTzxK4l/5prjkUce2Z4a6dIo3sty9cLN9Ctf+Uq7NqY2Ak7jRqCuncZG4H4hdzq3z1icMz5nONUg77XLvvI4ZNy1Z+wcp9JXOsWusKN1XSywKp5sRpK54mMU8fEpaxafbAIOLu1f9apXbW+yVf7ajcClER+6w2neDDjj2ot/Gs6ZgaAznVlZYDPcGQ65zvLgdkV+Zvra+XHYjF/HOVNf+Z7Vqa8VH8zpZZc5mgPhrE1tBN0f6KqFF2k2AjfLu88Iv/ALv7DdLOM0bwR0BOAegYPCHfpqyZ1y9jO8GQ7+Z3kulyP1M4tA8Tquw1b0FbfSkU+lr3SOO9Onka18cNnDQudVXw91mGOuWtgI3M/yHzp33yzzrjL/EJCi+wRdIrExdMP89re/fdsEcYFRdwOjDkQZbaM+1mc48Gd5q9yYy6X1lbHpuA47Ql/5qHSMRaWvdHHcHO700TbWuT/QRyw4I7A2KbosYp3yVIlLI1faSyO+nvnUU09ttjjn0KlHwXgvgY1AUErXidkFOsNb5cDvctuST39mYkSTVf/RNtZn/DjOqp64lc2sbsVefax8Oz+ycZI54s0ynhhpbXK1QgxdFnGlwkZ59atf7dzctBtBZwScsvA5G2gzIDnYAHxMm/+n7DqYo88usBneUZyc40qbfs/k0fmcHbuO57AVfcWtdOpLhVU6+E4/whQrS/yxAbg/4JKIjcAapXBZpDMCbS6ddl8axTMCE63NEC+T2G183uitb31r21GSqcrMAprh4HuWpzxW+bLbI4mlhSA562fE7/AKq3TkkvW5HfOtsEpX+Y1+LsXZBLzaayOwRslDm4DLIsaeS6Pd7yOwEbhHYLHjTGeBuBE4DXEKYiNwmVSVmQV3TU7OcSZ2tllpuwXS+Zix6TgOq/SzOuW7wq+48oN0uNNHW9beR37kR96+kca6ZC5Zr/GyCBtuli+6R2AjkBQHgd1Zgc8cjc4KswtuhjfDYQBmeXAfdJmZfHLseA5b0Tuui13xK53Gt8NcDNlGyeUO7yjz/gGbgLXJJuAswKH7VtYAN9Q8PnWlvUfQGYHEOXBYnRXQ8Z7Cm9/85k3C4+g6DD4qMxx8zPBmOKN8zsK7ccoxHdfpsXdYpa90Z/vo/INVhTUXzwa0KTobsBG4T2DeOS6+R4hnBAIRkDNDvDxSEtwwsxkoMwvvKM5svC2x9/yZiR35R9bdYnMxOn6H4a/CK90qd5XvYjo/6F3B16OPPnr73kE+G3AmYCPAY545uI/g0sjNe3tG4KkR31JTJ+SYha9DG4I2O/Atb3nL9tHs3AmXgHgjHN4MZ4Wn2JKz/sWflRq/WT68GZuO47AV/QrX5ex8aCxGeOWXNffiF794uyTiSREvzBQ9KYpnA/TMKzfLPDUSF30s7Ubg94x4H0HJSupegcWv3YgkIDcpfCyDU1RVRotthOPzKE6VX9TNxIl86hqjrJ9tz9h3HIc5vcvZ8Y/Su7hxnKpYzAnfPdYnTVl3FN0bcDZgQ2Ab5497iccee+weXYzVboR4j4CREiOA2wzw+CAeb7KJjy6WmGDUx/pRnFWfkX+NuhujKvaI6/BKX+mI6fQd5mwqfaXLfa046FgT3PRyxI9SsAl0NkBywI1rSO8sR12M226E6tJIxmyEajNwliAxd4kke6RL6gxO9DkbO9sc2a4mu/Pf8R3m9MRxWKWvdKs+Oj4YxcV5Br3Z3jDTJZGuRLQJuBzSJRF+tLaQHPqskfTyKdluBJ0RCIaDmChttxnQY8MlEk+TXHAlgew4HRZ9jPxkbm6vxMm2rh3HzHE6fWe/iq3yycvZHKVX350/4aypl7zkJbeXRJorXv3jJtBalZ14emqktnDJqY1AklWiOI1nBd1AI9Fzv8DNdk5OwbN0SUbeDAf+LC/6zvU9Pqpxyn679oz9iFPhlU55OKzSV7o9fkY2wpHMA/cFegeZtUVhXeVNQH5x3qhz8FVNPmsUsc3Je/5ctBHwgWMt/LgRVOeMoJvnnGRMRHWXqPAoz+LGGGfXu4WVY4+4Dl/VE7eyqXSOq9z32DCvevHEnsshrvF5QsS6onAmgKObY+qKFdcFdY6LNkK8R1AQdTBKnRWy1AaJmyEmGX3k+tE8+Z/1K/5ZshvPKuaIX+GVDt9O77BVvvJ3dk4f7TRPvGnG9b0+WYotRzwTsCmiT9nijzrHYe8jxEBKWFLBtPCjpA7OztVlkhKU/UhiP1NmeZWvS2wrf1HXjV3k5frIbg9+pE3nay8Wx+CFL3zh7SZgHVF45Wfh696ANkcscS6pc/C49Ru/8Ru3euSq3l4axfcRXMfQKxhnBB3aDNzdSxfvGW4TOHiRx0FQjD1yrx83TrM5zNp3PIc5Pbk5rNJXOvVvLxZzYOz3bgLlofmT1BmBtVgVuxHoEE+N9M6y66D0BOTQokdqMyBV55T29NNPb0+TckJKOutz+2he9n/NtsZvJuaI63CnJ6bDVvWdrxEmnDXD3OrGOL5r7M4EyjOvCbUlD3tDTQFJWiXrCKrOaENoA0SJHb+XxJf+c1HiWd+1V2xWuF3MS7E8dp2/EbfDO4yYFV7pHFd577GRrSQLn0ek+jQpc4VfjupyKMaM84qe9UdBz8Hj08dW3lnGiRL4pV/6pe3L++hiUCVe6RRYGyHKeGbAB99s4x3oquBnpazy5XuvnexXZDVenf2IfwnubFf15L/HRv2WLQuVr1zyjjHrhHkB05kAydUEkkN28pPnMbapc4+gfxYimyjvuTSScyXBPYK+vE/wXMTPeuzZAJJxM6iuzybpiRI7Hiz7xMdsWeE6n5f6yPm7OCP9yE+HH4kd6Sv3Gd+MN0+G2Ajx8agWu84ESLcJ8JvnLbapc4/Qvo/wvd/7veWvYeOcn3PRh+6qAal02KloZ2tTqI3UhqBOB/n4Nl/uoWiA5CfK2MGoj/UZTuQ/6PpoHHN+Hd9hTi/fFV7pOj6Ys2FOwJB6UeXZvr5ToDWBDy14LX5J9J1/bFXiGmCtDZ8adRtBZwSCVwlUOiWCJBkOLfpYlw6pQeC7z9xI03H0KjlO7KQ4Tq5wnY8z9blvXayOuxcjXmVb6ZSbwyo94y89deYWyVMhbmD1VFE8bQIkXA7su01AXtjHEtvU9Z3luK7u4Z+5EQhEEhxa+K4unE6/7W1v2340TAMYE1YdP6tlj81qjBl+16/KvuN3GL463GFO3/nrbBh3cA7OAmyCfEOMbxZ93gjYoB+VPLexTV2fNcJPxOT3TrcRuDR68sknN0MSzKXrfOQSWIcWPBKd2rGOjjfg+GgGN0ijgu0l5VJ7F3t2fJw9+s5Hh+217XzuwbBhfDle+tKXbtfqcc71Sh83QK534yMszmGsgxOPs4++s5xxOMONcMk9AgFUCK6DxKjHAVFbUhz9KAAbAiwXdBrsjF3ajvG0CKKu8i9ehc3qZnyMOA53enI7GsMf8/iCF7xg+w6BPjqtWOAcuvyJZwT01YuvG8M4L7EOnxz0WSPZZ067EfhHIZwRlLCcZAk+KjGwFjk66mpLoufg3kF1vg/NdxxmYikXbN8bykqfRlyHO73Gp8M7DHvhSOYQydjzm0N8iYanQbSFYaNXfbiqRymfcGdKnOtcp33RRhg9NSJBgszs3Jic7LTwncRGB5uCwq9v8/4Dl057Ss5jj49LbVYnmXgjm0twZ+v0sf+Zw1zyxXqOfCOMHWsFG4688HVmgJf9outKnNdcp61vqMlv5OC3PSPoqREJYygnOSGnFy8HlR4ZN0GsY5MP4cRjI3CGqL74A97FVPwZjrhHydFY5Tgz/BHH4U5PDhWGLo5ZXBe8UOmTonkDYJcPbQhdDglX/2nPlpgTNrFNnYOb82/6pm+6x+U9vO5mWRtBSUne4+1uw+nFiwGlixKcRa6FLok+H9hFLh/ke8c73rH97KQmBg52o7zEQ55RZuK7uDO2I85efNaOMeaSg0sgZLyUpV/MR5T41QZA6gwg3kZ+z59RDpFLHrHEtuo6I4gn/W272wj6qqbILjmnl10OKn2WcYF3m0H+Ip/B5LNL73znO7efnhQnx9jbzv5GfV6Jgy/5n/E74nR4h5FDtSjpC3YcmhdugHkkqVd/OGCyVxzZoacuqTMBdlWRfYVlncZO+thWXR+6qzjo2ksjPT6VcZVcpRNfUsmo3Um4HHGRa/CFyV9sxzpPmLiX4B+YcAkFRp6yi/GdPnLOqs+MXYw9wx9xHI5e45RjoufVnldVrv35PJDmJHKp40eH2nnxq51tY9vlGTmqV/MqHZKDL/fwI8DyK/zWR3dGiDfLGMiJjJ0u4jlgxKp65Guw0cWNQVsHPmQjnSQYrzw8guVM4R7BwrtmqcZxFH/G5ghO9MHTHhY/i0gfhtOcRB6505ZOdRa8Fn0+A4jr+j3Co53mv9JpLVz01Ch+H4EgVXKVrkoo6rp61am8CTQZkviTnaRiiINkI/AYloMzha5Rs41sj5SjcepizdhewsFWY8CC55EnG4DLHvQckaNcY0zq8cgbIHKxz235lBzh4iGVe6VT/vpijjjZ5vRLoxxQiTjZ8VnMcWGrk+goast39JUxOGwE7ivYGDx9YvKOLisTWsWu7NGpbxWe/cCRTZSMG09TWPS8YupVX76zH/SKJwlH44bUoReZyMv+9mLZT5WvdEiOfEaQj1ted2mkL+/LqEq80omPVKCo6+odXxiSI24MtRUzcnO8iFGnD0gmjzMF9xb8rwfOIEys+PITbWL/Y13cS+TI3wyuXPVEh8sdbhz1lCe+iKzkSmwOxkeSujaAfHU57sXkWzLPD3rpkBycEap/FHLL6zbCEU+NFEhJj2THrzAmEr1krtOOdtSZgKjTwEW9eEwsj2jZIEhtELjdRI76WeHyp9gdJ+Ycedjqc/282udX+tjvWI8+5Dvr1Oe4+NExRtJVNlmntvqrdpQdFnmq576ojeTgCVf172Vved1GmLlZJhEGQQ6VmKTTC8+y448wbQZJ+LEue0liUx8NOpxog50mXhuESys2CmcR/OmAK/+S6FZKjK3+8ArPgudgwcfLGuVLvGibY3ZY5KovSL3iSzIOFNc3p+9sRhh4LrkvaiM52AiP3f2qZi63vG4jxJvlvR1SoJyAa3f8WQyeFkyu046H8kBHoZ+qC5uVsotjRV0Hi6ZaODFmzI0+CFN/Yi6KF3VVPfJcHTtiSSpnSb3qxz5s5GCndpTyGXXUnV68ES6eZOwXOrUl9Q018aOE094s86G7N7zhDZtNl1iHKZEYuKt3/FVs62BY+FpMksLJJ9dzjvQRTtfXbNO18RWL/Eqf23BH8WUrrvxHfcQUAx11Dha6pBa9dOIhY4l+op66w5xe9iNcPEnXR/Qc+amR7JAb533ljKAOxQ6qHgeJOhshbgbqst8G5T2Dl+3kb6/Mkxv9z/iM/FhX7tFHxsEUX1ILnHZe9NLJp2zUjnIP1tnge4TH+NRzf9VGcrh7BNm2Z4R4j+ASc3olqoTUHsmO32HqUOW/spMOyaGNISm9JH7jholx4BxdKp9RR52xly7WyUXzEiV1FjwlLvy4ITbw7h/Zubb0yMydwTqbkc/oX3WNQ26j56g+dBe57UaIH7rrEu+wnKCCO9nxOwx/Dp/VwxNXG0KLX23h4krm+OKpn7ktfZQznMiPdeYgHmBqa9HT1qIHp14VeLlUOnH2YJ0Nfke4YkvmsVMbyXHR+wgzG2GUsBJSwiPZ8TsMvw6/VC97ZNwQtHUQX1jOJdpnrGqjq8ZVOknxaOvQQldbEq4Kuq5UeKWTjz1YZ4PfEa7Ykhrj3Jaej4nwzwSzX+EXnxGyYyUiqUBqj2THPxpb9Zf5tDkYA9Xpn+rI2FZ9U07+0fhGGevRDXphUR/rl+DO1umJ6zCnX8k1cjXW0qmtueDdc95Qy+WW190sP9vOCHRCibsOZf2z2cb1peoDupnF42yln/HhOKv6LmfnS3l2tpGjeh5LtZEc7tII+43jNgKJ6jvLkF3iTo8NRQk90xr/HfEd7vRdDteyUa+7eOKcLUfzRXzHWdXv8RX77+JFjup5bNVGcriNcMtzG4EA8YxAu0qs0sFVUSC1R7LjH405f05P7nuxke1oXI7CR/PV4Q5zenJ2mNOrnyNcPGQ1J9JJshH4/whVgXPPPQLBUUo+3Aj3D5sG9n6knpDI62wj78z6aIF1uMOcnn44zOnV9xEuHrIaV+mQHO5Dd/JjNwIEPmKh/3+Gsyq5SifnSCUUdV294x+NOX9OP+pPZzey7cbkSGw0Xx3uMKcnb4c5vfo6wsVD5nGPbeoc7rNG8nO7EarAOiOIXHEqnfjImFTUu3rHPxpz/px+1J/ObmTrxuNo/Wi+OtxhTk/uDnN69XeEi4fM4x7b1Dku2gi8s8zPwispyZhEpYt4TCrqXb3jH405f05Pzg5z+tjPGU7kn1EfzRcxHWdVv8eX+uxiCY8yj2tsU+fQr2FHu1i/8z3f8z323ZWHl0ZxqJ6px0GOqNOvciL/jPrMAnOcVT3577Hp7KoxyWMf29Q5uo9Y4HNqI6gzkjGZShfxmFTUu3rHPxpz/lb19MXZxH7OcCL/jPpovojpOKv6Pb7UZxdLeJR5XGObOgffw37FK14Rze6ptxuBr2ry/wr0mZQquUoXI8Skot7VO/7RmPO3qqcvzib2c4YT+WfUR/NFTMc5St/FUJ9dLOFR5nGNbdW7x6f4ajcCb6jp17AhV8lVOrgqSkTtTo64e3Fnt6on9z026rOzFX4NOZovcnCco/RdDI2BiyU8ympcpUNyXHSPEP+ZIM6q5CrdKMmIxzofWuv8qXPRJtYdfpSeWKu+ZvKLnLPr3fgqtuMcpSeO8zXKQXiU1ZxIJ6kf+Ip2sT59RnCJO72CKBG1Ozni7sWd3aqe3PfYqM/OVvg15Gi+yMFxVvV7fGkMXCzhWeaxVRvJ0X1DDV/tRuB9hNl/OJ4TU1sJqd3JEXcv7uxW9eTubEbYDA7n7DJaYB3uMKenLw5zevV/hIsnmedFbSTHRZdGenxKUi4xp3cJSl9JJV9h6Pbizm5VP8rB+VN/Rrh4Z8rRfHW4w5yefjjM6WPfZzjix7HNddoXnRFe85rXbF/e11MjBY1ylGxMKtpV9RF3D97ZOMzpyXkvNrKtxuMM3Wi+OtxhTk/+DnP62OcZjvhxXnKd9kUbIT41ckk5PQnGhJRwJ0f8PXhn4zCnH/WpsxvZduNyJNbNF3E63GFO3/nrbNTfGY64cexznTaXRu0/HB+9s8w9wt4OxYSUcCdH/A53mNOTh8OcvrMZYTM4nLPLaHF1uMOcnr44zOlj/2c44sc5q+oXPTWKnzVySTk9CcaElHAnR/wOd5jTd/k5G6dXny7F5edM2c0XcTvcYU7f+ets1P8Zjrhx7HOdNhvh8ccfF/0+2T410qXRe8M9Qux87KXTw3HYql7xnN0sLt7Zsltge7CjbdT/zq84knHsqzr3CFwaudJuhPgx7C6pCovJuOBZP7LpcIc5PbEdtqpXP5zdLC7embKaqxivwx3m9Ph1mNPP5hJ51OPYV/WLNoJ+4ItAXeIVFpPBfqaMbDrcYU5PPg5b1atvzm4WF+9MWc1VjNfhDnN6/DrM6WdziTzqcexznbb7FQv5ac8I+vI+jvZeHsWkFNTJEbfD92DOZlWv/ji7WVy8M+UlC9DZOj39cJjTq+8jXDzJOPa5TvuiN9R0RsDRno0QE1LCnRzxO3wP5mxW9eqTs5vFxTtTziwwx1nV0489Np2dG5s49rlO2/2Khfy1ZwR9xKLbBF3SMSEF7OSI3+F7MGezqlefnN0sLt6Z0i1Mxexwhzk9Ph3m9Mqjs40c1fPY05YOedGlUXx82iXmOqVElOxIjvgdvgdzNqt69cvZgXeY7K8h3Vwpdoc7zOnx6TCnVx6dbeSonsdXbSTHIY9PSbpL3GFKRsmO5Ijf4XswZ7OqV7+cHXiHyf4a0s2VYne4w5wenw5zeuXR2UaO6nl81UZyXHSPoPcRSLpL3GFKRsmO5Ijf4XswZ7OqV7+cHXiHyf4a0s2VYne4w5wenw5zeuXR2UaO6nl81UZyXHSPwBdznnzyya0zXeIOUzJKdkZ2Nkdjzt+qXv1ydrO4eGdKN1eK2eEOW9UTy9koj1kOvDzusU2d46IzwszHsF3CMRk4M2Vk0+F7MGezqlffnN0sLt6ZcrQAO9xhq3r652xi32c48PO4x7bq+vSp2jHO5qP60J0S4GPY1zwjuCSVdIfvwZzNqn4mv22w774yPeiiuXV5dLjDVvXEdjYxrxkO/DxfsU0dP48++uj2KxYRi7Hue3yq4Bjo8Sk66aOx6hlzwcR3cmTX4XswZ7OqV3+c3Swu3pkyz1WO1eEOc3p8O8zpYz4zHPh53GObOsfwl+7yGSEG5/Hp6KuaJBJtaFNiMs9oxn9HNh2+B3M2q/qZ/jqf41E5llHNVYzQ4Q5zevw6zOlnc4m8PLaxTZ1DP+fi4t6eETIBY72PsOcNtZhMTLqrj2w6fA/mbFb19MnZqL8jXLyzZZ7nKp7jOD0+HLaqj/k428ihnsc2tqlzDJ8affd3f3f5k48Yvy98+rQaKA1kHDDp9vA7G/l1sYRfS84sLsdxenJ32Ko+joOzjRzqeWxjW3UujdrvI3QbQWcEEuqS6jAlkpOv2iNuh+/BnM2qvpqM3D/nM/PObndzpdiO4/TYOWxVrxw6n5FDPY9tbKs+fGrUbYS9N8sxUSUSdVV9htdx9mDO5ih97qfzm3lntt3CjDEdx+mxddiqfiaPyKGexzW2qXPwI8D8x5yIRT93Hm6EOBzP1O1g3R3Qqjh+5M5wIv+suluYMZ7jOD22DlvVKw9nJzzKPLaxTZ1j+KG7mY1AUBJzyTk9djEp2l0ZcTvcYU5PHg5b1Xe+1F/nU/i1ZDdX5LAXd3areo2DsxMeZR7b2FZ9+A01txEIFB+f0nbJOT02SoT6qIy4He4wpycXh63qO1/qs/Mp/Fqymyty2Is7u1W9xsHZCY8yj21sU+cYfsTCbQSM480ygV1yTh8Tiom7+ojf4Q5zenJw2Kq+86W+Op/CryXdXCl+h+/BnI3Tz+QhjmQe29hWffhzLm4jEOSXf/mXt1+6U9KSSkDS6ZWEeCM54nf4HszZrOrpl7NRn0e4eGdKN08x5ohT4ZUOn04/wmZwOIwpMfLYxrbqF10a6akRQSmuY06vJJ6xHv8d8Tt8D+ZsVvX0zNmo1yNcvLOlmyvF3YM7G6cnVofN4MoXmcc2tqlz7L40IgDfRxj9M0F4rlMxIXijMuJ3+B7M2azq6ZezUZ9HuHhnSzdXitvhDlvVE8vZzOQhTpRxfHOdtt5HiDaxbh+fQtLNMnUSd8k7fUwIH6My4nf4HszZrOrpl7NRn0e4eGdLN1eK2+EOW9UTy9nM5CGOZB7b2KbOMfzQXXeP8PCMoKF+RsYBvhcZ4yPbyt8ZuksWoLNd1dMvZ6M+j3DxkHlsY5s6x/C/aj7cCHFIn6nHgYyo04vT4R0m+2vI0QLrcIet6umns9EYjHDxkHlsY5s6B/cI7a9hdxtBl0ZKSjImQd3pY0LZpmqP+B2+B3M2q3r1xdmBd5jsryHdXCl2hztsVU8sZzOThziSeWxjW/XnP//5N6985SvtPLT3CDw1euMb33ibdJd8xpSAkp2RI5sOd5jTk4/DnH6vTWcHds2S56mK7ThH6YnpfCmfES4eMs9XbFPnuOiM8L5wjxAHJQ5eNYDCj7bpYinmteTMAnOco/T01fnSOIxw8ZB5vmJbdT01Ujvabz66S6NLNoILmBOI7ZFNhzvM6bfO332lqMrRNorR+RXnbDlaYB3usFU9fXQ26v8IFw+ZxzW2qXPwoTu+jxCxe3x0G+GSewQXMAbP9ZFNhzvM6YntMKffa6N+dn7FOVvOLDDHOUpPH50v9X+Ei4fM4xrb1Dk4IzzxxBP3ceWnvUfQGYGvauLMJVfpYzIKNpIjmw53mNOTi8Ocfq+N+t35FedsWc1Vjuk4R+mJ53wplxEunmQc21ynzVc1X/WqV/k5784I2ghKSlLBJSt9TEa8kRzZdLjDnJ5cHOb0e23U786vOGfKap5iPPLrvp/u7Ff1xHQ2ymeEi4fM46o2Pp7znOdsOB+6e+yxx+7jyk97Rrjkd42UjALNyJFNhztsVU+ezqbDOhv1fYYj7hlyZnF1HIet6umbs1G/R7h4yDyusU2dY+rL+wSFHIPT5h6Bx6e8SkQsJuH02K+WkU2HO2xVT85H2mgMnE/h15K6zHXx3HzCd9iqvvMV83J+I4d6HtvYps4xvDT6ru/6rvJXLAjApdGe3zWKieBntozsOtxhq3pyPdJGfXc+hV9DziysjuOwVT19dTZxHGY48PPYxjZ1juFTo24j8CPATz311JZbl1TGYiKxY6P6yK7DV7FVPrnvsVGfO1txzpZ5nqp4Hcdhq3riOpuY0wwHfh7b2KbOMbxH6DbC3jOCOhMTkq6TI36Hr2KrfPLeY6P+drbinC1nFlbHcdiqnn46mzgGMxz4eWxjmzrH8B6h2wh7zwhVcrGDrh47UHE6fBVb5Y/61Pkb2VZ9PUs3Wlwd7rBVPX1zNrHfMxz4eexjmzrH8Is5o42gL+Z0SWWMthKIHRvVYwcqboevYqt88tljE/vR2UfemfU8VzlWhztsVU9MZxPzmeHAz+Ma29Q59KG76D/W73QbQR+6w6BLqsJiMjFgVx/ZdLjDVvXkd6RN7K/zGzln16u5yjEd5yg98ZyvmMsMB34e19hWXb9rpHaMs/noNgLvI+hmefWNFhcwJxDbI5sOd9iqfhuUu68gVXG+Opvop7OPvDPrM4vLcY7S0z/nK/Z9hgM/j2tsq64v7+NTuhirPSPofQSMu6QcVgWMwXN9xO9wh63qyelIm9hH5zdyzq67uYpxHecoPbGcr5k8Iod6HtfYps6hM0K2VbvdCHpnGUerZ4QqQQV1Mnag4nS4w1b1Xd7OV2cT+9HZR96Z9dEC7HCHrerpn7OJfZ/hwM/jGtvUOfShu4q/6bpLI54a7blZxjElJvSMpv874ne4w1b1Xd7OV2cTe9zZR96Z9dHi6nCHrerpn7OJfZ/hwM/jGtvUOfTOcsXfdN1G0KVRdzbASZVwTAbOTBnZdLjDVvXkeaRN7LfzGzln16u5ijE73GGreuI5m9lcIo96HNtcp613ljNXfqYujUR2yVf6mIzsR3Jk0+EOW9WT46qN48f+znAi/6x6NVcxlsOdHts9WGejfGY44sbxrer6hhr8iN/aj84I+qwRxi6xSl8FU1AnRzYd7jCnJweHHaWP/XQ+I+ca9WquYlyHOz22e7DORvnMcMSN45vrtHVpFDHZItszQrw0woFLrNK7gDF4ro9sOtxhq/ptUO72tSp7fMmPsxV+LVnNVYztcKfHdg/W2SifGY64cXxznbYujSImW2S7EeJnjSC7xCq9C4gfV0Y2He6wVT25rdo4fuznDCfyz6pXcxVjOdzpsXWY03c2M7lEjup5fNVGcuhDd/CFyXbTdZdG8bNGkF3HKn0VLAau6iObDnfYqp68Vm0cX30c4eJdQ1ZzFeM63OmxdZjTdzYzuUSO6nmM1UZy6F9HwRcm203XbQQ+YvGmN73ptqMrHauCxcBVfWTT4Q5b1W+DcnfgqrLHV+evinG2rptDYjvc6Y+2if3vYkZenpfYps7Bh+74zjJf3axKe2kU30fAuEssYzGZKnClG9l0uMNW9eS1auP46uMIF+8aMs9Tjulwp8feYU7f2cR8OvvIy+Mb2yx8/OhHgCN2jw93RsCYm+X/384IbqAYtDOwOBnXqI8Wl8Odnpwd5vSdTRyDzj7y8rzENnUOnREyJj9TZwR9z3WUmPAYTIFGcsam4zjsKD35O1+XYKNxORrXHDm/Dnd6/DjM6TubmFdnH3l5XmJbdX3EQm3Zq91uhNmnRjjFod6BlnMFm5EzNh3HYUfp1UfXFxdnZOf8naUfLS6HOz15OszpO5vY784+8vLYx7bq3fcR4LQbgZvlp59++uZd73rXttBHiQlX8JjsqD5j03Ec5vTkU2GVTrmfgcn3taTmyMXr8FVslZ9z6uwjN89LbFPn0Btq0Y66uHe+8zu/875fsQAkCc4Ie34NW85z0K49Y9Nx9mCVTaVT3mdg8n0NObOwOs4qtsrPY9DZR26el9imznHRRuC/aj755JPbpsCZSyzrYyIx4a4+Y9Nx9mCVTaVT3mdg8n0NmeepitlxVrFVfs6ns4/cPC+xTZ1D7yxHO+rilmcEkWfPCFXCCiBfIznD7zgOc3rycdhRevXZ+RN+LVnNU47dcVaxVf5KLpGbxze2qXPoZjnaqb5xqksjEfQ+gtquY04fE5IPJ2e4HcdhTk8eDjtKr746f8KvJd08xfgdZxVb5cc8qHf2kZvHN7apc+gfhUQ71TdOtxF0szx6fFolHJNRwE7O8DuOw5yeXBx2lF79df6EX0tW85Rjd5xVbJW/kkvk5vGNbdWHT426jcBXNfmGmh6LxuCxXnVYCUReV5/hdxyHrerJ8Uibzl83Hmdg1TzlOB3HYat6YjqbmM8MB36er9imzsE7y/wPtapsnG4jxEujLqkKi8lUwbNuht9xHLaqJ68jbTp/eQzOblfzlGN2HIet6onpbGI+Mxz4eb5imzpH/NBdjKF6e7N8yRmhSlBBKxmTr/CRP2e/qu/iOF+dzQgDv1aZWVgdx2GrevrrbOJYzHDg53mJbeoc7qmR4rUbgTMC31AbXRrhrEo6JqSAnRzxO9xhq3ryO9Km89eNxRlYNUc5Tsdx2KqemM4m5jPDgZ/nK7apc3Q3y5uP0aURG4FCUqPEMh4T2pwM/oz4He6wo/Sk7nxdgg2G5HA4z1EO0OEOW9UT09nEfGY48PO8xLbqenyqdoyz+eg2wuz7CDiqknZBcxJqj/gd7rCj9OTofF2Cqe/XktU8xdgd7rBVPfGczWwukZfnJbapc1x0aaSNMHp86joWE4qJu/qI3+EOO0pPzs7XCJvB4VyjjBZghztsVU8/nU0cgxkO/Dwvsa36RY9PZ7+P4BJWErFzXX3E73CHreqrgVXOzldnM2MrzjWkmyvF7nCHreqJ5WyUxywHXp6X2KbOoUuj6F/1jXPEpVHVqZiMAo7kyKbDHbaqJ8cjbdRn51P4tWQ1VzF2hztsVU88ZzObS+TlsY1t6hzdzfLG6TaCnhopacmYBPWsj4lkbtce2XW4w1b15HekjfrrfAq/lsxzleM63Omxd5jTdzYxn84+8vLYxjZ1ju4eYeNUG4EEAHWPQHuUVMSx3VNGdh3usKP09Mf5GmEzOJxrlDhPLp7jrOrxv8dGeTlb4ZJ5XmJbdS6N+PK+K+X7CCSAA72hRrtLKmIK7AJ2+pFthzvsKD15O18jbAaHc40S58rFc5xVPf732CgvZytcMs9LbFPn6C6N8HPnO77jO+77Yo4C6IxAe5SU8JiE/MzKkW2HO+woPX1wvkbYDA7nGkXz1MVynFU9MfbYKDdnK1wyz0tsq65fsZBNlu1G4B5B31CbTSoHWGkr6cqmw+A7/Cj9nhixHy6PyLlGfWYeHWdVT3/22HR21RjlsY1t6hzdPQI+243AN9Rm/j9CldweXexAtu8wuA4/Sr8nRuyDyyNyrlF3CzPGdpxVPT732HR2MU/V89jGNnWOiy6NuEfQr2G7DimZI2TsQPbXYXAdfpR+Twz1weUg/JpyZh4dZ1VPv/bYdHbVWOXxjW3qHO47y/LXnhFe+9rXbt9ZXk1Mzldl7EC27TC4Dnd6Z7PKV56dnYsl22tKtzBjDo6zqsfnHpvOLuapeh772KbO0X0fAT/tRuAbav/wD/+wdcZ1SMkcIWMHsr8Og+twp3c2q3zl2dm5WLK9ppyZR8dZ1dOvPTadnRurOP65TpvHp48//rhfJ6OnRvrJR9chl9gefexAtu8wuA53emezyleenZ2LJdtrypl5dJxVPf3aY9PZubGK45/rtPlZeL6hFrHoqz0j6H2EPYnFILN1lyT2HdbhnV2FVTrlvxfr8pPva0m3MGN8x1nV43OPTWcX81Q9z0tsU+fg0ugVr3iFXUftRnhffnzKIMYB06Du0Xc2IyzGvUbdLcwYu+JUOtnswTob+UXO8PI8xjZ1joueGu3ZCCQeE4md6uojm714Z+ewVT39cjYjrBuTM7DRwupwhzk9+TvM6XOfZ3h57GNbdZ4avfrVr87ub9vtGWH10igmrQRuIw0qI/5evLNz2KqerjkbdXuEi3e2jHNUxepwhzk9/h3m9DmnGV4e29imznH1N9SUeEwmd65qz/A7jsOcnhwqrNIp372YiyW/15SaHxezwx3m9MTYiym/zl6cPC+xTZ3joqdGekONgKMv8OeEYzJKuJMz/I7jsKP05O58jbAZHM41Sp6nHLPDHeb0+N6LKa/OXpw8L7Gtut5QU1u2ksNLo5l3lkmWIwaJdQXr5Ay/4zjsKD25O18jbAaHc40yWlgdvgfbYxPHobMXL89LbFPn6L6hhp92I8TPGkHukspYTAbbURnx9+LOblVP/s5mhM3gcK5R8jzlmB2+B3M2Tr+Sj7h5XmJbdd5H4A01V+xGIFEujfTpUxx0yWdMCbjAWT/i78Wd3aqefJ3NCJvB4Vyj5HnKMTt8D+ZsnH4lH3HzvHGPzMcAAAxISURBVMQ2dY6px6c5KTnS9xHA0WWeEpGMuHwIG8kRfy/u7Fb15O9sRtgMDucaJc5RFa/D92DOxulzTjO8PC+xrboujdTOce58+7d/u/1iDpdG+qU7HIySirgLmBNQe8Tfizs7pycfhzl9ZzPbP/HOlnGOqlgdvgdzNk4fc5rhwM/zEtvUObhZfuKJJ+7jKl67EfSGmsijxCIek5F9J2f4juP0xHOY0x9toz538cS5hoxzVMXr8D2Ys3H6mNMMB34e29imzsGlEd9ZjliM9T6xEarBUCdtx+8OjitH2iiG8yn8WnK0uDp8D+ZsnD6OwwwHfh7b2KbOwaXRY489dsM/IK9KuxFWbpZxHhOPyVSBs26G33EctqonryNt1E/nU/i1ZJyjKmaH78GcjdPHnGY48PPYxjZ1juGnT2fuEZSQZEw21+HERDLu2jM2Hcdhq3ryO9Im9tf5jZyz66M57PA9mLNx+tz/Ea8a06ijzqGb5exf7UPPCDhV4jEZBevkDL/jOGxVT45H2sQ+O7+Rc3Zd8+PidPgezNk4fc5rxKvGNOpU10ZQO8dpNwKPT/mH4zM/AizHStwFFC/LGX7HcdiqnryOtIn9dH4j5+y65sfF6fA9mLNx+pzXiFeNadRR5+BDd9wjRCzGajeCHp+SzCghORXPBRQvyxl+x3HYqp68jrSJ/XR+I+fsuubHxelwhzk9MRzm9DGvGU41plFHnePip0arX9Uk+ZhI7NioPrLrcIet6snxSJvYZ+c3cs6ujxZXhzvM6emLw5w+9n+GU41p1KmuM8Kup0a6NCKhmaRiJ1brSriz6zgOW9UT/0ib2B/nN3LOro/mscMd5vT0xWFOH/s/w6nGNOpU169YqB3jUG8vjeLj05mksvPVtktSfjrcYat6Yq3aOL7y7nxGzjXqo3nscIc5Pf1xmNPHMZjhVGMfddQ5dEaIWIzVboQ99wjR+WrdJSk/Hb6KrfLJwdk4vfLubCPnGvXR4upwhzk9/XGY02sMRrh41dhHHXWO3fcIJPIrv/IrN0899dTmaPTFHCV2iYwdqPx0+Cq2yicfZ+P0sQ8znMg/qz6zwBxnVU8f9tio785WuGQe29imzrH7s0YkoY1AwJmk4MQklOisHNl2uMNW9eS6auP4sd8znMg/qz6axw53mNPTB4c5fez3DAd+HtvYps6x+9KIJOKlUUzQ1ZV4TMRxs37GpuM47Cg9+a76in10tpFzjbrmyMXqcIc5PTEc5vQxrxkO/Dy2sU2dY+qzRjkghujYCPpiTubEhFUXJyYibCRnbDqOw47Sk/+qr9hnZxs516hrjlysDneY0xPDYU4f85rhwM9jG9vUOXRpVPE3nT5rFINiSJunRivvI2ATkyDAbJmx6zgOO0pPP1Z9xb4728i5Rj3OcxWvwx3m9Pjfi41sY+55bGObOoc+dOfs7nzbt32b/WIOv4bN/0dQ6TolziUydqDy0+EOO0pPPqu+Yh+cbeRcoz6aww53mNPTn72YxqKzFyePbWxT59BTI9kg7+F1G+F1r3vd9tRIyUhGZ0fWY2KV3w532FF68ln1FfvgbCPnGvXRHHa4w5ye/uzFNBadvTh5bGObOu8mP+95z7vvnwnew+s2Ak+N9B9zVjoVAyjZGTmy63CHHaUn/1Vfsc/ONnKuUR8trA53mNPTn72YxqKzFyePbWxT5+CMkL+qeQ+v2wjxHmHUKSV1iYyJVX463GGreuKu2jh+7MMMJ/LPqo8WVoc7zOnpw15sZBvHJ49tbFPnjPDc5z73nt8+jRx8tfcI8anRSmIxyZV6Ti7bdrjDVvXEXLVx/Jj/DCfyz6p3C5OYHe4wp9/rT33v/IqDzGMb29Q5eGoU/1FI5Gw+ujPCno1A8jlITLqrj+w63GGr+m1Q7g5cVfb4kh9nK/xacrS4OtxhTk+f9mIj2zheeWxjmzpnBL2PILvIQWfPCHSAe4SZn3zEUexwDgI+U0Z2Dnd6Yu7BnM2qXn12dsKvKeM8VXE73GGresV1drO4eHl8Y5s6h95ZtjbdGSHeLK8mHZNR8JEc2Tjc6Ym3B3M2q3r119kJv6ZcnceYm7Nd1cuns5vFxcvjG9vUOeIbathFztY+aiPgTB3LQcBmysjO4U5PzD2Ys3H6vXFmxuRojubI+e1wh63qFdvZzeLi5XmJbeoccSNE/NZHtxF+9Vd/dfv3skpYUsZRRqwKFLlVfcbGcZyeOHswZ+P0e+NU43C2Ls5TFavD92B7bGJenb14eV5iW3UujfQjwNLJHnnfPQKBISJ1syyDUVIRr4LJTyVn+I7j9MTZgzkbp98bpxqHs3VxjqpYHb4H22MT8+rsxcvzEtvUOXSznLFbH/mMQGDISH7yUf9nGYMuKWExkILMyBk7x3F64u7BnI3T740zMy5HczRPzm+H78H22MTcOnvx8rzEtuqPPPLIzctf/nKZbFIYjdszQhWQzxrp06eQKw76I0pMyvlzHKfHzx7M2Tj9KM4MDucaZTSHHb4H22MTx6GzFy/PS2xT5+DSKP+f5Xt43/qt39p+6O69YSMwILFTGqAj9Z2vS7CY6zXqo4XV4XswZ+P0cQxmONXYx7Wguj50p7biqH3n4UbQkDwjNTD3as/Dqjhn6kaLq8P3YM7G6WPfZzjw85zFNnWO+NQoxhD34UaIo1IMaoQ1aFGn+l5M9teSo8XV4XuwPTYai85WHGQe+9imzsHNsp4aVbbtRuCpEV/MGf3kY044JhKDdvUZm47jsFU9OR5p0/nrxuMsLM9VjtPhDnN6fJ+B5ZzzfMU2dY7q06fys3G6SyNtBHVGUg6yjHhMJvOq9gy/4zhsVU9uR9p0/qpxOFsX56iK1eEOc3r878VGtjH3PF+xrTpnBD6GHYswdFNnBHVGMjpTvcJiIPGcnOF2HIet6snvSJvOnxuLM/XVPMV4He4wp8fvXmxkG3PO8xXb1DnyZ42yfbsRVh6f5g7HZGJQV5/hdxyHOT15OGxV3/kaYeDXLHmecuwOX8U6PnFH+Cwnz1dsU+fTp/oYdu4vbTjtRpi5NKIzCqyOqV0FdboZG8dxenVyNabz5/SjODO4y/FovebI+e3wPdgem5hbZy9enpfYps6hx6eyybLdCCtnBBwr6ZhIDujaMzaO4/TE2oM5G6cfxZnB4VyjaI5crA7fg+2xibl19uLleYlt6hzu8emtj+pmmeAY8+X92e8s41BJx0QUaCRnbBzH6YnpsFV952uEzeBwrlE0Ry5Wh+/B9tjE3Dp78fJcxjZ1Lo301Eg2Wd53RlBgHMRLI+mzg6PaMXnn03GcHj8OW9V3vkbYDA7nGmU0jx2+B9tjE8ehsxcvz2Vsq673EdSWreS2EapgGGgjPBt+AJiEbSfu5urKqo3jd/FH2Azu8j9aX811jNHhe7A9NrP5iJfnLLZVrz50J3uk3QiA/IqFPn3adQhuLiSwYqOEs5/Y7jgOO0pPHs7XCJvB4VyjjOakw/dge2ziOHT24uV5iW3qHNUv3ckeeedbvuVb7Ifu+KqmPnQ3kxAO4cVE0M2Ukc1e3Nmt6umDsxlhMzica5TRPHb4HmyPTRyHzl68PC+xTZ1DP/AVMdkj243AU6OV3z7FYUzcBYWXy4i7F3d2q3rydTYjbAaHc40S56eK1+F7sD02Ma/OXrw8L7FNnUP3CLLJst0IOiPM3iOQNIeC52BdOybveNz9u4Fx9kfpycn5GmEzOJxrFDd+it3he7A9NsoF2dmLl+cltqlzDN9HOPLSKCYdk1HCnZzhdxyHHaUnd+drhM3gcK5R4hxV8TrcYU6P/73YyDbmnucltqlzDN9H6DYC7yPod41GieUOx2Ri0q4+w+84DjtKT97O1wibweFco+R5yjE73GFOj++9mPLq7MXJ8xLbquvSSG3ZSraXRvEeAYMuqYy5gAqc5Qy/4zjsKD35Ol8jbAaHc42S5ynH7HCHOT2+92Ij25h3npfYps7RfegOXw83QhxRBuTuoLmyF8NfZ+viHa3vFqVidRyHOT0+92IjW+WLzGMb29Q5dEaIdrHeboSHl0ZxqO4f8IjGwY961Ue4eGfKblEqbsdxmNPjcy82slW+yDy2sU2dQ58+jdg9PuI9Qk6ap0Z6fIpRxqOjjLuA2UbtGX7HcdhRevJ0vkbYDA7n7DKaP+J3HIc5/V5/cRw63+LleYlt6hycER577DE7h/8PAAD//8pLzP0AAEAASURBVO2dZ68lzVWF7xBskm0wWWREziBAIPhGkJBAmJwMDvwMcA7wiwgGbDJGSCCQkQGRnbANmJwNzNPjdb1uTa1d4Z4+jM3bUs/etdfaoaq6bofT58yDV7/61f/zcLvpbT/zMz9z89a3vvVGuGSPi83xBw8eJFrXPsOvOAlLdopI2Kq9iqXOppjCryV9jno5KzxhyU78XUy1Vf7itGPrbXT2D/3QD7154QtfKJfH5INqIfz0T//0zdve9rbbzswUBccLeSxjMMz4VJyEJTtlJGzVXsVSd1NM4deSozms8IQlO33axTQelb847dh6G52dhfCCF7wgz/mrXvWq/ungYZaf+qmfOhaCEs4UJY4XI/9KzvArTsJW7dS46pP43t8ZjvPP0jU/KX6FJyzZybGLqb7KX5x2bL2Nzv4RH/ERNz/yIz+S57ZaCH5GmClIhe1ILz75V5yErdrJveqT+N6PGY7zz9JH81jhO9iOj/e98hevHVtvo7M/4xnPOBaCfFr5oFoIP/uzP3vzlre85ea///u/W79u24v2YrrkxjjDrzgJW7VT1qpP4nsXZzjOP0v3OerlqPAdbMfH66r8xWvH1tvSuTT60R/9Ubk8JsuF4DfLMwU9Fn3BoIIrl4qTsFU7+Vd9Et/7MsNx/ln6aB4rfAfb8fG+V/7itWPrbekf9mEftn+P8NRC0FA/khrUu9a8cJyXfJ1zDX10YFX4Drbj4+NQ+YvXjq230dmHT42qS6PXvOY1N29+85tvb3hmilJxq9KLT74VJ2GXslPTaizvR/J1zjX00RxW+A624+PjUPnD642r29DZ7/3U6K/+6q+OuihoVJR3YFX34pNvxUnYpezUtBrL+5F8nXMNfTSHFb6DJZ9kb8dgxOuNq9vQ2VkIz3/+828+4AM+oE1xtKfvEWCPiupmmDR68cml4iTsUnZqSrFG2AwO51pbNY+XxnrxGMedBzC98enNidvQ2T/8wz/85nnPe16cw3IhrF4aqdNeSK/4nm3Gp+Ik7FJ2al6N5f1Mvs65lq556uXbwZJPsivvCIc34vTG1W3o7MsLgcQ4Inl8uvOKhReiTo/kjE/FSdil7NS/Gsv7nHydcw19dGBVeMJW7epn8hOOHHF64+o2dPYP+ZAPOV6xcMzz3J4Regl5ajT7ioX7k4x2SuoFuD7iV3jCLmWnztVYK31z7pm6z1MvT4UnbNWuvMlPOHLE6c2J29DZeXzKPYJjnudYCCmZL4TEUbAWTwnF78mRT4UnLNnJn7BVexVrhIFfe2vnyvPvYMkn2ZVvhMMbcXpz5TZ09qnHpynZUwtBU/ZI+gDfRfKiEq/yFecaMs21cld4wlbtM7lmOb1xdRs6+/Dx6Stf+cr40p3eNaKo1NlewV6I8BlZ+VUYsROe7Ds+O7HU78pXnGvIlXls60m+q3bFTX7CkTOcdmy9jc7OS3c//MM/nB+fVgth5Yzgxe/q3oE2xqWxnXg7PupH5SvONeTowKrwHWzHR+NQ+YqDbMfW2+jsw7dPq4XgT41mi/ICV3QvvudX4TvYtXzUlyqfONeQo3ms8B1sx0fjUPmKg2zH1tvo7Pe6NOJzBN4+paDZorzAVd070PpeGtuJt+OjflS+4lxDjuaxwnewHR8fh8pfvHZsvY3OfrGFQNKZolTcjvQOtP6Xxnbi7fioH5WvONeQozms8B1sx8fHofIXrx1bb0vnAzW+oZa2B9Wlkd8jEGCmqJRoxq6ie9xLYzvxdnzUl8pXnGvImTlMnGSn7oQle+Xj41D5i9eOrbfR2flAjYUQ3zWqFoJfGs0WruJ2pHeg9b80thNvx4d+VH5tP89uzxxYiZPs1JywZK98fAwqf/Ha8fU2OvvwFYtqIfjN8kzhKtoLUbEzsvK7NLYTb8eHfld+M+NyaY7mKcVNeLITJ2HJXvl4XZW/eO34ehudffmpkRLjvLIQ5EdxXoiKnZEjv4Qne1XLtXzU7yqfONeSPle9nBWesFU7eZOP1zTi9MbVbdL5zvLU5wi9hFoIKqzHEYYEV2K3z+gjvwrfwa7lo75X+cS5lpyZx1RL8l21Ez/5eO4RpzeubkNnH750x6VRSsYny29/+9tvC048L3xX9+J7MXbx5Jfs5E5Yslc+6kvlK8415MwcVpyEJTv9Tt89SD4+DiNOb1zdhs4+fOnuFa94RXzFgqdGfENNxUh6oZfSvfgUs+IkbNVO7kv6eF9SXOecrc/MYcVJ2KqdfiYfH4MRpzemsrnUGYHYsnueB9VC4KnRyvcRPPCq3iuujVFxEpbsxE7Yqr2K5X1IcZ1ztj46sMhfcRK2ah/l0TikuMJ7Yyqby6c//em3P+ciu2Igy4XAPYK+jzAqyIPu6L3iPM4uXvklbNVOnclnpQ/OPUufmcfESXZqTViyVz7e98ofXm/c3YbOzs3yc5/73Dv8O7zZM8KoIC9+R/eiev67eOWXsFU79SYf9WWEi3e2nJnHxEl2ak5Yslc+GoPKV5zeuLpNup4aqY3/Hb1aCD/3cz93tXeNvCh10uUuXvklbNXeDqrXLT3FFH4tOXNwJU6yU3vCkr3y0VhUvuL0xtVt6Ox+jyBfpLjx0ogiuFnWU6OZojzBqq6Ckt8uXvklbNVOzclH/Rnh4p0tZ+YxcVbt9CX5jLAZHE5vXN2Gzp4WgmLEhQDBH59WHYJ7382L78XaxSu/hK3aqTf5qC8jXLyz5cw8Js6qnb4knxE2g8PpjavbpHNpxM+5tPUIjwsBh6fOCAz1ezcN2nst79UqTKwZjrhnyfZA6OVJnGQnRsKSvfJRTZWvOMh2XL2Nzq7PEdzPfbsLgQJw/v94j+CDmAattfuA9jDZqtjiXEOODrCEJzs1JyzZKx+NQeUrDrIdV2+js+tdI/dz37gQIP1/PCP4IKZBa+20Kz/xZzjinilHB1jCk51aE5bslY/6XvmKg2zH1dvo7MsLgeTsvLf91BnBh/vxAXfUB9/t0ke4eNeQowMs4clOzQlL9spHY1D5ioNsx9bb6OxTl0a9hDizEPg1bLYe5wAu9I8Xn0JWnIQlOzl6WM+menaxlEtxry1Hc5nwZKf+hCV75aPxqHzFQbbz4m10dn1V0/3c98HLX/7y+K4Rr1g8KZ8se9FtZyrMB6X162E9m/x2sao+xb6mHB1gCU92ak9Yslc+GovKVxxkOy/eRmdPl0byLxcCZwS9azRblBe4onvxya/iJOxSdg3YTm0j3xTzDDvjkd4GVb4018mOX8KSvfIZ1SEc2Ztft6GzpzOCYjy1EHxUw8CK4gMsm2SFwRnhinMNWR2c5E94slc+YCy8Xv+reKOY4Gy9uG5DZ+cDtfK/l60ujZ6kp0ap08dohAHZ8fFBVGzJXWxUh+JfS+4egJXfDlb5aCxGnN6cuA2dXd9ZVtxWxjMCBXBp9CTdI/AkKw2Md/6xTj4ciHZb5eO/4+N5K3/nna2nMSTvNbEql8ZghtOOq7el88ky/89y2u4sBJyUGKmFMLqmTMFX7Cq48qk4q9gqn7p2fLw/lb/zztY1x70818SqXKpthtOOq7fR2at3jch1ZyF4cpz5PgLfUHsSFoJ3TnW6rPAe1rMpXsKSHb8KG8UVfi05OrgSnuzUvYNVPhqLGU479t5GZ1++R/DELIT3hbdPveMaQJc9vGeTT8KSHb8KG8UVfi3pc9zLmfBkJ8YOVvmorhlOO/beRmevHp+S68HLXvay+DkCN8vveMc7bjs5U5Q6sCq9+J5vhe9gl/SpYnlfZnnuc4Y+mseEJzs1JizZKx/vc+UPrzembpPOJ8u8fRp/6a5aCHyg9qT897LqkA+S9B0s+SR7GvTKrvokq9jiXEOODq6EJzs1JyzZKx8fg8ofXm9M3SZdZwS1PccRp1oIenwqp1FR4u3IVKBiVfgOlnySnToSluyqXXKWJ/5ZcjSPCU926tzBKh/1fYbTjqu3pQ+fGlUL4ed//uePr2quFCXuqlTBya/Cd7Dkk+zUlbBk977McJzf0xVj5uDo+WOb8U2cZK/i7vh47ZU/PI2J+8gmCcYnyy984Quddkd/UC0Ef3xK0FFRdyJvNLzw1v3S2E685JPs6sMIFy/Jnv/uXMz4Jc6qnf4knxGmsaj84fTGRjaXT3va046fc5FN8SXjQqAAzgj6QA2HUVEKuiNTgYpV4TtY8kl26khYss/ULs5Ieo77zMOMb+IkO7UnLNkrHx+Lyh+ej4v8ZHPJJ8t8oCabuJLlQviFX/iFJ+alu9SB2448PGP1tuSX7MRI2Krd60m+zhnpijE6OEZxKv9LY7vx1IfKXxyNS68Nxj78HCFdGlGAnxFmClIhO7LtTBtjF6/8EnYpu/chxXTOSFeM+85F5X9pbDeexqLyF0fj0muDsd9rIXCPoN8+nSlIhezItjNtjF288kvYqp1ak4/6McLFu4as5vLS2G48jUPlL047tt6W3vuBL/kj71watUnbzxHc8dK6Ck5xd/HKr4f1bKppF8O/8lX8a8l2ntu8CU92/BOW7JWP11P5i9eOrbel6x5h+IFaL6GeGs0WrcJ2pApOvrt45dfDejbVtIvhX/kq/rVkb649d8JX7cRMPiNM9VT+4rRj62109uFLd7pH6CVcXQiK4YWo2JGc8ak4CbuUnfpTrBGmvlf+4lxDap5SroQnO3ESluyVj9dV+cPrjanb0Nn5HOH5z39+l3/EYSGkZFwaPSkv3aVOY2fzzj+yPPp31b4Tq/JRLYxxOi2Lcy2Z5lv5E75qJ17yGWGjWoT35tdt6Oy8YsF/HeWYYiCPe4RUrG6W9VW7xPOAu3oq0ONVnISt2sl3SZ/Z+p13tj6ax4Sv2ulH8hlhGoPKX5x2vryNzs7/j1D+97IvfelL49unPD7ly/sEoqCZolTcqvTie767ePJLdnInLNkrH+9L5e+8s/XRPCZ81U4/ks8I0xhU/uK04+pt6cOX7mYWAsUQcKYoFbcqVXDy28WTX7KTP2HJXvl4fyp/552tj+Yx4at2+pF8RpjGoPIXpx1Xb6Oz66mRY/JHPphZCBBnCoK3u6UCFW8XT37JTr6EJXvlM1u/eNeQo7lM+Kpdfdn1wz/5KjaynRdvo7MPnxpVC0FPjWaK8cJ2dC++57+LJ79kJ3fCkr3yUV8qX3GuJUfzmfBVu/qz64d/8lVsZDu23kbnIQULgadGPf5hqxaCnhq9L39n2QflGIX3/JPsaaAq+wibweFcaxsdXAlftas/u374J1/FRrZz6W10FoK+oUY8xxWnvDR6khZCr8PqRIX1Ol3xKyzFqnzA2CrfR4zr/DtzYCXOql092vXDP/kqNrIdW2+js+tdox7/sKUzAgXopTuIMwXB2928+BSj4iQs2cmRsFV7FUt9STGFX0vOzGPirNrpU/IZYRqPyl+cdmy9Ld1/8lE2+SNvzwi9hNwjvL9+oHZ0/uFfit7WG6iKP8Jm8F4dZ9h689zmSZxkx38Hq3xU0wynnS9vS9fjU+LKphyHjTNCSsYZQW+fQk48D7ir94prY1WchCU7sRO2aledya/KJd9ryZk5rDgJW7XT3+TjYzHi9MbcbdKf+cxnHv/PMrFl8zwPXvKSl8QP1LhHeFJ+ziV1QJ3pde7SPinHqIZRHfK/hhwdWNRQcRK2ah/l0VikuMJ7c+I2dHa/R+j5lgvBL41mC1eSVenFJ9+Kk7BkJ0fCVu2qN/lVueR7LTk6sKij4iRs1T7K4+ORYsPpjbnb0Nm5R+B3jVpMecqF8P58s+wDosGQTFiyj/zAR76KcbasDirlrjgJW7WTK/mojhlOb1zdhs6ul+489h3ezKXRk/A5Ah3wwr1DFbbqs8r3Ou7j63HO1O978CX/VTt9TD7e/xGnN+ZuQ2fnc4T2y/t3eNVC8JvlUUFe/I7uRSX/ipOwZCdHD+vZVE+FpXizvuKdLWfmseIkbNVOP5OPj8GI05sTt6Gz9xYCecQtL434FQv9nMuoIC9+R1dBlW/FSViyk6eH9WyqqcJSvFlf8c6WM/OYOMlOzQlL9srHx2Dkz6fGcHxuWp1279IIP31HJC4ESK997Wv/3y0EJsEH0icl2Ssf+Ve+4lxDVgeW8lechK3ayZV8VMcMpzeubkNn5/sIvGukA185xH1sIXhxXBo99YGahiwvEBga0Pey72oj/C77vJbPby/LLp78kp3cFabaRpzeuLoNnV1fzHFMOQ6O3yO0SZ9aCBqqR7I3iGJUGJwRrjhny3aOPR81jh6MJP9VO3mTj9c04vTG1W3o7OkegVwHRwuhl/BJWgjeOR8o6Qm/lF0DpnytTHnEG+HinS1789zmrDgJW7WTM/l4PSNOb1zdJr368j6c20ujXsKnFoJPSf1XXQN+1+O9rRH+Xua5Wm+e24wVJ2GrdnImH69nxOmNq9vQ2fV9BMeU5+BUZwResXjnO995FDwqSEF3Za9Aj7WLJ79VO7UknxE2g8O5xjYzjxUnYat2+pp8fBxGnN6cyIYvN8e0+apm+hUL8OOM0EuGTWeE2aK9A6u6iq/89Kisx0n+l7KTM8UaYTM4nGtsvblu8yZOsuOfsGSvfLyeyh9eb07chs7OTz7+0A/9UJd/xOGMkJJpIYAnjhd9H92LT3EqTsIuZT8G6+GApi3lEX+Ei3e2nJnHxEl2ak5Yslc+PgaVfxpTt0uv7hHI9+DFL35xfPv0SVoI6pAPkusJv5T9GKzNhZBq8PqvpVcHlmpInGTHL2HJXvmojhEnjavb0dm5Ryj/M8FqIeiT5VFBXviu7sX3YuzilV/CVu3Um3xGWK+vZ9uqg5PcCU/2S/t4/6uc8Hrj7jbp22cECuA1bG6WR8+WvfBdXQUn/1288ktYslNbwpK98kl9Pds+OrgSnuzUm7Bkr3y8/5U/vN64uw2dfeuMoOScEfwbal7gpXUvvhd7F6/8Epbs1JWwZK98ev28hk3zm3IlPNmJk7Bkr3y8rsofXm/c3SZd7xqp7TmOOL1LIyV/3eted/uuEWTZ2yCXaKcCFXsXr/wStmqnxuQzwtS/a8rRPCY82ak9Ycle+fhYVP7weuPuNnT24VOjaiFws/ykfFXTO+cDJT3hyZ4Gccde+Yww8Gtvo4OrwntYz6Y+JSzZ5Yec4cBr59jb6OzVu0ZHjLQQcPabZcizhcFd3bz45FtxdrDks2qn3uQzwlJfz7SP5rHCe1jPpvoTluzyQ85w4LVj723p+mS5ffsUf7bHHp96ct0jPKLOFyb+ilTByec+ePK9lJ2aU6wRlvp7pt3nuJenwntYz6a4uxj+la/iI9ux97Z0XRpNLYQ2Md9H0M1yi3khl9BVcBWr4uxgyWfVTs3JR/0Z4eKdLWfmMXFW7fQl+YwwjUPlL047tt5GZ9dTI7XlK3l7Rugl5Izwvv59BDrqA6OOX9JexVK+VIPwa8nePLe5E2fVTtzkM8JmcDhs7dh6G519eyHQAc4ITy2ER4PdG/D3Io9PxizmvGvo1YGp/ImT7PglLNkrn1EdwiX9wMemNrn10p2+j+C4/A8bN8up2Cfp0kid8+Jdr/CEXcp+DOTDvzppS3kS/0x7mmvPmTjJju8OVvmMYqre3ti6DZ1dC8ExxUAel0apIP8cIXE82H30VKBi3gdPvpeyU2OKNcLUv2vJmXlMnGSn9h2s8hnF1Hj1xt1t6Oz6gS/8HL+NU50R/KnRqGgF3JW94jzWffDkeyk7daZYI8z7eA19Zh4TJ9mpewerfDQWI05v3N0mXe8aEVc25Thso4XwpNwj9Iq/05GHqz5tPd+eTf4JS3b8djHlvJYcHVjUkTjJfmkfjUWVT5zeuLsNnV0fqCW/eGlEEXyy/L7+DTU67gOTBkL2xK/s98E87zX0mYOr4iRs1U5fk4/GYYSL186vt9HZuUdov6F2h5fOCBShm2Uczn4D1YtSB13eB+/59mzKl7Bkx28XU85ryZmDq+IkbNVOf5OPxmKEi9eOvbfR2XnprvcNNXHLM4JulmeKVlG7UgUl//vgPd+eTbkTluz47WLKeS05c3BVnISt2ulv8vGxmOG0Y+9tdHZ9Z9ljo4v74EUvelH3G2qcAX7xF3/xiflkWQW3HfHO9LCE78Tb8Un5U63XsI8OrgpP2KqdfiYfH4MZTjsv3kZn9w/UPL64cSFQwJP0gZoK9k5I38Gu5TNTozjXlNUBtoMln2SnrxWmsZjhtHPpbXR2nhq1v4atHAcnnREogMeneg17piAF3pFefPJPnGQnTsKS/dI+6kuVT5xrydFcVnjCVu30Nfn4OMxw2rH1Njr71kIgOTtnBBbC2TfKdNyL94FwPXGSfRQ3+SV7Fa/yqfy8f9fSq4Orwqgv4av2KpaPQ4rrnHbsvY3O3j4+bf27l0ZKrkujmYWAjxfgiWb0Gd/ESXby7mCX9hnVMTM+l+RofnsxKwx+wlftVSyvK8V1Tjtf3kZnZyHwa9iOKcbB6V0aKfn786URg9AblB175QPGlnI9Qq/3r+Y2ZdzFk1+yk7/CVN8Mpx1bb0vXd5YV1yWcx84InlifI7jNA1xSV8FVzIqTsGQnTw/r2VTTLjbjL87ZcjSXu3jyS3b6WWEahxGnNyduk85CeO5zn9udc3KVC0GfI4yKUdH3kSo4xaCG9O0ifJJ/siefVb7qrfxWOOKeJUdzuYsnv2SnfxWm/o84vXF3Gzr70572tJsXvOAF+ThpL408sX8xR4VVUr5eSMV3bMYncZKd+KvYKl99qPxWOOKeJTVHKf4unvySnfwVpvpGnN64u0368DVsXwieFF0fqM3eLKt4JVd7Rs74VJyEJTs1JWzVXsXyvqe4zjlb9zlOuSpOwlbt5E4+XteI0xtTt6Gz9941Up6Do4XQJqStp0YtpgCtFM8LaTmpPeNTcRKW7NSRsFV7Fcv7m+I652xdc1TlqTgJW7WTP/m0tVW83pi6Tbo+R0iX13fuETwhuj81aovrteWv5D1Oss34VJyEJTt1JGzVXsXy/qa4zjlb1xyN8iTepezkT7Ha2ipeb0zdhs7Ou0bTN8ueEJ2bZb6P8O53vzseNF60/L0Qxyt9xqfiJCzZqSVhq/Yqlvc5xXXO2brmaJQn8S5lJ3+K1dZW8Xpj6jZ09umF0Caj/f5wacSg+sD4IF/KXuVQvpRL+LVkO88pb+Jdyq68Kd4sDq8dW2+js6eX7pTn9tKoLYi2zgjoLa4ALuF4EY6N9Bm/irODJZ9VO31LPur3CBfvbDkzj9SQeJeyq58p3iwOrx1bb6Oz65PlHv+wVTfLempEsaOCCQbHi8A2u834VZwdLPms2ulj8lH/R7h4Z8uZeaSGxLuUXf1M8WZxeO3YehudXTfLPf5hqxaCLo0gjgqGc5/Ni09xKs4OlnxW7dSbfNSXES7e2XJmHitOwlbt9DP5+BjMcNqx9TY6O5dGeg3bceUqL41+6Zd+6fZn4WcKUtAd2SuujVNxdrDks2qnzuSjPoxw8c6WM/NYcRK2aqefycfHYIbTjq230dn5HEFPjRxXrnIh8Pj0SfnyPgX3OnDbkYedTVvyu5SdvCmWahrh4l1Djg6uCk/Yqp1+Jh8fgxlOO7beRmfXd5aJ7bhylQth9WZZQXdkr7g2TsXZwZLPqp06k4/6MMLFu4YcHVwVnrBVO/1MPj4GM5x2bL2Nzs49gn7FwnHlKhcC9wjvC99QozO9zt128uFA9Lbks2ondvJR3hEu3jXk6OCq8ISt2uln8vExmOG0Y+ttdHY9PlVs52A7FkIvGbanbpY1bI9kO3iOVph4Mxxxz5S9+fZ8FZ6wVTv5ks9sLeK14+ptdHY/I+DnnKPNU6O2ILVXX7FQYTuyLawXo+LsYMln1X4M5MPBrrYUs/I5C9P8pvgVnrBkJ0fCkt3rGnF649raaOvxqTBJ5eqeEZTcf+lODmfJtrBenoqzgyWfVTu1Jh/1Y4SLdw2p+U25KjxhyU6OhCW71zXi9Ma1tfGiXXtGIIfzyoXAzbL+xxwv7gzdi0rxK84OlnxW7dSbfLwvMxznn6WPDq4KT1iy04eEJbv3e8TpjWlrYyE861nPuvm+7/u+x+ZJ3PeZhaCCfZBcr/CEXcpOHSnWbI3OO1sfHVwVnrBkpy8JS3b1f4TD6417a2Mh8NIdP/nY+ogbFwJF8IrF++uvYbcDcozQe/7R4Lit4o8wxUlxhV9Ljg6wCk9YstOnhCW7xmGEi9eOq7el610jtVvfciHocwScZotSglXZFtj63wdPvpeyU2uKpX6McPGuIUdzWeEJS3b6k7Bk1xiMcPHasfW2dN0jtF/MEf7YQvDkukeoOqNi7itVUIpzHzz5XsqumlM88AqT/7Wkz3EvZ4UnLNmJn7BkV00jXLx2bL2Nzu7vGskPKW5cCBTxmte85uZd73rXVX7pzovyQqWrYLVbmfBkx38Vq/ijeDM4nGtsowOswhO2aqefycfHYIbTzou30dnvtRA4I1zrk2U67x3wwRhhFb4bs+fXs3md98U91pn66OCq8ISt2ulf8vG+z3Dacfe2dL1rpLbnwFaeEa55j0BhvSK9YK7v0sAk32Qf5ev59Wxe331xj3WmnsZQOSs8Yat2ciUf1THLacfd2+js+qqmx5Z+cH78x3/8zv+P4MXpXaOZn3NR0F3pxacYFSdhyU6OVWyV3/aj8m+5Z7Z9jnt5Kjxhq3byJh+vaYYD38e21Wnr8aljyoPtgS8ET4qux6ezC0H+vWRKmuSMT8VJWLJTxyq2ym/7Wvm33DPbmqeUo8ITtmond/LxumY48NuxVRvJnu4R5Du1EChmtiDvxIquwiufipOwZNcApHw9v55N/hW2whH3TDmay4QnO7UmLNkrH+975e+8dvy9ja5LI7fLH9v7/UKgs73OV/aEpTiJj923yt95Z+ozB1biJDv1JizZKx/vf+XvvHZsvc29pb6hho9jilEuBN0jQF4paJarIpC94hwfcSr/hCV7yrXKX6m/5Z7VnpmbxEl2ak1Yslc+6nvlK45kOzdqI9n1gRp8YfI9bLpHaJPS5u3Tv/7rvz74Le5B0B3vJWr5bXvGp+LsYKs+q/ydPrY+l277PKXYiZPsxElYslc+qqvyFUeynRtvc0bg8ekP/MAPHIvAsVv/aiGsfo5A4b0kSjaSI98K38GST7JT/xnYaFwuic8cXImT7NSXsGSvfNTfylccyXZevN0uBHwcP9rVQvjlX/7l41csVp4atQlU6Iwc+Vb4DpZ8kv0YsIen2bTt+qV4Z9hnDq7ESXbqTFiyVz7qd+UrjmQ79t5mIfD/Izzvec+7XQCOE+P2HqFNSlsfqOE0uxhU2I5si2tjVPgOlnySnXrOwNp+ntlu57mXK3GSnRgJS/bKRzVVvuJItvPibXTdI7T2W//qjKCb5dmC4HkiJZmVI98K38GST7LTjzOw2fG5BG9mLhMn2akrYcle+Xg/K3/ntfPibc4IfI6gX7GQn3O6ZwSSs7MQ9LtGck7SC/YEid+zj/wqfAdLPslOzbvYyLc3HmfZfK56ORKe7MRIWLJXPl5T5e+8dl68fa+FQBJdGs0WI54X4cWO9JFfhe9gySfZqX8XG/mOxuaSuOapF7PC4Cd81V7F8rpSXOegt/PibRYCH6j94A/+YOSVZwQthDZpaqtoLyJxe/aRX4XvYMkn2al5Fxv59sbjLJvmqY1P30b3gsl31U7u5KO6Rrh4yHZevI2ux6csCt/Ee2whKDlS7xrJ5gFa3TkK3nKq9oxPxdnBkk+yU3/Ckt37PMNx/hm6z1Mv/i6e/JKd3BU2g6v+3rjKJqlPltWWLxJbuRD8cwR37OnqVC9Rj9/aZvwqzg6WfJKdmhOW7N7PGY7zz9A1Tyn2Lp78kp38FTaDqw+9cZUNyd67WXb/YyF4QdKRO2cEFaAks3LGr+LsYMkn2elLwpLd+z/Dcf4ZuuY3xd7Fk1+yk7/CZnD1oTeusiHZeXzKr1i0l0bEODg8PvWC0NXml+54xUJtJU5SPBWReMk+8qvwHSz5JDt172Ij3zQmZ9g1Tyl2hSds1U7u5KO6Rrh4vTmRDcnOQuBn4dmEuX95Rlh5fEpQFd4mUsJKzvhUnB0s+SQ79e9iI99qbC6JaY6qmBUnYat28icf1TbCxWvnxNvo7Fwapf8f4eD0zggq8qmFoKF+r/RBfq/1kVZhMEZ4G++M9szBVXEStmqnb8lH/R7h4rXj6m10dp4aff/3f/+hO06Mg+MLwRPzGI3/MUc/8KWkSbpvmyj5tPaRX4XvYMkn2al3Fxv5tmNxVtvnKeVInGQnTsJW7V5T8nUOejsn3kZn1+NT+T7GqRYCZ4Sd17B7yWSrpBfX41X4DpZ8kp2adrGRb6+/Z9hGB1eFJyzZqT9hya4+j3DxkO2ceBud3e8RWp+DUy2EX/3VX71561vfGjvjxfQK94Kcm/QRv8J3sOST7O0Atv2o/Ea+bayz2r158lwVnrBkJ27Ckl21jHDxJNux9zZPivTUSHZJ/NHv3Cx7cl0azfyukfupMCXw9kj34nrcCt/Bkk+yj/pU+Y18e/09w5bmSrkqPGHJTsyEJftMHeK4bMfe2+jPfOYz7/watuPEKRcC31D727/92yNfVXiLtUm84Eof+VX4DnYtH+9zldN5Z+ntXLV5dvDKJ2HJ7vXMcMRvx9Xb6Lo0au23/j/2Yz92/K5Rm5QzAl/Mmfn/EVpfT6ZEM3LkV+E72LV8vO9VTuedpbdz1eap8IQlO7ETluxezwxH/HZcvc2lkT816vk8SAuBImZfsWgL9iKUdEaO/Cp8B7uWj/e9yum8s/R2rnp5EmfVTuwdH9WUfIW7bMfV2+i9MwL+4sWF8O53v/v4PsLf/M3fxM6okLZgBRc+I2d8Ks4OtuPDX5e2v+pfFW+FI+5ZMtWvfAlftRNvx2dUh/BW+vi3Oi/d8Rp2+4qFeHEhcGnEu0a6WW6TervtrII7Z0Yf+VX4DnYtH+97ldN5Z+rtfLW5Er5qJ+6Oj+pJvsJb6WPrOgc/nyz33jUSLy4EiuDSiG+osSiqDS4BJStuwlRQwrFXnB1sx6eqo4qnfs1wxD1Ljg6whK/aqX/HR/1OvsJb6WPrOguBL+bwyfLWGUEfqI0KYqF4YtfbYqv2yK/CL43txKt81O8ZjrhnydF8JnzVTv07Pup38hXeSh9b1zn4uVnmPxNcWggUwD67EHoFeyFtwak98qnwS2MpXrLTpwpTn2c44p4he3PV5kmcVTtxd3xUT/IV3kof21bXB2qnLYRUrBfSFpzaI58KvzSW4iU7faow9XmGI+4ZMs2XclV4wpKdmAlLdtVR+TrHdR9b1zn4+UDtu7/7u28+8AM/0F0OHW73HoEi2WdullOHvJDHMheGyq/CCNnDezalT1iypxyjeLO4eGfKNF/kpN/V/WDyTXZiJizZ8dE2wxG3nTNvo/vnCI7hT/uxhaDkSBYCb59Wm/gtp03W4qld+VUY8RJ+KXuVY4TN4HDO3tJ8KW+FJyzZiZmwZFcdla9zpLdz7G10bpbTb5+Cx4XAXwY+WWYhtDfDSj4q1otxn0qvfCqMmAm/lF05mMRezJ6t7esMp/W5ZPs+B2DyTXbqTliye19nOOK34+ptLo24R2AhoDuGP+1yIbz+9a+/edOb3hQ7Q5Cq2DYh/NFW+exg1NfeIKmGFC/Z8dvFRjmFny2r+VLuxFm1E2/HZ1SHcJftvHgb/V5nhDe84Q03b3zjG2NnKCR1FMyLoT2zjXwqPGGXslN/ijXC1PfKX5wzZTVf5K3wHSz5JLv3fYYjfjuu3kZ/9rOfffOd3/mdj/76P2z7Bl6eEX7nd37n5o//+I+3B8eL8cSVPvKp8IRdyk7dKdYIU58rf3HOlKODq8ITtmqnf8lHfR/h4km24+ptrghYCM95znPWL4141+g3fuM3bt7ylreURVcFezEqeCRHPhWesEvZqT3FGmHqd+Uvzpmymi/yVnjCVu2jPDM4HN/acfU2Oo9Pv/d7v/dYCNTb4uUZge8jvOtd79oaHIr0ZF50pVc+FVblS36rdtW961fVqNhny3TQKm+FJ2zVTq7kM1OHOC7bOfE2ZwR9siy7JDHQ40LgjMDvGvHFHIp2Ry+g6lDycf9Wr3wqjDgJT/Ydn51Y6mPlK87Zspovcld4wlbtozwzOBzf2rH1NgtB7xrJLkkM9HIh6Btq7uTJ0dMggFV+4L2t8qkwYiU82Xd8GNTU5ypPlQvsWluqXfkrPGGrdnIln5k6xHHZjr230f0DNfnd4fgXc7w4zgj8nMvb3va27sfSCuY+skl6ItlGcuRT4TtY8lm106/koz6PcPHOltWc7WDJJ9npX4XN4L0x8vF1nT9ez3jGM26+53u+586jdOfcOSOoOCQforEQ+Bzh6U9/ei/vYZNPj+CJenjPNvKp8B0s+aza6UvyUT9HuHhnymq+yFvhCVu1j/LM4HDazcfXdd4v4tKIheDvGjnnWAjqiEsWAt9HePOb33wsBHfyAuTjNteTn3NcH/ErfAdLPqt2+pB81L8RLt6ZcjRfFZ6wVTv9Sz7q+wgXz2U7vmp/0Ad90O1C4OzgG5xj59JISV1qIfD4FOcP/uAPPvzhKAEG+Xhw1+G2Po63usduMdoVvoMln1X7qLYZHM7Z22i+Kjxhq3b6mHzU/xEunqTPFzr+snHs8r9q6hUL+SDFKc8IvHTHPcJ//Md/3PCdz3abKVaJWt/UHvErfAdLPqt2+pN81NcRLt6ZcjRnFZ6wVTv9Sz7q+wgXT7I3ttjYuRzi8p5vqPmlEb7yKxcC9wj8nMu//du/HSuKU4xvM8UqkftV+ohf4TtY8lm106fko/6OcPHOkjPzVXEStmqnf8kHjHHiimR1a8eXNjsHP2cE/R9qzpM+XAh8ef9f//Vfj8L9rFB1xDugRG6r9Bl+4iQ7+RJ2KXuVQ/1NuYSfLWfmrOIkbNVOP5OPxmCEi+eyHV/a2jl29VVN50m/XQhKLMmK5NKIHwHmjMDjVFYVZwVxvIikK1HCW/sMP3GSnRwJu5S9yqE+plzCryFHc1fhCVu108/kM8KqMWrH12+M+RUL/ZyL86THhcCBz/cR9CsWLAYWB4+hqk60hSpRa0/tGX7iJDu5EnYpe5VDfU25hF9DjuauwhO2aqefyWeEVWPUji9t2Tgj6FcsZCOW9OmFwA3zf/3Xfx1PkPiSQ9URL1aJ3FbpM/zESXbyJexS9iqH+ptyCb+GHM1bhSds1U4/k88Iq8ZI46vYfmPMJ8t66U48YkmPC4G//tws64zAGeI///M/j8XA6vLTzkxxFccxFeY21yt8B0s+q3ZqTD6qf4SLd6bUQZJyVHjCVu3kTj4jLNUtP8aY2Byffoymb6hpTuJC8EsjFf3v//7vx0IA4yPrmU2JZrhwRvwK38GSz6r9vrXPjs99eJrHKkbFSdiqnfzJZ4RVtTNnumrhbOBz6PcIxBB2K/WBmgqT5GD/lV/5leMnHzk74IBsL5GqwjzhiCdchandygrfwZLPqp06k4/6MMLFO0tqbqv4FSdhq3byJ58RVtXOImDjgY7OBow5OwvBP0fQXNzKaiFwadT+97JaCFwmcYnUfrbQFqpErT21R/wK38GSz6qd/iQf7+sMx/mX1KuDT3kqTsJW7eRKPiNMdbpULI5JzgQckz7OLAoujXh86vcN4iDjpRGri6dGvhCUkEskzhhwdImkoF4gerK3PLVH/ArfwZLPqn22rymu+n+m1PxVOSpOwlbt5E8+I8xrJ4bGk2OSg5yDvv3jjI1PlnnFYmkhkED3CL4QVAQLgJ0VyMYjVRUkjmSyC2/liL+LJ79L2elHiuV9nOE4/1J6deB5joqXsFU7+ZLPCPNapbMIGFcWgA50H2d0jlGeGgnHVxzkcUbASGG+6x6BhcC9gW/wWAQ6K7DiuEzqbWBVp1sfFdfa1d7Fe3492ygPPvSn59uzKR5yhDv30vrsHFS8hK3a6duOTzsmxOAPMscnB3h7SaTxRuo1bD9bOD5cCDw+7RVNcl8MJOCGRMFVdNuWPckRfxfv+fVsqithyY5fhc3gyn2G7M1hL0/FS9iqnbw7Pm29HH8sBC0C/2sPV/OB5NjU26duF+/2PxPUX31JEvDUqHdppE4guXnmzMDO665ciymRkiBnN/ft+eziPb+eTTkTluz4VdgMrtxnSM3ZKHbFS9iqnRqSzwhT/SwCdg5+jjvGnqsP3zQfyO2FwIHN/7Pc+x9z6AQ7CXR5dKnFoOK9Q67v4j2/nk25Epbs+FXYDK7cZ8jqwPN8FS9hq3byJZ8RBq4zAQc+C4GdsW/HX214eg0bXQtG+OGr/3CcMwHFqcCZMwJFEYTCtBCQ7WWSEsIfbTPcxEl2cibsUvYqh/qccgk/U2peRzkSL9mJl7Bkr3xUX88XG8clx5svgvbAVgyNN3LpjEAiFTC7EJQUPouABYVklfK2qlareCOp4ite4iQ7sRK2at+Jpb6kXMLPlJrXUY7ES3biJSzZKx/V1/rquOI4Y+O4YgH0bn4VQ+ON9M8R3A6X9p17BJJr52Dm0qh3s+xFoh+BHgbjfkEF68zA9RvFKrmKTHKGlzjJrs72ciafZN+JpbxVTHHOkj5nVY7ES3ZiJSzZKx/V5r4cUywAJHZfBLRZEMh2fNVG3mshjG6WVbRLnRl0dqBoFgK7TmHO7+nqQA/DlvBk3/G5ZCzvRxXXeWfofnCl+ImT7MRJWLJXPqoLX3ZfBGC+CMSVbMdWbSSXRnrFQnb80I+9d49AARzIOwuB4Fq9WgwsAHbODnRktHmhPW7Ck50YCVu178TyPqR8zjlLrw5M5UycZMcvYcle+QjDV8cPko1jSH9YD0PzTzu2aiP9k2XZcUc/di0EEuvUg87BzEJo/8PxqnNeF8Vrx0cJtRi8GPdTca1NbWKlM8tOzOST7FV9lY/qn+GIe2k5M3eJk+zUmLBkH/lwHGrnGGLM2KtFQMx2bL3tnyy7Hf3YX/SiFz2s99EiaBcC9wjt5whV5yjGN+Lp7IDO5qe2nQOaGN4R2tqSHTxhyb7jU8WaqVGcs+TM3FWchK3a6V/rQ1t7uwg4Ttj9xrg3Ru34e5s3H/ylOzDhh14tBF0aedK2A471dPhaDOooiekYi4JdBcm/bcsumfBkxy9hyb7jU8Ua1S78TDkzdxUnYat2+ug+6Oz89UeyENA5RhhTriLQR1s7/mojuUfgXSNisWFz/EFaCDyr1RnBC/AOuH2kazHQSWKoEF8QiqEC1W5lhSfsUnZqWY3l9Sdf55ylz8xdxUnYqp3+yUfHg6QWgy+C2TFreWojOSPw38vqCSY2xx9bCCqIA/fXfu3Xbh+fykkd2JksYhOXGIqjgui4F1nFVy09TsIuZSdnijXCZnA4Z20a8yp+xUnYjh0fjgc2P+Y0thwLo0uhXj/kDyYdyT3Cd33Xdz12jIEd+4tf/OL/oRDfKZIzApdG/P8I2lKHhY8kCcnDqlfnkVr94DpDINMGL20Ju5SdvCnWCJvB4Zy1zcxfxUnYrB2eds0/fdUfR8ZVfxCr+a/Gx+dGOlKXRu0fW7Bj7y0EiqS4X//1Xz9ulkmsDlRFzGAqjsWgAdBAqvNw0HVj3cZVjNZOO2GXslc5RtgMDuesTeNcxa84CZux68CHqx0bxwEb882ua/iqxgrzeZaOZCHwa9jEp+0Y8R6wEHRdRmHaOSNwacTjU22pw8JnpAqASzwWAznZkOBaENh0M43U5jFkk0zYpezkSbFG2KhG4WfJmfmrOAnr2WVDMq9I33XMMZZaAEj57Y6Bz410JJ8s6x6BPI6R61gIOviRFIhkIfzmb/7m8fYpTurEboHyUwHeJqefHcjVFosfOysavI3j8aS7vBSfmCnWCJvB4Zy1zRxkiZPs1NrDmFN2xko4Unb9YevdC4i/Mw4+N663r1gIu5WcEVRguxB4asR/Jpg6e99CW38NEvVoMHxBiI9NZwp1RFjbvrSdeCnHCJvB4Zy1aUyr+ImT7MQShuQPGhtj5HbNLXZ25lCXKYfDe/6Rj9tWdJ8b6Uh+4Iv/Z7l3j0D844xAcgplIehShTMC/72sLo3uW6A6o+LU7knVoZy0/QmCYoAzoOocsYS1cS9lr3KMMNWUahF+ltR4VvETp2eXDckLl8yD29B1PNFnduaLt5KrTTEqTsJ8bKUjdWmkxecYscqFoDMCTvcpzotWAW5LuhYnuZUffwZTm9fGRID1cvRsxFi1Vz4jDJwt5XyEnvevxrDKUHEc0194Ymk+wLULF8YZXAehx+nVMsJ7PrL52EpHshC4WdYfTcfw7S4EOqGb5b/7u7+7PQiV7L5SRVRxnEM9/GXBxtmBDV2DjM7gSaLTYV0+KQ94u/VscJL9PphyV7HFOUPOHGA9DmNOzWD85fc/NtiEaZ40RtjZeeFNWy++MMkZjritJJ826aqBVyyWFwId5qnR3//93/+fLwR1jAlhsJEaLDrpEyMudi0aFoQWhQbHedJdtrxLYLMxnHdpXQd1L67GFAydnfFmZzwYQ23iak7gsMFjPuBy0LWb/Fq7t2c4znfd5811PlDTUyPswm5l+zkCf3npFAuBS6N/+Id/uD3oPOF9dCWvYlQcBkrXnsTQwOHDJLD7hh2ODgJfGOJ5PrhtDPEknS8bMtmds8Jr/e7b1lgpjrfR2Zl7pP56oqtf4miB0GYDZ8y4/NGCEaZcksk+i4uXpGoFR2ef+hyBA0S7LwSdEQg4Kh7O7OaFJp8ZDr76i0R92rFrQWggsGnDxkTCR2finO886a1M9SX7rH/Lu1Rb80d9GiekDmjGkTFgLNQHJHaNE1z/AwQuHy0ar1c53Yae7COsjZPaqh8cnZ17BF6x4EZdNuGHbB+f0lF2/irwyfKTdGlEwb6pQxpYTaraSHYd6OJ7DOnw8NeGjyYXP21J7+Gy9aTH6eH3san/HoMDWnO7Mibuo5r94CcH7V7Ong1+so8w8JlNdcJFZ+fx6Xd8x3fc3rCLcyt7C4EDgv8h53d/93dv3vrWt87kXuaogOR4X5w+6K8Zko0JYNK0ew7XVRN+ioENjhYVMWi7n+viK1YrW26LV+3egYSNXTWr/6qRutmrTf48KPE/CvSVjT8MevJDu1cHdm0JT3b8KkxxK9mOq2pnITznOc+5PSNgJ5f48akRC+GP/uiPbv7kT/6kyruNqYAUYBfv+emg8MnVgMNnULRTTy+G1ylf4qEjFQcesdRGtrvHSrpyIH3XwnQb+bRAPb/Hhg8PySZ/aufAV5ta2ZDE5OBH0pbvQXj4T9uWXTLhyY5fhSnuSKoP8NDZP/ZjP/bmW77lW46FLPsd+ZKXvOR4+5QBYZCR7CyEv/zLv7x5wxveAP/imxfbC76Lt34MbGvzvpK7HXwmXpOPL7viSPeaPX4bC54OXvn0OMIkFVOLirZ25xBbXLdjE4ZUDW3f4VEPedj5iy9d8ZC9mnu2kU+KJb9RTPEq2Y4H/fn8z//8m6/6qq96bCEQB/4DLQQGiutBSe4R+Jom7xudsbXF9nJUnB2s58PAs9NvDhLpcDUp8tMBIim7pPehtbWxWq7w1u5tdOL2uNjYdcB7f5yvupD6i6/+EN+5tLVdyk681ViqYVaqj/Clf93Xfd3NZ3/2Zx9nOMURhryzEDR4uln+l3/5l5vXvva18ruoVBFV0Iqzg836MFGMBeOgSaOtTTa1kcTmwGLT2YQDTJtyI/FHtjZxe/FloyY2Fq1L4YpJW/mROuhV4+Fs/8jfTHfUhK/aCbrjc6eYQUNjIBr9/7Zv+7abj/7oj76dIzDxkN2FwCBz3ch/NP66173u0OWk4PeVM/Eqzg626tPymUB2FgW79HZi1Ua2MTRu4jhe8eUHv+Vh08GOpK0Dvo2vOD2pmlaw5JPsxE5YsvfqqWzeZ40NnyrzWUJvXOAcC4ECNLksAi0Ezgi//du/ffvlnNnkFU+YFytbKyvODpZ8kp2Dqp0c2vCTD33Q2QOu+Iyp2m0/abfxyC278kkKOwjv8SV22irMfSpewlbt5Nvx8TpHejuWH/VRH3WcEXT/g79zjnF96Utf+thXNZk0TsGcEf7sz/7s5g/+4A9GuQ/cg884jPi7ePK7lJ2+pVgjbAaHc8ktHXhtjoqXsEvZqSXFauucaWt+kF/0RV908+Vf/uW3j07xd/xosxAogL9iLACdGVgIPDnipbvXv/71t9ekoyKUYMQ7kj8sstpGsRJ+tn1Ue8rvfZ3hOP8++uwBVvESdik7/UuxdvuuM/o3fdM33XzSJ33S7QekxNP438qXvexlt2cECtFiYCHw5Oif//mfjydH//RP/zRdj4KPHEa8XTz5XcruA9nrY8rTcmd5rd9qe+YAG3ESfik7fUqxVvsLX2PLm6/f/u3ffvyKBZ+JaBN+K1kIFMACYNNCQHLDzEJ4y1vecvP7v//7t4XKWUFbOcKdP+JWeMKSnbw9rGdLXNWefEZ+8l/huc+OPnuAVbyEXcpOv1KsnT7jwxxxWfQlX/Il5Y3ywX35y19+e0bgsohidJnEYuA+gTdQee9Ii2VUWHWQtL4jboUnLNmPDncuxxI/2VMc9a3yE2cUw3n31WcPsIqXsEvZ6WOKtdN/5oBLo2/91m+9+ciP/Mjy/oD4D1gIFKB7Ay0GnRm4T+CyiFct+KR5tthLHQxVnB2s59OzHYPTWTSalOQz8pP/Cs99dvTZOat4CVu1c3ylsUuxdvqMzyd/8iff8EEav3KnFyixK7/kYXvFK15xnBEoQotBOouBewUuj3gLlU+Z4cxsnqTij3gVvoMln569Z1NfdjH5I6sYzruvPnuAJV6yU1fCLmXf7TufF3zjN37jzbOf/ezjFWzaGu+efMBCoGidCVyisxD4D53/8R//8Tgr/MVf/MVtwKpIJas4wirupbEUr2fv2e5bs/yRVXzn3VdPB6XHrTg7WPJZtXuNK/qnfMqn3Hz1V3/1cZPMdxD8sxeNu8sHr3zlKx/Wdnch+GLgrKCbZu4VVs4KFK5kVScqzqWxFK9n79nUj11sxl+cS8h04LWxK94OlnxW7W2dM20O+m/+5m8+7g24LBqdDYh5uxAokN0XAW1dHulege8n8AGbntGOCqsOGPlWnEtjKd6q/Ri8cA+RYqm/la9zLqGnA68XO3GTnRg9rGdTvoQlu/xmJDEY+y/4gi+4+dzP/dzjbMDjU71WQQzNzWNSZwRIBGL3xYDOYtBnClwisRD4cWCCjTqghMRP24iT8GQnT8IuZd/J4f1PdTjnEvpofjxH4iY7vj2sZ1OehCW7/Gbls571rJuv//qvPxYBX8/UaxXE1+WRj73044xAEoi+azFgQ+fyiLOCbpx/67d+Kx5sbdFK1trV3sUrv4Rdyk7tq7HU38rXOZfSmcPRVnEStmqnhh2ftnZitGOvuN/wDd9we0k0ezYg/oNXvepVD2Pc/dYSbXYtBp0V9ASJx6lvf/vbb/7wD/+wrbHbbotuSbt45ZewS9npw2os73fydc6ldM1vFY857tVU+SYs2cmfsGRva048av/iL/7im8/4jM84HpfypqkemapfSZKjuxAAGBhJkmsx6KzAJdKb3/zm47MFErBXRR7Bin9UZI+SsGQnRsIuZd/J4X1LdTjnUnqaF4+fOMmOb8JW7VUsr7HHYxzJ9wmf8Ak3X/ZlX3ZcEvEbRlwSzdwkK/5jC0HJCN7ueoLEp81cIrHzQVv7P28quMvRxFd4wpKdvAm7lH0nh49H5d/y7ttOB6bHTZxkxzdhq/YqVlUjeZhPvpj/NV/zNceZAJ1LIj8baM5bqdjYj4WgQjDwl18dQba7bpz5rgI7j1Tf+MY3HotCiZTAZYXBq/AdLPlcyl7VnHL4eFT+Le++bc1nFSdxkp1YCVu1V7G85jYubR6P8nnBM5/5zOODMy6JdIPc3hxrXiSJLf12IagYJXOJrjYLRR+y6azAZRIv5fGm3VQxAAAOBklEQVRkyYMfjff8o4Ruc73Cd7Dkcyk7tadYI0z9rvzFuYTU3FWxKk7CLmWnrhSrrdl5HOhf+7Vfe8OTIp4QsevDMzCNL9J1j3lrf/WrX/0w9ntvlr0o2Tn4caCNrsXA/QKXSdw8s/NYlbOEVqInRFfS1n4Gtpor8ZP9PjWr/1VscS4hNY9VrIqTsLPtvXqVk7/6X/EVX3E8IdIi8EsiHYOMsY+z68RX+8HMQsCBAlSELwYWAgc/Zwfk7/3e78W3VJWUeO22ixGn59uzKWcP69lS7CrODLbCEfc+UvNWxag4CTvb3tZLPnau/7knYAFwaYTUItANMvOpOW2l4spOu7sQANRJSdnU1mLQl/xZBFoQnBk4W2jDxwuTvZVe2CWwFK9n79moIdnvg3nfqvjOu4+uOUsxdvHkdyl7Wy9xOfC/9Eu/9LhB5n6AnUWgp0Srl0TKcWchYPROSJd0HJsWA/cGnBk4+LlEQv/TP/3T441VJUKOJr3Cd7Dk07P3bKOak8/ID1xbFUOc+0ifuxSn4uxgyWfVrno5zjjAOdi/8iu/8nhEqkXAPUFvEbQLQrGQvTE/FgKgFyldssJ7i4EzA4uBb7a97W1vu5O4VwTx2S6NpXg9e892Rk1HR9/zT8rpnPvqPodVrMRLdmIlbMWeuF4rnI//+I8/3h/ioNelEIuByyQuh/ySCF/GVuMrqZht++Bzj4DiBc3o8oHL7p8xcGbQYuA/I/TfT+0VQSxtFZ6wS9hXY1Bv8hlh6usKz31mdZ/HkU/irtrJ0/Pp2VouHB9T2uyf9VmfdXz5nr/+uhTS5RB/+bUI0OH72YAcHtN1x8ozAkQ2gmvr6djYtRhYCL4YuFziZ2GwtYUormSFJ+xMe4pNvRU2g89y4O1sPleVf8VL2Nl26uWv/+d93ucdT4a0AFgMvgg46HXgMx+ak1aq/7K37e5CgOQddb3CdJmkF/S0ILhM4ss9XCq94x3vOGpoCzqMD/9JdvCEnWlPsat6Rhi4tiq+OLuynbcUp+Il7Ew7sfl5Rn6rlMsgDn6dDVgc7FoAWgT0jbHUeLqufgvrteNCgNx21ttJ12LQh24sAN1Io3Op9Od//ufHjbYKctkWO4Mln0vYUwzqqrAZfJYDb2fzOUr+I04P79kUP2Gzdq75P/MzP/Pm4z7u444DXn/9tRh0T6AFIEl+zUcrVZvsvfb2QiBY2zm1kSwIvY6hMwJnCC0Mzg58p4GNAvFpCz1A+yfhZ9pTbNVt5d1RKz8nzvLcZ1bXfIz4Fa+H9WzKkbCRHZyX5b7wC7/wOAvwV59FwIHvi0BnAsbNd/JrLJNUjc6V7XYhYOgV29pGbcWBx97eN7AQ2HnkyqsZb3rTm44zxm1BDzuYNnWwxc+0p9jUsIt5/VUM5+3o7Vz1Yow4PbxnU+yEVXYOdm6I+aK9H/QsBtpIOO0iICc2No1jKx07iMZV++DoqRGNqlh36vHc1uosBnbdM7AI2LUgeHuVV7o5i7CpM57zSbTv1DTbp5a32vY5qHxHvB7es5Ej2SuML9l/4id+4u0NsA56XwA8FdIiIJYf/BwrOl5aCVc2dLa2/cj60O4LAWOvMzs290HXpZJupLUItCCwc3bgHkJ1tEW37YP48J9VO349n54tcSv7CAPXlnIK35U+/lWMipewFTv9gy8ftXld+nM+53OOT4o50FkAWgRIFgJ2PRrFr7fTN9nVT9raXMfWtm95P/ETP/Gwxv7jUZGQzhnZxZWUP212DnotgPbswOcP/GQM9xUU7TFiJ6zjXhv6is8KV3l2fORb1eecVd3HbORbcRO2aqcGfBgrXQbxU+3o3AfwFx7dF4POAviknbga/1Y61uq02+1BuxAgrHa05VdtMHbdO7AQuGRicWiBIPkVbs4Q4PA1GG0HaGsQVrDk07P3bMqVsGSXn+QsT/wZ2Y5/5VNxE7ZiF5cD+1M/9VOPb5LpoEf6zkLQAvBLIcao3emTxq6Vjqnv4qjt8oi9shDkrM6pjWxtVVsYl0s8ZtUC4HIJXRKM+wf/qcleh3o21Zaws+3kTzlU2yzH+TO6xve+3BRnxg5H/ec+gK9S+nW/LwDpugzq3QMQS7uPm3K4rdJ9TO74shAA2861bQ+QsNbetnt5dO/AGUKXSSwGLQ5sLAjeWeIHA4hJB5CK7wMnm+r1zsqGPNte5fA6VnitX6/d9r/HcVvFT1iyExeMnTnhv3T99E//9DvX/hzsOvAl9dcfqXlBtjvxHe+13dbqtH1TLGzHpRFK27m2DafdepwZW8uhza6nSxz8WggsAi0QdP6nTxYEl1Ns6oxkW+P/ld1ra2tq26nGljfTbse28hlxE96zY2Pn4ObHd/lAjDOADnZJXwi6DKL/2qlXukvZK+lYq9PWRtx2iwsBYq/DbYAeBxvJHHNdMdyGrt0vmXR2cMmC4Gaan5PBro5Jqnba2j0XuHNVzyXtVSzPJz3VI3xWtv2s/EZcx1UfNuaHNjqSP2Bc3/NeEN8dbg92FoFsyN4CII5y9HRs5POzP32TT6X7GDj/jl2XRhi94yL1bMIke5yeDX5r77WxseuySYuABYDukg/l3vnOdx73EkyIDyL5YscfDmxvuxS/yr2St8etbO143ofbiyWbFsPHfMzHHJ8DaAH4Ae8LgAPYFwB19Q5qzZ/mQW34bqPN1rO5/SDZP+Kb6VBvzwi01Ekn9WyOS0+8GXuPIxuSA5yBbxcBbTAuneCxKPhCEG+7+qCDtQPQttWPS9mJl2IpV0/u+HgcjZvbkl5xW4w2c8DOt8Q+4+EPafEfcHCwczbgoEanfqQWgeYBXH1DzujULa7z1Z+eTT7iuBTfbdKHC0HEdmBkd5k4PfuKTVxNBGcE31kMfpbgqRP3Ejxx4udmmASfCGpOg3Ipu8YlxRPeylV+66+xau29duLKjtSY8wEY1/3cAOsdIP/rz/jqoNcioC/Y2dDVN5czeuuvNpJNMR61Hm/3OOJK3lkIGDUIIrissBlez79nI1bPjk07E8QC0CLwhcGZQhOInf/khFc4+GyCQdOEMUltnnZQ1a9kB9/FFNtlFct5SW/7k3jkYYzaTWNHHA7+T/u0T7vRh18c4IyZpMZRBz5t4sJBqi892bNRy8hPHNWtOKnd8sVr5Z2FQFAdaC3R26PBrvAe1rORr2d3Gzq7LwgtDC0ULRDa6Fw+8dYri4JLKDYmTpOH7G3tgDtnF/MY0qtY4lTSx2fE0x8Lxgw/Lnm43OG7ADr4GQ8OcO0aK18M1KxFQE71AUlcpPYWb9vu22LeRmcTv9UPsMFl68k7C0GElcGUT09WcRLWs/dsyicMqQn1xcDBD4bE7js2foaGhcEXhngSxaZJlfRJVF6XPhluR6+wlrvD9xgaC7dJV785+OGxc23Pd4HZ9T1g9RnJrj8Q3pZdGLHQtXmf27ET5vaejVjYR7GVU/y2rRhud/02tz81cgIFzGwjXoVXGLlbvG17fWDCpeus4FK6DgxJ2VkMnCl4+Q+pT7k10UjtDOLtQD7Ue5vwHtaztXz60tpoq4/EUL/pAzp9Eo7kwOWrjrzvz6vOz3jGM26/+eV90QFOfHRJOMLQ2VRTKw/Q8Jbb8kft1r8X3zkJl11SeW/baSGIoEFWu5UEZAKqbRQD38Tp2Xs25W8x2jpAdLC7dEx2HUhqc93MmYNFwv0Gl1d8oAePA4McjIMGV9IPGmxqq1ZJ8Wl7/apdduWhLrfJh8sVPsTiQOdxJpc5urElN2cANnTtOuDVVp1qS3qNrhPP2z1dtlXpseXrNnQ2x3rtg/Sef1qusAc/+ZM/+XAc67/+I5xgZ3JS7GTv1SMuUge/dLU5sNHVli6Z+CwKHuGyUNB5g1affMvXY6qW20l4uEiwMUmSHIBsHKiS6BzoHNz6hTf+0usTXA50YrDjL6mDWTbiSUfqr718XR7J3/MPdt+8PdKFjyTxW06yuR1dm/zVbmUPn1oIBGonrw2u9gzvPpzKdxWD3+46YLH7mYG2Y96W3cdJNnhstNnkp8kQzgEJB8kGzgHqOHbhLtHhj3bxiCuubMqJZANPW4up3co2Drg4jlW2Hqa6HPN4wlvZ8h0/FgIGDbiDrT7Dkc+IO8Jn4qQYyV7FdB/0tPsB7ge3/OVHrtYmjAkR5pPT6mpX0jHpOrhps3ubusSTdBt6b3OucLf1dNlaiX9lW8FVi/u4zXXldJv0pYWAkyZQASp5SW4VK2HJ7jUnDnYNnDhI7cSYscPTgkFnk9+j1qN/yeV25RaHtnZsPV0+LqV7HOkj2fqK73bpknB6umySI17CWzttNo/7yHL33yHOPQIuPgl3Q/Rbs/xZnrKM+BW+iym3ZBUncVofbyddsZJsJ09tSfxcV5yeTVglKz8wdvXFuZUOnzOSpPJXPnAS3mK9NjbfPJbbXV8+I7izBsVtPX2W574jnxFOrBFnhKueWZ74IzkTb2byRnkqfCZ+y6najvX0no36ZJd0W6v32smGnc3jPrL0/73XQlDImYmd4Sie5IzPiDPCV3LtcOXzfymnD4aHf/F7W+tftR2T3krlkJ22dMkex3kJH9mFt/J2IQDMHjRtkFXf//kfnqD0B70XW7aZ+kacEa5ckqv8+/rJ36UOjrYW2Z07q8/4thxvu05Ob/f0nm3Gz/vjMVrfiudY0u8sBEjtYCfHnn3V9yz+atzZfu/E7Y3T/4WtPYhSDT2e21xXDLf19J6t9XUO2Kjd47Qx1Z6Rjy0EOe1O+o7f2T5nx9eYIXdyuf+q3h4ws/4zfi1ntu28VZ363afXTrbKDpY28v0vvvyBczhvNboAAAAASUVORK5CYII=;" vertex="1" parent="1">
          <mxGeometry x="650" y="600" width="34" height="97.44" as="geometry" />
        </mxCell>
        <mxCell id="9RCpdgvjtAtGVtdAYFdB-12" value="" style="ellipse;whiteSpace=wrap;html=1;aspect=fixed;" vertex="1" parent="1">
          <mxGeometry x="500" y="697.44" width="40" height="40" as="geometry" />
        </mxCell>
        <mxCell id="9RCpdgvjtAtGVtdAYFdB-15" value="" style="shape=image;verticalLabelPosition=bottom;labelBackgroundColor=default;verticalAlign=top;aspect=fixed;imageAspect=0;image=data:image/png,iVBORw0KGgoAAAANSUhEUgAAAKgAAAEsCAMAAABgwwj8AAAAflBMVEX///8AAAD6+vp3d3fU1NTj4+OAgIDq6ur4+Pj19fXc3Nzv7++ioqLn5+enp6eurq5vb285OTnFxcVZWVmTk5NhYWG1tbVTU1OOjo7KyspMTExGRkYqKioNDQ2EhIQ/Pz+ampoVFRVpaWktLS0dHR2+vr60tLQcHBw7OzsyMjLprgqHAAAKc0lEQVR4nNVda0PiSgylgrgqCgvqLrJKEd11//8fvBRweTTJZDJ59J7PUA7TTh4nybTXU8NN/bh+qVaLyehG76IGeKwOeKkvoukgmE6qU/yKZgTgdvxYtTG7i+Z1jgHAcoe3aTS3E7yiRDfP6qhDzyrBs8GwK48Afue/8DOa4g7Und+jjua4xUuaaHUVTXKDSwbP6i2a5QYjDtEuLOmMRbQfTTNpnL7wLZrnmEl0FE2UyTM8RmHt+QbRD+kdl2gwz94Fi+X64zWaKO8ZvY5mucEbh2gdzXKDew7R6J3U4IpDdBjNssGaQTTc2jdghKPVIJpkgycG0WiOW9ykeX5Ec9ziOk10Hs1xhzTRLlinHss3RVPcgUH0MprjFowstBvKDmNFO2HwOUTjg7wez9lPokk2+Mkg+iOa5Aa3DJ7V92iWGyw5RDtgSPtpksu7b/GpCOcBvY0mucGQwbML0f0PBs8u6HjPHJ6zaJZcvTHezTP2e4NomkyhOT5mnvN4VtFlZpbs0IUF/cPjGV4Jg4rJZ3i8nw/Cy6AMYawDZp4lhz9Hc9ziF+PGR3NswImYulBSZJUXurCirJCpA6EIQ7yr4stfPXYsEm5CuSXFp2ie3GAkPEHm2KYtogPmv1yif2N58kqfHVhS7iNaRT+lzARki9DiEqtEu0eod2JG9jsExqQZe6kKTUTS/YIniCPK7R3aYxxGlKPeHeEljOj3PKLVfRTRTJ5h0R4vaD5GUN0mcy81iNGezmcCGIipMOXzjFnSjNDpgAg970FCNKJ6w9DwAARoEe8iogE9OjKe/vuJK4e34VwKzYzxjuDcAPEhJuocmAoc6Bd8k3yZGd3BtcScGTWfwrNFKydVbsEzd+ZVkzE45k+fRUSridvdZ1RtaMycRJ4slQTG0qXltZznBjOHdE+FqMf21yHqoPBqEa2WxnGfGtGNqTKdwFMkamv/VYlWSzuZV5eoXeMzY4IhE2sbT8Vqvc3Em0XSL8/tKLzqeyr2BGgm1B9VeRKagrKpEklkPLz81iRakC2nsVJsRPhtSXSzqmoPQG1LtFKrobB7HwAsOaOOGzxoqFQCAf8fFr07VrtUVfXLQ8CSbLlpMpgz5dVFaWCdW7U7xq5fizXm3Hy6zAQI9eYt9kXRC64q9F6yqgU8D7rjJWvIoCo6LEqFaK835Zxo02D5Wo/Gku5jJaK5Bvktd2m/qRHtXedZumFeJlgUN6/OLnaTZ0LqHKJFcXNbGucMux+wzljUorgZaiLPcsnvfKJF4ShYZrzNKVnyC5V59+oMSIl5kCG5sl1ASU0Eb9XietWq+sMlKist74FHmmyvyj72oIQnWWDmelVmh0JZskxLIlNWvMPsmC/LmFKCyNPxrlpeXoFRNo8os/0eQfr6g+YHnvuT5Y9t6nw7f1qcXKG/ZA70cA6iQbFk/cTVWfhxtM2GF70LnkyZ1zh6DmG9fm9oXn5mSKlleo40Xh/1X0fTPMGXb5jbePBsIy3IlWtHmiV10PNQ1BYFe8m3l0i+l5zbnMV7yfskFalfcm/IZQ8HncJ/jFW4oO7nVOQ3YQcRlcZ47ocSMfXiFtynWhZpTiAevIkKeVa1M0/2qa3n8D7hS1wK855pEWsP3vNM4nqId7+4lKf3DKu8R8N5MlQuODq/AyFnuvYUzv33cpHEl6c0GM3Ss1UgXlDnuRtpMOoePMnFe+cDK+SdD87Widm60Aa7PKAE8YI6B3nyGqgvT7kD9U5BxQ70/6LmuL/yROxAvceWxTydw9GSip2rCy1pxnQNSkqq364PaUn12/VQjVUBUc/dVNbt5HjvC1vF/Q4BKGxs9gugpBLuHrz6twbEUfMebve+kKfbvS8eDfIq2ZbPhzgpj+XTDE5LWjIksIfPvHpRn9seLme9KcxV+7xKiNuMTsFJ2LkdTMf1cMbtSQfgrOkVMHUt4vDeHoLAkWdZC6Ffgi/Xcreo3YgWnVBS+fU+pUKTtP9yIproevpM59S1D9GE2Z8yjIILz0RjXqOAJ9Vel/JtIijd2vNUT5yLqpsgsftQ4uYvPIjSm3rfiZOYInJJR2m39FVBpgfUXCITctMfBiPopl2PvJkkcDjEid5zDgd6k47+WAajHxF7N0rO8RznGbS9tW9/owYO1yefpA/WMydK/fhZPkSWesxPTM1YJXo/GfOk6jf1+YdJHcBYKKf2UqtdiPRPtkke1ZIJPHXU37Ld91RxGTixj0oGbMvNhDYOdtkTEUxtSpQI38BgmLD6pjyJPY8on3gUZbqZiGID1heMfsHyVUiUU8S+gycEdqclyvYw+hW7hi3K0eC/it4Gs8ID5bqpCSBMojSr4VLTtdTqoLUUI29PtTnSPQMr5FtGTSbYzzWgbSLWiGIzMUYVw1JNGFhWYEKUWtDU/sW2oUUbOdVHlM59EcNmsZuo/Cf9e4i8ZxCSUjaUo88g2q4+UcopseQZ+KvqERSlzPKsIfKMa28nSptjXgLW1rRjPUKa486nIRmp7ssG8gN7AEj6pOqeCDU8I1ZDoijNkUG8VJejcWMN54q1UXxBs2ROxMbpJfh4733ea4qxVEbNRuGHfWRK8cizrlV1wnO67MgXifeUOnfwgdXsSyF2Tqeag1cXBIcDI8ZUJd5DbZOoBLMCL6XhSfG2ZlEFBokX63KiqH4grBYg5afy/YTqYlLpCL7aZylP1DaJj9lG3EdpWoLFIwUVd8R/FBYdsVfxFDxTiApdVsfFqiB1yUWn8DWLGjYRA10Yl8M3v8g/IQtaqsHCVy24IHKTioNy2OwXOFI41FVoqAbrVfKCM5LOa1QJwLxWfGE4nVdpAwPNSS29Gpg35qUfKMAYQriksLPTaluBnn+hH4UjUS1RE3RQskuBPPXa1aAbJpojwkRmtewWaDsQHRGCZcl6vVUrnYsjPBWJAnljnX8VtH1E8SWKQMyTfxFUttcsX7cdVL5/RgIS3RFkQJHIruVipTolz7QHUC55z1S0sLZK5UoGFJ1kRRNof41yMy0oR8H63k0fOsAUW1D1hm+wVrZuJ4/zRmFoZ4BoPq/fYAEf1n6qGzx9rVvrwUOVHHWemFz4+M8MXhzFxS0jjvnPWp8o2mq4Tc3uno6DuHbQgjWQmPSlY3evOo/cgc2EfNOm/Yt7qAjgtbAqrU1DHfNoCci7Ao5+NRybNc+zzrUEXSKw6S2nJjjz8HDWD2x605fOp5cUSVKAT35aHs0onSkD7rzxCD99MtcKUeVA/2k83UFNH6HBNKyNGU/04cP7NfYVz8avA9DHFFc8sLtgPNIHByd/8eXBO0iMz0OBIjaqRE40+RufI3luTScPZGpOHElhavTbUgLtDEnba3xS29m58In3OFFEjU/vOA2hE/cv8W5ERUGnjVP/lAiDUgc8WE52nbjE1JIk3x/wanjaxJHFSd46xhEkQ7v7/+830lXhNM8NFlYnzezd93fGXeO+e2liE6Rs9xOvhlef6Fa/CEf19tvgGXjIiNOu56PJXmipe/QhdMW9IG3k/vmLwX2/3oUu1yN81k6faBk2tIczQD4xH0GW4vruZv4xHr32Z8tV9fLs/QaOI/wHNcKCNvZFUcYAAAAASUVORK5CYII=;" vertex="1" parent="1">
          <mxGeometry x="505.5" y="679.9999999999999" width="29" height="51.78" as="geometry" />
        </mxCell>
        <mxCell id="9RCpdgvjtAtGVtdAYFdB-16" value="Goal" style="text;html=1;align=center;verticalAlign=middle;resizable=0;points=[];autosize=1;strokeColor=none;fillColor=none;" vertex="1" parent="1">
          <mxGeometry x="717" y="530" width="50" height="30" as="geometry" />
        </mxCell>
      </root>
    </mxGraphModel>
  </diagram>
</mxfile>
